<?xml version="1.0" encoding="utf-8" standalone="no"?>
<!DOCTYPE svg PUBLIC "-//W3C//DTD SVG 1.1//EN" "http://www.w3.org/Graphics/SVG/1.1/DTD/svg11.dtd">
<svg width="3000px" height="3000px" version="1.1" xmlns="http://www.w3.org/2000/svg" xmlns:xlink="http://www.w3.org/1999/xlink">
<g id="ideograms">
<path d="M1500.000,705.000 A795.000,795.000 40.000 0,1 1527.847,705.488 L1533.101,555.580 A945.000,945.000 0.000 0,0 1500.000,555.000 Z" style="stroke-linecap:round;fill:rgb(0,0,0);" />
<text x="1532.4" y="505.5" font-size="39.0px" font-family="CMUBright-Roman" style="text-anchor:start;fill:rgb(0,0,0);" transform="rotate(271.0,1532.4,505.5)" >Women's-Studies</text>
<path d="M1548.295,706.468 A795.000,795.000 40.000 0,1 1562.188,707.436 L1573.921,557.896 A945.000,945.000 0.000 0,0 1557.407,556.745 Z" style="stroke-linecap:round;fill:rgb(0,0,0);" />
<text x="1583.6" y="508.5" font-size="39.0px" font-family="CMUBright-Roman" style="text-anchor:start;fill:rgb(0,0,0);" transform="rotate(274.0,1583.6,508.5)" >Theatre</text>
<path d="M1582.574,709.300 A795.000,795.000 40.000 0,1 1817.340,771.083 L1877.215,633.551 A945.000,945.000 0.000 0,0 1598.154,560.111 Z" style="stroke-linecap:round;fill:rgb(0,0,0);" />
<text x="1770.6" y="542.5" font-size="39.0px" font-family="CMUBright-Roman" style="text-anchor:start;fill:rgb(0,0,0);" transform="rotate(284.7,1770.6,542.5)" >Spanish</text>
<path d="M1836.003,779.495 A795.000,795.000 40.000 0,1 1933.350,833.492 L2015.114,707.736 A945.000,945.000 0.000 0,0 1899.399,643.551 Z" style="stroke-linecap:round;fill:rgb(0,0,0);" />
<text x="1998.3" y="638.8" font-size="39.0px" font-family="CMUBright-Roman" style="text-anchor:start;fill:rgb(0,0,0);" transform="rotate(299.0,1998.3,638.8)" >Sociology-&amp;-Anthropology</text>
<path d="M1950.368,844.871 A795.000,795.000 40.000 0,1 2062.593,938.293 L2168.742,832.311 A945.000,945.000 0.000 0,0 2035.343,721.262 Z" style="stroke-linecap:round;fill:rgb(0,0,0);" />
<text x="2150.3" y="746.9" font-size="39.0px" font-family="CMUBright-Roman" style="text-anchor:start;fill:rgb(0,0,0);" transform="rotate(309.8,2150.3,746.9)" >Sociology</text>
<path d="M2076.869,952.965 A795.000,795.000 40.000 0,1 2086.363,963.154 L2196.997,861.862 A945.000,945.000 0.000 0,0 2185.712,849.751 Z" style="stroke-linecap:round;fill:rgb(0,0,0);" />
<text x="2240.1" y="835.0" font-size="39.0px" font-family="CMUBright-Roman" style="text-anchor:start;fill:rgb(0,0,0);" transform="rotate(317.0,2240.1,835.0)" >Religious-Studies</text>
<path d="M2099.991,978.430 A795.000,795.000 40.000 0,1 2202.253,1127.352 L2334.753,1057.041 A945.000,945.000 0.000 0,0 2213.197,880.020 Z" style="stroke-linecap:round;fill:rgb(0,0,0);" />
<text x="2330.3" y="951.7" font-size="39.0px" font-family="CMUBright-Roman" style="text-anchor:start;fill:rgb(0,0,0);" transform="rotate(325.5,2330.3,951.7)" >Psychology</text>
<path d="M2211.615,1145.557 A795.000,795.000 40.000 0,1 2284.292,1369.957 L2432.272,1345.421 A945.000,945.000 0.000 0,0 2345.882,1078.681 Z" style="stroke-linecap:round;fill:rgb(0,0,0);" />
<text x="2451.1" y="1207.7" font-size="39.0px" font-family="CMUBright-Roman" style="text-anchor:start;fill:rgb(0,0,0);" transform="rotate(342.1,2451.1,1207.7)" >Political-Science</text>
<path d="M2287.380,1390.194 A795.000,795.000 40.000 0,1 2292.061,1431.706 L2441.507,1418.820 A945.000,945.000 0.000 0,0 2435.943,1369.476 Z" style="stroke-linecap:round;fill:rgb(0,0,0);" />
<text x="2490.6" y="1406.4" font-size="39.0px" font-family="CMUBright-Roman" style="text-anchor:start;fill:rgb(0,0,0);" transform="rotate(353.6,2490.6,1406.4)" >Physics</text>
<path d="M2293.557,1452.122 A795.000,795.000 40.000 0,1 2293.858,1542.594 L2443.643,1550.631 A945.000,945.000 0.000 0,0 2443.285,1443.088 Z" style="stroke-linecap:round;fill:rgb(0,0,0);" />
<text x="2494.9" y="1514.7" font-size="39.0px" font-family="CMUBright-Roman" style="text-anchor:start;fill:rgb(0,0,0);" transform="rotate(359.8,2494.9,1514.7)" >Philosophy</text>
<path d="M2292.498,1563.021 A795.000,795.000 40.000 0,1 2291.916,1569.959 L2441.334,1583.159 A945.000,945.000 0.000 0,0 2442.026,1574.911 Z" style="stroke-linecap:round;fill:rgb(0,0,0);" />
<text x="2490.2" y="1597.7" font-size="39.0px" font-family="CMUBright-Roman" style="text-anchor:start;fill:rgb(0,0,0);" transform="rotate(4.8,2490.2,1597.7)" >Performance-Buisiness</text>
<path d="M2289.852,1590.326 A795.000,795.000 40.000 0,1 2278.923,1659.073 L2425.889,1689.087 A945.000,945.000 0.000 0,0 2438.881,1607.369 Z" style="stroke-linecap:round;fill:rgb(0,0,0);" />
<text x="2480.3" y="1670.5" font-size="39.0px" font-family="CMUBright-Roman" style="text-anchor:start;fill:rgb(0,0,0);" transform="rotate(9.0,2480.3,1670.5)" >Performance.Music</text>
<path d="M2274.569,1679.076 A795.000,795.000 40.000 0,1 2269.597,1699.364 L2414.803,1736.980 A945.000,945.000 0.000 0,0 2420.714,1712.864 Z" style="stroke-linecap:round;fill:rgb(0,0,0);" />
<text x="2462.0" y="1754.3" font-size="39.0px" font-family="CMUBright-Roman" style="text-anchor:start;fill:rgb(0,0,0);" transform="rotate(13.8,2462.0,1754.3)" >Performance.Double-Major</text>
<path d="M2264.208,1719.114 A795.000,795.000 40.000 0,1 2260.253,1732.467 L2403.697,1776.328 A945.000,945.000 0.000 0,0 2408.398,1760.456 Z" style="stroke-linecap:round;fill:rgb(0,0,0);" />
<text x="2449.8" y="1796.5" font-size="39.0px" font-family="CMUBright-Roman" style="text-anchor:start;fill:rgb(0,0,0);" transform="rotate(16.5,2449.8,1796.5)" >Music-Business</text>
<path d="M2254.015,1751.964 A795.000,795.000 40.000 0,1 2249.486,1765.134 L2390.898,1815.159 A945.000,945.000 0.000 0,0 2396.282,1799.505 Z" style="stroke-linecap:round;fill:rgb(0,0,0);" />
<text x="2434.2" y="1842.5" font-size="39.0px" font-family="CMUBright-Roman" style="text-anchor:start;fill:rgb(0,0,0);" transform="rotate(19.0,2434.2,1842.5)" >Music-Ed.Instrumental/General</text>
<path d="M2242.411,1784.343 A795.000,795.000 40.000 0,1 2234.684,1803.751 L2373.304,1861.062 A945.000,945.000 0.000 0,0 2382.488,1837.993 Z" style="stroke-linecap:round;fill:rgb(0,0,0);" />
<text x="2416.8" y="1886.6" font-size="39.0px" font-family="CMUBright-Roman" style="text-anchor:start;fill:rgb(0,0,0);" transform="rotate(21.7,2416.8,1886.6)" >Music-Ed.Choral/General</text>
<path d="M2226.619,1822.567 A795.000,795.000 40.000 0,1 2217.894,1841.546 L2353.345,1905.989 A945.000,945.000 0.000 0,0 2363.717,1883.428 Z" style="stroke-linecap:round;fill:rgb(0,0,0);" />
<text x="2396.4" y="1931.9" font-size="39.0px" font-family="CMUBright-Roman" style="text-anchor:start;fill:rgb(0,0,0);" transform="rotate(24.7,2396.4,1931.9)" >Music.Double-Major</text>
<path d="M2208.862,1859.917 A795.000,795.000 40.000 0,1 2205.682,1866.112 L2338.830,1935.190 A945.000,945.000 0.000 0,0 2342.609,1927.826 Z" style="stroke-linecap:round;fill:rgb(0,0,0);" />
<text x="2378.5" y="1967.2" font-size="39.0px" font-family="CMUBright-Roman" style="text-anchor:start;fill:rgb(0,0,0);" transform="rotate(27.2,2378.5,1967.2)" >Music.BMA</text>
<path d="M2196.021,1884.160 A795.000,795.000 40.000 0,1 2192.630,1890.242 L2323.315,1963.872 A945.000,945.000 0.000 0,0 2327.346,1956.643 Z" style="stroke-linecap:round;fill:rgb(0,0,0);" />
<text x="2361.9" y="1997.2" font-size="39.0px" font-family="CMUBright-Roman" style="text-anchor:start;fill:rgb(0,0,0);" transform="rotate(29.1,2361.9,1997.2)" >Music.BA</text>
<path d="M2182.352,1907.946 A795.000,795.000 40.000 0,1 2144.051,1966.072 L2265.571,2054.010 A945.000,945.000 0.000 0,0 2311.098,1984.917 Z" style="stroke-linecap:round;fill:rgb(0,0,0);" />
<text x="2322.8" y="2059.5" font-size="39.0px" font-family="CMUBright-Roman" style="text-anchor:start;fill:rgb(0,0,0);" transform="rotate(33.4,2322.8,2059.5)" >Mathematics</text>
<path d="M2131.838,1982.500 A795.000,795.000 40.000 0,1 2118.943,1998.934 L2235.724,2093.072 A945.000,945.000 0.000 0,0 2251.052,2073.538 Z" style="stroke-linecap:round;fill:rgb(0,0,0);" />
<text x="2273.8" y="2125.6" font-size="39.0px" font-family="CMUBright-Roman" style="text-anchor:start;fill:rgb(0,0,0);" transform="rotate(38.1,2273.8,2125.6)" >Latin</text>
<path d="M2105.891,2014.705 A795.000,795.000 40.000 0,1 2096.782,2025.239 L2209.382,2124.341 A945.000,945.000 0.000 0,0 2220.210,2111.819 Z" style="stroke-linecap:round;fill:rgb(0,0,0);" />
<text x="2239.4" y="2165.8" font-size="39.0px" font-family="CMUBright-Roman" style="text-anchor:start;fill:rgb(0,0,0);" transform="rotate(40.8,2239.4,2165.8)" >Kinesiology.Sports/Exercises</text>
<path d="M2083.060,2040.431 A795.000,795.000 40.000 0,1 2073.504,2050.561 L2181.713,2154.441 A945.000,945.000 0.000 0,0 2193.072,2142.399 Z" style="stroke-linecap:round;fill:rgb(0,0,0);" />
<text x="2211.3" y="2195.7" font-size="39.0px" font-family="CMUBright-Roman" style="text-anchor:start;fill:rgb(0,0,0);" transform="rotate(43.3,2211.3,2195.7)" >Kinesiology.Sports-Science</text>
<path d="M2059.138,2065.145 A795.000,795.000 40.000 0,1 2038.999,2084.384 L2140.697,2194.645 A945.000,945.000 0.000 0,0 2164.636,2171.777 Z" style="stroke-linecap:round;fill:rgb(0,0,0);" />
<text x="2174.2" y="2231.8" font-size="39.0px" font-family="CMUBright-Roman" style="text-anchor:start;fill:rgb(0,0,0);" transform="rotate(46.3,2174.2,2231.8)" >Kinesiology.Sports-Med</text>
<path d="M2023.774,2098.068 A795.000,795.000 40.000 0,1 2002.504,2116.048 L2097.316,2232.283 A945.000,945.000 0.000 0,0 2122.599,2210.911 Z" style="stroke-linecap:round;fill:rgb(0,0,0);" />
<text x="2128.5" y="2271.4" font-size="39.0px" font-family="CMUBright-Roman" style="text-anchor:start;fill:rgb(0,0,0);" transform="rotate(49.8,2128.5,2271.4)" >Kinesiology.Athletic-Training</text>
<path d="M1986.475,2128.782 A795.000,795.000 40.000 0,1 1875.597,2200.680 L1946.464,2332.883 A945.000,945.000 0.000 0,0 2078.263,2247.420 Z" style="stroke-linecap:round;fill:rgb(0,0,0);" />
<text x="2026.2" y="2344.5" font-size="39.0px" font-family="CMUBright-Roman" style="text-anchor:start;fill:rgb(0,0,0);" transform="rotate(57.0,2026.2,2344.5)" >History</text>
<path d="M1857.431,2210.118 A795.000,795.000 40.000 0,1 1844.938,2216.270 L1910.020,2351.416 A945.000,945.000 0.000 0,0 1924.871,2344.103 Z" style="stroke-linecap:round;fill:rgb(0,0,0);" />
<text x="1926.0" y="2399.2" font-size="39.0px" font-family="CMUBright-Roman" style="text-anchor:start;fill:rgb(0,0,0);" transform="rotate(63.8,1926.0,2399.2)" >German</text>
<path d="M1826.381,2224.914 A795.000,795.000 40.000 0,1 1807.222,2233.239 L1865.189,2371.586 A945.000,945.000 0.000 0,0 1887.962,2361.690 Z" style="stroke-linecap:round;fill:rgb(0,0,0);" />
<text x="1880.0" y="2419.6" font-size="39.0px" font-family="CMUBright-Roman" style="text-anchor:start;fill:rgb(0,0,0);" transform="rotate(66.5,1880.0,2419.6)" >Geology</text>
<path d="M1788.241,2240.906 A795.000,795.000 40.000 0,1 1702.194,2268.858 L1740.344,2413.925 A945.000,945.000 0.000 0,0 1842.626,2380.700 Z" style="stroke-linecap:round;fill:rgb(0,0,0);" />
<text x="1793.6" y="2450.7" font-size="39.0px" font-family="CMUBright-Roman" style="text-anchor:start;fill:rgb(0,0,0);" transform="rotate(72.0,1793.6,2450.7)" >French</text>
<path d="M1682.331,2273.809 A795.000,795.000 40.000 0,1 1668.748,2276.884 L1700.587,2423.466 A945.000,945.000 0.000 0,0 1716.733,2419.811 Z" style="stroke-linecap:round;fill:rgb(0,0,0);" />
<text x="1705.1" y="2473.6" font-size="39.0px" font-family="CMUBright-Roman" style="text-anchor:start;fill:rgb(0,0,0);" transform="rotate(77.2,1705.1,2473.6)" >Environmental-Geoscience</text>
<path d="M1648.689,2280.972 A795.000,795.000 40.000 0,1 1269.932,2260.982 L1226.523,2404.564 A945.000,945.000 0.000 0,0 1676.744,2428.325 Z" style="stroke-linecap:round;fill:rgb(0,0,0);" />
<text x="1465.5" y="2494.4" font-size="39.0px" font-family="CMUBright-Roman" style="text-anchor:end;fill:rgb(0,0,0);" transform="rotate(-87.0,1465.5,2494.4)" >English-Writing</text>
<path d="M1250.414,2254.806 A795.000,795.000 40.000 0,1 1110.486,2193.040 L1036.993,2323.802 A945.000,945.000 0.000 0,0 1203.323,2397.222 Z" style="stroke-linecap:round;fill:rgb(0,0,0);" />
<text x="1114.7" y="2417.4" font-size="39.0px" font-family="CMUBright-Roman" style="text-anchor:end;fill:rgb(0,0,0);" transform="rotate(-66.2,1114.7,2417.4)" >English-Literature</text>
<path d="M1092.771,2182.781 A795.000,795.000 40.000 0,1 1006.834,2123.548 L913.784,2241.199 A945.000,945.000 0.000 0,0 1015.936,2311.607 Z" style="stroke-linecap:round;fill:rgb(0,0,0);" />
<text x="950.2" y="2329.3" font-size="39.0px" font-family="CMUBright-Roman" style="text-anchor:end;fill:rgb(0,0,0);" transform="rotate(-55.4,950.2,2329.3)" >Elementary-Education</text>
<path d="M990.942,2110.643 A795.000,795.000 40.000 0,1 763.310,1798.854 L624.312,1855.241 A945.000,945.000 0.000 0,0 894.894,2225.859 Z" style="stroke-linecap:round;fill:rgb(0,0,0);" />
<text x="705.0" y="2098.4" font-size="39.0px" font-family="CMUBright-Roman" style="text-anchor:end;fill:rgb(0,0,0);" transform="rotate(-36.1,705.0,2098.4)" >Economics</text>
<path d="M755.860,1779.786 A795.000,795.000 40.000 0,1 736.138,1720.318 L592.013,1761.888 A945.000,945.000 0.000 0,0 615.456,1832.576 Z" style="stroke-linecap:round;fill:rgb(0,0,0);" />
<text x="560.4" y="1827.4" font-size="39.0px" font-family="CMUBright-Roman" style="text-anchor:end;fill:rgb(0,0,0);" transform="rotate(-18.3,560.4,1827.4)" >Conflict-Studies</text>
<path d="M730.719,1700.578 A795.000,795.000 40.000 0,1 709.300,1417.426 L560.111,1401.846 A945.000,945.000 0.000 0,0 585.571,1738.422 Z" style="stroke-linecap:round;fill:rgb(0,0,0);" />
<text x="509.4" y="1593.0" font-size="39.0px" font-family="CMUBright-Roman" style="text-anchor:end;fill:rgb(0,0,0);" transform="rotate(-4.3,509.4,1593.0)" >Computer-Science</text>
<path d="M711.688,1397.095 A795.000,795.000 40.000 0,1 869.687,1015.510 L750.760,924.097 A945.000,945.000 0.000 0,0 562.950,1377.679 Z" style="stroke-linecap:round;fill:rgb(0,0,0);" />
<text x="575.1" y="1133.3" font-size="39.0px" font-family="CMUBright-Roman" style="text-anchor:end;fill:rgb(0,0,0);" transform="rotate(22.5,575.1,1133.3)" >Communication</text>
<path d="M882.371,999.441 A795.000,795.000 40.000 0,1 914.202,962.538 L803.674,861.130 A945.000,945.000 0.000 0,0 765.837,904.996 Z" style="stroke-linecap:round;fill:rgb(0,0,0);" />
<text x="736.8" y="861.5" font-size="39.0px" font-family="CMUBright-Roman" style="text-anchor:end;fill:rgb(0,0,0);" transform="rotate(40.8,736.8,861.5)" >Classical-Civilization</text>
<path d="M928.235,947.633 A795.000,795.000 40.000 0,1 942.944,932.802 L837.840,825.783 A945.000,945.000 0.000 0,0 820.354,843.413 Z" style="stroke-linecap:round;fill:rgb(0,0,0);" />
<text x="781.0" y="812.2" font-size="39.0px" font-family="CMUBright-Roman" style="text-anchor:end;fill:rgb(0,0,0);" transform="rotate(44.8,781.0,812.2)" >Chemistry</text>
<path d="M957.733,918.647 A795.000,795.000 40.000 0,1 1139.711,791.328 L1071.731,657.616 A945.000,945.000 0.000 0,0 855.419,808.957 Z" style="stroke-linecap:round;fill:rgb(0,0,0);" />
<text x="914.9" y="695.2" font-size="39.0px" font-family="CMUBright-Roman" style="text-anchor:end;fill:rgb(0,0,0);" transform="rotate(55.0,914.9,695.2)" >Biology</text>
<path d="M1158.077,782.286 A795.000,795.000 40.000 0,1 1248.432,745.852 L1200.966,603.561 A945.000,945.000 0.000 0,0 1093.563,646.868 Z" style="stroke-linecap:round;fill:rgb(0,0,0);" />
<text x="1111.3" y="584.1" font-size="39.0px" font-family="CMUBright-Roman" style="text-anchor:end;fill:rgb(0,0,0);" transform="rotate(68.0,1111.3,584.1)" >Biochemistry</text>
<path d="M1267.933,739.625 A795.000,795.000 40.000 0,1 1301.445,730.194 L1263.981,584.948 A945.000,945.000 0.000 0,0 1224.147,596.158 Z" style="stroke-linecap:round;fill:rgb(0,0,0);" />
<text x="1216.0" y="546.4" font-size="39.0px" font-family="CMUBright-Roman" style="text-anchor:end;fill:rgb(0,0,0);" transform="rotate(74.3,1216.0,546.4)" >Art-Studio</text>
<path d="M1321.331,725.337 A795.000,795.000 40.000 0,1 1403.588,710.868 L1385.398,561.975 A945.000,945.000 0.000 0,0 1287.620,579.174 Z" style="stroke-linecap:round;fill:rgb(0,0,0);" />
<text x="1309.9" y="523.3" font-size="39.0px" font-family="CMUBright-Roman" style="text-anchor:end;fill:rgb(0,0,0);" transform="rotate(80.0,1309.9,523.3)" >Art-History</text>
<path d="M1423.939,708.647 A795.000,795.000 40.000 0,1 1479.530,705.264 L1475.668,555.313 A945.000,945.000 0.000 0,0 1409.588,559.335 Z" style="stroke-linecap:round;fill:rgb(0,0,0);" />
<text x="1421.6" y="508.1" font-size="39.0px" font-family="CMUBright-Roman" style="text-anchor:end;fill:rgb(0,0,0);" transform="rotate(86.5,1421.6,508.1)" >Anthropology</text>
</g>
<g id="track_0">
</g>
<g id="plot0">
<g id="plot0-axis">
</g>
<path d="M1423.939,708.647 A795.000,795.000 40.000 0,1 1430.873,708.011 L1417.830,558.579 A945.000,945.000 0.000 0,0 1409.588,559.335 Z" style="stroke-linecap:round;fill:rgb(0,0,0);" />
<path d="M 1437.81,707.44 L 1426.08,557.90 " style="stroke-linecap:round;fill:rgb(0,0,0);" />
<path d="M 1444.76,706.92 L 1434.33,557.28 " style="stroke-linecap:round;fill:rgb(0,0,0);" />
<path d="M1321.331,725.337 A795.000,795.000 40.000 0,1 1328.123,723.802 L1295.694,577.350 A945.000,945.000 0.000 0,0 1287.620,579.174 Z" style="stroke-linecap:round;fill:rgb(0,0,0);" />
<path d="M1334.928,722.326 A795.000,795.000 40.000 0,1 1341.746,720.910 L1311.887,573.912 A945.000,945.000 0.000 0,0 1303.783,575.595 Z" style="stroke-linecap:round;fill:rgb(0,0,0);" />
<path d="M 1348.58,719.55 L 1320.01,572.30 " style="stroke-linecap:round;fill:rgb(0,0,0);" />
<path d="M1267.933,739.625 A795.000,795.000 40.000 0,1 1274.602,737.622 L1232.074,593.777 A945.000,945.000 0.000 0,0 1224.147,596.158 Z" style="stroke-linecap:round;fill:rgb(0,0,0);" />
<path d="M1158.077,782.286 A795.000,795.000 40.000 0,1 1164.376,779.319 L1101.051,643.341 A945.000,945.000 0.000 0,0 1093.563,646.868 Z" style="stroke-linecap:round;fill:rgb(0,0,0);" />
<path d="M 1170.70,776.41 L 1108.57,639.88 " style="stroke-linecap:round;fill:rgb(0,0,0);" />
<path d="M 1177.05,773.55 L 1116.12,636.48 " style="stroke-linecap:round;fill:rgb(0,0,0);" />
<path d="M957.733,918.647 A795.000,795.000 40.000 0,1 962.846,913.919 L861.496,803.338 A945.000,945.000 0.000 0,0 855.419,808.957 Z" style="stroke-linecap:round;fill:rgb(0,0,0);" />
<path d="M968.000,909.237 A795.000,795.000 40.000 0,1 973.194,904.600 L873.797,792.261 A945.000,945.000 0.000 0,0 867.622,797.772 Z" style="stroke-linecap:round;fill:rgb(0,0,0);" />
<path d="M978.430,900.009 A795.000,795.000 40.000 0,1 983.705,895.464 L886.290,781.400 A945.000,945.000 0.000 0,0 880.020,786.803 Z" style="stroke-linecap:round;fill:rgb(0,0,0);" />
<path d="M755.860,1779.786 A795.000,795.000 40.000 0,1 753.438,1773.258 L612.577,1824.816 A945.000,945.000 0.000 0,0 615.456,1832.576 Z" style="stroke-linecap:round;fill:rgb(0,0,0);" />
<path d="M 751.07,1766.71 L 609.77,1817.03 " style="stroke-linecap:round;fill:rgb(0,0,0);" />
<path d="M748.766,1760.139 A795.000,795.000 40.000 0,1 746.516,1753.549 L604.349,1801.388 A945.000,945.000 0.000 0,0 607.023,1809.221 Z" style="stroke-linecap:round;fill:rgb(0,0,0);" />
<path d="M928.235,947.633 A795.000,795.000 40.000 0,1 933.094,942.646 L826.131,837.485 A945.000,945.000 0.000 0,0 820.354,843.413 Z" style="stroke-linecap:round;fill:rgb(0,0,0);" />
<path d="M882.371,999.441 A795.000,795.000 40.000 0,1 886.778,994.051 L771.076,898.589 A945.000,945.000 0.000 0,0 765.837,904.996 Z" style="stroke-linecap:round;fill:rgb(0,0,0);" />
<path d="M 891.23,988.70 L 776.37,892.23 " style="stroke-linecap:round;fill:rgb(0,0,0);" />
<path d="M711.688,1397.095 A795.000,795.000 40.000 0,1 712.620,1390.194 L564.057,1369.476 A945.000,945.000 0.000 0,0 562.950,1377.679 Z" style="stroke-linecap:round;fill:rgb(0,0,0);" />
<path d="M 713.61,1383.30 L 565.24,1361.28 " style="stroke-linecap:round;fill:rgb(0,0,0);" />
<path d="M714.664,1376.419 A795.000,795.000 40.000 0,1 715.777,1369.545 L567.810,1344.931 A945.000,945.000 0.000 0,0 566.487,1353.101 Z" style="stroke-linecap:round;fill:rgb(0,0,0);" />
<path d="M716.949,1362.681 A795.000,795.000 40.000 0,1 718.182,1355.828 L570.669,1328.626 A945.000,945.000 0.000 0,0 569.204,1336.772 Z" style="stroke-linecap:round;fill:rgb(0,0,0);" />
<path d="M719.475,1348.986 A795.000,795.000 40.000 0,1 723.712,1328.531 L577.242,1296.178 A945.000,945.000 0.000 0,0 572.206,1320.493 Z" style="stroke-linecap:round;fill:rgb(0,0,0);" />
<path d="M730.719,1700.578 A795.000,795.000 40.000 0,1 728.991,1693.832 L583.518,1730.404 A945.000,945.000 0.000 0,0 585.571,1738.422 Z" style="stroke-linecap:round;fill:rgb(0,0,0);" />
<path d="M 727.32,1687.07 L 581.54,1722.37 " style="stroke-linecap:round;fill:rgb(0,0,0);" />
<path d="M725.714,1680.297 A795.000,795.000 40.000 0,1 724.165,1673.508 L577.781,1706.246 A945.000,945.000 0.000 0,0 579.623,1714.315 Z" style="stroke-linecap:round;fill:rgb(0,0,0);" />
<path d="M 722.68,1666.71 L 576.01,1698.16 " style="stroke-linecap:round;fill:rgb(0,0,0);" />
<path d="M721.245,1659.892 A795.000,795.000 40.000 0,1 717.313,1639.376 L569.636,1665.673 A945.000,945.000 0.000 0,0 574.310,1690.060 Z" style="stroke-linecap:round;fill:rgb(0,0,0);" />
<path d="M716.122,1632.515 A795.000,795.000 40.000 0,1 714.991,1625.644 L566.877,1649.351 A945.000,945.000 0.000 0,0 568.220,1657.518 Z" style="stroke-linecap:round;fill:rgb(0,0,0);" />
<path d="M 713.92,1618.76 L 565.60,1641.17 " style="stroke-linecap:round;fill:rgb(0,0,0);" />
<path d="M712.911,1611.874 A795.000,795.000 40.000 0,1 711.961,1604.976 L563.275,1624.783 A945.000,945.000 0.000 0,0 564.404,1632.983 Z" style="stroke-linecap:round;fill:rgb(0,0,0);" />
<path d="M 711.07,1598.07 L 562.22,1616.57 " style="stroke-linecap:round;fill:rgb(0,0,0);" />
<path d="M 710.24,1591.16 L 561.23,1608.36 " style="stroke-linecap:round;fill:rgb(0,0,0);" />
<path d="M990.942,2110.643 A795.000,795.000 40.000 0,1 985.613,2106.161 L888.559,2220.531 A945.000,945.000 0.000 0,0 894.894,2225.859 Z" style="stroke-linecap:round;fill:rgb(0,0,0);" />
<path d="M980.324,2101.633 A795.000,795.000 40.000 0,1 964.697,2087.771 L863.696,2198.672 A945.000,945.000 0.000 0,0 882.272,2215.148 Z" style="stroke-linecap:round;fill:rgb(0,0,0);" />
<path d="M 959.57,2083.06 L 857.60,2193.07 " style="stroke-linecap:round;fill:rgb(0,0,0);" />
<path d="M 954.48,2078.30 L 851.56,2187.42 " style="stroke-linecap:round;fill:rgb(0,0,0);" />
<path d="M 949.44,2073.50 L 845.56,2181.71 " style="stroke-linecap:round;fill:rgb(0,0,0);" />
<path d="M944.437,2068.660 A795.000,795.000 40.000 0,1 939.477,2063.772 L833.718,2170.145 A945.000,945.000 0.000 0,0 839.613,2175.955 Z" style="stroke-linecap:round;fill:rgb(0,0,0);" />
<path d="M 934.56,2058.84 L 827.87,2164.28 " style="stroke-linecap:round;fill:rgb(0,0,0);" />
<path d="M929.688,2053.867 A795.000,795.000 40.000 0,1 920.074,2043.792 L810.653,2146.395 A945.000,945.000 0.000 0,0 822.082,2158.371 Z" style="stroke-linecap:round;fill:rgb(0,0,0);" />
<path d="M 915.33,2038.69 L 805.02,2140.33 " style="stroke-linecap:round;fill:rgb(0,0,0);" />
<path d="M1092.771,2182.781 A795.000,795.000 40.000 0,1 1086.807,2179.188 L1008.846,2307.337 A945.000,945.000 0.000 0,0 1015.936,2311.607 Z" style="stroke-linecap:round;fill:rgb(0,0,0);" />
<path d="M1250.414,2254.806 A795.000,795.000 40.000 0,1 1243.813,2252.591 L1195.476,2394.589 A945.000,945.000 0.000 0,0 1203.323,2397.222 Z" style="stroke-linecap:round;fill:rgb(0,0,0);" />
<path d="M 1237.23,2250.32 L 1187.65,2391.89 " style="stroke-linecap:round;fill:rgb(0,0,0);" />
<path d="M 1230.67,2247.99 L 1179.85,2389.12 " style="stroke-linecap:round;fill:rgb(0,0,0);" />
<path d="M1648.689,2280.972 A795.000,795.000 40.000 0,1 1641.843,2282.244 L1668.606,2429.837 A945.000,945.000 0.000 0,0 1676.744,2428.325 Z" style="stroke-linecap:round;fill:rgb(0,0,0);" />
<path d="M1634.986,2283.456 A795.000,795.000 40.000 0,1 1628.119,2284.609 L1652.292,2432.648 A945.000,945.000 0.000 0,0 1660.455,2431.278 Z" style="stroke-linecap:round;fill:rgb(0,0,0);" />
<path d="M1621.242,2285.701 A795.000,795.000 40.000 0,1 1614.356,2286.732 L1635.932,2435.172 A945.000,945.000 0.000 0,0 1644.118,2433.946 Z" style="stroke-linecap:round;fill:rgb(0,0,0);" />
<path d="M1607.461,2287.704 A795.000,795.000 40.000 0,1 1600.557,2288.615 L1619.530,2437.410 A945.000,945.000 0.000 0,0 1627.736,2436.327 Z" style="stroke-linecap:round;fill:rgb(0,0,0);" />
<path d="M 1593.65,2289.47 L 1611.32,2438.42 " style="stroke-linecap:round;fill:rgb(0,0,0);" />
<path d="M 1586.73,2290.26 L 1603.09,2439.36 " style="stroke-linecap:round;fill:rgb(0,0,0);" />
<path d="M1579.803,2290.984 A795.000,795.000 40.000 0,1 1572.872,2291.653 L1586.622,2441.022 A945.000,945.000 0.000 0,0 1594.860,2440.227 Z" style="stroke-linecap:round;fill:rgb(0,0,0);" />
<path d="M1565.935,2292.261 A795.000,795.000 40.000 0,1 1558.994,2292.808 L1570.125,2442.395 A945.000,945.000 0.000 0,0 1578.376,2441.744 Z" style="stroke-linecap:round;fill:rgb(0,0,0);" />
<path d="M1788.241,2240.906 A795.000,795.000 40.000 0,1 1775.219,2245.842 L1827.147,2386.566 A945.000,945.000 0.000 0,0 1842.626,2380.700 Z" style="stroke-linecap:round;fill:rgb(0,0,0);" />
<path d="M 1768.68,2248.22 L 1819.37,2389.40 " style="stroke-linecap:round;fill:rgb(0,0,0);" />
<path d="M 1762.11,2250.55 L 1811.57,2392.16 " style="stroke-linecap:round;fill:rgb(0,0,0);" />
<path d="M 1755.53,2252.82 L 1803.74,2394.86 " style="stroke-linecap:round;fill:rgb(0,0,0);" />
<path d="M 1748.92,2255.02 L 1795.89,2397.48 " style="stroke-linecap:round;fill:rgb(0,0,0);" />
<path d="M1826.381,2224.914 A795.000,795.000 40.000 0,1 1820.019,2227.745 L1880.400,2365.055 A945.000,945.000 0.000 0,0 1887.962,2361.690 Z" style="stroke-linecap:round;fill:rgb(0,0,0);" />
<path d="M1857.431,2210.118 A795.000,795.000 40.000 0,1 1851.198,2213.222 L1917.462,2347.792 A945.000,945.000 0.000 0,0 1924.871,2344.103 Z" style="stroke-linecap:round;fill:rgb(0,0,0);" />
<path d="M 1844.94,2216.27 L 1910.02,2351.42 " style="stroke-linecap:round;fill:rgb(0,0,0);" />
<path d="M1986.475,2128.782 A795.000,795.000 40.000 0,1 1980.949,2133.019 L2071.694,2252.456 A945.000,945.000 0.000 0,0 2078.263,2247.420 Z" style="stroke-linecap:round;fill:rgb(0,0,0);" />
<path d="M 1975.39,2137.21 L 2065.08,2257.43 " style="stroke-linecap:round;fill:rgb(0,0,0);" />
<path d="M2059.138,2065.145 A795.000,795.000 40.000 0,1 2054.167,2070.021 L2158.727,2177.572 A945.000,945.000 0.000 0,0 2164.636,2171.777 Z" style="stroke-linecap:round;fill:rgb(0,0,0);" />
<path d="M2105.891,2014.705 A795.000,795.000 40.000 0,1 2101.359,2019.992 L2214.824,2118.104 A945.000,945.000 0.000 0,0 2220.210,2111.819 Z" style="stroke-linecap:round;fill:rgb(0,0,0);" />
<path d="M2131.838,1982.500 A795.000,795.000 40.000 0,1 2127.587,1988.016 L2246.000,2080.094 A945.000,945.000 0.000 0,0 2251.052,2073.538 Z" style="stroke-linecap:round;fill:rgb(0,0,0);" />
<path d="M2182.352,1907.946 A795.000,795.000 40.000 0,1 2175.102,1919.836 L2302.480,1999.050 A945.000,945.000 0.000 0,0 2311.098,1984.917 Z" style="stroke-linecap:round;fill:rgb(0,0,0);" />
<path d="M2171.399,1925.733 A795.000,795.000 40.000 0,1 2167.644,1931.597 L2293.615,2013.031 A945.000,945.000 0.000 0,0 2298.078,2006.060 Z" style="stroke-linecap:round;fill:rgb(0,0,0);" />
<path d="M 2163.84,1937.43 L 2289.09,2019.96 " style="stroke-linecap:round;fill:rgb(0,0,0);" />
<path d="M 2159.98,1943.23 L 2284.51,2026.85 " style="stroke-linecap:round;fill:rgb(0,0,0);" />
<path d="M2226.619,1822.567 A795.000,795.000 40.000 0,1 2223.766,1828.918 L2360.326,1890.979 A945.000,945.000 0.000 0,0 2363.717,1883.428 Z" style="stroke-linecap:round;fill:rgb(0,0,0);" />
<path d="M 2220.86,1835.25 L 2356.87,1898.50 " style="stroke-linecap:round;fill:rgb(0,0,0);" />
<path d="M 2217.89,1841.55 L 2353.35,1905.99 " style="stroke-linecap:round;fill:rgb(0,0,0);" />
<path d="M2274.569,1679.076 A795.000,795.000 40.000 0,1 2272.971,1685.853 L2418.814,1720.920 A945.000,945.000 0.000 0,0 2420.714,1712.864 Z" style="stroke-linecap:round;fill:rgb(0,0,0);" />
<path d="M 2271.31,1692.62 L 2416.84,1728.96 " style="stroke-linecap:round;fill:rgb(0,0,0);" />
<path d="M 2269.60,1699.36 L 2414.80,1736.98 " style="stroke-linecap:round;fill:rgb(0,0,0);" />
<path d="M2293.557,1452.122 A795.000,795.000 40.000 0,1 2293.946,1459.074 L2443.747,1451.353 A945.000,945.000 0.000 0,0 2443.285,1443.088 Z" style="stroke-linecap:round;fill:rgb(0,0,0);" />
<path d="M2287.380,1390.194 A795.000,795.000 40.000 0,1 2288.312,1397.095 L2437.050,1377.679 A945.000,945.000 0.000 0,0 2435.943,1369.476 Z" style="stroke-linecap:round;fill:rgb(0,0,0);" />
<path d="M 2289.18,1404.00 L 2438.09,1385.89 " style="stroke-linecap:round;fill:rgb(0,0,0);" />
<path d="M2211.615,1145.557 A795.000,795.000 40.000 0,1 2214.692,1151.804 L2349.539,1086.106 A945.000,945.000 0.000 0,0 2345.882,1078.681 Z" style="stroke-linecap:round;fill:rgb(0,0,0);" />
<path d="M 2217.71,1158.08 L 2353.13,1093.56 " style="stroke-linecap:round;fill:rgb(0,0,0);" />
<path d="M2220.681,1164.376 A795.000,795.000 40.000 0,1 2226.450,1177.052 L2363.516,1116.118 A945.000,945.000 0.000 0,0 2356.659,1101.051 Z" style="stroke-linecap:round;fill:rgb(0,0,0);" />
<path d="M2229.251,1183.427 A795.000,795.000 40.000 0,1 2231.995,1189.826 L2370.108,1131.303 A945.000,945.000 0.000 0,0 2366.845,1123.696 Z" style="stroke-linecap:round;fill:rgb(0,0,0);" />
<path d="M 2234.68,1196.25 L 2373.30,1138.94 " style="stroke-linecap:round;fill:rgb(0,0,0);" />
<path d="M2237.316,1202.696 A795.000,795.000 40.000 0,1 2239.892,1209.165 L2379.494,1154.290 A945.000,945.000 0.000 0,0 2376.432,1146.601 Z" style="stroke-linecap:round;fill:rgb(0,0,0);" />
<path d="M2099.991,978.430 A795.000,795.000 40.000 0,1 2104.536,983.705 L2218.600,886.290 A945.000,945.000 0.000 0,0 2213.197,880.020 Z" style="stroke-linecap:round;fill:rgb(0,0,0);" />
<path d="M 2109.04,989.02 L 2223.95,892.61 " style="stroke-linecap:round;fill:rgb(0,0,0);" />
<path d="M 2113.49,994.37 L 2229.24,898.97 " style="stroke-linecap:round;fill:rgb(0,0,0);" />
<path d="M2076.869,952.965 A795.000,795.000 40.000 0,1 2081.638,958.039 L2191.381,855.782 A945.000,945.000 0.000 0,0 2185.712,849.751 Z" style="stroke-linecap:round;fill:rgb(0,0,0);" />
<path d="M 2086.36,963.15 L 2197.00,861.86 " style="stroke-linecap:round;fill:rgb(0,0,0);" />
<path d="M1582.574,709.300 A795.000,795.000 40.000 0,1 1589.496,710.054 L1606.382,561.007 A945.000,945.000 0.000 0,0 1598.154,560.111 Z" style="stroke-linecap:round;fill:rgb(0,0,0);" />
<path d="M1596.412,710.868 A795.000,795.000 40.000 0,1 1603.320,711.742 L1622.814,563.015 A945.000,945.000 0.000 0,0 1614.602,561.975 Z" style="stroke-linecap:round;fill:rgb(0,0,0);" />
<path d="M1610.220,712.678 A795.000,795.000 40.000 0,1 1630.867,715.845 L1655.559,567.891 A945.000,945.000 0.000 0,0 1631.016,564.126 Z" style="stroke-linecap:round;fill:rgb(0,0,0);" />
<path d="M 1637.73,717.02 L 1663.72,569.29 " style="stroke-linecap:round;fill:rgb(0,0,0);" />
<path d="M1644.583,718.258 A795.000,795.000 40.000 0,1 1651.424,719.554 L1679.995,572.300 A945.000,945.000 0.000 0,0 1671.863,570.759 Z" style="stroke-linecap:round;fill:rgb(0,0,0);" />
<path d="M 1658.25,720.91 L 1688.11,573.91 " style="stroke-linecap:round;fill:rgb(0,0,0);" />
<path d="M1665.072,722.326 A795.000,795.000 40.000 0,1 1671.877,723.802 L1704.306,577.350 A945.000,945.000 0.000 0,0 1696.217,575.595 Z" style="stroke-linecap:round;fill:rgb(0,0,0);" />
<path d="M 1678.67,725.34 L 1712.38,579.17 " style="stroke-linecap:round;fill:rgb(0,0,0);" />
<path d="M 1685.45,726.93 L 1720.44,581.07 " style="stroke-linecap:round;fill:rgb(0,0,0);" />
<path d="M 1692.21,728.59 L 1728.48,583.04 " style="stroke-linecap:round;fill:rgb(0,0,0);" />
<path d="M1698.960,730.299 A795.000,795.000 40.000 0,1 1705.694,732.071 L1744.504,587.179 A945.000,945.000 0.000 0,0 1736.500,585.072 Z" style="stroke-linecap:round;fill:rgb(0,0,0);" />
<path d="M 1712.41,733.90 L 1752.49,589.36 " style="stroke-linecap:round;fill:rgb(0,0,0);" />
<path d="M 1719.11,735.79 L 1760.46,591.60 " style="stroke-linecap:round;fill:rgb(0,0,0);" />
<path d="M 1725.80,737.74 L 1768.40,593.92 " style="stroke-linecap:round;fill:rgb(0,0,0);" />
<path d="M1500.000,705.000 A795.000,795.000 40.000 0,1 1506.963,705.030 L1508.277,555.036 A945.000,945.000 0.000 0,0 1500.000,555.000 Z" style="stroke-linecap:round;fill:rgb(0,0,0);" />
<path d="M 1513.93,705.12 L 1516.55,555.14 " style="stroke-linecap:round;fill:rgb(0,0,0);" />
</g>
<defs>
<pattern id="vline" width="10" height="10" patternTransform="rotate(0 0 0)" patternUnits="userSpaceOnUse"><line x1="0" y1="0" x2="0" y2="10" style="stroke:black;stroke-width:5" /></pattern>
<pattern id="checker" width="10" height="10" patternTransform="rotate(45 0 0)" patternUnits="userSpaceOnUse"><line x1="0" y1="0" x2="10" y2="0" style="stroke:black;stroke-width:2" /><line x1="0" y1="0" x2="0" y2="10" style="stroke:black;stroke-width:2" /></pattern>
<pattern id="hline-sparse" width="10" height="10" patternTransform="rotate(0 0 0)" patternUnits="userSpaceOnUse"><line x1="0" y1="0" x2="10" y2="0" style="stroke:black;stroke-width:2" /></pattern>
<pattern id="vline-sparse" width="10" height="10" patternTransform="rotate(0 0 0)" patternUnits="userSpaceOnUse"><line x1="0" y1="0" x2="0" y2="10" style="stroke:black;stroke-width:2" /></pattern>
<pattern id="checker" width="10" height="10" patternTransform="rotate(45 0 0)" patternUnits="userSpaceOnUse"><line x1="0" y1="0" x2="10" y2="0" style="stroke:black;stroke-width:5" /><line x1="0" y1="0" x2="0" y2="10" style="stroke:black;stroke-width:4" /></pattern>
<pattern id="hline" width="10" height="10" patternTransform="rotate(0 0 0)" patternUnits="userSpaceOnUse"><line x1="0" y1="0" x2="10" y2="0" style="stroke:black;stroke-width:5" /></pattern>
</defs>
</svg>
