<?xml version="1.0" encoding="utf-8" standalone="no"?>
<!DOCTYPE svg PUBLIC "-//W3C//DTD SVG 1.1//EN" "http://www.w3.org/Graphics/SVG/1.1/DTD/svg11.dtd">
<svg width="3000px" height="3000px" version="1.1" xmlns="http://www.w3.org/2000/svg" xmlns:xlink="http://www.w3.org/1999/xlink">
<g id="ideograms">
<path d="M1500.000,705.000 A795.000,795.000 40.000 0,1 1637.949,717.060 L1663.977,569.335 A945.000,945.000 0.000 0,0 1500.000,555.000 Z" style="stroke-linecap:round;fill:rgb(0,0,0);" />
<text x="1604.6" y="510.5" font-size="39.0px" font-family="CMUBright-Roman" style="text-anchor:start;fill:rgb(0,0,0);" transform="rotate(275.0,1604.6,510.5)" >Spanish</text>
<path d="M1659.853,721.237 A795.000,795.000 40.000 0,1 1671.154,723.642 L1703.448,577.160 A945.000,945.000 0.000 0,0 1690.014,574.301 Z" style="stroke-linecap:round;fill:rgb(0,0,0);" />
<text x="1724.7" y="530.7" font-size="39.0px" font-family="CMUBright-Roman" style="text-anchor:start;fill:rgb(0,0,0);" transform="rotate(282.0,1724.7,530.7)" >Sociology-&amp;-Anthropology</text>
<path d="M1692.861,728.748 A795.000,795.000 40.000 0,1 1781.030,756.329 L1834.054,616.013 A945.000,945.000 0.000 0,0 1729.250,583.229 Z" style="stroke-linecap:round;fill:rgb(0,0,0);" />
<text x="1814.2" y="555.9" font-size="39.0px" font-family="CMUBright-Roman" style="text-anchor:start;fill:rgb(0,0,0);" transform="rotate(287.4,1814.2,555.9)" >Sociology</text>
<path d="M1801.776,764.503 A795.000,795.000 40.000 0,1 1833.548,778.355 L1896.481,642.196 A945.000,945.000 0.000 0,0 1858.715,625.730 Z" style="stroke-linecap:round;fill:rgb(0,0,0);" />
<text x="1914.1" y="595.3" font-size="39.0px" font-family="CMUBright-Roman" style="text-anchor:start;fill:rgb(0,0,0);" transform="rotate(293.6,1914.1,595.3)" >Religious-Studies</text>
<path d="M1853.656,787.994 A795.000,795.000 40.000 0,1 1981.088,867.087 L2071.859,747.669 A945.000,945.000 0.000 0,0 1920.384,653.653 Z" style="stroke-linecap:round;fill:rgb(0,0,0);" />
<text x="2037.4" y="662.6" font-size="39.0px" font-family="CMUBright-Roman" style="text-anchor:start;fill:rgb(0,0,0);" transform="rotate(301.8,2037.4,662.6)" >Political-Science</text>
<path d="M1998.650,880.828 A795.000,795.000 40.000 0,1 2025.164,903.152 L2124.251,790.539 A945.000,945.000 0.000 0,0 2092.735,764.004 Z" style="stroke-linecap:round;fill:rgb(0,0,0);" />
<text x="2154.5" y="750.6" font-size="39.0px" font-family="CMUBright-Roman" style="text-anchor:start;fill:rgb(0,0,0);" transform="rotate(310.1,2154.5,750.6)" >Philosophy</text>
<path d="M2041.697,918.115 A795.000,795.000 40.000 0,1 2050.096,926.049 L2153.888,817.757 A945.000,945.000 0.000 0,0 2143.903,808.326 Z" style="stroke-linecap:round;fill:rgb(0,0,0);" />
<text x="2193.7" y="786.7" font-size="39.0px" font-family="CMUBright-Roman" style="text-anchor:start;fill:rgb(0,0,0);" transform="rotate(313.4,2193.7,786.7)" >Music-Business</text>
<path d="M2065.977,941.703 A795.000,795.000 40.000 0,1 2074.031,949.988 L2182.338,846.212 A945.000,945.000 0.000 0,0 2172.765,836.364 Z" style="stroke-linecap:round;fill:rgb(0,0,0);" />
<text x="2223.5" y="816.9" font-size="39.0px" font-family="CMUBright-Roman" style="text-anchor:start;fill:rgb(0,0,0);" transform="rotate(315.8,2223.5,816.9)" >Latin</text>
<path d="M2089.231,966.303 A795.000,795.000 40.000 0,1 2140.386,1028.905 L2261.214,940.019 A945.000,945.000 0.000 0,0 2200.406,865.606 Z" style="stroke-linecap:round;fill:rgb(0,0,0);" />
<text x="2281.7" y="884.4" font-size="39.0px" font-family="CMUBright-Roman" style="text-anchor:start;fill:rgb(0,0,0);" transform="rotate(320.7,2281.7,884.4)" >History</text>
<path d="M2153.347,1047.051 A795.000,795.000 40.000 0,1 2159.861,1056.594 L2284.363,972.932 A945.000,945.000 0.000 0,0 2276.620,961.589 Z" style="stroke-linecap:round;fill:rgb(0,0,0);" />
<text x="2330.2" y="951.5" font-size="39.0px" font-family="CMUBright-Roman" style="text-anchor:start;fill:rgb(0,0,0);" transform="rotate(325.7,2330.2,951.5)" >German</text>
<path d="M2172.037,1075.275 A795.000,795.000 40.000 0,1 2178.139,1085.087 L2306.089,1006.801 A945.000,945.000 0.000 0,0 2298.836,995.138 Z" style="stroke-linecap:round;fill:rgb(0,0,0);" />
<text x="2352.5" y="986.9" font-size="39.0px" font-family="CMUBright-Roman" style="text-anchor:start;fill:rgb(0,0,0);" transform="rotate(328.1,2352.5,986.9)" >French</text>
<path d="M2189.509,1104.269 A795.000,795.000 40.000 0,1 2195.187,1114.332 L2326.354,1041.564 A945.000,945.000 0.000 0,0 2319.605,1029.603 Z" style="stroke-linecap:round;fill:rgb(0,0,0);" />
<text x="2373.8" y="1024.1" font-size="39.0px" font-family="CMUBright-Roman" style="text-anchor:start;fill:rgb(0,0,0);" transform="rotate(330.6,2373.8,1024.1)" >Film-Studies</text>
<path d="M2205.730,1133.981 A795.000,795.000 40.000 0,1 2264.629,1717.641 L2408.899,1758.705 A945.000,945.000 0.000 0,0 2338.887,1064.920 Z" style="stroke-linecap:round;fill:rgb(0,0,0);" />
<text x="2491.6" y="1418.0" font-size="39.0px" font-family="CMUBright-Roman" style="text-anchor:start;fill:rgb(0,0,0);" transform="rotate(354.2,2491.6,1418.0)" >English-Writing</text>
<path d="M2258.224,1739.000 A795.000,795.000 40.000 0,1 2210.509,1856.654 L2344.567,1923.947 A945.000,945.000 0.000 0,0 2401.285,1784.094 Z" style="stroke-linecap:round;fill:rgb(0,0,0);" />
<text x="2415.1" y="1890.6" font-size="39.0px" font-family="CMUBright-Roman" style="text-anchor:start;fill:rgb(0,0,0);" transform="rotate(22.1,2415.1,1890.6)" >English-Literature</text>
<path d="M2200.227,1876.441 A795.000,795.000 40.000 0,1 2188.990,1896.632 L2318.989,1971.469 A945.000,945.000 0.000 0,0 2332.345,1947.467 Z" style="stroke-linecap:round;fill:rgb(0,0,0);" />
<text x="2362.3" y="1996.4" font-size="39.0px" font-family="CMUBright-Roman" style="text-anchor:start;fill:rgb(0,0,0);" transform="rotate(29.1,2362.3,1996.4)" >Economics</text>
<path d="M2177.595,1915.800 A795.000,795.000 40.000 0,1 2171.481,1925.604 L2298.175,2005.906 A945.000,945.000 0.000 0,0 2305.443,1994.253 Z" style="stroke-linecap:round;fill:rgb(0,0,0);" />
<text x="2336.2" y="2039.2" font-size="39.0px" font-family="CMUBright-Roman" style="text-anchor:start;fill:rgb(0,0,0);" transform="rotate(32.0,2336.2,2039.2)" >East-Asian-Studies</text>
<path d="M2159.280,1944.269 A795.000,795.000 40.000 0,1 2152.754,1953.803 L2275.915,2039.427 A945.000,945.000 0.000 0,0 2283.673,2028.093 Z" style="stroke-linecap:round;fill:rgb(0,0,0);" />
<text x="2312.5" y="2074.3" font-size="39.0px" font-family="CMUBright-Roman" style="text-anchor:start;fill:rgb(0,0,0);" transform="rotate(34.4,2312.5,2074.3)" >Conflict-Studies</text>
<path d="M2139.770,1971.932 A795.000,795.000 40.000 0,1 2132.843,1981.180 L2252.248,2071.969 A945.000,945.000 0.000 0,0 2260.481,2060.976 Z" style="stroke-linecap:round;fill:rgb(0,0,0);" />
<text x="2285.5" y="2110.8" font-size="39.0px" font-family="CMUBright-Roman" style="text-anchor:start;fill:rgb(0,0,0);" transform="rotate(36.8,2285.5,2110.8)" >Computer-Science</text>
<path d="M2119.099,1998.740 A795.000,795.000 40.000 0,1 1424.089,2291.367 L1409.766,2440.682 A945.000,945.000 0.000 0,0 2235.910,2092.842 Z" style="stroke-linecap:round;fill:rgb(0,0,0);" />
<text x="1872.2" y="2422.7" font-size="39.0px" font-family="CMUBright-Roman" style="text-anchor:start;fill:rgb(0,0,0);" transform="rotate(67.2,1872.2,2422.7)" >Communication</text>
<path d="M1401.924,2288.927 A795.000,795.000 40.000 0,1 1379.037,2285.743 L1356.213,2433.997 A945.000,945.000 0.000 0,0 1383.419,2437.781 Z" style="stroke-linecap:round;fill:rgb(0,0,0);" />
<text x="1377.8" y="2487.5" font-size="39.0px" font-family="CMUBright-Roman" style="text-anchor:end;fill:rgb(0,0,0);" transform="rotate(-82.1,1377.8,2487.5)" >Classical-Civilization</text>
<path d="M1357.047,2282.042 A795.000,795.000 40.000 0,1 1345.697,2279.882 L1316.583,2427.029 A945.000,945.000 0.000 0,0 1330.075,2429.597 Z" style="stroke-linecap:round;fill:rgb(0,0,0);" />
<text x="1331.7" y="2480.7" font-size="39.0px" font-family="CMUBright-Roman" style="text-anchor:end;fill:rgb(0,0,0);" transform="rotate(-79.2,1331.7,2480.7)" >Biology</text>
<path d="M1323.884,2275.247 A795.000,795.000 40.000 0,1 1312.636,2272.606 L1277.285,2418.381 A945.000,945.000 0.000 0,0 1290.655,2421.520 Z" style="stroke-linecap:round;fill:rgb(0,0,0);" />
<text x="1290.1" y="2472.6" font-size="39.0px" font-family="CMUBright-Roman" style="text-anchor:end;fill:rgb(0,0,0);" transform="rotate(-76.8,1290.1,2472.6)" >Art-History</text>
<path d="M1291.041,2267.047 A795.000,795.000 40.000 0,1 1279.916,2263.929 L1238.390,2408.067 A945.000,945.000 0.000 0,0 1251.615,2411.773 Z" style="stroke-linecap:round;fill:rgb(0,0,0);" />
<text x="1248.9" y="2462.8" font-size="39.0px" font-family="CMUBright-Roman" style="text-anchor:end;fill:rgb(0,0,0);" transform="rotate(-74.3,1248.9,2462.8)" >Anthropology</text>
<path d="M1258.577,2257.456 A795.000,795.000 40.000 0,1 1477.703,705.313 L1473.496,555.372 A945.000,945.000 0.000 0,0 1213.025,2400.372 Z" style="stroke-linecap:round;fill:rgb(0,48,135);" />
<text x="512.4" y="1378.8" font-size="39.0px" font-family="CMUBright-Roman" style="text-anchor:end;fill:rgb(0,0,0);" transform="rotate(8.0,512.4,1378.8)" >Media-Fellows-Program</text>
</g>
<g id="track_0">
<path d="M 1260.991,2249.882 A 787.050,787.050 0.00 0,1 1250.1,2246.3 L 1250.1,2246.3 1262.5,2209.5 1274.0,2175.5 1284.7,2144.2 1294.7,2115.4 1303.8,2089.1 1312.3,2065.0 1320.2,2043.2 1327.4,2023.4 1334.0,2005.7 1340.0,1989.9 1345.4,1975.9 1350.3,1963.7 1354.7,1953.2 1358.6,1944.3 1362.0,1937.1 1364.9,1931.4 1367.4,1927.2 1369.4,1924.6 1371.0,1923.4 1372.1,1923.8 1372.7,1925.6 1372.9,1928.9 1372.6,1933.7 1371.9,1940.1 1370.7,1948.0 1369.0,1957.5 1366.9,1968.7 1364.1,1981.6 1360.9,1996.2 1357.1,2012.7 1352.7,2031.1 1347.7,2051.6 1342.1,2074.1 1335.8,2098.8 1328.8,2125.8 1321.1,2155.2 1312.6,2187.2 1303.3,2221.9 1293.1,2259.4  A 787.050,787.050 0.00 0,1 1282.1,2256.3 L 1282.1,2256.3 1292.8,2219.0 1302.7,2184.5 1311.8,2152.6 1320.1,2123.4 1327.6,2096.5 1334.5,2072.0 1340.7,2049.6 1346.2,2029.4 1351.2,2011.2 1355.5,1994.8 1359.3,1980.3 1362.6,1967.6 1365.3,1956.6 1367.6,1947.3 1369.3,1939.5 1370.6,1933.3 1371.4,1928.7 1371.8,1925.5 1371.7,1923.9 1371.2,1923.7 1370.2,1925.0 1368.7,1927.8 1366.8,1932.2 1364.5,1938.0 1361.6,1945.5 1358.3,1954.5 1354.5,1965.2 1350.1,1977.6 1345.2,1991.7 1339.8,2007.7 1333.8,2025.6 1327.1,2045.5 1319.9,2067.5 1311.9,2091.8 1303.3,2118.3 1293.9,2147.2 1283.8,2178.7 1272.8,2212.9 1261.0,2249.9  Z" style="stroke-width: 2.0;  stroke: rgb(230,177,14); fill: rgb(242,205,0);" />
<path d="M 1239.298,2242.619 A 787.050,787.050 0.00 0,0 1239.3,2242.6 L 1239.3,2242.6 1252.3,2205.9 1264.4,2172.1 1275.8,2141.0 1286.4,2112.4 1296.3,2086.2 1305.6,2062.4 1314.2,2040.8 1322.3,2021.3 1329.7,2003.8 1336.6,1988.2 1342.9,1974.5 1348.8,1962.6 1354.1,1952.3 1359.0,1943.7 1363.4,1936.8 1367.3,1931.4 1370.9,1927.5 1373.9,1925.1 1376.6,1924.3 1378.8,1924.9 1380.6,1927.0 1381.9,1930.7 1382.8,1935.8 1383.3,1942.5 1383.3,1950.7 1382.9,1960.6 1382.0,1972.1 1380.5,1985.3 1378.6,2000.3 1376.2,2017.2 1373.2,2036.0 1369.6,2056.7 1365.4,2079.6 1360.5,2104.7 1355.0,2132.2 1348.8,2162.0 1341.9,2194.4 1334.2,2229.5 1325.6,2267.5  A 787.050,787.050 0.00 0,1 1314.5,2264.9 L 1314.5,2264.9 1323.6,2227.1 1331.9,2192.1 1339.3,2159.8 1346.0,2130.1 1352.0,2102.8 1357.3,2077.8 1361.9,2055.0 1366.0,2034.3 1369.4,2015.7 1372.2,1998.9 1374.6,1984.0 1376.4,1970.9 1377.6,1959.4 1378.4,1949.7 1378.8,1941.5 1378.6,1934.9 1378.0,1929.8 1377.0,1926.3 1375.5,1924.2 1373.6,1923.7 1371.2,1924.6 1368.4,1927.0 1365.1,1930.9 1361.4,1936.4 1357.2,1943.4 1352.6,1952.0 1347.4,1962.3 1341.8,1974.3 1335.6,1988.1 1328.9,2003.7 1321.6,2021.2 1313.7,2040.8 1305.2,2062.4 1296.1,2086.2 1286.2,2112.4 1275.7,2141.0 1264.4,2172.1 1252.3,2206.0 1239.3,2242.6  Z" style="stroke-width: 2.0;  stroke: rgb(230,177,14); fill: rgb(242,205,0);" />
<path d="M 1228.533,2238.751 A 787.050,787.050 0.00 0,0 1228.5,2238.8 L 1228.5,2238.8 1242.1,2202.2 1254.9,2168.5 1266.9,2137.5 1278.3,2109.1 1288.9,2083.2 1299.0,2059.6 1308.4,2038.1 1317.2,2018.9 1325.5,2001.6 1333.3,1986.2 1340.6,1972.7 1347.3,1961.0 1353.6,1951.0 1359.5,1942.7 1364.9,1936.0 1369.9,1930.8 1374.4,1927.2 1378.6,1925.1 1382.3,1924.6 1385.6,1925.5 1388.6,1927.9 1391.1,1931.8 1393.2,1937.2 1394.8,1944.2 1396.1,1952.7 1396.9,1962.8 1397.2,1974.7 1397.1,1988.2 1396.5,2003.5 1395.4,2020.7 1393.8,2039.7 1391.6,2060.9 1388.9,2084.1 1385.5,2109.5 1381.5,2137.3 1376.8,2167.5 1371.5,2200.3 1365.4,2235.8 1358.5,2274.2  A 787.050,787.050 0.00 0,1 1347.2,2272.1 L 1347.2,2272.1 1354.7,2233.8 1361.3,2198.4 1367.2,2165.8 1372.4,2135.6 1376.9,2108.0 1380.7,2082.6 1383.9,2059.5 1386.5,2038.5 1388.6,2019.5 1390.1,2002.4 1391.1,1987.1 1391.6,1973.7 1391.6,1962.0 1391.2,1951.9 1390.3,1943.4 1388.9,1936.5 1387.1,1931.1 1384.9,1927.3 1382.3,1925.0 1379.3,1924.1 1375.8,1924.7 1371.9,1926.9 1367.6,1930.5 1362.9,1935.7 1357.7,1942.5 1352.1,1950.9 1346.0,1960.9 1339.4,1972.6 1332.3,1986.2 1324.7,2001.5 1316.6,2018.8 1307.9,2038.1 1298.6,2059.6 1288.7,2083.2 1278.1,2109.2 1266.8,2137.6 1254.8,2168.5 1242.1,2202.2 1228.5,2238.8  Z" style="stroke-width: 2.0;  stroke: rgb(230,177,14); fill: rgb(242,205,0);" />
<path d="M 1217.825,2234.728 A 787.050,787.050 0.00 0,1 1207.2,2230.5 L 1207.2,2230.5 1221.9,2194.3 1235.9,2160.9 1249.2,2130.2 1261.9,2102.1 1273.8,2076.5 1285.2,2053.2 1296.0,2032.1 1306.2,2013.2 1315.9,1996.3 1325.2,1981.3 1333.9,1968.2 1342.1,1956.9 1350.0,1947.3 1357.3,1939.3 1364.3,1933.0 1370.9,1928.2 1377.0,1925.0 1382.8,1923.3 1388.2,1923.1 1393.2,1924.4 1397.8,1927.2 1402.0,1931.5 1405.9,1937.3 1409.3,1944.6 1412.3,1953.5 1415.0,1964.0 1417.2,1976.2 1418.9,1990.2 1420.2,2005.8 1421.0,2023.4 1421.3,2042.9 1421.2,2064.4 1420.4,2088.1 1419.1,2113.9 1417.2,2142.2 1414.7,2172.8 1411.4,2206.1 1407.5,2242.1 1402.9,2281.0  A 787.050,787.050 0.00 0,1 1380.2,2277.9 L 1380.2,2277.9 1386.0,2239.2 1391.1,2203.5 1395.4,2170.4 1399.0,2140.0 1402.0,2112.0 1404.3,2086.3 1406.1,2062.9 1407.3,2041.5 1408.0,2022.2 1408.1,2004.9 1407.8,1989.4 1407.0,1975.6 1405.7,1963.6 1404.0,1953.3 1401.9,1944.5 1399.3,1937.4 1396.4,1931.8 1393.0,1927.7 1389.3,1925.1 1385.1,1924.0 1380.6,1924.4 1375.6,1926.3 1370.3,1929.7 1364.5,1934.6 1358.3,1941.1 1351.7,1949.3 1344.7,1959.1 1337.1,1970.6 1329.2,1983.9 1320.7,1999.0 1311.7,2016.1 1302.1,2035.2 1292.0,2056.5 1281.3,2079.9 1270.0,2105.7 1258.0,2133.9 1245.4,2164.8 1232.0,2198.3 1217.8,2234.7  Z" style="stroke-width: 2.0;  stroke: rgb(230,177,14); fill: rgb(242,205,0);" />
<path d="M 1196.591,2226.217 A 787.050,787.050 0.00 0,1 728.8,1657.4 L 728.8,1657.4 789.2,1645.6 846.0,1635.7 899.4,1627.5 949.7,1620.7 996.9,1615.4 1041.4,1611.3 1083.3,1608.3 1122.9,1606.3 1160.2,1605.3 1195.6,1605.1 1229.1,1605.7 1261.1,1607.0 1291.6,1609.0 1320.8,1611.6 1348.9,1614.8 1376.2,1618.6 1402.7,1622.9 1428.6,1627.9 1454.2,1633.4 1479.5,1639.5 1504.7,1646.4 1530.0,1653.9 1555.6,1662.2 1581.5,1671.3 1608.0,1681.4 1635.2,1692.5 1663.1,1704.8 1692.1,1718.3 1722.2,1733.1 1753.5,1749.5 1786.2,1767.6 1820.5,1787.5 1856.3,1809.3 1894.0,1833.4 1933.5,1859.9 1975.1,1888.9 2018.7,1920.7 2064.6,1955.6 2112.9,1993.8  A 787.050,787.050 0.00 0,1 1424.8,2283.5 L 1424.8,2283.5 1428.4,2244.3 1431.2,2208.1 1433.3,2174.6 1434.8,2143.7 1435.7,2115.3 1436.0,2089.2 1435.7,2065.4 1434.9,2043.7 1433.7,2024.0 1431.9,2006.3 1429.7,1990.5 1427.0,1976.4 1423.9,1964.0 1420.4,1953.3 1416.4,1944.3 1412.1,1936.8 1407.4,1930.8 1402.4,1926.3 1396.9,1923.4 1391.1,1921.9 1384.9,1922.0 1378.3,1923.5 1371.4,1926.5 1364.0,1931.1 1356.3,1937.3 1348.2,1945.0 1339.6,1954.5 1330.6,1965.6 1321.2,1978.6 1311.2,1993.3 1300.8,2010.1 1289.9,2028.8 1278.4,2049.7 1266.4,2072.8 1253.8,2098.3 1240.5,2126.2 1226.6,2156.8 1211.9,2190.1 1196.6,2226.2  Z" style="stroke-width: 2.0;  stroke: rgb(230,177,14); fill: rgb(242,205,0);" />
<path d="M 726.636,1646.134 A 787.050,787.050 0.00 0,0 726.6,1646.1 L 726.6,1646.1 787.9,1635.1 845.5,1625.8 899.6,1618.2 950.5,1611.9 998.2,1607.0 1043.2,1603.3 1085.4,1600.6 1125.3,1598.9 1162.9,1598.1 1198.4,1598.1 1232.1,1598.8 1264.1,1600.1 1294.6,1602.1 1323.8,1604.7 1352.0,1607.9 1379.2,1611.6 1405.6,1615.8 1431.5,1620.6 1457.0,1626.0 1482.2,1631.9 1507.4,1638.5 1532.7,1645.8 1558.2,1653.8 1584.2,1662.7 1610.8,1672.4 1638.1,1683.2 1666.3,1695.0 1695.5,1708.1 1726.0,1722.5 1757.8,1738.4 1791.0,1755.9 1825.9,1775.3 1862.5,1796.5 1901.0,1820.0 1941.6,1845.7 1984.3,1874.0 2029.2,1905.1 2076.6,1939.1 2126.5,1976.4  A 787.050,787.050 0.00 0,0 2133.4,1967.2 L 2133.4,1967.2 2082.7,1930.5 2034.7,1897.0 1989.1,1866.5 1945.9,1838.7 1904.9,1813.4 1866.0,1790.3 1829.0,1769.5 1793.8,1750.5 1760.3,1733.3 1728.3,1717.8 1697.7,1703.6 1668.3,1690.9 1639.9,1679.3 1612.5,1668.8 1585.9,1659.3 1559.8,1650.7 1534.2,1642.9 1508.9,1635.8 1483.7,1629.4 1458.5,1623.7 1433.0,1618.5 1407.1,1613.9 1380.7,1609.8 1353.5,1606.3 1325.4,1603.3 1296.1,1600.8 1265.6,1599.0 1233.6,1597.7 1199.8,1597.1 1164.3,1597.3 1126.6,1598.2 1086.7,1600.0 1044.3,1602.8 999.2,1606.6 951.3,1611.7 900.3,1618.0 846.0,1625.7 788.2,1635.1 726.6,1646.1  Z" style="stroke-width: 2.0;  stroke: rgb(230,177,14); fill: rgb(242,205,0);" />
<path d="M 724.594,1634.880 A 787.050,787.050 0.00 0,0 724.6,1634.9 L 724.6,1634.9 787.0,1624.6 845.6,1615.9 900.6,1608.7 952.2,1602.9 1000.7,1598.3 1046.2,1594.9 1088.9,1592.4 1129.1,1590.8 1167.0,1590.1 1202.7,1590.1 1236.5,1590.8 1268.6,1592.1 1299.2,1594.0 1328.4,1596.5 1356.5,1599.4 1383.6,1602.9 1409.9,1606.8 1435.7,1611.3 1461.1,1616.3 1486.2,1621.9 1511.4,1628.0 1536.6,1634.9 1562.2,1642.4 1588.2,1650.7 1614.9,1659.8 1642.5,1669.9 1671.0,1681.1 1700.6,1693.4 1731.6,1707.1 1764.0,1722.1 1798.0,1738.8 1833.8,1757.1 1871.5,1777.4 1911.3,1799.7 1953.3,1824.3 1997.6,1851.3 2044.5,1881.0 2094.0,1913.6 2146.2,1949.3  A 787.050,787.050 0.00 0,0 2152.7,1939.8 L 2152.7,1939.8 2099.7,1904.8 2049.6,1872.7 2002.2,1843.6 1957.3,1817.1 1914.8,1792.9 1874.7,1771.1 1836.6,1751.2 1800.5,1733.3 1766.2,1717.0 1733.6,1702.3 1702.5,1689.0 1672.7,1676.9 1644.1,1666.0 1616.5,1656.2 1589.7,1647.3 1563.6,1639.2 1538.0,1631.9 1512.8,1625.3 1487.7,1619.4 1462.5,1614.0 1437.1,1609.2 1411.4,1604.9 1385.0,1601.1 1357.9,1597.8 1329.9,1595.0 1300.7,1592.7 1270.1,1590.9 1238.0,1589.8 1204.1,1589.2 1168.4,1589.3 1130.4,1590.2 1090.1,1591.8 1047.3,1594.4 1001.7,1598.0 953.1,1602.6 901.3,1608.5 846.1,1615.8 787.3,1624.5 724.6,1634.9  Z" style="stroke-width: 2.0;  stroke: rgb(230,177,14); fill: rgb(242,205,0);" />
<path d="M 722.715,1623.596 A 787.050,787.050 0.00 0,0 722.7,1623.6 L 722.7,1623.6 786.3,1614.0 845.9,1605.9 901.8,1599.3 954.2,1593.9 1003.3,1589.7 1049.3,1586.5 1092.5,1584.3 1133.0,1582.9 1171.1,1582.2 1207.1,1582.3 1241.0,1582.9 1273.1,1584.2 1303.7,1586.0 1332.8,1588.2 1360.8,1591.0 1387.8,1594.2 1414.0,1597.9 1439.7,1602.1 1464.9,1606.7 1489.9,1611.9 1515.0,1617.6 1540.1,1623.9 1565.7,1630.9 1591.8,1638.7 1618.5,1647.2 1646.2,1656.7 1675.0,1667.2 1705.0,1678.7 1736.4,1691.6 1769.4,1705.7 1804.2,1721.4 1840.8,1738.8 1879.6,1757.9 1920.6,1779.1 1964.0,1802.4 2010.0,1828.1 2058.6,1856.3 2110.2,1887.3 2164.8,1921.3  A 787.050,787.050 0.00 0,0 2170.8,1911.6 L 2170.8,1911.6 2115.5,1878.3 2063.4,1847.9 2014.1,1820.2 1967.7,1795.1 1923.8,1772.2 1882.4,1751.6 1843.3,1732.8 1806.4,1715.9 1771.4,1700.6 1738.2,1686.7 1706.6,1674.2 1676.5,1663.0 1647.7,1652.8 1619.9,1643.6 1593.1,1635.3 1567.0,1627.8 1541.4,1621.0 1516.2,1614.9 1491.2,1609.4 1466.2,1604.4 1441.0,1599.9 1415.4,1596.0 1389.2,1592.4 1362.2,1589.4 1334.3,1586.8 1305.1,1584.7 1274.6,1583.0 1242.4,1581.9 1208.5,1581.4 1172.5,1581.4 1134.3,1582.2 1093.7,1583.7 1050.4,1586.1 1004.3,1589.3 955.0,1593.6 902.5,1599.1 846.4,1605.8 786.5,1613.9 722.7,1623.6  Z" style="stroke-width: 2.0;  stroke: rgb(230,177,14); fill: rgb(242,205,0);" />
<path d="M 721.001,1612.287 A 787.050,787.050 0.00 0,1 719.5,1601.0 L 719.5,1601.0 785.1,1592.9 846.5,1586.2 903.9,1580.7 957.7,1576.3 1007.9,1573.0 1054.8,1570.5 1098.7,1568.8 1139.9,1567.8 1178.4,1567.4 1214.6,1567.7 1248.6,1568.4 1280.8,1569.7 1311.2,1571.4 1340.2,1573.5 1367.9,1576.0 1394.6,1578.8 1420.5,1582.1 1445.8,1585.8 1470.7,1589.9 1495.3,1594.5 1520.0,1599.5 1545.0,1605.1 1570.3,1611.2 1596.3,1618.1 1623.1,1625.6 1650.9,1634.0 1680.0,1643.3 1710.5,1653.6 1742.5,1665.0 1776.4,1677.7 1812.3,1691.8 1850.3,1707.3 1890.8,1724.6 1933.7,1743.7 1979.5,1764.7 2028.1,1788.0 2079.8,1813.6 2134.8,1841.8 2193.2,1872.7  A 787.050,787.050 0.00 0,1 2182.1,1892.7 L 2182.1,1892.7 2125.3,1860.5 2071.7,1831.1 2021.2,1804.5 1973.7,1780.2 1928.9,1758.2 1886.7,1738.3 1847.0,1720.3 1809.5,1704.0 1774.0,1689.3 1740.5,1676.0 1708.6,1664.1 1678.3,1653.2 1649.4,1643.5 1621.6,1634.7 1594.8,1626.8 1568.7,1619.6 1543.2,1613.1 1518.2,1607.3 1493.3,1602.0 1468.5,1597.2 1443.4,1592.9 1418.0,1589.1 1391.9,1585.7 1365.1,1582.7 1337.2,1580.1 1308.1,1578.0 1277.6,1576.3 1245.4,1575.2 1211.4,1574.5 1175.4,1574.4 1137.0,1575.0 1096.1,1576.2 1052.5,1578.2 1006.0,1581.1 956.2,1585.0 903.1,1589.9 846.4,1596.0 785.7,1603.4 721.0,1612.3  Z" style="stroke-width: 2.0;  stroke: rgb(230,177,14); fill: rgb(242,205,0);" />
<path d="M 718.067,1589.599 A 787.050,787.050 0.00 0,1 713.3,1475.4 L 713.3,1475.4 785.8,1477.9 853.2,1480.5 915.7,1483.4 973.6,1486.3 1027.2,1489.4 1076.8,1492.5 1122.7,1495.6 1165.1,1498.8 1204.4,1502.0 1240.7,1505.2 1274.4,1508.3 1305.8,1511.5 1335.0,1514.7 1362.5,1517.9 1388.5,1521.1 1413.2,1524.4 1436.9,1527.8 1460.0,1531.3 1482.5,1534.9 1505.0,1538.7 1527.5,1542.7 1550.3,1547.0 1573.9,1551.7 1598.3,1556.8 1623.8,1562.3 1650.8,1568.4 1679.5,1575.0 1710.2,1582.4 1743.1,1590.5 1778.4,1599.5 1816.5,1609.5 1857.6,1620.5 1901.9,1632.7 1949.7,1646.1 2001.4,1661.0 2057.0,1677.3 2116.9,1695.3 2181.4,1715.0 2250.6,1736.6  A 787.050,787.050 0.00 0,1 2203.4,1853.1 L 2203.4,1853.1 2143.4,1823.4 2087.1,1796.5 2034.2,1771.9 1984.5,1749.7 1937.9,1729.5 1894.2,1711.3 1853.2,1694.8 1814.6,1679.9 1778.3,1666.5 1744.1,1654.4 1711.9,1643.5 1681.2,1633.7 1652.1,1624.8 1624.3,1616.9 1597.5,1609.7 1571.7,1603.2 1546.4,1597.3 1521.7,1592.0 1497.2,1587.2 1472.7,1582.9 1448.0,1578.9 1422.9,1575.4 1397.2,1572.2 1370.7,1569.4 1343.1,1567.0 1314.2,1564.9 1283.8,1563.2 1251.7,1561.9 1217.6,1561.0 1181.4,1560.6 1142.7,1560.7 1101.4,1561.4 1057.2,1562.8 1009.8,1564.9 959.2,1567.8 904.9,1571.6 846.8,1576.4 784.6,1582.4 718.1,1589.6  Z" style="stroke-width: 2.0;  stroke: rgb(230,177,14); fill: rgb(242,205,0);" />
<path d="M 713.775,1463.981 A 787.050,787.050 0.00 0,1 944.4,942.6 L 944.4,942.6 983.8,981.1 1021.7,1016.2 1058.3,1048.3 1093.6,1077.4 1127.6,1103.9 1160.5,1127.9 1192.3,1149.7 1223.1,1169.3 1253.0,1187.0 1282.0,1203.0 1310.3,1217.3 1337.9,1230.1 1365.0,1241.6 1391.5,1251.8 1417.7,1260.7 1443.5,1268.6 1469.1,1275.5 1494.6,1281.3 1520.1,1286.2 1545.7,1290.2 1571.5,1293.3 1597.6,1295.4 1624.1,1296.7 1651.1,1297.1 1678.8,1296.4 1707.1,1294.8 1736.4,1292.1 1766.6,1288.3 1797.9,1283.2 1830.4,1276.8 1864.2,1269.0 1899.6,1259.6 1936.5,1248.6 1975.1,1235.7 2015.6,1220.8 2058.0,1203.7 2102.6,1184.3 2149.4,1162.4 2198.7,1137.6  A 787.050,787.050 0.00 0,1 2257.0,1715.5 L 2257.0,1715.5 2186.4,1695.5 2120.8,1677.4 2059.8,1660.8 2003.3,1645.7 1951.0,1632.0 1902.6,1619.6 1857.8,1608.4 1816.4,1598.2 1778.1,1589.0 1742.6,1580.6 1709.7,1573.1 1679.0,1566.3 1650.4,1560.1 1623.6,1554.5 1598.2,1549.4 1574.0,1544.6 1550.8,1540.3 1528.2,1536.2 1506.0,1532.5 1484.0,1528.9 1461.7,1525.4 1439.0,1522.1 1415.6,1518.8 1391.2,1515.6 1365.5,1512.4 1338.3,1509.2 1309.2,1506.0 1278.0,1502.8 1244.4,1499.5 1208.1,1496.1 1168.8,1492.6 1126.3,1489.1 1080.3,1485.6 1030.4,1482.0 976.4,1478.4 918.1,1474.7 855.0,1471.1 787.0,1467.5 713.8,1464.0  Z" style="stroke-width: 2.0;  stroke: rgb(230,177,14); fill: rgb(242,205,0);" />
<path d="M 952.522,934.566 A 787.050,787.050 0.00 0,0 952.5,934.6 L 952.5,934.6 990.7,973.0 1027.6,1008.1 1063.2,1040.0 1097.6,1069.1 1130.9,1095.5 1163.1,1119.4 1194.3,1141.0 1224.5,1160.6 1253.9,1178.2 1282.6,1194.0 1310.5,1208.2 1337.8,1220.8 1364.6,1232.1 1390.9,1242.1 1416.9,1250.8 1442.5,1258.4 1468.0,1265.0 1493.4,1270.5 1518.8,1275.0 1544.2,1278.6 1569.9,1281.3 1595.8,1283.0 1622.1,1283.8 1648.9,1283.6 1676.2,1282.3 1704.3,1280.1 1733.1,1276.6 1762.9,1272.0 1793.7,1266.1 1825.5,1258.9 1858.7,1250.1 1893.2,1239.7 1929.1,1227.5 1966.7,1213.5 2005.9,1197.3 2047.0,1178.9 2090.1,1158.1 2135.3,1134.6 2182.6,1108.2  A 787.050,787.050 0.00 0,1 2188.2,1118.2 L 2188.2,1118.2 2140.3,1144.0 2094.6,1166.9 2051.1,1187.2 2009.6,1205.1 1970.0,1220.8 1932.1,1234.5 1895.8,1246.2 1861.1,1256.2 1827.7,1264.6 1795.7,1271.6 1764.7,1277.1 1734.8,1281.4 1705.9,1284.6 1677.7,1286.6 1650.3,1287.5 1623.4,1287.5 1597.1,1286.5 1571.1,1284.6 1545.5,1281.7 1520.0,1277.9 1494.6,1273.2 1469.2,1267.5 1443.7,1260.8 1418.0,1253.0 1392.0,1244.1 1365.7,1234.0 1338.9,1222.6 1311.5,1209.8 1283.5,1195.5 1254.9,1179.5 1225.4,1161.8 1195.1,1142.1 1163.8,1120.3 1131.5,1096.2 1098.2,1069.7 1063.7,1040.5 1027.9,1008.4 990.9,973.2 952.5,934.6  Z" style="stroke-width: 2.0;  stroke: rgb(230,177,14); fill: rgb(242,205,0);" />
<path d="M 960.797,926.669 A 787.050,787.050 0.00 0,0 960.8,926.7 L 960.8,926.7 998.0,965.2 1034.0,1000.3 1068.7,1032.3 1102.4,1061.4 1135.0,1087.9 1166.5,1111.8 1197.2,1133.5 1226.9,1153.1 1255.9,1170.7 1284.2,1186.5 1311.8,1200.7 1338.8,1213.3 1365.3,1224.5 1391.4,1234.4 1417.2,1243.1 1442.6,1250.6 1468.0,1257.1 1493.2,1262.4 1518.4,1266.8 1543.7,1270.2 1569.2,1272.7 1595.0,1274.1 1621.1,1274.6 1647.7,1274.1 1674.8,1272.5 1702.6,1269.8 1731.1,1266.0 1760.5,1261.0 1790.9,1254.6 1822.3,1246.8 1854.9,1237.4 1888.8,1226.4 1924.1,1213.6 1960.8,1198.8 1999.2,1181.9 2039.4,1162.7 2081.3,1140.9 2125.3,1116.5 2171.4,1089.2  A 787.050,787.050 0.00 0,0 2165.3,1079.5 L 2165.3,1079.5 2119.9,1107.4 2076.4,1132.3 2034.9,1154.5 1995.2,1174.2 1957.2,1191.5 1920.8,1206.7 1885.8,1220.0 1852.2,1231.4 1819.8,1241.1 1788.6,1249.2 1758.4,1255.9 1729.2,1261.3 1700.8,1265.4 1673.1,1268.3 1646.1,1270.1 1619.6,1270.9 1593.5,1270.6 1567.8,1269.4 1542.4,1267.1 1517.1,1263.9 1491.9,1259.7 1466.7,1254.5 1441.4,1248.3 1416.0,1240.9 1390.2,1232.4 1364.2,1222.7 1337.7,1211.6 1310.7,1199.1 1283.2,1185.1 1255.0,1169.4 1226.1,1151.9 1196.4,1132.5 1165.8,1110.9 1134.3,1087.1 1101.9,1060.8 1068.3,1031.8 1033.7,1000.0 997.9,965.0 960.8,926.7  Z" style="stroke-width: 2.0;  stroke: rgb(230,177,14); fill: rgb(242,205,0);" />
<path d="M 969.186,918.894 A 787.050,787.050 0.00 0,0 969.2,918.9 L 969.2,918.9 1005.1,957.1 1039.9,992.0 1073.6,1023.8 1106.3,1052.7 1137.9,1078.9 1168.7,1102.6 1198.6,1124.0 1227.7,1143.3 1256.1,1160.7 1283.8,1176.2 1311.0,1190.1 1337.6,1202.4 1363.7,1213.3 1389.5,1222.8 1415.0,1231.1 1440.2,1238.2 1465.2,1244.2 1490.2,1249.1 1515.2,1252.9 1540.2,1255.7 1565.4,1257.5 1590.8,1258.3 1616.6,1258.1 1642.7,1256.8 1669.4,1254.4 1696.6,1250.8 1724.6,1246.0 1753.2,1239.9 1782.8,1232.4 1813.3,1223.5 1844.8,1212.8 1877.5,1200.5 1911.4,1186.3 1946.7,1170.0 1983.4,1151.5 2021.7,1130.6 2061.6,1107.1 2103.3,1080.9 2146.8,1051.6  A 787.050,787.050 0.00 0,1 2153.3,1061.0 L 2153.3,1061.0 2109.1,1089.8 2066.9,1115.6 2026.5,1138.6 1987.8,1159.0 1950.7,1177.1 1915.0,1193.0 1880.8,1206.8 1847.8,1218.8 1816.0,1229.1 1785.3,1237.7 1755.6,1244.9 1726.7,1250.7 1698.7,1255.2 1671.3,1258.5 1644.5,1260.7 1618.3,1261.8 1592.4,1261.8 1566.9,1260.8 1541.7,1258.8 1516.6,1255.8 1491.6,1251.7 1466.6,1246.7 1441.5,1240.5 1416.2,1233.3 1390.7,1224.8 1364.9,1215.2 1338.7,1204.1 1312.0,1191.7 1284.9,1177.7 1257.1,1162.0 1228.6,1144.5 1199.4,1125.0 1169.4,1103.5 1138.6,1079.6 1106.8,1053.3 1074.0,1024.2 1040.2,992.3 1005.3,957.3 969.2,918.9  Z" style="stroke-width: 2.0;  stroke: rgb(230,177,14); fill: rgb(242,205,0);" />
<path d="M 977.688,911.241 A 787.050,787.050 0.00 0,1 1030.9,868.0 L 1030.9,868.0 1060.9,907.1 1090.1,942.8 1118.7,975.4 1146.6,1005.1 1173.9,1032.1 1200.7,1056.5 1226.9,1078.7 1252.7,1098.7 1278.0,1116.6 1302.9,1132.7 1327.5,1147.0 1351.7,1159.7 1375.7,1170.9 1399.5,1180.6 1423.1,1189.0 1446.5,1196.0 1469.9,1201.9 1493.3,1206.5 1516.7,1210.0 1540.2,1212.3 1563.8,1213.4 1587.7,1213.5 1611.7,1212.3 1636.1,1209.9 1660.9,1206.3 1686.1,1201.4 1711.8,1195.2 1738.1,1187.5 1764.9,1178.2 1792.5,1167.3 1820.9,1154.6 1850.0,1140.1 1880.1,1123.5 1911.1,1104.7 1943.2,1083.5 1976.4,1059.8 2010.7,1033.4 2046.4,1004.1 2083.3,971.6  A 787.050,787.050 0.00 0,1 2134.0,1033.6 L 2134.0,1033.6 2091.8,1063.7 2051.3,1090.8 2012.5,1115.0 1975.3,1136.6 1939.5,1155.8 1905.0,1172.7 1871.8,1187.6 1839.8,1200.5 1808.9,1211.6 1778.9,1221.1 1749.9,1229.0 1721.6,1235.6 1694.1,1240.8 1667.2,1244.7 1640.8,1247.4 1614.9,1249.0 1589.4,1249.5 1564.2,1249.0 1539.3,1247.4 1514.5,1244.8 1489.7,1241.1 1465.0,1236.4 1440.1,1230.5 1415.2,1223.5 1390.0,1215.3 1364.5,1205.9 1338.6,1195.0 1312.4,1182.7 1285.6,1168.9 1258.3,1153.3 1230.4,1136.0 1201.8,1116.7 1172.4,1095.2 1142.3,1071.4 1111.3,1045.2 1079.4,1016.3 1046.5,984.4 1012.7,949.5 977.7,911.2  Z" style="stroke-width: 2.0;  stroke: rgb(230,177,14); fill: rgb(242,205,0);" />
<path d="M 1040.183,861.239 A 787.050,787.050 0.00 0,0 1040.2,861.2 L 1040.2,861.2 1069.1,900.1 1097.4,935.7 1125.0,968.1 1152.1,997.7 1178.6,1024.6 1204.7,1048.9 1230.2,1070.9 1255.3,1090.8 1280.0,1108.6 1304.3,1124.5 1328.4,1138.7 1352.1,1151.2 1375.6,1162.2 1398.8,1171.7 1422.0,1179.8 1445.0,1186.6 1467.9,1192.1 1490.8,1196.5 1513.8,1199.6 1536.8,1201.5 1559.9,1202.3 1583.2,1201.9 1606.8,1200.3 1630.6,1197.4 1654.7,1193.3 1679.3,1187.8 1704.3,1180.9 1729.7,1172.5 1755.8,1162.6 1782.4,1151.0 1809.8,1137.6 1837.8,1122.2 1866.7,1104.8 1896.4,1085.1 1927.1,1063.1 1958.8,1038.5 1991.5,1011.1 2025.3,980.8 2060.3,947.3  A 787.050,787.050 0.00 0,1 2068.3,955.5 L 2068.3,955.5 2032.6,988.6 1998.2,1018.6 1965.0,1045.6 1932.9,1069.8 1901.8,1091.5 1871.6,1110.8 1842.4,1128.0 1814.0,1143.0 1786.4,1156.1 1759.4,1167.5 1733.1,1177.2 1707.4,1185.3 1682.2,1191.9 1657.5,1197.1 1633.1,1201.1 1609.2,1203.7 1585.5,1205.1 1562.0,1205.3 1538.8,1204.4 1515.6,1202.3 1492.6,1199.0 1469.6,1194.5 1446.5,1188.8 1423.4,1181.8 1400.2,1173.6 1376.8,1163.9 1353.3,1152.8 1329.5,1140.2 1305.4,1125.9 1280.9,1109.8 1256.1,1091.9 1230.9,1071.9 1205.3,1049.8 1179.2,1025.3 1152.5,998.3 1125.4,968.6 1097.6,936.0 1069.2,900.3 1040.2,861.2  Z" style="stroke-width: 2.0;  stroke: rgb(230,177,14); fill: rgb(242,205,0);" />
<path d="M 1049.515,854.624 A 787.050,787.050 0.00 0,0 1049.5,854.6 L 1049.5,854.6 1077.5,893.5 1105.0,929.0 1131.9,961.5 1158.2,991.0 1184.1,1017.9 1209.4,1042.3 1234.4,1064.3 1258.9,1084.1 1283.0,1101.9 1306.9,1117.8 1330.4,1132.0 1353.7,1144.4 1376.7,1155.3 1399.6,1164.8 1422.3,1172.8 1444.9,1179.5 1467.4,1184.9 1489.9,1189.1 1512.5,1192.0 1535.1,1193.8 1557.9,1194.4 1580.8,1193.7 1603.9,1191.8 1627.3,1188.7 1650.9,1184.3 1675.0,1178.5 1699.4,1171.2 1724.3,1162.5 1749.7,1152.2 1775.7,1140.1 1802.3,1126.3 1829.6,1110.4 1857.7,1092.5 1886.5,1072.4 1916.2,1049.8 1946.8,1024.7 1978.3,996.8 2010.9,965.9 2044.6,931.8  A 787.050,787.050 0.00 0,0 2036.3,923.9 L 2036.3,923.9 2003.2,958.4 1971.2,989.6 1940.2,1017.9 1910.1,1043.3 1880.8,1066.2 1852.4,1086.7 1824.8,1104.9 1797.8,1121.0 1771.6,1135.1 1745.9,1147.4 1720.7,1158.0 1696.0,1167.0 1671.8,1174.5 1648.0,1180.5 1624.5,1185.1 1601.3,1188.5 1578.4,1190.6 1555.6,1191.4 1533.0,1191.0 1510.5,1189.4 1488.1,1186.7 1465.7,1182.6 1443.2,1177.4 1420.7,1170.8 1398.1,1162.9 1375.4,1153.6 1352.4,1142.9 1329.3,1130.5 1305.8,1116.5 1282.1,1100.7 1258.1,1083.1 1233.6,1063.3 1208.8,1041.5 1183.5,1017.2 1157.8,990.5 1131.6,961.1 1104.8,928.7 1077.4,893.3 1049.5,854.6  Z" style="stroke-width: 2.0;  stroke: rgb(230,177,14); fill: rgb(242,205,0);" />
<path d="M 1058.941,848.145 A 787.050,787.050 0.00 0,1 1078.1,835.6 L 1078.1,835.6 1103.5,874.3 1128.5,909.8 1153.1,942.2 1177.2,971.7 1201.0,998.5 1224.4,1022.9 1247.4,1044.9 1270.2,1064.7 1292.6,1082.4 1314.8,1098.2 1336.8,1112.2 1358.5,1124.6 1380.1,1135.3 1401.6,1144.5 1422.9,1152.3 1444.2,1158.6 1465.4,1163.7 1486.6,1167.4 1507.9,1169.9 1529.1,1171.1 1550.5,1171.0 1572.0,1169.7 1593.7,1167.0 1615.5,1163.1 1637.6,1157.8 1659.9,1151.0 1682.6,1142.8 1705.6,1133.0 1729.0,1121.5 1752.8,1108.2 1777.1,1093.1 1802.0,1076.0 1827.3,1056.7 1853.3,1035.2 1879.9,1011.2 1907.2,984.5 1935.2,955.1 1964.0,922.7 1993.7,887.0  A 787.050,787.050 0.00 0,1 2019.9,909.1 L 2019.9,909.1 1988.2,944.1 1957.4,975.8 1927.5,1004.6 1898.5,1030.6 1870.3,1053.9 1842.8,1074.8 1816.0,1093.5 1789.9,1110.0 1764.3,1124.6 1739.3,1137.3 1714.8,1148.3 1690.8,1157.6 1667.1,1165.4 1643.8,1171.7 1620.8,1176.7 1598.1,1180.3 1575.6,1182.6 1553.3,1183.7 1531.2,1183.5 1509.1,1182.1 1487.1,1179.5 1465.1,1175.6 1443.1,1170.4 1421.0,1164.0 1398.8,1156.2 1376.5,1146.9 1354.1,1136.2 1331.4,1123.9 1308.4,1109.9 1285.3,1094.2 1261.8,1076.5 1237.9,1056.8 1213.7,1034.9 1189.1,1010.7 1164.0,984.0 1138.5,954.5 1112.5,922.2 1086.0,886.8 1058.9,848.1  Z" style="stroke-width: 2.0;  stroke: rgb(230,177,14); fill: rgb(242,205,0);" />
<path d="M 1087.773,829.540 A 787.050,787.050 0.00 0,1 1210.4,768.2 L 1210.4,768.2 1226.5,807.3 1242.5,843.3 1258.4,876.4 1274.3,906.6 1290.1,934.2 1305.9,959.4 1321.6,982.1 1337.3,1002.7 1352.9,1021.2 1368.5,1037.8 1384.1,1052.4 1399.6,1065.3 1415.1,1076.5 1430.6,1086.0 1446.2,1094.0 1461.7,1100.4 1477.3,1105.4 1492.9,1108.9 1508.5,1110.9 1524.2,1111.6 1540.0,1110.9 1555.8,1108.7 1571.7,1105.0 1587.8,1099.9 1603.9,1093.3 1620.2,1085.1 1636.6,1075.3 1653.2,1063.8 1669.9,1050.5 1686.8,1035.3 1703.9,1018.2 1721.3,999.0 1738.8,977.6 1756.7,953.9 1774.8,927.7 1793.1,898.9 1811.8,867.3 1830.8,832.8 1850.1,795.1  A 787.050,787.050 0.00 0,1 1976.3,873.4 L 1976.3,873.4 1948.0,909.5 1920.4,942.4 1893.5,972.2 1867.3,999.3 1841.7,1023.7 1816.7,1045.7 1792.2,1065.4 1768.2,1082.9 1744.7,1098.4 1721.6,1112.0 1698.9,1123.8 1676.6,1133.9 1654.6,1142.5 1632.8,1149.5 1611.3,1155.1 1590.0,1159.3 1568.9,1162.1 1547.9,1163.7 1527.0,1163.9 1506.2,1162.9 1485.5,1160.6 1464.8,1157.0 1444.0,1152.1 1423.2,1145.8 1402.4,1138.1 1381.4,1129.0 1360.3,1118.3 1339.1,1106.0 1317.7,1092.0 1296.0,1076.2 1274.2,1058.5 1252.0,1038.7 1229.6,1016.7 1206.9,992.4 1183.8,965.5 1160.4,936.0 1136.6,903.7 1112.4,868.2 1087.8,829.5  Z" style="stroke-width: 2.0;  stroke: rgb(230,177,14); fill: rgb(242,205,0);" />
<path d="M 1221.032,764.049 A 787.050,787.050 0.00 0,1 1242.5,756.3 L 1242.5,756.3 1256.6,795.2 1270.6,831.1 1284.5,864.1 1298.4,894.3 1312.2,921.9 1326.1,947.0 1339.9,969.8 1353.6,990.4 1367.3,1008.9 1381.1,1025.4 1394.8,1040.1 1408.4,1052.9 1422.1,1064.0 1435.8,1073.5 1449.5,1081.3 1463.2,1087.6 1476.9,1092.4 1490.6,1095.7 1504.4,1097.5 1518.2,1097.9 1532.0,1096.9 1545.9,1094.3 1559.9,1090.3 1573.9,1084.8 1588.0,1077.7 1602.2,1069.1 1616.5,1058.7 1630.9,1046.7 1645.4,1032.9 1660.0,1017.1 1674.7,999.4 1689.6,979.6 1704.7,957.7 1719.9,933.3 1735.3,906.6 1750.8,877.2 1766.6,845.1 1782.6,810.0 1798.8,771.9  A 787.050,787.050 0.00 0,1 1830.2,785.6 L 1830.2,785.6 1812.1,823.4 1794.3,858.2 1776.7,890.0 1759.5,919.1 1742.4,945.5 1725.6,969.5 1709.0,991.2 1692.6,1010.6 1676.3,1028.0 1660.3,1043.4 1644.4,1057.0 1628.6,1068.7 1613.0,1078.7 1597.5,1087.1 1582.1,1094.0 1566.8,1099.3 1551.6,1103.1 1536.5,1105.4 1521.4,1106.3 1506.4,1105.8 1491.4,1103.8 1476.5,1100.4 1461.6,1095.5 1446.7,1089.2 1431.9,1081.3 1417.0,1071.8 1402.1,1060.7 1387.2,1047.9 1372.3,1033.2 1357.4,1016.7 1342.4,998.3 1327.5,977.7 1312.4,954.9 1297.3,929.8 1282.2,902.2 1267.0,872.0 1251.7,839.0 1236.4,803.1 1221.0,764.0  Z" style="stroke-width: 2.0;  stroke: rgb(230,177,14); fill: rgb(242,205,0);" />
<path d="M 1253.375,752.589 A 787.050,787.050 0.00 0,1 1330.6,731.4 L 1330.6,731.4 1339.5,770.3 1348.4,806.2 1357.3,839.2 1366.3,869.5 1375.2,897.3 1384.2,922.6 1393.2,945.6 1402.1,966.4 1411.1,985.1 1420.1,1001.8 1429.1,1016.6 1438.1,1029.6 1447.1,1040.8 1456.1,1050.3 1465.1,1058.2 1474.2,1064.4 1483.2,1069.1 1492.3,1072.3 1501.4,1073.9 1510.5,1074.1 1519.7,1072.7 1528.8,1069.8 1538.0,1065.3 1547.2,1059.3 1556.5,1051.7 1565.8,1042.4 1575.1,1031.5 1584.5,1018.8 1593.9,1004.2 1603.3,987.8 1612.8,969.3 1622.4,948.8 1632.0,926.1 1641.6,901.0 1651.3,873.5 1661.1,843.5 1671.0,810.7 1680.9,775.1 1690.9,736.5  A 787.050,787.050 0.00 0,1 1778.2,763.8 L 1778.2,763.8 1763.2,802.1 1748.4,837.3 1733.8,869.6 1719.3,899.2 1704.9,926.2 1690.7,950.7 1676.7,972.9 1662.7,992.9 1648.9,1010.8 1635.2,1026.8 1621.6,1040.8 1608.0,1053.0 1594.6,1063.5 1581.2,1072.4 1567.9,1079.6 1554.6,1085.3 1541.5,1089.5 1528.3,1092.1 1515.2,1093.3 1502.1,1093.0 1489.1,1091.3 1476.1,1088.1 1463.1,1083.3 1450.1,1077.1 1437.1,1069.3 1424.1,1059.9 1411.1,1048.8 1398.1,1036.0 1385.1,1021.4 1372.0,1004.9 1359.0,986.5 1345.9,965.9 1332.8,943.1 1319.7,918.0 1306.5,890.4 1293.3,860.3 1280.0,827.3 1266.7,791.5 1253.4,752.6  Z" style="stroke-width: 2.0;  stroke: rgb(230,177,14); fill: rgb(242,205,0);" />
<path d="M 1341.745,729.025 A 787.050,787.050 0.00 0,0 1341.7,729.0 L 1341.7,729.0 1350.0,767.8 1358.3,803.6 1366.5,836.5 1374.7,866.8 1382.9,894.5 1391.0,919.7 1399.2,942.7 1407.3,963.4 1415.4,982.1 1423.5,998.7 1431.6,1013.4 1439.7,1026.4 1447.7,1037.5 1455.8,1046.9 1463.8,1054.7 1471.9,1060.9 1479.9,1065.5 1488.0,1068.6 1496.0,1070.1 1504.0,1070.1 1512.0,1068.6 1520.1,1065.5 1528.1,1060.9 1536.2,1054.7 1544.2,1046.9 1552.3,1037.5 1560.3,1026.4 1568.4,1013.4 1576.5,998.7 1584.6,982.1 1592.7,963.4 1600.8,942.7 1609.0,919.7 1617.1,894.5 1625.3,866.8 1633.5,836.5 1641.7,803.6 1650.0,767.8 1658.3,729.0  A 787.050,787.050 0.00 0,1 1669.4,731.4 L 1669.4,731.4 1660.6,770.1 1651.8,805.8 1643.0,838.7 1634.3,868.9 1625.6,896.5 1617.0,921.7 1608.4,944.5 1599.8,965.2 1591.3,983.8 1582.8,1000.3 1574.3,1015.0 1565.9,1027.8 1557.4,1038.9 1549.0,1048.2 1540.6,1056.0 1532.3,1062.1 1523.9,1066.6 1515.6,1069.6 1507.3,1071.1 1499.0,1071.0 1490.7,1069.4 1482.4,1066.3 1474.1,1061.6 1465.8,1055.4 1457.5,1047.6 1449.3,1038.1 1441.0,1026.9 1432.7,1014.0 1424.5,999.2 1416.2,982.5 1408.0,963.8 1399.7,943.0 1391.4,920.0 1383.2,894.7 1374.9,867.0 1366.6,836.7 1358.3,803.7 1350.0,767.9 1341.7,729.0  Z" style="stroke-width: 2.0;  stroke: rgb(230,177,14); fill: rgb(242,205,0);" />
<path d="M 1352.967,726.806 A 787.050,787.050 0.00 0,1 1477.9,713.3 L 1477.9,713.3 1479.0,752.1 1480.1,788.0 1481.1,821.0 1482.1,851.4 1483.1,879.3 1484.0,904.8 1484.9,927.9 1485.8,948.9 1486.6,967.8 1487.4,984.7 1488.2,999.6 1488.9,1012.7 1489.6,1024.0 1490.3,1033.6 1491.0,1041.6 1491.7,1047.9 1492.3,1052.5 1492.9,1055.7 1493.5,1057.2 1494.1,1057.2 1494.6,1055.6 1495.1,1052.5 1495.6,1047.8 1496.1,1041.5 1496.6,1033.6 1497.0,1023.9 1497.4,1012.6 1497.8,999.5 1498.1,984.5 1498.5,967.6 1498.8,948.7 1499.0,927.7 1499.3,904.5 1499.5,879.1 1499.7,851.2 1499.8,820.8 1499.9,787.7 1500.0,751.8 1500.0,713.0  A 787.050,787.050 0.00 0,1 1636.6,724.9 L 1636.6,724.9 1629.5,763.7 1622.3,799.6 1615.2,832.6 1608.1,862.9 1600.9,890.7 1593.8,916.1 1586.7,939.1 1579.5,959.9 1572.4,978.7 1565.2,995.4 1558.1,1010.3 1550.9,1023.3 1543.8,1034.5 1536.6,1044.0 1529.4,1051.9 1522.3,1058.1 1515.1,1062.8 1507.9,1065.9 1500.7,1067.5 1493.5,1067.5 1486.2,1066.1 1479.0,1063.0 1471.8,1058.5 1464.5,1052.3 1457.2,1044.6 1449.9,1035.1 1442.6,1024.0 1435.3,1011.1 1427.9,996.4 1420.6,979.7 1413.2,961.1 1405.8,940.3 1398.3,917.4 1390.8,892.1 1383.3,864.5 1375.8,834.2 1368.2,801.3 1360.6,765.6 1353.0,726.8  Z" style="stroke-width: 2.0;  stroke: rgb(230,177,14); fill: rgb(242,205,0);" />
<path d="M 1293.131,2259.377 A 787.050,787.050 0.00 0,1 1282.1,2256.3 L 1282.1,2256.3 1292.8,2219.0 1302.7,2184.5 1311.8,2152.6 1320.1,2123.4 1327.6,2096.5 1334.5,2072.0 1340.7,2049.6 1346.2,2029.4 1351.2,2011.2 1355.5,1994.8 1359.3,1980.3 1362.6,1967.6 1365.3,1956.6 1367.6,1947.3 1369.3,1939.5 1370.6,1933.3 1371.4,1928.7 1371.8,1925.5 1371.7,1923.9 1371.2,1923.7 1370.2,1925.0 1368.7,1927.8 1366.8,1932.2 1364.5,1938.0 1361.6,1945.5 1358.3,1954.5 1354.5,1965.2 1350.1,1977.6 1345.2,1991.7 1339.8,2007.7 1333.8,2025.6 1327.1,2045.5 1319.9,2067.5 1311.9,2091.8 1303.3,2118.3 1293.9,2147.2 1283.8,2178.7 1272.8,2212.9 1261.0,2249.9  A 787.050,787.050 0.00 0,1 1250.1,2246.3 L 1250.1,2246.3 1262.5,2209.5 1274.0,2175.5 1284.7,2144.2 1294.7,2115.4 1303.8,2089.1 1312.3,2065.0 1320.2,2043.2 1327.4,2023.4 1334.0,2005.7 1340.0,1989.9 1345.4,1975.9 1350.3,1963.7 1354.7,1953.2 1358.6,1944.3 1362.0,1937.1 1364.9,1931.4 1367.4,1927.2 1369.4,1924.6 1371.0,1923.4 1372.1,1923.8 1372.7,1925.6 1372.9,1928.9 1372.6,1933.7 1371.9,1940.1 1370.7,1948.0 1369.0,1957.5 1366.9,1968.7 1364.1,1981.6 1360.9,1996.2 1357.1,2012.7 1352.7,2031.1 1347.7,2051.6 1342.1,2074.1 1335.8,2098.8 1328.8,2125.8 1321.1,2155.2 1312.6,2187.2 1303.3,2221.9 1293.1,2259.4  Z" style="stroke-width: 2.0;  stroke: rgb(230,177,14); fill: rgb(242,205,0);" />
<path d="M 1325.646,2267.495 A 787.050,787.050 0.00 0,1 1314.5,2264.9 L 1314.5,2264.9 1323.6,2227.1 1331.9,2192.1 1339.3,2159.8 1346.0,2130.1 1352.0,2102.8 1357.3,2077.8 1361.9,2055.0 1366.0,2034.3 1369.4,2015.7 1372.2,1998.9 1374.6,1984.0 1376.4,1970.9 1377.6,1959.4 1378.4,1949.7 1378.8,1941.5 1378.6,1934.9 1378.0,1929.8 1377.0,1926.3 1375.5,1924.2 1373.6,1923.7 1371.2,1924.6 1368.4,1927.0 1365.1,1930.9 1361.4,1936.4 1357.2,1943.4 1352.6,1952.0 1347.4,1962.3 1341.8,1974.3 1335.6,1988.1 1328.9,2003.7 1321.6,2021.2 1313.7,2040.8 1305.2,2062.4 1296.1,2086.2 1286.2,2112.4 1275.7,2141.0 1264.4,2172.1 1252.3,2206.0 1239.3,2242.6  A 787.050,787.050 0.00 0,0 1239.3,2242.6 L 1239.3,2242.6 1252.3,2205.9 1264.4,2172.1 1275.8,2141.0 1286.4,2112.4 1296.3,2086.2 1305.6,2062.4 1314.2,2040.8 1322.3,2021.3 1329.7,2003.8 1336.6,1988.2 1342.9,1974.5 1348.8,1962.6 1354.1,1952.3 1359.0,1943.7 1363.4,1936.8 1367.3,1931.4 1370.9,1927.5 1373.9,1925.1 1376.6,1924.3 1378.8,1924.9 1380.6,1927.0 1381.9,1930.7 1382.8,1935.8 1383.3,1942.5 1383.3,1950.7 1382.9,1960.6 1382.0,1972.1 1380.5,1985.3 1378.6,2000.3 1376.2,2017.2 1373.2,2036.0 1369.6,2056.7 1365.4,2079.6 1360.5,2104.7 1355.0,2132.2 1348.8,2162.0 1341.9,2194.4 1334.2,2229.5 1325.6,2267.5  Z" style="stroke-width: 2.0;  stroke: rgb(230,177,14); fill: rgb(242,205,0);" />
<path d="M 1358.476,2274.221 A 787.050,787.050 0.00 0,1 1347.2,2272.1 L 1347.2,2272.1 1354.7,2233.8 1361.3,2198.4 1367.2,2165.8 1372.4,2135.6 1376.9,2108.0 1380.7,2082.6 1383.9,2059.5 1386.5,2038.5 1388.6,2019.5 1390.1,2002.4 1391.1,1987.1 1391.6,1973.7 1391.6,1962.0 1391.2,1951.9 1390.3,1943.4 1388.9,1936.5 1387.1,1931.1 1384.9,1927.3 1382.3,1925.0 1379.3,1924.1 1375.8,1924.7 1371.9,1926.9 1367.6,1930.5 1362.9,1935.7 1357.7,1942.5 1352.1,1950.9 1346.0,1960.9 1339.4,1972.6 1332.3,1986.2 1324.7,2001.5 1316.6,2018.8 1307.9,2038.1 1298.6,2059.6 1288.7,2083.2 1278.1,2109.2 1266.8,2137.6 1254.8,2168.5 1242.1,2202.2 1228.5,2238.8  A 787.050,787.050 0.00 0,0 1228.5,2238.8 L 1228.5,2238.8 1242.1,2202.2 1254.9,2168.5 1266.9,2137.5 1278.3,2109.1 1288.9,2083.2 1299.0,2059.6 1308.4,2038.1 1317.2,2018.9 1325.5,2001.6 1333.3,1986.2 1340.6,1972.7 1347.3,1961.0 1353.6,1951.0 1359.5,1942.7 1364.9,1936.0 1369.9,1930.8 1374.4,1927.2 1378.6,1925.1 1382.3,1924.6 1385.6,1925.5 1388.6,1927.9 1391.1,1931.8 1393.2,1937.2 1394.8,1944.2 1396.1,1952.7 1396.9,1962.8 1397.2,1974.7 1397.1,1988.2 1396.5,2003.5 1395.4,2020.7 1393.8,2039.7 1391.6,2060.9 1388.9,2084.1 1385.5,2109.5 1381.5,2137.3 1376.8,2167.5 1371.5,2200.3 1365.4,2235.8 1358.5,2274.2  Z" style="stroke-width: 2.0;  stroke: rgb(230,177,14); fill: rgb(242,205,0);" />
<path d="M 1402.905,2281.038 A 787.050,787.050 0.00 0,1 1380.2,2277.9 L 1380.2,2277.9 1386.0,2239.2 1391.1,2203.5 1395.4,2170.4 1399.0,2140.0 1402.0,2112.0 1404.3,2086.3 1406.1,2062.9 1407.3,2041.5 1408.0,2022.2 1408.1,2004.9 1407.8,1989.4 1407.0,1975.6 1405.7,1963.6 1404.0,1953.3 1401.9,1944.5 1399.3,1937.4 1396.4,1931.8 1393.0,1927.7 1389.3,1925.1 1385.1,1924.0 1380.6,1924.4 1375.6,1926.3 1370.3,1929.7 1364.5,1934.6 1358.3,1941.1 1351.7,1949.3 1344.7,1959.1 1337.1,1970.6 1329.2,1983.9 1320.7,1999.0 1311.7,2016.1 1302.1,2035.2 1292.0,2056.5 1281.3,2079.9 1270.0,2105.7 1258.0,2133.9 1245.4,2164.8 1232.0,2198.3 1217.8,2234.7  A 787.050,787.050 0.00 0,1 1207.2,2230.5 L 1207.2,2230.5 1221.9,2194.3 1235.9,2160.9 1249.2,2130.2 1261.9,2102.1 1273.8,2076.5 1285.2,2053.2 1296.0,2032.1 1306.2,2013.2 1315.9,1996.3 1325.2,1981.3 1333.9,1968.2 1342.1,1956.9 1350.0,1947.3 1357.3,1939.3 1364.3,1933.0 1370.9,1928.2 1377.0,1925.0 1382.8,1923.3 1388.2,1923.1 1393.2,1924.4 1397.8,1927.2 1402.0,1931.5 1405.9,1937.3 1409.3,1944.6 1412.3,1953.5 1415.0,1964.0 1417.2,1976.2 1418.9,1990.2 1420.2,2005.8 1421.0,2023.4 1421.3,2042.9 1421.2,2064.4 1420.4,2088.1 1419.1,2113.9 1417.2,2142.2 1414.7,2172.8 1411.4,2206.1 1407.5,2242.1 1402.9,2281.0  Z" style="stroke-width: 2.0;  stroke: rgb(230,177,14); fill: rgb(242,205,0);" />
<path d="M 2112.908,1993.752 A 787.050,787.050 0.00 0,1 1424.8,2283.5 L 1424.8,2283.5 1428.4,2244.3 1431.2,2208.1 1433.3,2174.6 1434.8,2143.7 1435.7,2115.3 1436.0,2089.2 1435.7,2065.4 1434.9,2043.7 1433.7,2024.0 1431.9,2006.3 1429.7,1990.5 1427.0,1976.4 1423.9,1964.0 1420.4,1953.3 1416.4,1944.3 1412.1,1936.8 1407.4,1930.8 1402.4,1926.3 1396.9,1923.4 1391.1,1921.9 1384.9,1922.0 1378.3,1923.5 1371.4,1926.5 1364.0,1931.1 1356.3,1937.3 1348.2,1945.0 1339.6,1954.5 1330.6,1965.6 1321.2,1978.6 1311.2,1993.3 1300.8,2010.1 1289.9,2028.8 1278.4,2049.7 1266.4,2072.8 1253.8,2098.3 1240.5,2126.2 1226.6,2156.8 1211.9,2190.1 1196.6,2226.2  A 787.050,787.050 0.00 0,1 728.8,1657.4 L 728.8,1657.4 789.2,1645.6 846.0,1635.7 899.4,1627.5 949.7,1620.7 996.9,1615.4 1041.4,1611.3 1083.3,1608.3 1122.9,1606.3 1160.2,1605.3 1195.6,1605.1 1229.1,1605.7 1261.1,1607.0 1291.6,1609.0 1320.8,1611.6 1348.9,1614.8 1376.2,1618.6 1402.7,1622.9 1428.6,1627.9 1454.2,1633.4 1479.5,1639.5 1504.7,1646.4 1530.0,1653.9 1555.6,1662.2 1581.5,1671.3 1608.0,1681.4 1635.2,1692.5 1663.1,1704.8 1692.1,1718.3 1722.2,1733.1 1753.5,1749.5 1786.2,1767.6 1820.5,1787.5 1856.3,1809.3 1894.0,1833.4 1933.5,1859.9 1975.1,1888.9 2018.7,1920.7 2064.6,1955.6 2112.9,1993.8  Z" style="stroke-width: 2.0;  stroke: rgb(230,177,14); fill: rgb(242,205,0);" />
<path d="M 2133.372,1967.213 A 787.050,787.050 0.00 0,1 2126.5,1976.4 L 2126.5,1976.4 2076.6,1939.1 2029.2,1905.1 1984.3,1874.0 1941.6,1845.7 1901.0,1820.0 1862.5,1796.5 1825.9,1775.3 1791.0,1755.9 1757.8,1738.4 1726.0,1722.5 1695.5,1708.1 1666.3,1695.0 1638.1,1683.2 1610.8,1672.4 1584.2,1662.7 1558.2,1653.8 1532.7,1645.8 1507.4,1638.5 1482.2,1631.9 1457.0,1626.0 1431.5,1620.6 1405.6,1615.8 1379.2,1611.6 1352.0,1607.9 1323.8,1604.7 1294.6,1602.1 1264.1,1600.1 1232.1,1598.8 1198.4,1598.1 1162.9,1598.1 1125.3,1598.9 1085.4,1600.6 1043.2,1603.3 998.2,1607.0 950.5,1611.9 899.6,1618.2 845.5,1625.8 787.9,1635.1 726.6,1646.1  A 787.050,787.050 0.00 0,0 726.6,1646.1 L 726.6,1646.1 788.2,1635.1 846.0,1625.7 900.3,1618.0 951.3,1611.7 999.2,1606.6 1044.3,1602.8 1086.7,1600.0 1126.6,1598.2 1164.3,1597.3 1199.8,1597.1 1233.6,1597.7 1265.6,1599.0 1296.1,1600.8 1325.4,1603.3 1353.5,1606.3 1380.7,1609.8 1407.1,1613.9 1433.0,1618.5 1458.5,1623.7 1483.7,1629.4 1508.9,1635.8 1534.2,1642.9 1559.8,1650.7 1585.9,1659.3 1612.5,1668.8 1639.9,1679.3 1668.3,1690.9 1697.7,1703.6 1728.3,1717.8 1760.3,1733.3 1793.8,1750.5 1829.0,1769.5 1866.0,1790.3 1904.9,1813.4 1945.9,1838.7 1989.1,1866.5 2034.7,1897.0 2082.7,1930.5 2133.4,1967.2  Z" style="stroke-width: 2.0;  stroke: rgb(230,177,14); fill: rgb(242,205,0);" />
<path d="M 2152.687,1939.826 A 787.050,787.050 0.00 0,1 2146.2,1949.3 L 2146.2,1949.3 2094.0,1913.6 2044.5,1881.0 1997.6,1851.3 1953.3,1824.3 1911.3,1799.7 1871.5,1777.4 1833.8,1757.1 1798.0,1738.8 1764.0,1722.1 1731.6,1707.1 1700.6,1693.4 1671.0,1681.1 1642.5,1669.9 1614.9,1659.8 1588.2,1650.7 1562.2,1642.4 1536.6,1634.9 1511.4,1628.0 1486.2,1621.9 1461.1,1616.3 1435.7,1611.3 1409.9,1606.8 1383.6,1602.9 1356.5,1599.4 1328.4,1596.5 1299.2,1594.0 1268.6,1592.1 1236.5,1590.8 1202.7,1590.1 1167.0,1590.1 1129.1,1590.8 1088.9,1592.4 1046.2,1594.9 1000.7,1598.3 952.2,1602.9 900.6,1608.7 845.6,1615.9 787.0,1624.6 724.6,1634.9  A 787.050,787.050 0.00 0,0 724.6,1634.9 L 724.6,1634.9 787.3,1624.5 846.1,1615.8 901.3,1608.5 953.1,1602.6 1001.7,1598.0 1047.3,1594.4 1090.1,1591.8 1130.4,1590.2 1168.4,1589.3 1204.1,1589.2 1238.0,1589.8 1270.1,1590.9 1300.7,1592.7 1329.9,1595.0 1357.9,1597.8 1385.0,1601.1 1411.4,1604.9 1437.1,1609.2 1462.5,1614.0 1487.7,1619.4 1512.8,1625.3 1538.0,1631.9 1563.6,1639.2 1589.7,1647.3 1616.5,1656.2 1644.1,1666.0 1672.7,1676.9 1702.5,1689.0 1733.6,1702.3 1766.2,1717.0 1800.5,1733.3 1836.6,1751.2 1874.7,1771.1 1914.8,1792.9 1957.3,1817.1 2002.2,1843.6 2049.6,1872.7 2099.7,1904.8 2152.7,1939.8  Z" style="stroke-width: 2.0;  stroke: rgb(230,177,14); fill: rgb(242,205,0);" />
<path d="M 2170.819,1911.642 A 787.050,787.050 0.00 0,1 2164.8,1921.3 L 2164.8,1921.3 2110.2,1887.3 2058.6,1856.3 2010.0,1828.1 1964.0,1802.4 1920.6,1779.1 1879.6,1757.9 1840.8,1738.8 1804.2,1721.4 1769.4,1705.7 1736.4,1691.6 1705.0,1678.7 1675.0,1667.2 1646.2,1656.7 1618.5,1647.2 1591.8,1638.7 1565.7,1630.9 1540.1,1623.9 1515.0,1617.6 1489.9,1611.9 1464.9,1606.7 1439.7,1602.1 1414.0,1597.9 1387.8,1594.2 1360.8,1591.0 1332.8,1588.2 1303.7,1586.0 1273.1,1584.2 1241.0,1582.9 1207.1,1582.3 1171.1,1582.2 1133.0,1582.9 1092.5,1584.3 1049.3,1586.5 1003.3,1589.7 954.2,1593.9 901.8,1599.3 845.9,1605.9 786.3,1614.0 722.7,1623.6  A 787.050,787.050 0.00 0,0 722.7,1623.6 L 722.7,1623.6 786.5,1613.9 846.4,1605.8 902.5,1599.1 955.0,1593.6 1004.3,1589.3 1050.4,1586.1 1093.7,1583.7 1134.3,1582.2 1172.5,1581.4 1208.5,1581.4 1242.4,1581.9 1274.6,1583.0 1305.1,1584.7 1334.3,1586.8 1362.2,1589.4 1389.2,1592.4 1415.4,1596.0 1441.0,1599.9 1466.2,1604.4 1491.2,1609.4 1516.2,1614.9 1541.4,1621.0 1567.0,1627.8 1593.1,1635.3 1619.9,1643.6 1647.7,1652.8 1676.5,1663.0 1706.6,1674.2 1738.2,1686.7 1771.4,1700.6 1806.4,1715.9 1843.3,1732.8 1882.4,1751.6 1923.8,1772.2 1967.7,1795.1 2014.1,1820.2 2063.4,1847.9 2115.5,1878.3 2170.8,1911.6  Z" style="stroke-width: 2.0;  stroke: rgb(230,177,14); fill: rgb(242,205,0);" />
<path d="M 2193.224,1872.676 A 787.050,787.050 0.00 0,1 2182.1,1892.7 L 2182.1,1892.7 2125.3,1860.5 2071.7,1831.1 2021.2,1804.5 1973.7,1780.2 1928.9,1758.2 1886.7,1738.3 1847.0,1720.3 1809.5,1704.0 1774.0,1689.3 1740.5,1676.0 1708.6,1664.1 1678.3,1653.2 1649.4,1643.5 1621.6,1634.7 1594.8,1626.8 1568.7,1619.6 1543.2,1613.1 1518.2,1607.3 1493.3,1602.0 1468.5,1597.2 1443.4,1592.9 1418.0,1589.1 1391.9,1585.7 1365.1,1582.7 1337.2,1580.1 1308.1,1578.0 1277.6,1576.3 1245.4,1575.2 1211.4,1574.5 1175.4,1574.4 1137.0,1575.0 1096.1,1576.2 1052.5,1578.2 1006.0,1581.1 956.2,1585.0 903.1,1589.9 846.4,1596.0 785.7,1603.4 721.0,1612.3  A 787.050,787.050 0.00 0,1 719.5,1601.0 L 719.5,1601.0 785.1,1592.9 846.5,1586.2 903.9,1580.7 957.7,1576.3 1007.9,1573.0 1054.8,1570.5 1098.7,1568.8 1139.9,1567.8 1178.4,1567.4 1214.6,1567.7 1248.6,1568.4 1280.8,1569.7 1311.2,1571.4 1340.2,1573.5 1367.9,1576.0 1394.6,1578.8 1420.5,1582.1 1445.8,1585.8 1470.7,1589.9 1495.3,1594.5 1520.0,1599.5 1545.0,1605.1 1570.3,1611.2 1596.3,1618.1 1623.1,1625.6 1650.9,1634.0 1680.0,1643.3 1710.5,1653.6 1742.5,1665.0 1776.4,1677.7 1812.3,1691.8 1850.3,1707.3 1890.8,1724.6 1933.7,1743.7 1979.5,1764.7 2028.1,1788.0 2079.8,1813.6 2134.8,1841.8 2193.2,1872.7  Z" style="stroke-width: 2.0;  stroke: rgb(230,177,14); fill: rgb(242,205,0);" />
<path d="M 2250.642,1736.610 A 787.050,787.050 0.00 0,1 2203.4,1853.1 L 2203.4,1853.1 2143.4,1823.4 2087.1,1796.5 2034.2,1771.9 1984.5,1749.7 1937.9,1729.5 1894.2,1711.3 1853.2,1694.8 1814.6,1679.9 1778.3,1666.5 1744.1,1654.4 1711.9,1643.5 1681.2,1633.7 1652.1,1624.8 1624.3,1616.9 1597.5,1609.7 1571.7,1603.2 1546.4,1597.3 1521.7,1592.0 1497.2,1587.2 1472.7,1582.9 1448.0,1578.9 1422.9,1575.4 1397.2,1572.2 1370.7,1569.4 1343.1,1567.0 1314.2,1564.9 1283.8,1563.2 1251.7,1561.9 1217.6,1561.0 1181.4,1560.6 1142.7,1560.7 1101.4,1561.4 1057.2,1562.8 1009.8,1564.9 959.2,1567.8 904.9,1571.6 846.8,1576.4 784.6,1582.4 718.1,1589.6  A 787.050,787.050 0.00 0,1 713.3,1475.4 L 713.3,1475.4 785.8,1477.9 853.2,1480.5 915.7,1483.4 973.6,1486.3 1027.2,1489.4 1076.8,1492.5 1122.7,1495.6 1165.1,1498.8 1204.4,1502.0 1240.7,1505.2 1274.4,1508.3 1305.8,1511.5 1335.0,1514.7 1362.5,1517.9 1388.5,1521.1 1413.2,1524.4 1436.9,1527.8 1460.0,1531.3 1482.5,1534.9 1505.0,1538.7 1527.5,1542.7 1550.3,1547.0 1573.9,1551.7 1598.3,1556.8 1623.8,1562.3 1650.8,1568.4 1679.5,1575.0 1710.2,1582.4 1743.1,1590.5 1778.4,1599.5 1816.5,1609.5 1857.6,1620.5 1901.9,1632.7 1949.7,1646.1 2001.4,1661.0 2057.0,1677.3 2116.9,1695.3 2181.4,1715.0 2250.6,1736.6  Z" style="stroke-width: 2.0;  stroke: rgb(230,177,14); fill: rgb(242,205,0);" />
<path d="M 2198.673,1137.641 A 787.050,787.050 0.00 0,1 2257.0,1715.5 L 2257.0,1715.5 2186.4,1695.5 2120.8,1677.4 2059.8,1660.8 2003.3,1645.7 1951.0,1632.0 1902.6,1619.6 1857.8,1608.4 1816.4,1598.2 1778.1,1589.0 1742.6,1580.6 1709.7,1573.1 1679.0,1566.3 1650.4,1560.1 1623.6,1554.5 1598.2,1549.4 1574.0,1544.6 1550.8,1540.3 1528.2,1536.2 1506.0,1532.5 1484.0,1528.9 1461.7,1525.4 1439.0,1522.1 1415.6,1518.8 1391.2,1515.6 1365.5,1512.4 1338.3,1509.2 1309.2,1506.0 1278.0,1502.8 1244.4,1499.5 1208.1,1496.1 1168.8,1492.6 1126.3,1489.1 1080.3,1485.6 1030.4,1482.0 976.4,1478.4 918.1,1474.7 855.0,1471.1 787.0,1467.5 713.8,1464.0  A 787.050,787.050 0.00 0,1 944.4,942.6 L 944.4,942.6 983.8,981.1 1021.7,1016.2 1058.3,1048.3 1093.6,1077.4 1127.6,1103.9 1160.5,1127.9 1192.3,1149.7 1223.1,1169.3 1253.0,1187.0 1282.0,1203.0 1310.3,1217.3 1337.9,1230.1 1365.0,1241.6 1391.5,1251.8 1417.7,1260.7 1443.5,1268.6 1469.1,1275.5 1494.6,1281.3 1520.1,1286.2 1545.7,1290.2 1571.5,1293.3 1597.6,1295.4 1624.1,1296.7 1651.1,1297.1 1678.8,1296.4 1707.1,1294.8 1736.4,1292.1 1766.6,1288.3 1797.9,1283.2 1830.4,1276.8 1864.2,1269.0 1899.6,1259.6 1936.5,1248.6 1975.1,1235.7 2015.6,1220.8 2058.0,1203.7 2102.6,1184.3 2149.4,1162.4 2198.7,1137.6  Z" style="stroke-width: 2.0;  stroke: rgb(230,177,14); fill: rgb(242,205,0);" />
<path d="M 2182.613,1108.226 A 787.050,787.050 0.00 0,1 2188.2,1118.2 L 2188.2,1118.2 2140.3,1144.0 2094.6,1166.9 2051.1,1187.2 2009.6,1205.1 1970.0,1220.8 1932.1,1234.5 1895.8,1246.2 1861.1,1256.2 1827.7,1264.6 1795.7,1271.6 1764.7,1277.1 1734.8,1281.4 1705.9,1284.6 1677.7,1286.6 1650.3,1287.5 1623.4,1287.5 1597.1,1286.5 1571.1,1284.6 1545.5,1281.7 1520.0,1277.9 1494.6,1273.2 1469.2,1267.5 1443.7,1260.8 1418.0,1253.0 1392.0,1244.1 1365.7,1234.0 1338.9,1222.6 1311.5,1209.8 1283.5,1195.5 1254.9,1179.5 1225.4,1161.8 1195.1,1142.1 1163.8,1120.3 1131.5,1096.2 1098.2,1069.7 1063.7,1040.5 1027.9,1008.4 990.9,973.2 952.5,934.6  A 787.050,787.050 0.00 0,0 952.5,934.6 L 952.5,934.6 990.7,973.0 1027.6,1008.1 1063.2,1040.0 1097.6,1069.1 1130.9,1095.5 1163.1,1119.4 1194.3,1141.0 1224.5,1160.6 1253.9,1178.2 1282.6,1194.0 1310.5,1208.2 1337.8,1220.8 1364.6,1232.1 1390.9,1242.1 1416.9,1250.8 1442.5,1258.4 1468.0,1265.0 1493.4,1270.5 1518.8,1275.0 1544.2,1278.6 1569.9,1281.3 1595.8,1283.0 1622.1,1283.8 1648.9,1283.6 1676.2,1282.3 1704.3,1280.1 1733.1,1276.6 1762.9,1272.0 1793.7,1266.1 1825.5,1258.9 1858.7,1250.1 1893.2,1239.7 1929.1,1227.5 1966.7,1213.5 2005.9,1197.3 2047.0,1178.9 2090.1,1158.1 2135.3,1134.6 2182.6,1108.2  Z" style="stroke-width: 2.0;  stroke: rgb(230,177,14); fill: rgb(242,205,0);" />
<path d="M 2165.317,1079.522 A 787.050,787.050 0.00 0,1 2171.4,1089.2 L 2171.4,1089.2 2125.3,1116.5 2081.3,1140.9 2039.4,1162.7 1999.2,1181.9 1960.8,1198.8 1924.1,1213.6 1888.8,1226.4 1854.9,1237.4 1822.3,1246.8 1790.9,1254.6 1760.5,1261.0 1731.1,1266.0 1702.6,1269.8 1674.8,1272.5 1647.7,1274.1 1621.1,1274.6 1595.0,1274.1 1569.2,1272.7 1543.7,1270.2 1518.4,1266.8 1493.2,1262.4 1468.0,1257.1 1442.6,1250.6 1417.2,1243.1 1391.4,1234.4 1365.3,1224.5 1338.8,1213.3 1311.8,1200.7 1284.2,1186.5 1255.9,1170.7 1226.9,1153.1 1197.2,1133.5 1166.5,1111.8 1135.0,1087.9 1102.4,1061.4 1068.7,1032.3 1034.0,1000.3 998.0,965.2 960.8,926.7  A 787.050,787.050 0.00 0,0 960.8,926.7 L 960.8,926.7 997.9,965.0 1033.7,1000.0 1068.3,1031.8 1101.9,1060.8 1134.3,1087.1 1165.8,1110.9 1196.4,1132.5 1226.1,1151.9 1255.0,1169.4 1283.2,1185.1 1310.7,1199.1 1337.7,1211.6 1364.2,1222.7 1390.2,1232.4 1416.0,1240.9 1441.4,1248.3 1466.7,1254.5 1491.9,1259.7 1517.1,1263.9 1542.4,1267.1 1567.8,1269.4 1593.5,1270.6 1619.6,1270.9 1646.1,1270.1 1673.1,1268.3 1700.8,1265.4 1729.2,1261.3 1758.4,1255.9 1788.6,1249.2 1819.8,1241.1 1852.2,1231.4 1885.8,1220.0 1920.8,1206.7 1957.2,1191.5 1995.2,1174.2 2034.9,1154.5 2076.4,1132.3 2119.9,1107.4 2165.3,1079.5  Z" style="stroke-width: 2.0;  stroke: rgb(230,177,14); fill: rgb(242,205,0);" />
<path d="M 2146.813,1051.580 A 787.050,787.050 0.00 0,1 2153.3,1061.0 L 2153.3,1061.0 2109.1,1089.8 2066.9,1115.6 2026.5,1138.6 1987.8,1159.0 1950.7,1177.1 1915.0,1193.0 1880.8,1206.8 1847.8,1218.8 1816.0,1229.1 1785.3,1237.7 1755.6,1244.9 1726.7,1250.7 1698.7,1255.2 1671.3,1258.5 1644.5,1260.7 1618.3,1261.8 1592.4,1261.8 1566.9,1260.8 1541.7,1258.8 1516.6,1255.8 1491.6,1251.7 1466.6,1246.7 1441.5,1240.5 1416.2,1233.3 1390.7,1224.8 1364.9,1215.2 1338.7,1204.1 1312.0,1191.7 1284.9,1177.7 1257.1,1162.0 1228.6,1144.5 1199.4,1125.0 1169.4,1103.5 1138.6,1079.6 1106.8,1053.3 1074.0,1024.2 1040.2,992.3 1005.3,957.3 969.2,918.9  A 787.050,787.050 0.00 0,0 969.2,918.9 L 969.2,918.9 1005.1,957.1 1039.9,992.0 1073.6,1023.8 1106.3,1052.7 1137.9,1078.9 1168.7,1102.6 1198.6,1124.0 1227.7,1143.3 1256.1,1160.7 1283.8,1176.2 1311.0,1190.1 1337.6,1202.4 1363.7,1213.3 1389.5,1222.8 1415.0,1231.1 1440.2,1238.2 1465.2,1244.2 1490.2,1249.1 1515.2,1252.9 1540.2,1255.7 1565.4,1257.5 1590.8,1258.3 1616.6,1258.1 1642.7,1256.8 1669.4,1254.4 1696.6,1250.8 1724.6,1246.0 1753.2,1239.9 1782.8,1232.4 1813.3,1223.5 1844.8,1212.8 1877.5,1200.5 1911.4,1186.3 1946.7,1170.0 1983.4,1151.5 2021.7,1130.6 2061.6,1107.1 2103.3,1080.9 2146.8,1051.6  Z" style="stroke-width: 2.0;  stroke: rgb(230,177,14); fill: rgb(242,205,0);" />
<path d="M 2083.338,971.640 A 787.050,787.050 0.00 0,1 2134.0,1033.6 L 2134.0,1033.6 2091.8,1063.7 2051.3,1090.8 2012.5,1115.0 1975.3,1136.6 1939.5,1155.8 1905.0,1172.7 1871.8,1187.6 1839.8,1200.5 1808.9,1211.6 1778.9,1221.1 1749.9,1229.0 1721.6,1235.6 1694.1,1240.8 1667.2,1244.7 1640.8,1247.4 1614.9,1249.0 1589.4,1249.5 1564.2,1249.0 1539.3,1247.4 1514.5,1244.8 1489.7,1241.1 1465.0,1236.4 1440.1,1230.5 1415.2,1223.5 1390.0,1215.3 1364.5,1205.9 1338.6,1195.0 1312.4,1182.7 1285.6,1168.9 1258.3,1153.3 1230.4,1136.0 1201.8,1116.7 1172.4,1095.2 1142.3,1071.4 1111.3,1045.2 1079.4,1016.3 1046.5,984.4 1012.7,949.5 977.7,911.2  A 787.050,787.050 0.00 0,1 1030.9,868.0 L 1030.9,868.0 1060.9,907.1 1090.1,942.8 1118.7,975.4 1146.6,1005.1 1173.9,1032.1 1200.7,1056.5 1226.9,1078.7 1252.7,1098.7 1278.0,1116.6 1302.9,1132.7 1327.5,1147.0 1351.7,1159.7 1375.7,1170.9 1399.5,1180.6 1423.1,1189.0 1446.5,1196.0 1469.9,1201.9 1493.3,1206.5 1516.7,1210.0 1540.2,1212.3 1563.8,1213.4 1587.7,1213.5 1611.7,1212.3 1636.1,1209.9 1660.9,1206.3 1686.1,1201.4 1711.8,1195.2 1738.1,1187.5 1764.9,1178.2 1792.5,1167.3 1820.9,1154.6 1850.0,1140.1 1880.1,1123.5 1911.1,1104.7 1943.2,1083.5 1976.4,1059.8 2010.7,1033.4 2046.4,1004.1 2083.3,971.6  Z" style="stroke-width: 2.0;  stroke: rgb(230,177,14); fill: rgb(242,205,0);" />
<path d="M 2060.317,947.286 A 787.050,787.050 0.00 0,1 2068.3,955.5 L 2068.3,955.5 2032.6,988.6 1998.2,1018.6 1965.0,1045.6 1932.9,1069.8 1901.8,1091.5 1871.6,1110.8 1842.4,1128.0 1814.0,1143.0 1786.4,1156.1 1759.4,1167.5 1733.1,1177.2 1707.4,1185.3 1682.2,1191.9 1657.5,1197.1 1633.1,1201.1 1609.2,1203.7 1585.5,1205.1 1562.0,1205.3 1538.8,1204.4 1515.6,1202.3 1492.6,1199.0 1469.6,1194.5 1446.5,1188.8 1423.4,1181.8 1400.2,1173.6 1376.8,1163.9 1353.3,1152.8 1329.5,1140.2 1305.4,1125.9 1280.9,1109.8 1256.1,1091.9 1230.9,1071.9 1205.3,1049.8 1179.2,1025.3 1152.5,998.3 1125.4,968.6 1097.6,936.0 1069.2,900.3 1040.2,861.2  A 787.050,787.050 0.00 0,0 1040.2,861.2 L 1040.2,861.2 1069.1,900.1 1097.4,935.7 1125.0,968.1 1152.1,997.7 1178.6,1024.6 1204.7,1048.9 1230.2,1070.9 1255.3,1090.8 1280.0,1108.6 1304.3,1124.5 1328.4,1138.7 1352.1,1151.2 1375.6,1162.2 1398.8,1171.7 1422.0,1179.8 1445.0,1186.6 1467.9,1192.1 1490.8,1196.5 1513.8,1199.6 1536.8,1201.5 1559.9,1202.3 1583.2,1201.9 1606.8,1200.3 1630.6,1197.4 1654.7,1193.3 1679.3,1187.8 1704.3,1180.9 1729.7,1172.5 1755.8,1162.6 1782.4,1151.0 1809.8,1137.6 1837.8,1122.2 1866.7,1104.8 1896.4,1085.1 1927.1,1063.1 1958.8,1038.5 1991.5,1011.1 2025.3,980.8 2060.3,947.3  Z" style="stroke-width: 2.0;  stroke: rgb(230,177,14); fill: rgb(242,205,0);" />
<path d="M 2036.280,923.934 A 787.050,787.050 0.00 0,1 2044.6,931.8 L 2044.6,931.8 2010.9,965.9 1978.3,996.8 1946.8,1024.7 1916.2,1049.8 1886.5,1072.4 1857.7,1092.5 1829.6,1110.4 1802.3,1126.3 1775.7,1140.1 1749.7,1152.2 1724.3,1162.5 1699.4,1171.2 1675.0,1178.5 1650.9,1184.3 1627.3,1188.7 1603.9,1191.8 1580.8,1193.7 1557.9,1194.4 1535.1,1193.8 1512.5,1192.0 1489.9,1189.1 1467.4,1184.9 1444.9,1179.5 1422.3,1172.8 1399.6,1164.8 1376.7,1155.3 1353.7,1144.4 1330.4,1132.0 1306.9,1117.8 1283.0,1101.9 1258.9,1084.1 1234.4,1064.3 1209.4,1042.3 1184.1,1017.9 1158.2,991.0 1131.9,961.5 1105.0,929.0 1077.5,893.5 1049.5,854.6  A 787.050,787.050 0.00 0,0 1049.5,854.6 L 1049.5,854.6 1077.4,893.3 1104.8,928.7 1131.6,961.1 1157.8,990.5 1183.5,1017.2 1208.8,1041.5 1233.6,1063.3 1258.1,1083.1 1282.1,1100.7 1305.8,1116.5 1329.3,1130.5 1352.4,1142.9 1375.4,1153.6 1398.1,1162.9 1420.7,1170.8 1443.2,1177.4 1465.7,1182.6 1488.1,1186.7 1510.5,1189.4 1533.0,1191.0 1555.6,1191.4 1578.4,1190.6 1601.3,1188.5 1624.5,1185.1 1648.0,1180.5 1671.8,1174.5 1696.0,1167.0 1720.7,1158.0 1745.9,1147.4 1771.6,1135.1 1797.8,1121.0 1824.8,1104.9 1852.4,1086.7 1880.8,1066.2 1910.1,1043.3 1940.2,1017.9 1971.2,989.6 2003.2,958.4 2036.3,923.9  Z" style="stroke-width: 2.0;  stroke: rgb(230,177,14); fill: rgb(242,205,0);" />
<path d="M 1993.663,887.020 A 787.050,787.050 0.00 0,1 2019.9,909.1 L 2019.9,909.1 1988.2,944.1 1957.4,975.8 1927.5,1004.6 1898.5,1030.6 1870.3,1053.9 1842.8,1074.8 1816.0,1093.5 1789.9,1110.0 1764.3,1124.6 1739.3,1137.3 1714.8,1148.3 1690.8,1157.6 1667.1,1165.4 1643.8,1171.7 1620.8,1176.7 1598.1,1180.3 1575.6,1182.6 1553.3,1183.7 1531.2,1183.5 1509.1,1182.1 1487.1,1179.5 1465.1,1175.6 1443.1,1170.4 1421.0,1164.0 1398.8,1156.2 1376.5,1146.9 1354.1,1136.2 1331.4,1123.9 1308.4,1109.9 1285.3,1094.2 1261.8,1076.5 1237.9,1056.8 1213.7,1034.9 1189.1,1010.7 1164.0,984.0 1138.5,954.5 1112.5,922.2 1086.0,886.8 1058.9,848.1  A 787.050,787.050 0.00 0,1 1078.1,835.6 L 1078.1,835.6 1103.5,874.3 1128.5,909.8 1153.1,942.2 1177.2,971.7 1201.0,998.5 1224.4,1022.9 1247.4,1044.9 1270.2,1064.7 1292.6,1082.4 1314.8,1098.2 1336.8,1112.2 1358.5,1124.6 1380.1,1135.3 1401.6,1144.5 1422.9,1152.3 1444.2,1158.6 1465.4,1163.7 1486.6,1167.4 1507.9,1169.9 1529.1,1171.1 1550.5,1171.0 1572.0,1169.7 1593.7,1167.0 1615.5,1163.1 1637.6,1157.8 1659.9,1151.0 1682.6,1142.8 1705.6,1133.0 1729.0,1121.5 1752.8,1108.2 1777.1,1093.1 1802.0,1076.0 1827.3,1056.7 1853.3,1035.2 1879.9,1011.2 1907.2,984.5 1935.2,955.1 1964.0,922.7 1993.7,887.0  Z" style="stroke-width: 2.0;  stroke: rgb(230,177,14); fill: rgb(242,205,0);" />
<path d="M 1850.120,795.114 A 787.050,787.050 0.00 0,1 1976.3,873.4 L 1976.3,873.4 1948.0,909.5 1920.4,942.4 1893.5,972.2 1867.3,999.3 1841.7,1023.7 1816.7,1045.7 1792.2,1065.4 1768.2,1082.9 1744.7,1098.4 1721.6,1112.0 1698.9,1123.8 1676.6,1133.9 1654.6,1142.5 1632.8,1149.5 1611.3,1155.1 1590.0,1159.3 1568.9,1162.1 1547.9,1163.7 1527.0,1163.9 1506.2,1162.9 1485.5,1160.6 1464.8,1157.0 1444.0,1152.1 1423.2,1145.8 1402.4,1138.1 1381.4,1129.0 1360.3,1118.3 1339.1,1106.0 1317.7,1092.0 1296.0,1076.2 1274.2,1058.5 1252.0,1038.7 1229.6,1016.7 1206.9,992.4 1183.8,965.5 1160.4,936.0 1136.6,903.7 1112.4,868.2 1087.8,829.5  A 787.050,787.050 0.00 0,1 1210.4,768.2 L 1210.4,768.2 1226.5,807.3 1242.5,843.3 1258.4,876.4 1274.3,906.6 1290.1,934.2 1305.9,959.4 1321.6,982.1 1337.3,1002.7 1352.9,1021.2 1368.5,1037.8 1384.1,1052.4 1399.6,1065.3 1415.1,1076.5 1430.6,1086.0 1446.2,1094.0 1461.7,1100.4 1477.3,1105.4 1492.9,1108.9 1508.5,1110.9 1524.2,1111.6 1540.0,1110.9 1555.8,1108.7 1571.7,1105.0 1587.8,1099.9 1603.9,1093.3 1620.2,1085.1 1636.6,1075.3 1653.2,1063.8 1669.9,1050.5 1686.8,1035.3 1703.9,1018.2 1721.3,999.0 1738.8,977.6 1756.7,953.9 1774.8,927.7 1793.1,898.9 1811.8,867.3 1830.8,832.8 1850.1,795.1  Z" style="stroke-width: 2.0;  stroke: rgb(230,177,14); fill: rgb(242,205,0);" />
<path d="M 1798.759,771.858 A 787.050,787.050 0.00 0,1 1830.2,785.6 L 1830.2,785.6 1812.1,823.4 1794.3,858.2 1776.7,890.0 1759.5,919.1 1742.4,945.5 1725.6,969.5 1709.0,991.2 1692.6,1010.6 1676.3,1028.0 1660.3,1043.4 1644.4,1057.0 1628.6,1068.7 1613.0,1078.7 1597.5,1087.1 1582.1,1094.0 1566.8,1099.3 1551.6,1103.1 1536.5,1105.4 1521.4,1106.3 1506.4,1105.8 1491.4,1103.8 1476.5,1100.4 1461.6,1095.5 1446.7,1089.2 1431.9,1081.3 1417.0,1071.8 1402.1,1060.7 1387.2,1047.9 1372.3,1033.2 1357.4,1016.7 1342.4,998.3 1327.5,977.7 1312.4,954.9 1297.3,929.8 1282.2,902.2 1267.0,872.0 1251.7,839.0 1236.4,803.1 1221.0,764.0  A 787.050,787.050 0.00 0,1 1242.5,756.3 L 1242.5,756.3 1256.6,795.2 1270.6,831.1 1284.5,864.1 1298.4,894.3 1312.2,921.9 1326.1,947.0 1339.9,969.8 1353.6,990.4 1367.3,1008.9 1381.1,1025.4 1394.8,1040.1 1408.4,1052.9 1422.1,1064.0 1435.8,1073.5 1449.5,1081.3 1463.2,1087.6 1476.9,1092.4 1490.6,1095.7 1504.4,1097.5 1518.2,1097.9 1532.0,1096.9 1545.9,1094.3 1559.9,1090.3 1573.9,1084.8 1588.0,1077.7 1602.2,1069.1 1616.5,1058.7 1630.9,1046.7 1645.4,1032.9 1660.0,1017.1 1674.7,999.4 1689.6,979.6 1704.7,957.7 1719.9,933.3 1735.3,906.6 1750.8,877.2 1766.6,845.1 1782.6,810.0 1798.8,771.9  Z" style="stroke-width: 2.0;  stroke: rgb(230,177,14); fill: rgb(242,205,0);" />
<path d="M 1690.932,736.461 A 787.050,787.050 0.00 0,1 1778.2,763.8 L 1778.2,763.8 1763.2,802.1 1748.4,837.3 1733.8,869.6 1719.3,899.2 1704.9,926.2 1690.7,950.7 1676.7,972.9 1662.7,992.9 1648.9,1010.8 1635.2,1026.8 1621.6,1040.8 1608.0,1053.0 1594.6,1063.5 1581.2,1072.4 1567.9,1079.6 1554.6,1085.3 1541.5,1089.5 1528.3,1092.1 1515.2,1093.3 1502.1,1093.0 1489.1,1091.3 1476.1,1088.1 1463.1,1083.3 1450.1,1077.1 1437.1,1069.3 1424.1,1059.9 1411.1,1048.8 1398.1,1036.0 1385.1,1021.4 1372.0,1004.9 1359.0,986.5 1345.9,965.9 1332.8,943.1 1319.7,918.0 1306.5,890.4 1293.3,860.3 1280.0,827.3 1266.7,791.5 1253.4,752.6  A 787.050,787.050 0.00 0,1 1330.6,731.4 L 1330.6,731.4 1339.5,770.3 1348.4,806.2 1357.3,839.2 1366.3,869.5 1375.2,897.3 1384.2,922.6 1393.2,945.6 1402.1,966.4 1411.1,985.1 1420.1,1001.8 1429.1,1016.6 1438.1,1029.6 1447.1,1040.8 1456.1,1050.3 1465.1,1058.2 1474.2,1064.4 1483.2,1069.1 1492.3,1072.3 1501.4,1073.9 1510.5,1074.1 1519.7,1072.7 1528.8,1069.8 1538.0,1065.3 1547.2,1059.3 1556.5,1051.7 1565.8,1042.4 1575.1,1031.5 1584.5,1018.8 1593.9,1004.2 1603.3,987.8 1612.8,969.3 1622.4,948.8 1632.0,926.1 1641.6,901.0 1651.3,873.5 1661.1,843.5 1671.0,810.7 1680.9,775.1 1690.9,736.5  Z" style="stroke-width: 2.0;  stroke: rgb(230,177,14); fill: rgb(242,205,0);" />
<path d="M 1658.255,729.025 A 787.050,787.050 0.00 0,1 1669.4,731.4 L 1669.4,731.4 1660.6,770.1 1651.8,805.8 1643.0,838.7 1634.3,868.9 1625.6,896.5 1617.0,921.7 1608.4,944.5 1599.8,965.2 1591.3,983.8 1582.8,1000.3 1574.3,1015.0 1565.9,1027.8 1557.4,1038.9 1549.0,1048.2 1540.6,1056.0 1532.3,1062.1 1523.9,1066.6 1515.6,1069.6 1507.3,1071.1 1499.0,1071.0 1490.7,1069.4 1482.4,1066.3 1474.1,1061.6 1465.8,1055.4 1457.5,1047.6 1449.3,1038.1 1441.0,1026.9 1432.7,1014.0 1424.5,999.2 1416.2,982.5 1408.0,963.8 1399.7,943.0 1391.4,920.0 1383.2,894.7 1374.9,867.0 1366.6,836.7 1358.3,803.7 1350.0,767.9 1341.7,729.0  A 787.050,787.050 0.00 0,0 1341.7,729.0 L 1341.7,729.0 1350.0,767.8 1358.3,803.6 1366.5,836.5 1374.7,866.8 1382.9,894.5 1391.0,919.7 1399.2,942.7 1407.3,963.4 1415.4,982.1 1423.5,998.7 1431.6,1013.4 1439.7,1026.4 1447.7,1037.5 1455.8,1046.9 1463.8,1054.7 1471.9,1060.9 1479.9,1065.5 1488.0,1068.6 1496.0,1070.1 1504.0,1070.1 1512.0,1068.6 1520.1,1065.5 1528.1,1060.9 1536.2,1054.7 1544.2,1046.9 1552.3,1037.5 1560.3,1026.4 1568.4,1013.4 1576.5,998.7 1584.6,982.1 1592.7,963.4 1600.8,942.7 1609.0,919.7 1617.1,894.5 1625.3,866.8 1633.5,836.5 1641.7,803.6 1650.0,767.8 1658.3,729.0  Z" style="stroke-width: 2.0;  stroke: rgb(230,177,14); fill: rgb(242,205,0);" />
<path d="M 1500.000,712.950 A 787.050,787.050 0.00 0,1 1636.6,724.9 L 1636.6,724.9 1629.5,763.7 1622.3,799.6 1615.2,832.6 1608.1,862.9 1600.9,890.7 1593.8,916.1 1586.7,939.1 1579.5,959.9 1572.4,978.7 1565.2,995.4 1558.1,1010.3 1550.9,1023.3 1543.8,1034.5 1536.6,1044.0 1529.4,1051.9 1522.3,1058.1 1515.1,1062.8 1507.9,1065.9 1500.7,1067.5 1493.5,1067.5 1486.2,1066.1 1479.0,1063.0 1471.8,1058.5 1464.5,1052.3 1457.2,1044.6 1449.9,1035.1 1442.6,1024.0 1435.3,1011.1 1427.9,996.4 1420.6,979.7 1413.2,961.1 1405.8,940.3 1398.3,917.4 1390.8,892.1 1383.3,864.5 1375.8,834.2 1368.2,801.3 1360.6,765.6 1353.0,726.8  A 787.050,787.050 0.00 0,1 1477.9,713.3 L 1477.9,713.3 1479.0,752.1 1480.1,788.0 1481.1,821.0 1482.1,851.4 1483.1,879.3 1484.0,904.8 1484.9,927.9 1485.8,948.9 1486.6,967.8 1487.4,984.7 1488.2,999.6 1488.9,1012.7 1489.6,1024.0 1490.3,1033.6 1491.0,1041.6 1491.7,1047.9 1492.3,1052.5 1492.9,1055.7 1493.5,1057.2 1494.1,1057.2 1494.6,1055.6 1495.1,1052.5 1495.6,1047.8 1496.1,1041.5 1496.6,1033.6 1497.0,1023.9 1497.4,1012.6 1497.8,999.5 1498.1,984.5 1498.5,967.6 1498.8,948.7 1499.0,927.7 1499.3,904.5 1499.5,879.1 1499.7,851.2 1499.8,820.8 1499.9,787.7 1500.0,751.8 1500.0,713.0  Z" style="stroke-width: 2.0;  stroke: rgb(230,177,14); fill: rgb(242,205,0);" />
</g>
<g id="plot0">
<g id="plot0-axis">
</g>
</g>
<defs>
<pattern id="hline-sparse" width="10" height="10" patternTransform="rotate(0 0 0)" patternUnits="userSpaceOnUse"><line x1="0" y1="0" x2="10" y2="0" style="stroke:black;stroke-width:2" /></pattern>
<pattern id="vline" width="10" height="10" patternTransform="rotate(0 0 0)" patternUnits="userSpaceOnUse"><line x1="0" y1="0" x2="0" y2="10" style="stroke:black;stroke-width:5" /></pattern>
<pattern id="checker" width="10" height="10" patternTransform="rotate(45 0 0)" patternUnits="userSpaceOnUse"><line x1="0" y1="0" x2="10" y2="0" style="stroke:black;stroke-width:2" /><line x1="0" y1="0" x2="0" y2="10" style="stroke:black;stroke-width:2" /></pattern>
<pattern id="vline-sparse" width="10" height="10" patternTransform="rotate(0 0 0)" patternUnits="userSpaceOnUse"><line x1="0" y1="0" x2="0" y2="10" style="stroke:black;stroke-width:2" /></pattern>
<pattern id="checker" width="10" height="10" patternTransform="rotate(45 0 0)" patternUnits="userSpaceOnUse"><line x1="0" y1="0" x2="10" y2="0" style="stroke:black;stroke-width:5" /><line x1="0" y1="0" x2="0" y2="10" style="stroke:black;stroke-width:4" /></pattern>
<pattern id="hline" width="10" height="10" patternTransform="rotate(0 0 0)" patternUnits="userSpaceOnUse"><line x1="0" y1="0" x2="10" y2="0" style="stroke:black;stroke-width:5" /></pattern>
</defs>
</svg>
