<?xml version="1.0" encoding="utf-8" standalone="no"?>
<!DOCTYPE svg PUBLIC "-//W3C//DTD SVG 1.1//EN" "http://www.w3.org/Graphics/SVG/1.1/DTD/svg11.dtd">
<svg width="3000px" height="3000px" version="1.1" xmlns="http://www.w3.org/2000/svg" xmlns:xlink="http://www.w3.org/1999/xlink">
<g id="ideograms">
<path d="M1500.000,705.000 A795.000,795.000 40.000 0,1 1510.018,705.063 L1511.908,555.075 A945.000,945.000 0.000 0,0 1500.000,555.000 Z" style="stroke-linecap:round;fill:rgb(0,0,0);" />
<text x="1521.3" y="505.2" font-size="39.0px" font-family="CMUBright-Roman" style="text-anchor:start;fill:rgb(0,0,0);" transform="rotate(270.4,1521.3,505.2)" >Women's-Studies</text>
<path d="M1531.448,705.622 A795.000,795.000 40.000 0,1 1660.577,721.386 L1690.874,574.477 A945.000,945.000 0.000 0,0 1537.382,555.740 Z" style="stroke-linecap:round;fill:rgb(0,0,0);" />
<text x="1638.4" y="514.7" font-size="39.0px" font-family="CMUBright-Roman" style="text-anchor:start;fill:rgb(0,0,0);" transform="rotate(277.0,1638.4,514.7)" >Spanish</text>
<path d="M1681.512,725.999 A795.000,795.000 40.000 0,1 1700.959,730.818 L1738.876,585.690 A945.000,945.000 0.000 0,0 1715.760,579.961 Z" style="stroke-linecap:round;fill:rgb(0,0,0);" />
<text x="1756.8" y="538.7" font-size="39.0px" font-family="CMUBright-Roman" style="text-anchor:start;fill:rgb(0,0,0);" transform="rotate(283.9,1756.8,538.7)" >Sociology-&amp;-Anthropology</text>
<path d="M1721.626,736.517 A795.000,795.000 40.000 0,1 1740.795,742.344 L1786.228,599.390 A945.000,945.000 0.000 0,0 1763.442,592.463 Z" style="stroke-linecap:round;fill:rgb(0,0,0);" />
<text x="1806.6" y="553.4" font-size="39.0px" font-family="CMUBright-Roman" style="text-anchor:start;fill:rgb(0,0,0);" transform="rotate(286.9,1806.6,553.4)" >Sociology</text>
<path d="M1761.136,749.112 A795.000,795.000 40.000 0,1 1779.975,755.931 L1832.801,615.541 A945.000,945.000 0.000 0,0 1810.407,607.435 Z" style="stroke-linecap:round;fill:rgb(0,0,0);" />
<text x="1855.5" y="570.7" font-size="39.0px" font-family="CMUBright-Roman" style="text-anchor:start;fill:rgb(0,0,0);" transform="rotate(289.9,1855.5,570.7)" >Romance-Languages</text>
<path d="M1799.936,763.750 A795.000,795.000 40.000 0,1 1836.650,779.797 L1900.169,643.910 A945.000,945.000 0.000 0,0 1856.528,624.835 Z" style="stroke-linecap:round;fill:rgb(0,0,0);" />
<text x="1914.9" y="595.6" font-size="39.0px" font-family="CMUBright-Roman" style="text-anchor:start;fill:rgb(0,0,0);" transform="rotate(293.6,1914.9,595.6)" >Religious-Studies</text>
<path d="M1855.946,789.136 A795.000,795.000 40.000 0,1 1967.111,856.702 L2055.245,735.325 A945.000,945.000 0.000 0,0 1923.106,655.011 Z" style="stroke-linecap:round;fill:rgb(0,0,0);" />
<text x="2032.1" y="659.2" font-size="39.0px" font-family="CMUBright-Roman" style="text-anchor:start;fill:rgb(0,0,0);" transform="rotate(301.3,2032.1,659.2)" >Psychology</text>
<path d="M1984.286,869.531 A795.000,795.000 40.000 0,1 2094.122,971.754 L2206.221,872.085 A945.000,945.000 0.000 0,0 2075.661,750.574 Z" style="stroke-linecap:round;fill:rgb(0,0,0);" />
<text x="2188.8" y="781.9" font-size="39.0px" font-family="CMUBright-Roman" style="text-anchor:start;fill:rgb(0,0,0);" transform="rotate(312.9,2188.8,781.9)" >Political-Science</text>
<path d="M2108.149,987.966 A795.000,795.000 40.000 0,1 2114.553,995.669 L2230.507,900.513 A945.000,945.000 0.000 0,0 2222.895,891.355 Z" style="stroke-linecap:round;fill:rgb(0,0,0);" />
<text x="2276.5" y="877.9" font-size="39.0px" font-family="CMUBright-Roman" style="text-anchor:start;fill:rgb(0,0,0);" transform="rotate(320.3,2276.5,877.9)" >Physics</text>
<path d="M2127.928,1012.423 A795.000,795.000 40.000 0,1 2203.753,1130.194 L2336.537,1060.419 A945.000,945.000 0.000 0,0 2246.405,920.427 Z" style="stroke-linecap:round;fill:rgb(0,0,0);" />
<text x="2346.2" y="976.6" font-size="39.0px" font-family="CMUBright-Roman" style="text-anchor:start;fill:rgb(0,0,0);" transform="rotate(327.2,2346.2,976.6)" >Philosophy</text>
<path d="M2213.468,1149.304 A795.000,795.000 40.000 0,1 2234.134,1194.922 L2372.650,1137.360 A945.000,945.000 0.000 0,0 2348.085,1083.134 Z" style="stroke-linecap:round;fill:rgb(0,0,0);" />
<text x="2412.2" y="1102.7" font-size="39.0px" font-family="CMUBright-Roman" style="text-anchor:start;fill:rgb(0,0,0);" transform="rotate(335.6,2412.2,1102.7)" >Performance.Music</text>
<path d="M2242.093,1214.828 A795.000,795.000 40.000 0,1 2245.627,1224.201 L2386.312,1172.164 A945.000,945.000 0.000 0,0 2382.110,1161.022 Z" style="stroke-linecap:round;fill:rgb(0,0,0);" />
<text x="2436.0" y="1162.5" font-size="39.0px" font-family="CMUBright-Roman" style="text-anchor:start;fill:rgb(0,0,0);" transform="rotate(339.3,2436.0,1162.5)" >Music.BMA</text>
<path d="M2252.793,1244.406 A795.000,795.000 40.000 0,1 2258.994,1263.457 L2402.201,1218.827 A945.000,945.000 0.000 0,0 2394.829,1196.181 Z" style="stroke-linecap:round;fill:rgb(0,0,0);" />
<text x="2450.5" y="1205.8" font-size="39.0px" font-family="CMUBright-Roman" style="text-anchor:start;fill:rgb(0,0,0);" transform="rotate(342.0,2450.5,1205.8)" >Music.BA</text>
<path d="M2265.096,1284.008 A795.000,795.000 40.000 0,1 2275.007,1322.831 L2421.235,1289.403 A945.000,945.000 0.000 0,0 2409.454,1243.255 Z" style="stroke-linecap:round;fill:rgb(0,0,0);" />
<text x="2467.6" y="1268.0" font-size="39.0px" font-family="CMUBright-Roman" style="text-anchor:start;fill:rgb(0,0,0);" transform="rotate(345.7,2467.6,1268.0)" >Latin</text>
<path d="M2279.502,1343.792 A795.000,795.000 40.000 0,1 2294.542,1473.007 L2444.455,1467.914 A945.000,945.000 0.000 0,0 2426.578,1314.319 Z" style="stroke-linecap:round;fill:rgb(0,0,0);" />
<text x="2490.2" y="1402.9" font-size="39.0px" font-family="CMUBright-Roman" style="text-anchor:start;fill:rgb(0,0,0);" transform="rotate(353.4,2490.2,1402.9)" >History</text>
<path d="M2294.981,1494.440 A795.000,795.000 40.000 0,1 2294.868,1514.475 L2444.843,1517.206 A945.000,945.000 0.000 0,0 2444.977,1493.391 Z" style="stroke-linecap:round;fill:rgb(0,0,0);" />
<text x="2494.8" y="1520.6" font-size="39.0px" font-family="CMUBright-Roman" style="text-anchor:start;fill:rgb(0,0,0);" transform="rotate(0.3,2494.8,1520.6)" >Greek</text>
<path d="M2294.189,1535.902 A795.000,795.000 40.000 0,1 2291.371,1575.870 L2440.687,1590.185 A945.000,945.000 0.000 0,0 2444.036,1542.676 Z" style="stroke-linecap:round;fill:rgb(0,0,0);" />
<text x="2491.4" y="1584.9" font-size="39.0px" font-family="CMUBright-Roman" style="text-anchor:start;fill:rgb(0,0,0);" transform="rotate(4.0,2491.4,1584.9)" >German</text>
<path d="M2289.038,1597.181 A795.000,795.000 40.000 0,1 2287.751,1607.115 L2436.383,1627.326 A945.000,945.000 0.000 0,0 2437.913,1615.517 Z" style="stroke-linecap:round;fill:rgb(0,0,0);" />
<text x="2484.3" y="1645.7" font-size="39.0px" font-family="CMUBright-Roman" style="text-anchor:start;fill:rgb(0,0,0);" transform="rotate(7.4,2484.3,1645.7)" >Geology</text>
<path d="M2284.576,1628.317 A795.000,795.000 40.000 0,1 2270.222,1696.934 L2415.547,1734.091 A945.000,945.000 0.000 0,0 2432.609,1652.527 Z" style="stroke-linecap:round;fill:rgb(0,0,0);" />
<text x="2470.8" y="1717.9" font-size="39.0px" font-family="CMUBright-Roman" style="text-anchor:start;fill:rgb(0,0,0);" transform="rotate(11.8,2470.8,1717.9)" >French</text>
<path d="M2264.632,1717.630 A795.000,795.000 40.000 0,1 2159.571,1943.836 L2284.019,2027.579 A945.000,945.000 0.000 0,0 2408.902,1758.692 Z" style="stroke-linecap:round;fill:rgb(0,0,0);" />
<text x="2394.7" y="1935.4" font-size="39.0px" font-family="CMUBright-Roman" style="text-anchor:start;fill:rgb(0,0,0);" transform="rotate(24.9,2394.7,1935.4)" >English-Writing</text>
<path d="M2147.364,1961.459 A795.000,795.000 40.000 0,1 1956.264,2151.036 L2042.352,2273.873 A945.000,945.000 0.000 0,0 2269.508,2048.527 Z" style="stroke-linecap:round;fill:rgb(0,0,0);" />
<text x="2187.9" y="2218.9" font-size="39.0px" font-family="CMUBright-Roman" style="text-anchor:start;fill:rgb(0,0,0);" transform="rotate(45.2,2187.9,2218.9)" >English-Literature</text>
<path d="M1938.545,2163.102 A795.000,795.000 40.000 0,1 1887.204,2194.333 L1960.262,2325.339 A945.000,945.000 0.000 0,0 2021.289,2288.215 Z" style="stroke-linecap:round;fill:rgb(0,0,0);" />
<text x="2004.7" y="2357.5" font-size="39.0px" font-family="CMUBright-Roman" style="text-anchor:start;fill:rgb(0,0,0);" transform="rotate(58.7,2004.7,2357.5)" >Economics</text>
<path d="M1868.342,2204.520 A795.000,795.000 40.000 0,1 1859.435,2209.106 L1927.253,2342.899 A945.000,945.000 0.000 0,0 1937.841,2337.449 Z" style="stroke-linecap:round;fill:rgb(0,0,0);" />
<text x="1942.1" y="2391.4" font-size="39.0px" font-family="CMUBright-Roman" style="text-anchor:start;fill:rgb(0,0,0);" transform="rotate(62.8,1942.1,2391.4)" >East-Asian-Studies</text>
<path d="M1840.185,2218.540 A795.000,795.000 40.000 0,1 1775.564,2245.714 L1827.557,2386.415 A945.000,945.000 0.000 0,0 1904.371,2354.113 Z" style="stroke-linecap:round;fill:rgb(0,0,0);" />
<text x="1871.8" y="2422.9" font-size="39.0px" font-family="CMUBright-Roman" style="text-anchor:start;fill:rgb(0,0,0);" transform="rotate(67.2,1871.8,2422.9)" >Conflict-Studies</text>
<path d="M1755.357,2252.873 A795.000,795.000 40.000 0,1 1726.720,2261.986 L1769.497,2405.757 A945.000,945.000 0.000 0,0 1803.537,2394.925 Z" style="stroke-linecap:round;fill:rgb(0,0,0);" />
<text x="1784.5" y="2453.5" font-size="39.0px" font-family="CMUBright-Roman" style="text-anchor:start;fill:rgb(0,0,0);" transform="rotate(72.3,1784.5,2453.5)" >Computer-Science</text>
<path d="M1706.092,2267.822 A795.000,795.000 40.000 0,1 1667.145,2277.231 L1698.681,2423.878 A945.000,945.000 0.000 0,0 1744.977,2412.695 Z" style="stroke-linecap:round;fill:rgb(0,0,0);" />
<text x="1719.0" y="2470.6" font-size="39.0px" font-family="CMUBright-Roman" style="text-anchor:start;fill:rgb(0,0,0);" transform="rotate(76.4,1719.0,2470.6)" >Communication</text>
<path d="M1646.127,2281.455 A795.000,795.000 40.000 0,1 1636.269,2283.234 L1661.980,2431.014 A945.000,945.000 0.000 0,0 1673.698,2428.899 Z" style="stroke-linecap:round;fill:rgb(0,0,0);" />
<text x="1661.9" y="2481.7" font-size="39.0px" font-family="CMUBright-Roman" style="text-anchor:start;fill:rgb(0,0,0);" transform="rotate(79.8,1661.9,2481.7)" >Classical-Civilization</text>
<path d="M1615.101,2286.624 A795.000,795.000 40.000 0,1 1455.244,2293.739 L1446.799,2443.501 A945.000,945.000 0.000 0,0 1636.818,2435.043 Z" style="stroke-linecap:round;fill:rgb(0,0,0);" />
<text x="1526.3" y="2494.7" font-size="39.0px" font-family="CMUBright-Roman" style="text-anchor:start;fill:rgb(0,0,0);" transform="rotate(87.5,1526.3,2494.7)" >Biology</text>
<path d="M1433.858,2292.244 A795.000,795.000 40.000 0,1 1374.205,2284.984 L1350.470,2433.095 A945.000,945.000 0.000 0,0 1421.379,2441.724 Z" style="stroke-linecap:round;fill:rgb(0,0,0);" />
<text x="1397.7" y="2489.7" font-size="39.0px" font-family="CMUBright-Roman" style="text-anchor:end;fill:rgb(0,0,0);" transform="rotate(-83.1,1397.7,2489.7)" >Biochemistry</text>
<path d="M1353.085,2281.307 A795.000,795.000 40.000 0,1 1333.443,2277.357 L1302.017,2424.028 A945.000,945.000 0.000 0,0 1325.365,2428.724 Z" style="stroke-linecap:round;fill:rgb(0,0,0);" />
<text x="1318.5" y="2478.3" font-size="39.0px" font-family="CMUBright-Roman" style="text-anchor:end;fill:rgb(0,0,0);" transform="rotate(-78.6,1318.5,2478.3)" >Art-Studio</text>
<path d="M1312.544,2272.583 A795.000,795.000 40.000 0,1 1273.856,2262.158 L1231.188,2405.961 A945.000,945.000 0.000 0,0 1277.174,2418.354 Z" style="stroke-linecap:round;fill:rgb(0,0,0);" />
<text x="1258.5" y="2465.3" font-size="39.0px" font-family="CMUBright-Roman" style="text-anchor:end;fill:rgb(0,0,0);" transform="rotate(-74.9,1258.5,2465.3)" >Art-History</text>
<path d="M1253.388,2255.783 A795.000,795.000 40.000 0,1 1197.005,2234.996 L1139.836,2373.674 A945.000,945.000 0.000 0,0 1206.858,2398.383 Z" style="stroke-linecap:round;fill:rgb(0,0,0);" />
<text x="1172.8" y="2439.6" font-size="39.0px" font-family="CMUBright-Roman" style="text-anchor:end;fill:rgb(0,0,0);" transform="rotate(-69.8,1172.8,2439.6)" >Anthropology</text>
<path d="M1177.297,2226.559 A795.000,795.000 40.000 0,1 1478.564,705.289 L1474.520,555.344 A945.000,945.000 0.000 0,0 1116.410,2363.646 Z" style="stroke-linecap:round;fill:rgb(0,48,135);" />
<text x="520.6" y="1324.4" font-size="39.0px" font-family="CMUBright-Roman" style="text-anchor:end;fill:rgb(0,0,0);" transform="rotate(11.2,520.6,1324.4)" >Honor-Scholar-Program</text>
</g>
<g id="track_0">
<path d="M 1180.524,2219.293 A 787.050,787.050 0.00 0,1 1127.1,2193.1 L 1127.1,2193.1 1145.7,2158.8 1163.1,2127.3 1179.4,2098.3 1194.7,2071.8 1209.0,2047.6 1222.3,2025.6 1234.7,2005.8 1246.2,1988.0 1257.0,1972.0 1266.9,1958.0 1276.1,1945.7 1284.5,1935.1 1292.2,1926.1 1299.3,1918.7 1305.7,1912.8 1311.5,1908.5 1316.6,1905.6 1321.1,1904.1 1325.0,1904.1 1328.3,1905.5 1331.0,1908.4 1333.1,1912.6 1334.5,1918.4 1335.4,1925.5 1335.6,1934.2 1335.1,1944.4 1333.9,1956.2 1332.1,1969.7 1329.5,1984.8 1326.2,2001.7 1322.1,2020.4 1317.1,2041.1 1311.3,2063.8 1304.6,2088.6 1297.0,2115.6 1288.3,2144.9 1278.6,2176.7 1267.8,2211.1 1255.9,2248.2  A 787.050,787.050 0.00 0,1 1200.0,2227.6 L 1200.0,2227.6 1214.8,2191.7 1228.4,2158.5 1241.0,2127.9 1252.4,2099.7 1262.9,2073.9 1272.4,2050.2 1281.0,2028.7 1288.8,2009.2 1295.7,1991.6 1301.9,1975.9 1307.3,1961.9 1311.9,1949.7 1315.9,1939.0 1319.2,1930.0 1321.8,1922.5 1323.8,1916.5 1325.1,1911.9 1325.9,1908.9 1326.0,1907.2 1325.5,1907.0 1324.4,1908.2 1322.6,1910.9 1320.3,1915.0 1317.3,1920.5 1313.7,1927.6 1309.4,1936.2 1304.4,1946.5 1298.8,1958.3 1292.4,1971.8 1285.2,1987.2 1277.3,2004.3 1268.5,2023.4 1258.9,2044.5 1248.4,2067.7 1236.9,2093.1 1224.5,2120.8 1210.9,2151.0 1196.3,2183.8 1180.5,2219.3  Z" style="stroke-width: 2.0;  stroke: rgb(230,177,14); fill: rgb(242,205,0);" />
<path d="M 1118.401,2188.353 A 787.050,787.050 0.00 0,1 1092.7,2173.4 L 1092.7,2173.4 1113.2,2139.9 1132.6,2109.2 1150.9,2081.0 1168.2,2055.3 1184.5,2032.0 1199.8,2010.9 1214.3,1992.0 1228.0,1975.1 1240.8,1960.1 1252.8,1946.9 1264.2,1935.5 1274.8,1925.9 1284.7,1917.8 1294.0,1911.3 1302.7,1906.4 1310.7,1903.0 1318.1,1901.0 1325.0,1900.5 1331.2,1901.4 1336.9,1903.8 1341.9,1907.5 1346.4,1912.7 1350.3,1919.3 1353.6,1927.4 1356.2,1937.0 1358.3,1948.1 1359.7,1960.8 1360.4,1975.2 1360.4,1991.2 1359.7,2009.1 1358.2,2028.8 1356.0,2050.4 1352.9,2074.0 1348.9,2099.8 1344.1,2127.8 1338.2,2158.2 1331.4,2191.1 1323.5,2226.6 1314.4,2264.9  A 787.050,787.050 0.00 0,1 1276.1,2254.5 L 1276.1,2254.5 1287.1,2217.0 1296.9,2182.3 1305.6,2150.1 1313.3,2120.4 1320.0,2093.0 1325.8,2067.9 1330.7,2044.9 1334.7,2023.9 1338.0,2004.8 1340.5,1987.6 1342.2,1972.2 1343.2,1958.5 1343.5,1946.4 1343.2,1935.9 1342.2,1926.9 1340.6,1919.4 1338.4,1913.4 1335.5,1908.9 1332.1,1905.8 1328.1,1904.1 1323.4,1903.8 1318.2,1905.0 1312.4,1907.6 1305.9,1911.7 1298.8,1917.3 1291.1,1924.4 1282.7,1933.1 1273.6,1943.4 1263.8,1955.5 1253.2,1969.3 1241.9,1984.9 1229.8,2002.5 1216.8,2022.1 1202.9,2043.9 1188.1,2067.8 1172.3,2094.1 1155.4,2122.9 1137.5,2154.3 1118.4,2188.4  Z" style="stroke-width: 2.0;  stroke: rgb(230,177,14); fill: rgb(242,205,0);" />
<path d="M 1084.204,2168.253 A 787.050,787.050 0.00 0,1 1075.8,2163.0 L 1075.8,2163.0 1097.4,2129.8 1117.8,2099.4 1137.2,2071.6 1155.6,2046.3 1173.0,2023.4 1189.5,2002.8 1205.1,1984.3 1219.9,1967.8 1234.0,1953.3 1247.2,1940.6 1259.8,1929.7 1271.7,1920.5 1282.9,1913.0 1293.5,1907.0 1303.5,1902.6 1312.8,1899.6 1321.6,1898.1 1329.8,1898.1 1337.5,1899.5 1344.6,1902.3 1351.1,1906.5 1357.0,1912.2 1362.4,1919.3 1367.2,1927.8 1371.5,1937.9 1375.1,1949.5 1378.1,1962.7 1380.4,1977.5 1382.1,1994.1 1383.1,2012.4 1383.3,2032.6 1382.8,2054.8 1381.5,2079.0 1379.4,2105.3 1376.4,2133.9 1372.5,2164.9 1367.5,2198.4 1361.6,2234.5 1354.6,2273.5  A 787.050,787.050 0.00 0,1 1335.1,2269.6 L 1335.1,2269.6 1343.1,2231.0 1350.0,2195.1 1355.9,2161.9 1360.7,2131.2 1364.7,2102.9 1367.7,2076.8 1369.8,2052.9 1371.2,2031.0 1371.8,2011.0 1371.6,1992.9 1370.7,1976.6 1369.2,1962.0 1367.0,1949.0 1364.1,1937.7 1360.7,1927.8 1356.6,1919.5 1351.9,1912.6 1346.7,1907.2 1340.9,1903.2 1334.5,1900.6 1327.5,1899.4 1320.0,1899.7 1311.9,1901.4 1303.2,1904.6 1293.8,1909.3 1283.9,1915.5 1273.3,1923.3 1262.0,1932.7 1250.1,1943.8 1237.4,1956.7 1223.9,1971.5 1209.7,1988.2 1194.6,2006.9 1178.7,2027.8 1161.8,2050.9 1144.0,2076.4 1125.2,2104.3 1105.3,2134.9 1084.2,2168.3  Z" style="stroke-width: 2.0;  stroke: rgb(230,177,14); fill: rgb(242,205,0);" />
<path d="M 1067.497,2157.563 A 787.050,787.050 0.00 0,1 1027.0,2129.0 L 1027.0,2129.0 1051.6,2097.0 1075.0,2067.7 1097.4,2041.2 1118.8,2017.1 1139.2,1995.5 1158.7,1976.1 1177.3,1958.9 1195.1,1943.7 1212.1,1930.5 1228.3,1919.1 1243.9,1909.5 1258.7,1901.5 1273.0,1895.2 1286.6,1890.5 1299.6,1887.3 1312.0,1885.5 1323.9,1885.2 1335.2,1886.3 1346.0,1888.8 1356.2,1892.7 1365.9,1898.0 1375.1,1904.7 1383.8,1912.8 1391.9,1922.4 1399.5,1933.5 1406.5,1946.1 1412.9,1960.3 1418.7,1976.1 1423.9,1993.6 1428.5,2012.9 1432.3,2034.1 1435.5,2057.3 1438.0,2082.5 1439.6,2110.0 1440.4,2139.7 1440.4,2171.8 1439.4,2206.6 1437.5,2244.0 1434.5,2284.3  A 787.050,787.050 0.00 0,1 1375.5,2277.1 L 1375.5,2277.1 1381.4,2237.9 1386.4,2201.4 1390.3,2167.6 1393.2,2136.3 1395.3,2107.4 1396.5,2080.8 1396.8,2056.4 1396.4,2034.0 1395.3,2013.6 1393.4,1995.0 1390.9,1978.2 1387.7,1963.2 1383.9,1949.7 1379.4,1937.9 1374.4,1927.6 1368.8,1918.8 1362.7,1911.5 1356.0,1905.7 1348.7,1901.2 1340.9,1898.2 1332.6,1896.6 1323.6,1896.4 1314.2,1897.6 1304.1,1900.3 1293.5,1904.5 1282.2,1910.3 1270.4,1917.6 1257.8,1926.6 1244.6,1937.2 1230.7,1949.7 1216.1,1964.0 1200.7,1980.2 1184.5,1998.5 1167.4,2018.9 1149.4,2041.6 1130.5,2066.7 1110.6,2094.3 1089.6,2124.5 1067.5,2157.6  Z" style="stroke-width: 2.0;  stroke: rgb(230,177,14); fill: rgb(242,205,0);" />
<path d="M 1019.063,2123.015 A 787.050,787.050 0.00 0,1 910.6,2021.6 L 910.6,2021.6 943.7,1993.1 975.4,1967.5 1005.8,1944.6 1035.0,1924.3 1062.9,1906.3 1089.8,1890.6 1115.6,1877.0 1140.5,1865.4 1164.5,1855.6 1187.6,1847.6 1209.9,1841.3 1231.4,1836.6 1252.3,1833.4 1272.5,1831.7 1292.1,1831.3 1311.1,1832.3 1329.5,1834.6 1347.5,1838.3 1364.9,1843.2 1381.8,1849.4 1398.3,1856.9 1414.4,1865.7 1430.0,1875.8 1445.2,1887.3 1459.9,1900.2 1474.2,1914.5 1488.1,1930.4 1501.5,1948.0 1514.5,1967.2 1527.0,1988.2 1539.0,2011.1 1550.5,2036.0 1561.5,2063.1 1571.9,2092.4 1581.7,2124.2 1590.8,2158.5 1599.3,2195.6 1607.0,2235.6 1613.9,2278.8  A 787.050,787.050 0.00 0,1 1455.7,2285.8 L 1455.7,2285.8 1457.5,2245.2 1458.4,2207.5 1458.3,2172.5 1457.4,2140.1 1455.6,2110.2 1452.9,2082.6 1449.6,2057.1 1445.5,2033.8 1440.7,2012.4 1435.3,1992.9 1429.2,1975.2 1422.6,1959.3 1415.4,1944.9 1407.6,1932.2 1399.2,1920.9 1390.4,1911.2 1381.0,1902.9 1371.1,1896.0 1360.6,1890.6 1349.7,1886.5 1338.2,1883.8 1326.2,1882.5 1313.7,1882.6 1300.6,1884.2 1287.0,1887.2 1272.7,1891.7 1257.9,1897.8 1242.4,1905.6 1226.2,1915.0 1209.4,1926.2 1191.8,1939.2 1173.4,1954.2 1154.2,1971.2 1134.1,1990.3 1113.2,2011.8 1091.2,2035.6 1068.3,2062.0 1044.2,2091.1 1019.1,2123.0  Z" style="stroke-width: 2.0;  stroke: rgb(230,177,14); fill: rgb(242,205,0);" />
<path d="M 904.043,2014.085 A 787.050,787.050 0.00 0,0 904.0,2014.1 L 904.0,2014.1 937.9,1985.7 970.4,1960.2 1001.5,1937.5 1031.4,1917.3 1060.0,1899.5 1087.6,1883.9 1114.1,1870.4 1139.6,1859.0 1164.3,1849.4 1188.0,1841.5 1211.0,1835.3 1233.2,1830.7 1254.8,1827.6 1275.7,1826.0 1295.9,1825.7 1315.7,1826.8 1334.8,1829.2 1353.5,1832.8 1371.7,1837.8 1389.4,1844.0 1406.7,1851.5 1423.6,1860.3 1440.0,1870.4 1456.1,1881.8 1471.8,1894.7 1487.0,1909.0 1501.9,1924.9 1516.4,1942.4 1530.5,1961.5 1544.2,1982.5 1557.4,2005.4 1570.2,2030.3 1582.5,2057.4 1594.4,2086.7 1605.6,2118.5 1616.3,2153.0 1626.4,2190.2 1635.9,2230.3 1644.7,2273.6  A 787.050,787.050 0.00 0,1 1634.9,2275.4 L 1634.9,2275.4 1626.7,2232.1 1617.8,2191.9 1608.2,2154.7 1598.0,2120.3 1587.2,2088.5 1575.8,2059.1 1563.9,2032.0 1551.5,2007.0 1538.6,1984.1 1525.3,1963.0 1511.5,1943.8 1497.3,1926.3 1482.7,1910.4 1467.7,1896.0 1452.3,1883.1 1436.5,1871.5 1420.3,1861.4 1403.6,1852.5 1386.5,1845.0 1369.0,1838.7 1351.0,1833.7 1332.5,1830.0 1313.6,1827.6 1294.0,1826.5 1273.9,1826.7 1253.2,1828.3 1231.8,1831.3 1209.7,1835.9 1186.9,1842.0 1163.2,1849.9 1138.7,1859.4 1113.3,1870.9 1086.9,1884.3 1059.5,1899.8 1030.9,1917.6 1001.2,1937.7 970.2,1960.4 937.8,1985.8 904.0,2014.1  Z" style="stroke-width: 2.0;  stroke: rgb(230,177,14); fill: rgb(242,205,0);" />
<path d="M 897.613,2006.535 A 787.050,787.050 0.00 0,1 878.9,1983.4 L 878.9,1983.4 915.3,1956.0 950.1,1931.5 983.4,1909.7 1015.4,1890.4 1046.2,1873.5 1075.7,1858.8 1104.1,1846.2 1131.5,1835.6 1157.9,1826.8 1183.4,1819.7 1208.1,1814.2 1231.9,1810.3 1255.1,1807.8 1277.6,1806.8 1299.5,1807.0 1320.8,1808.6 1341.5,1811.4 1361.8,1815.4 1381.6,1820.7 1401.0,1827.2 1420.0,1835.0 1438.7,1844.0 1456.9,1854.2 1474.9,1865.8 1492.5,1878.8 1509.8,1893.2 1526.8,1909.2 1543.4,1926.7 1559.8,1945.9 1575.9,1967.0 1591.6,1989.9 1607.1,2014.9 1622.1,2042.1 1636.9,2071.6 1651.2,2103.6 1665.1,2138.3 1678.6,2175.8 1691.6,2216.4 1704.0,2260.1  A 787.050,787.050 0.00 0,1 1665.5,2269.5 L 1665.5,2269.5 1655.4,2226.0 1644.8,2185.7 1633.5,2148.5 1621.7,2114.0 1609.4,2082.1 1596.6,2052.7 1583.4,2025.7 1569.7,2000.7 1555.6,1977.9 1541.1,1956.9 1526.2,1937.7 1511.0,1920.3 1495.4,1904.4 1479.4,1890.1 1463.1,1877.2 1446.4,1865.8 1429.3,1855.7 1411.9,1846.8 1394.0,1839.3 1375.7,1833.1 1357.0,1828.1 1337.8,1824.3 1318.1,1821.8 1297.9,1820.7 1277.1,1820.8 1255.7,1822.4 1233.7,1825.3 1210.9,1829.8 1187.5,1835.8 1163.2,1843.5 1138.0,1852.9 1111.9,1864.2 1084.9,1877.5 1056.7,1892.9 1027.5,1910.5 997.0,1930.5 965.3,1953.1 932.2,1978.4 897.6,2006.5  Z" style="stroke-width: 2.0;  stroke: rgb(230,177,14); fill: rgb(242,205,0);" />
<path d="M 872.857,1975.541 A 787.050,787.050 0.00 0,1 861.1,1959.6 L 861.1,1959.6 899.4,1932.9 936.1,1909.1 971.2,1888.0 1004.9,1869.4 1037.3,1853.2 1068.3,1839.2 1098.2,1827.2 1127.0,1817.2 1154.7,1808.9 1181.5,1802.3 1207.4,1797.4 1232.5,1793.9 1256.9,1791.8 1280.6,1791.1 1303.6,1791.7 1326.1,1793.5 1348.0,1796.5 1369.5,1800.8 1390.5,1806.2 1411.1,1812.8 1431.4,1820.6 1451.3,1829.6 1470.9,1839.9 1490.3,1851.5 1509.4,1864.4 1528.2,1878.7 1546.8,1894.6 1565.2,1912.0 1583.4,1931.1 1601.4,1952.1 1619.2,1974.9 1636.8,1999.8 1654.1,2026.9 1671.3,2056.4 1688.1,2088.4 1704.8,2123.1 1721.1,2160.7 1737.1,2201.4 1752.8,2245.3  A 787.050,787.050 0.00 0,1 1724.5,2254.4 L 1724.5,2254.4 1710.7,2210.5 1696.4,2169.9 1681.8,2132.4 1666.8,2097.7 1651.4,2065.7 1635.7,2036.3 1619.7,2009.1 1603.4,1984.2 1586.8,1961.3 1569.9,1940.3 1552.8,1921.2 1535.4,1903.7 1517.8,1887.8 1499.8,1873.4 1481.6,1860.5 1463.1,1848.9 1444.3,1838.7 1425.1,1829.7 1405.6,1822.0 1385.7,1815.5 1365.4,1810.2 1344.6,1806.1 1323.4,1803.2 1301.6,1801.6 1279.3,1801.2 1256.3,1802.2 1232.7,1804.6 1208.3,1808.4 1183.2,1813.7 1157.2,1820.6 1130.3,1829.3 1102.4,1839.8 1073.4,1852.2 1043.3,1866.6 1012.0,1883.3 979.4,1902.4 945.4,1924.0 909.9,1948.3 872.9,1975.5  Z" style="stroke-width: 2.0;  stroke: rgb(230,177,14); fill: rgb(242,205,0);" />
<path d="M 855.332,1951.499 A 787.050,787.050 0.00 0,1 823.1,1901.5 L 823.1,1901.5 865.8,1877.0 906.6,1855.4 945.6,1836.3 982.9,1819.7 1018.6,1805.3 1052.8,1793.1 1085.6,1782.8 1117.1,1774.3 1147.4,1767.5 1176.7,1762.3 1204.9,1758.5 1232.2,1756.2 1258.7,1755.1 1284.4,1755.3 1309.4,1756.7 1333.8,1759.2 1357.7,1762.9 1381.1,1767.6 1404.1,1773.4 1426.7,1780.3 1449.0,1788.3 1471.0,1797.5 1492.8,1807.8 1514.5,1819.4 1536.0,1832.2 1557.4,1846.4 1578.8,1862.1 1600.1,1879.3 1621.4,1898.2 1642.8,1918.9 1664.1,1941.5 1685.5,1966.1 1706.9,1993.0 1728.4,2022.3 1750.0,2054.2 1771.6,2088.8 1793.3,2126.4 1815.0,2167.2 1836.8,2211.4  A 787.050,787.050 0.00 0,1 1772.8,2238.3 L 1772.8,2238.3 1755.8,2194.3 1738.5,2153.6 1720.9,2116.0 1703.2,2081.4 1685.3,2049.5 1667.2,2020.1 1648.9,1993.1 1630.4,1968.3 1611.8,1945.6 1593.1,1924.8 1574.2,1905.7 1555.1,1888.4 1535.8,1872.7 1516.4,1858.4 1496.7,1845.6 1476.9,1834.1 1456.7,1823.9 1436.3,1814.9 1415.6,1807.1 1394.5,1800.5 1373.0,1795.1 1351.1,1790.9 1328.8,1787.8 1305.9,1785.9 1282.4,1785.3 1258.3,1785.9 1233.5,1787.9 1208.0,1791.3 1181.6,1796.1 1154.3,1802.6 1126.1,1810.7 1096.8,1820.6 1066.4,1832.4 1034.8,1846.2 1001.9,1862.2 967.6,1880.6 931.8,1901.5 894.4,1925.0 855.3,1951.5  Z" style="stroke-width: 2.0;  stroke: rgb(230,177,14); fill: rgb(242,205,0);" />
<path d="M 818.064,1892.952 A 787.050,787.050 0.00 0,0 818.1,1893.0 L 818.1,1893.0 861.7,1868.7 903.4,1847.2 943.2,1828.3 981.2,1811.8 1017.6,1797.6 1052.5,1785.5 1085.9,1775.3 1118.0,1766.9 1148.9,1760.2 1178.7,1755.0 1207.4,1751.3 1235.2,1748.9 1262.1,1747.9 1288.3,1748.0 1313.7,1749.3 1338.6,1751.7 1362.9,1755.2 1386.8,1759.8 1410.2,1765.5 1433.3,1772.2 1456.1,1780.0 1478.7,1788.9 1501.1,1799.0 1523.4,1810.3 1545.6,1822.9 1567.8,1836.8 1589.9,1852.2 1612.1,1869.0 1634.4,1887.6 1656.7,1907.9 1679.2,1930.2 1701.8,1954.5 1724.5,1981.0 1747.4,2010.0 1770.5,2041.5 1793.7,2075.8 1817.2,2113.1 1840.8,2153.5 1864.7,2197.5  A 787.050,787.050 0.00 0,1 1855.8,2202.0 L 1855.8,2202.0 1832.7,2157.9 1809.6,2117.3 1786.7,2079.9 1763.9,2045.4 1741.3,2013.7 1718.8,1984.7 1696.5,1958.0 1674.3,1933.5 1652.1,1911.1 1630.1,1890.6 1608.1,1871.9 1586.2,1854.9 1564.3,1839.4 1542.3,1825.3 1520.3,1812.6 1498.2,1801.2 1476.0,1791.0 1453.6,1781.9 1430.9,1774.0 1407.9,1767.1 1384.6,1761.4 1360.9,1756.7 1336.7,1753.1 1311.9,1750.5 1286.6,1749.1 1260.5,1748.9 1233.7,1749.9 1206.0,1752.2 1177.4,1755.8 1147.7,1760.9 1117.0,1767.5 1085.0,1775.8 1051.7,1786.0 1016.9,1798.0 980.7,1812.2 942.8,1828.5 903.1,1847.3 861.6,1868.7 818.1,1893.0  Z" style="stroke-width: 2.0;  stroke: rgb(230,177,14); fill: rgb(242,205,0);" />
<path d="M 813.167,1884.328 A 787.050,787.050 0.00 0,1 790.3,1840.3 L 790.3,1840.3 838.0,1818.3 883.3,1798.9 926.5,1782.1 967.6,1767.5 1006.9,1755.0 1044.3,1744.5 1080.1,1735.8 1114.3,1728.8 1147.2,1723.3 1178.7,1719.2 1209.1,1716.5 1238.4,1715.0 1266.8,1714.6 1294.2,1715.4 1321.0,1717.2 1347.0,1720.0 1372.5,1723.9 1397.5,1728.6 1422.1,1734.4 1446.4,1741.1 1470.5,1748.8 1494.4,1757.5 1518.3,1767.4 1542.1,1778.3 1565.9,1790.5 1589.9,1803.9 1614.1,1818.8 1638.4,1835.1 1663.1,1853.1 1688.1,1872.8 1713.4,1894.3 1739.2,1918.0 1765.5,1943.8 1792.2,1972.1 1819.4,2002.9 1847.2,2036.5 1875.6,2073.2 1904.6,2113.1 1934.2,2156.5  A 787.050,787.050 0.00 0,1 1883.3,2187.4 L 1883.3,2187.4 1858.1,2143.6 1833.1,2103.3 1808.4,2066.3 1784.0,2032.2 1759.9,2000.9 1736.0,1972.2 1712.3,1945.9 1688.9,1921.8 1665.7,1899.7 1642.7,1879.6 1619.8,1861.3 1597.0,1844.6 1574.3,1829.4 1551.7,1815.7 1529.0,1803.3 1506.3,1792.2 1483.5,1782.2 1460.6,1773.4 1437.4,1765.7 1414.0,1759.1 1390.2,1753.5 1366.1,1748.9 1341.4,1745.5 1316.3,1743.0 1290.5,1741.7 1264.0,1741.5 1236.7,1742.5 1208.6,1744.8 1179.5,1748.4 1149.3,1753.5 1118.0,1760.1 1085.4,1768.3 1051.5,1778.3 1016.1,1790.3 979.1,1804.3 940.5,1820.5 900.0,1839.1 857.6,1860.3 813.2,1884.3  Z" style="stroke-width: 2.0;  stroke: rgb(230,177,14); fill: rgb(242,205,0);" />
<path d="M 786.099,1831.350 A 787.050,787.050 0.00 0,1 717.4,1584.0 L 717.4,1584.0 781.4,1577.6 841.3,1572.6 897.4,1568.8 949.9,1566.1 999.1,1564.4 1045.2,1563.6 1088.4,1563.6 1128.9,1564.3 1167.0,1565.6 1202.9,1567.5 1236.7,1569.9 1268.8,1572.8 1299.2,1576.2 1328.2,1580.0 1356.0,1584.2 1382.8,1588.8 1408.8,1593.9 1434.2,1599.4 1459.2,1605.3 1483.9,1611.8 1508.6,1618.9 1533.4,1626.5 1558.6,1634.9 1584.2,1644.0 1610.5,1653.9 1637.7,1664.9 1665.8,1676.8 1695.2,1690.0 1725.9,1704.5 1758.0,1720.4 1791.9,1737.9 1827.6,1757.2 1865.2,1778.4 1905.0,1801.7 1947.0,1827.3 1991.5,1855.4 2038.6,1886.2 2088.3,1920.0 2140.9,1956.8  A 787.050,787.050 0.00 0,1 1951.7,2144.5 L 1951.7,2144.5 1920.6,2101.5 1890.3,2061.9 1860.6,2025.6 1831.7,1992.3 1803.4,1961.8 1775.7,1933.8 1748.6,1908.3 1722.1,1885.0 1696.0,1863.7 1670.4,1844.3 1645.1,1826.6 1620.2,1810.5 1595.6,1795.9 1571.2,1782.7 1547.0,1770.8 1522.9,1760.0 1498.7,1750.4 1474.6,1741.8 1450.2,1734.2 1425.7,1727.6 1400.8,1722.0 1375.6,1717.3 1349.9,1713.5 1323.6,1710.7 1296.7,1708.9 1268.9,1708.1 1240.3,1708.4 1210.7,1709.9 1180.0,1712.5 1148.1,1716.5 1114.9,1721.8 1080.2,1728.7 1044.0,1737.2 1006.0,1747.5 966.3,1759.7 924.5,1774.1 880.7,1790.6 834.6,1809.7 786.1,1831.4  Z" style="stroke-width: 2.0;  stroke: rgb(230,177,14); fill: rgb(242,205,0);" />
<path d="M 716.448,1574.124 A 787.050,787.050 0.00 0,1 729.9,1337.4 L 729.9,1337.4 804.7,1353.2 873.8,1368.0 937.6,1381.7 996.5,1394.4 1050.7,1406.2 1100.5,1417.1 1146.3,1427.2 1188.3,1436.5 1226.8,1445.1 1262.2,1453.1 1294.7,1460.5 1324.6,1467.3 1352.3,1473.7 1378.0,1479.7 1402.1,1485.3 1424.8,1490.7 1446.4,1495.9 1467.3,1501.0 1487.8,1506.0 1508.0,1511.0 1528.4,1516.1 1549.3,1521.4 1570.8,1526.9 1593.4,1532.7 1617.4,1539.0 1642.9,1545.7 1670.4,1552.9 1700.1,1560.8 1732.2,1569.5 1767.2,1578.9 1805.3,1589.3 1846.8,1600.6 1892.0,1613.1 1941.2,1626.6 1994.6,1641.5 2052.6,1657.7 2115.5,1675.4 2183.5,1694.6 2257.0,1715.5  A 787.050,787.050 0.00 0,1 2153.0,1939.4 L 2153.0,1939.4 2098.8,1903.5 2047.7,1870.7 1999.4,1840.8 1953.9,1813.5 1910.9,1788.7 1870.3,1766.1 1832.0,1745.5 1795.7,1726.8 1761.4,1709.9 1728.9,1694.5 1697.9,1680.5 1668.3,1667.8 1640.0,1656.2 1612.8,1645.7 1586.5,1636.1 1560.8,1627.3 1535.7,1619.2 1511.0,1611.8 1486.4,1605.0 1461.8,1598.8 1436.9,1593.0 1411.7,1587.7 1385.8,1582.7 1359.1,1578.2 1331.3,1574.1 1302.4,1570.3 1272.0,1567.0 1239.9,1564.0 1206.0,1561.5 1170.1,1559.5 1131.8,1558.0 1091.1,1557.1 1047.6,1556.9 1001.1,1557.3 951.5,1558.6 898.4,1560.9 841.7,1564.1 781.1,1568.5 716.4,1574.1  Z" style="stroke-width: 2.0;  stroke: rgb(230,177,14); fill: rgb(242,205,0);" />
<path d="M 732.042,1327.698 A 787.050,787.050 0.00 0,1 747.3,1270.2 L 747.3,1270.2 819.2,1292.0 885.9,1312.1 947.6,1330.5 1004.7,1347.4 1057.5,1362.8 1106.1,1376.8 1150.9,1389.6 1192.2,1401.3 1230.2,1412.0 1265.2,1421.6 1297.5,1430.5 1327.5,1438.5 1355.3,1445.9 1381.2,1452.7 1405.7,1459.0 1428.8,1464.9 1451.0,1470.4 1472.4,1475.6 1493.5,1480.6 1514.4,1485.5 1535.5,1490.3 1557.1,1495.1 1579.4,1500.0 1602.7,1505.0 1627.4,1510.2 1653.7,1515.6 1681.9,1521.2 1712.3,1527.3 1745.2,1533.6 1780.9,1540.5 1819.7,1547.7 1861.9,1555.5 1907.8,1563.9 1957.6,1572.8 2011.7,1582.3 2070.3,1592.5 2133.9,1603.3 2202.6,1614.8 2276.7,1627.0  A 787.050,787.050 0.00 0,1 2262.5,1695.0 L 2262.5,1695.0 2187.8,1675.9 2118.7,1658.3 2054.9,1642.1 1996.1,1627.2 1942.0,1613.5 1892.4,1600.9 1846.8,1589.5 1805.0,1579.0 1766.7,1569.4 1731.6,1560.6 1699.4,1552.6 1669.8,1545.3 1642.4,1538.5 1617.0,1532.3 1593.3,1526.4 1571.0,1521.0 1549.7,1515.8 1529.2,1510.8 1509.1,1506.0 1489.2,1501.2 1469.1,1496.4 1448.5,1491.5 1427.2,1486.5 1404.8,1481.2 1381.1,1475.6 1355.6,1469.7 1328.2,1463.3 1298.4,1456.4 1266.1,1448.9 1230.8,1440.8 1192.4,1432.0 1150.4,1422.4 1104.6,1411.9 1054.6,1400.5 1000.2,1388.2 941.1,1374.8 876.9,1360.3 807.3,1344.6 732.0,1327.7  Z" style="stroke-width: 2.0;  stroke: rgb(230,177,14); fill: rgb(242,205,0);" />
<path d="M 750.206,1260.715 A 787.050,787.050 0.00 0,0 750.2,1260.7 L 750.2,1260.7 821.1,1283.2 887.0,1303.9 948.1,1322.8 1004.6,1340.0 1056.9,1355.8 1105.1,1370.2 1149.7,1383.3 1190.8,1395.2 1228.7,1406.0 1263.8,1415.9 1296.2,1424.9 1326.2,1433.0 1354.2,1440.5 1380.4,1447.4 1405.1,1453.7 1428.6,1459.6 1451.1,1465.1 1472.9,1470.3 1494.4,1475.3 1515.7,1480.1 1537.2,1484.8 1559.1,1489.5 1581.8,1494.2 1605.5,1499.0 1630.6,1503.9 1657.2,1508.9 1685.7,1514.2 1716.3,1519.7 1749.5,1525.5 1785.3,1531.7 1824.2,1538.2 1866.5,1545.1 1912.3,1552.4 1962.1,1560.2 2016.1,1568.4 2074.5,1577.1 2137.8,1586.2 2206.1,1595.9 2279.9,1606.0  A 787.050,787.050 0.00 0,0 2281.1,1596.2 L 2281.1,1596.2 2207.5,1587.0 2139.3,1578.2 2076.1,1569.8 2017.7,1561.8 1963.7,1554.3 1913.9,1547.1 1868.1,1540.3 1825.8,1533.8 1786.8,1527.7 1750.9,1521.9 1717.7,1516.4 1686.9,1511.1 1658.3,1506.1 1631.5,1501.3 1606.4,1496.6 1582.6,1492.0 1559.7,1487.4 1537.6,1482.9 1516.0,1478.3 1494.5,1473.6 1473.0,1468.7 1451.0,1463.6 1428.4,1458.2 1404.8,1452.4 1380.0,1446.2 1353.7,1439.4 1325.6,1432.0 1295.4,1423.9 1263.0,1415.0 1227.9,1405.2 1189.9,1394.5 1148.8,1382.7 1104.3,1369.7 1056.1,1355.4 1003.9,1339.7 947.5,1322.5 886.6,1303.7 820.9,1283.1 750.2,1260.7  Z" style="stroke-width: 2.0;  stroke: rgb(230,177,14); fill: rgb(242,205,0);" />
<path d="M 753.281,1251.286 A 787.050,787.050 0.00 0,1 763.2,1223.2 L 763.2,1223.2 830.5,1248.3 893.2,1271.1 951.6,1292.0 1005.9,1311.0 1056.4,1328.3 1103.3,1344.0 1146.8,1358.2 1187.2,1371.1 1224.7,1382.8 1259.6,1393.4 1292.2,1403.0 1322.6,1411.7 1351.1,1419.6 1378.1,1426.8 1403.6,1433.4 1428.1,1439.5 1451.7,1445.1 1474.7,1450.3 1497.4,1455.2 1520.0,1459.9 1542.8,1464.3 1566.0,1468.6 1589.9,1472.7 1614.8,1476.7 1640.9,1480.7 1668.5,1484.7 1697.8,1488.7 1729.2,1492.6 1762.9,1496.6 1799.2,1500.6 1838.3,1504.6 1880.5,1508.7 1926.1,1512.7 1975.4,1516.7 2028.6,1520.7 2086.0,1524.6 2147.9,1528.4 2214.5,1532.1 2286.2,1535.5  A 787.050,787.050 0.00 0,1 2283.5,1575.1 L 2283.5,1575.1 2210.4,1567.9 2142.5,1561.0 2079.7,1554.2 2021.5,1547.7 1967.7,1541.4 1918.1,1535.4 1872.2,1529.6 1829.9,1524.0 1790.9,1518.6 1754.8,1513.5 1721.4,1508.6 1690.4,1503.8 1661.5,1499.2 1634.5,1494.7 1609.0,1490.3 1584.9,1485.9 1561.7,1481.6 1539.2,1477.2 1517.2,1472.7 1495.3,1468.1 1473.4,1463.3 1451.1,1458.2 1428.1,1452.8 1404.2,1447.0 1379.2,1440.7 1352.6,1433.8 1324.4,1426.3 1294.1,1418.1 1261.6,1409.1 1226.5,1399.2 1188.6,1388.3 1147.7,1376.2 1103.4,1363.0 1055.6,1348.4 1003.9,1332.3 948.1,1314.7 887.9,1295.4 823.0,1274.3 753.3,1251.3  Z" style="stroke-width: 2.0;  stroke: rgb(230,177,14); fill: rgb(242,205,0);" />
<path d="M 766.760,1213.980 A 787.050,787.050 0.00 0,1 770.4,1204.8 L 770.4,1204.8 835.7,1230.9 896.8,1254.7 953.7,1276.4 1006.8,1296.2 1056.3,1314.1 1102.4,1330.3 1145.3,1345.0 1185.3,1358.3 1222.6,1370.3 1257.4,1381.2 1290.0,1391.0 1320.6,1399.9 1349.4,1407.9 1376.7,1415.2 1402.7,1421.9 1427.7,1428.0 1451.8,1433.5 1475.5,1438.7 1498.8,1443.4 1522.0,1447.9 1545.4,1452.0 1569.3,1456.0 1593.8,1459.7 1619.2,1463.3 1645.9,1466.7 1673.9,1469.9 1703.7,1473.1 1735.4,1476.1 1769.3,1479.0 1805.7,1481.7 1844.8,1484.3 1886.8,1486.7 1932.2,1488.8 1981.0,1490.7 2033.6,1492.3 2090.2,1493.5 2151.2,1494.4 2216.7,1494.7 2287.0,1494.5  A 787.050,787.050 0.00 0,1 2286.9,1514.3 L 2286.9,1514.3 2215.9,1512.8 2149.8,1510.9 2088.3,1508.6 2031.3,1506.1 1978.4,1503.4 1929.4,1500.4 1883.9,1497.4 1841.7,1494.2 1802.6,1490.9 1766.3,1487.6 1732.5,1484.2 1700.9,1480.7 1671.3,1477.2 1643.5,1473.6 1617.1,1469.9 1591.9,1466.1 1567.7,1462.2 1544.1,1458.1 1521.0,1453.8 1498.1,1449.3 1475.1,1444.5 1451.8,1439.3 1427.9,1433.7 1403.1,1427.6 1377.3,1421.0 1350.2,1413.7 1321.5,1405.8 1291.0,1397.0 1258.4,1387.3 1223.6,1376.5 1186.1,1364.7 1146.0,1351.6 1102.7,1337.1 1056.3,1321.2 1006.3,1303.6 952.6,1284.2 894.9,1262.9 833.1,1239.6 766.8,1214.0  Z" style="stroke-width: 2.0;  stroke: rgb(230,177,14); fill: rgb(242,205,0);" />
<path d="M 774.201,1195.594 A 787.050,787.050 0.00 0,1 828.3,1089.7 L 828.3,1089.7 883.1,1122.6 934.9,1152.5 983.8,1179.7 1029.9,1204.4 1073.5,1226.8 1114.8,1247.0 1153.7,1265.3 1190.7,1281.8 1225.6,1296.7 1258.9,1310.2 1290.5,1322.2 1320.8,1333.1 1349.8,1342.9 1377.7,1351.7 1404.8,1359.6 1431.1,1366.6 1456.9,1373.0 1482.3,1378.6 1507.6,1383.7 1532.8,1388.2 1558.3,1392.1 1584.1,1395.5 1610.5,1398.4 1637.7,1400.8 1665.8,1402.7 1695.0,1404.0 1725.6,1404.8 1757.8,1405.0 1791.6,1404.5 1827.5,1403.3 1865.5,1401.3 1905.8,1398.5 1948.7,1394.7 1994.3,1389.8 2043.0,1383.8 2094.8,1376.5 2150.1,1367.7 2209.0,1357.4 2271.7,1345.4  A 787.050,787.050 0.00 0,1 2286.6,1473.3 L 2286.6,1473.3 2217.0,1475.3 2152.1,1476.7 2091.7,1477.3 2035.6,1477.5 1983.3,1477.1 1934.8,1476.2 1889.6,1475.0 1847.7,1473.5 1808.6,1471.7 1772.2,1469.6 1738.3,1467.3 1706.4,1464.8 1676.5,1462.1 1648.2,1459.2 1621.3,1456.1 1595.6,1452.8 1570.8,1449.3 1546.6,1445.5 1522.9,1441.5 1499.4,1437.2 1475.8,1432.5 1451.8,1427.5 1427.4,1421.9 1402.2,1415.9 1376.0,1409.2 1348.5,1401.9 1319.5,1393.8 1288.9,1384.8 1256.3,1374.9 1221.6,1363.9 1184.4,1351.7 1144.6,1338.3 1102.0,1323.4 1056.3,1306.9 1007.4,1288.7 954.9,1268.6 898.7,1246.5 838.5,1222.2 774.2,1195.6  Z" style="stroke-width: 2.0;  stroke: rgb(230,177,14); fill: rgb(242,205,0);" />
<path d="M 833.561,1081.303 A 787.050,787.050 0.00 0,1 849.9,1056.4 L 849.9,1056.4 901.1,1090.7 949.7,1121.8 995.8,1150.2 1039.6,1175.9 1081.1,1199.2 1120.6,1220.2 1158.1,1239.3 1193.8,1256.4 1227.9,1271.9 1260.4,1285.8 1291.6,1298.3 1321.5,1309.5 1350.4,1319.5 1378.3,1328.5 1405.5,1336.5 1432.0,1343.6 1458.1,1349.9 1483.9,1355.5 1509.6,1360.3 1535.3,1364.5 1561.2,1368.1 1587.4,1371.0 1614.2,1373.3 1641.6,1375.0 1669.9,1376.1 1699.3,1376.4 1729.8,1376.1 1761.8,1375.0 1795.3,1373.1 1830.6,1370.2 1867.8,1366.4 1907.1,1361.5 1948.7,1355.4 1992.8,1348.0 2039.6,1339.1 2089.3,1328.7 2142.0,1316.5 2198.0,1302.4 2257.4,1286.2  A 787.050,787.050 0.00 0,1 2267.3,1324.6 L 2267.3,1324.6 2205.6,1338.2 2147.6,1349.9 2093.1,1359.9 2041.9,1368.4 1993.9,1375.4 1948.7,1381.2 1906.2,1385.9 1866.1,1389.5 1828.4,1392.2 1792.7,1394.0 1758.9,1395.0 1726.8,1395.3 1696.2,1395.0 1666.9,1394.0 1638.7,1392.5 1611.4,1390.4 1584.9,1387.8 1558.9,1384.6 1533.3,1380.8 1507.9,1376.5 1482.5,1371.6 1456.9,1366.0 1431.0,1359.8 1404.5,1352.8 1377.4,1344.9 1349.4,1336.1 1320.4,1326.4 1290.2,1315.5 1258.6,1303.4 1225.6,1289.9 1190.8,1274.9 1154.2,1258.3 1115.6,1239.9 1074.9,1219.5 1031.8,1196.9 986.3,1172.1 938.2,1144.6 887.3,1114.5 833.6,1081.3  Z" style="stroke-width: 2.0;  stroke: rgb(230,177,14); fill: rgb(242,205,0);" />
<path d="M 855.503,1048.258 A 787.050,787.050 0.00 0,1 861.2,1040.2 L 861.2,1040.2 910.5,1074.9 957.4,1106.5 1002.0,1135.2 1044.4,1161.2 1084.8,1184.8 1123.3,1206.1 1160.0,1225.3 1195.0,1242.6 1228.5,1258.2 1260.6,1272.2 1291.5,1284.7 1321.2,1295.9 1350.0,1305.9 1377.9,1314.8 1405.1,1322.8 1431.8,1329.7 1458.0,1335.9 1484.0,1341.2 1509.8,1345.8 1535.7,1349.7 1561.7,1352.8 1588.1,1355.3 1615.0,1357.1 1642.5,1358.2 1670.9,1358.6 1700.2,1358.3 1730.6,1357.1 1762.3,1355.0 1795.5,1352.1 1830.3,1348.1 1866.9,1343.0 1905.5,1336.7 1946.2,1329.0 1989.2,1319.9 2034.7,1309.2 2082.9,1296.7 2133.9,1282.3 2188.0,1265.8 2245.3,1247.0  A 787.050,787.050 0.00 0,1 2251.4,1265.8 L 2251.4,1265.8 2193.1,1283.4 2138.1,1298.8 2086.2,1312.1 2037.3,1323.6 1991.1,1333.5 1947.6,1341.8 1906.4,1348.7 1867.5,1354.4 1830.6,1358.8 1795.5,1362.3 1762.2,1364.8 1730.3,1366.3 1699.8,1367.1 1670.5,1367.1 1642.1,1366.4 1614.6,1365.0 1587.8,1363.0 1561.5,1360.3 1535.5,1356.9 1509.7,1352.9 1483.9,1348.2 1458.0,1342.8 1431.9,1336.6 1405.2,1329.5 1378.0,1321.6 1350.1,1312.6 1321.3,1302.6 1291.4,1291.4 1260.4,1278.9 1228.1,1264.9 1194.3,1249.4 1158.9,1232.2 1121.8,1213.1 1082.8,1191.9 1041.9,1168.5 998.8,1142.6 953.5,1114.1 905.7,1082.7 855.5,1048.3  Z" style="stroke-width: 2.0;  stroke: rgb(230,177,14); fill: rgb(242,205,0);" />
<path d="M 867.091,1032.160 A 787.050,787.050 0.00 0,0 867.1,1032.2 L 867.1,1032.2 915.4,1067.1 961.4,1098.8 1005.2,1127.7 1046.9,1153.9 1086.7,1177.5 1124.7,1198.9 1161.0,1218.2 1195.7,1235.6 1228.9,1251.2 1260.8,1265.2 1291.5,1277.8 1321.1,1289.0 1349.8,1299.0 1377.7,1307.9 1404.9,1315.7 1431.5,1322.6 1457.8,1328.6 1483.8,1333.8 1509.7,1338.3 1535.7,1342.0 1561.8,1344.9 1588.2,1347.2 1615.2,1348.7 1642.7,1349.5 1671.0,1349.5 1700.3,1348.8 1730.6,1347.2 1762.2,1344.7 1795.1,1341.2 1829.7,1336.6 1865.9,1330.8 1904.1,1323.8 1944.3,1315.4 1986.7,1305.4 2031.5,1293.7 2078.9,1280.3 2129.0,1264.7 2182.1,1247.0 2238.2,1227.0  A 787.050,787.050 0.00 0,0 2234.7,1217.7 L 2234.7,1217.7 2179.0,1238.4 2126.4,1256.7 2076.6,1272.7 2029.6,1286.7 1985.0,1298.8 1942.8,1309.2 1902.8,1318.1 1864.8,1325.5 1828.7,1331.6 1794.3,1336.5 1761.4,1340.3 1729.9,1343.1 1699.6,1345.0 1670.4,1346.0 1642.1,1346.1 1614.5,1345.6 1587.6,1344.2 1561.2,1342.2 1535.0,1339.4 1509.0,1335.8 1483.1,1331.6 1457.0,1326.5 1430.7,1320.6 1404.0,1313.8 1376.8,1306.1 1348.9,1297.4 1320.2,1287.5 1290.6,1276.4 1259.9,1264.0 1228.0,1250.1 1194.8,1234.6 1160.2,1217.3 1124.0,1198.2 1086.1,1176.9 1046.4,1153.3 1004.8,1127.3 961.1,1098.6 915.2,1066.9 867.1,1032.2  Z" style="stroke-width: 2.0;  stroke: rgb(230,177,14); fill: rgb(242,205,0);" />
<path d="M 873.037,1024.222 A 787.050,787.050 0.00 0,1 897.8,993.2 L 897.8,993.2 941.7,1029.3 983.8,1062.1 1024.1,1091.9 1062.7,1119.0 1099.8,1143.4 1135.4,1165.5 1169.6,1185.4 1202.5,1203.4 1234.2,1219.5 1264.9,1233.9 1294.6,1246.7 1323.5,1258.1 1351.5,1268.3 1379.0,1277.2 1405.9,1285.0 1432.4,1291.8 1458.5,1297.6 1484.5,1302.5 1510.4,1306.5 1536.4,1309.7 1562.5,1312.0 1588.9,1313.5 1615.7,1314.2 1643.0,1314.0 1671.0,1312.8 1699.8,1310.7 1729.5,1307.7 1760.2,1303.5 1792.2,1298.1 1825.4,1291.5 1860.1,1283.6 1896.3,1274.1 1934.3,1263.0 1974.2,1250.1 2016.0,1235.2 2060.0,1218.3 2106.3,1199.0 2155.0,1177.3 2206.3,1152.8  A 787.050,787.050 0.00 0,1 2226.8,1198.0 L 2226.8,1198.0 2172.3,1219.9 2120.8,1239.3 2072.0,1256.4 2025.7,1271.4 1981.9,1284.4 1940.3,1295.6 1900.9,1305.2 1863.3,1313.3 1827.6,1320.0 1793.4,1325.5 1760.8,1329.9 1729.5,1333.1 1699.3,1335.4 1670.2,1336.8 1641.9,1337.3 1614.4,1337.1 1587.5,1336.0 1561.0,1334.2 1534.8,1331.6 1508.8,1328.3 1482.8,1324.2 1456.8,1319.2 1430.4,1313.5 1403.7,1306.8 1376.5,1299.1 1348.7,1290.4 1320.1,1280.6 1290.6,1269.5 1260.1,1257.1 1228.5,1243.2 1195.6,1227.6 1161.3,1210.3 1125.6,1191.1 1088.2,1169.7 1049.1,1146.0 1008.1,1119.9 965.2,1091.0 920.2,1059.2 873.0,1024.2  Z" style="stroke-width: 2.0;  stroke: rgb(230,177,14); fill: rgb(242,205,0);" />
<path d="M 904.238,985.690 A 787.050,787.050 0.00 0,1 996.1,895.4 L 996.1,895.4 1029.3,934.1 1061.6,969.5 1093.1,1001.7 1123.6,1031.0 1153.4,1057.7 1182.4,1081.8 1210.7,1103.6 1238.4,1123.3 1265.5,1141.0 1292.1,1156.8 1318.1,1170.9 1343.8,1183.5 1369.0,1194.5 1394.0,1204.2 1418.7,1212.6 1443.2,1219.7 1467.7,1225.7 1492.0,1230.5 1516.4,1234.2 1540.9,1236.9 1565.5,1238.5 1590.3,1239.0 1615.4,1238.4 1640.9,1236.6 1666.9,1233.8 1693.3,1229.7 1720.4,1224.3 1748.1,1217.5 1776.6,1209.3 1805.9,1199.5 1836.1,1188.0 1867.4,1174.7 1899.7,1159.5 1933.3,1142.1 1968.0,1122.5 2004.2,1100.4 2041.8,1075.6 2080.9,1048.0 2121.6,1017.3  A 787.050,787.050 0.00 0,1 2196.7,1133.9 L 2196.7,1133.9 2146.6,1159.4 2099.0,1182.2 2053.8,1202.3 2010.7,1220.2 1969.6,1235.8 1930.4,1249.5 1893.1,1261.3 1857.3,1271.4 1823.1,1280.0 1790.2,1287.1 1758.6,1293.0 1728.1,1297.6 1698.7,1301.1 1670.1,1303.6 1642.2,1305.0 1615.0,1305.6 1588.2,1305.2 1561.9,1304.0 1535.8,1301.9 1509.9,1298.9 1484.1,1295.0 1458.1,1290.3 1432.0,1284.6 1405.6,1277.9 1378.8,1270.2 1351.5,1261.3 1323.6,1251.2 1295.0,1239.8 1265.5,1227.0 1235.1,1212.5 1203.7,1196.4 1171.2,1178.5 1137.5,1158.5 1102.4,1136.4 1065.9,1111.8 1028.0,1084.7 988.5,1054.8 947.2,1021.9 904.2,985.7  Z" style="stroke-width: 2.0;  stroke: rgb(230,177,14); fill: rgb(242,205,0);" />
<path d="M 1003.747,889.115 A 787.050,787.050 0.00 0,0 1003.7,889.1 L 1003.7,889.1 1036.2,927.8 1067.7,963.1 1098.4,995.4 1128.3,1024.7 1157.4,1051.3 1185.9,1075.4 1213.7,1097.2 1240.9,1116.9 1267.5,1134.6 1293.7,1150.4 1319.4,1164.4 1344.7,1176.9 1369.6,1187.9 1394.3,1197.5 1418.7,1205.8 1443.0,1212.8 1467.1,1218.6 1491.2,1223.3 1515.4,1226.8 1539.6,1229.3 1563.9,1230.6 1588.5,1230.9 1613.3,1230.0 1638.5,1228.0 1664.1,1224.8 1690.2,1220.3 1716.8,1214.5 1744.1,1207.4 1772.1,1198.7 1800.9,1188.4 1830.5,1176.5 1861.1,1162.7 1892.7,1146.8 1925.4,1128.9 1959.3,1108.6 1994.4,1085.9 2031.0,1060.5 2068.9,1032.1 2108.4,1000.7  A 787.050,787.050 0.00 0,0 2102.1,993.1 L 2102.1,993.1 2063.1,1024.9 2025.6,1053.6 1989.6,1079.4 1954.8,1102.5 1921.3,1123.0 1888.9,1141.3 1857.6,1157.4 1827.3,1171.5 1797.9,1183.7 1769.4,1194.3 1741.6,1203.2 1714.5,1210.6 1688.0,1216.6 1662.0,1221.3 1636.6,1224.7 1611.5,1226.9 1586.8,1227.9 1562.3,1227.9 1538.0,1226.7 1513.9,1224.4 1489.9,1221.0 1465.8,1216.5 1441.7,1210.8 1417.5,1203.9 1393.1,1195.8 1368.5,1186.3 1343.6,1175.5 1318.4,1163.1 1292.8,1149.2 1266.7,1133.5 1240.1,1115.9 1213.0,1096.4 1185.3,1074.7 1156.9,1050.7 1127.9,1024.2 1098.1,995.0 1067.5,962.9 1036.0,927.7 1003.7,889.1  Z" style="stroke-width: 2.0;  stroke: rgb(230,177,14); fill: rgb(242,205,0);" />
<path d="M 1011.484,882.910 A 787.050,787.050 0.00 0,1 1127.4,806.8 L 1127.4,806.8 1149.4,846.3 1171.2,882.6 1192.8,915.8 1214.1,946.2 1235.2,973.9 1256.1,999.0 1276.8,1021.9 1297.4,1042.5 1317.8,1061.0 1338.1,1077.6 1358.3,1092.4 1378.3,1105.5 1398.3,1116.9 1418.2,1126.8 1438.1,1135.2 1458.0,1142.1 1477.9,1147.7 1497.9,1152.0 1517.9,1154.9 1538.0,1156.5 1558.2,1156.9 1578.5,1155.9 1599.1,1153.6 1619.8,1149.9 1640.8,1144.8 1662.1,1138.3 1683.7,1130.2 1705.6,1120.6 1727.8,1109.2 1750.5,1096.1 1773.6,1081.1 1797.3,1064.1 1821.4,1044.9 1846.1,1023.4 1871.4,999.5 1897.3,972.9 1924.0,943.6 1951.3,911.3 1979.4,875.8  A 787.050,787.050 0.00 0,1 2088.2,977.0 L 2088.2,977.0 2050.5,1009.5 2014.2,1038.9 1979.2,1065.3 1945.5,1089.0 1912.8,1110.1 1881.3,1129.0 1850.8,1145.6 1821.1,1160.2 1792.4,1172.9 1764.4,1183.9 1737.1,1193.2 1710.5,1201.0 1684.5,1207.4 1658.9,1212.4 1633.8,1216.1 1609.1,1218.6 1584.7,1220.0 1560.5,1220.1 1536.6,1219.2 1512.7,1217.1 1488.9,1213.9 1465.2,1209.5 1441.4,1204.0 1417.5,1197.2 1393.4,1189.2 1369.1,1179.8 1344.6,1169.0 1319.7,1156.7 1294.5,1142.8 1268.8,1127.1 1242.7,1109.6 1216.1,1090.1 1188.9,1068.4 1161.1,1044.4 1132.6,1017.9 1103.5,988.7 1073.6,956.6 1043.0,921.4 1011.5,882.9  Z" style="stroke-width: 2.0;  stroke: rgb(230,177,14); fill: rgb(242,205,0);" />
<path d="M 1136.132,802.112 A 787.050,787.050 0.00 0,1 1245.4,755.3 L 1245.4,755.3 1259.5,794.8 1273.6,831.2 1287.8,864.7 1302.0,895.3 1316.2,923.4 1330.4,949.0 1344.7,972.2 1359.0,993.3 1373.3,1012.2 1387.7,1029.2 1402.1,1044.3 1416.5,1057.6 1431.0,1069.2 1445.5,1079.1 1460.1,1087.5 1474.7,1094.3 1489.4,1099.7 1504.2,1103.6 1519.1,1106.0 1534.0,1107.0 1549.1,1106.6 1564.3,1104.7 1579.6,1101.4 1595.0,1096.6 1610.6,1090.3 1626.3,1082.4 1642.2,1072.8 1658.3,1061.6 1674.6,1048.6 1691.1,1033.7 1707.9,1016.8 1724.9,997.9 1742.1,976.8 1759.7,953.3 1777.5,927.5 1795.7,899.0 1814.2,867.7 1833.1,833.5 1852.4,796.2  A 787.050,787.050 0.00 0,1 1962.4,863.1 L 1962.4,863.1 1935.5,899.0 1909.3,931.7 1883.8,961.5 1858.9,988.4 1834.5,1012.7 1810.7,1034.6 1787.5,1054.2 1764.7,1071.6 1742.3,1087.0 1720.3,1100.4 1698.7,1112.1 1677.5,1122.1 1656.5,1130.4 1635.9,1137.3 1615.5,1142.6 1595.3,1146.5 1575.3,1149.1 1555.4,1150.3 1535.7,1150.1 1516.1,1148.7 1496.6,1145.9 1477.1,1141.8 1457.7,1136.4 1438.3,1129.5 1418.9,1121.2 1399.4,1111.5 1380.0,1100.1 1360.4,1087.1 1340.8,1072.4 1321.0,1055.9 1301.1,1037.4 1281.1,1016.8 1261.0,994.0 1240.7,968.9 1220.2,941.3 1199.5,910.9 1178.6,877.8 1157.5,841.6 1136.1,802.1  Z" style="stroke-width: 2.0;  stroke: rgb(230,177,14); fill: rgb(242,205,0);" />
<path d="M 1254.818,752.114 A 787.050,787.050 0.00 0,1 1283.3,743.4 L 1283.3,743.4 1295.0,782.7 1306.8,819.0 1318.7,852.3 1330.6,882.9 1342.6,910.9 1354.6,936.4 1366.7,959.6 1378.8,980.6 1391.0,999.6 1403.2,1016.5 1415.5,1031.5 1427.8,1044.7 1440.2,1056.2 1452.6,1066.1 1465.1,1074.3 1477.6,1080.9 1490.2,1086.1 1502.9,1089.7 1515.6,1091.9 1528.4,1092.6 1541.3,1091.8 1554.3,1089.5 1567.4,1085.8 1580.5,1080.5 1593.8,1073.7 1607.2,1065.3 1620.8,1055.2 1634.4,1043.3 1648.3,1029.7 1662.2,1014.2 1676.4,996.7 1690.7,977.1 1705.2,955.4 1719.9,931.3 1734.8,904.7 1750.0,875.6 1765.4,843.7 1781.0,809.0 1796.9,771.1  A 787.050,787.050 0.00 0,1 1833.3,787.0 L 1833.3,787.0 1815.2,824.5 1797.4,859.0 1779.9,890.5 1762.8,919.2 1745.9,945.4 1729.3,969.1 1713.0,990.5 1696.8,1009.7 1680.9,1026.8 1665.3,1041.9 1649.8,1055.2 1634.4,1066.7 1619.3,1076.4 1604.3,1084.6 1589.4,1091.1 1574.7,1096.1 1560.1,1099.6 1545.6,1101.6 1531.2,1102.2 1516.9,1101.3 1502.6,1099.0 1488.5,1095.3 1474.4,1090.0 1460.4,1083.3 1446.4,1075.0 1432.5,1065.2 1418.6,1053.6 1404.8,1040.4 1391.0,1025.4 1377.2,1008.5 1363.5,989.6 1349.8,968.6 1336.2,945.4 1322.5,919.9 1308.9,891.9 1295.3,861.2 1281.8,827.9 1268.3,791.5 1254.8,752.1  Z" style="stroke-width: 2.0;  stroke: rgb(230,177,14); fill: rgb(242,205,0);" />
<path d="M 1292.810,740.711 A 787.050,787.050 0.00 0,1 1302.4,738.2 L 1302.4,738.2 1313.0,777.3 1323.6,813.4 1334.3,846.7 1345.1,877.1 1355.8,905.0 1366.7,930.5 1377.5,953.6 1388.4,974.5 1399.4,993.4 1410.4,1010.2 1421.4,1025.2 1432.4,1038.3 1443.5,1049.7 1454.7,1059.4 1465.9,1067.5 1477.1,1074.0 1488.4,1078.9 1499.7,1082.4 1511.1,1084.3 1522.5,1084.8 1534.0,1083.8 1545.6,1081.2 1557.3,1077.2 1569.0,1071.6 1580.8,1064.5 1592.7,1055.7 1604.7,1045.3 1616.7,1033.1 1628.9,1019.1 1641.2,1003.2 1653.7,985.3 1666.2,965.3 1678.9,943.1 1691.8,918.6 1704.8,891.7 1717.9,862.2 1731.3,829.9 1744.8,794.8 1758.5,756.6  A 787.050,787.050 0.00 0,1 1777.2,763.4 L 1777.2,763.4 1762.4,801.4 1747.8,836.4 1733.5,868.4 1719.4,897.8 1705.4,924.5 1691.7,948.8 1678.1,970.8 1664.7,990.6 1651.4,1008.3 1638.3,1024.1 1625.3,1037.9 1612.5,1049.9 1599.7,1060.2 1587.1,1068.8 1574.6,1075.8 1562.1,1081.3 1549.8,1085.2 1537.5,1087.6 1525.3,1088.5 1513.2,1087.9 1501.2,1085.9 1489.2,1082.3 1477.2,1077.3 1465.4,1070.7 1453.5,1062.6 1441.8,1052.8 1430.0,1041.4 1418.4,1028.2 1406.7,1013.2 1395.1,996.4 1383.6,977.5 1372.1,956.5 1360.6,933.4 1349.2,907.9 1337.8,879.9 1326.5,849.4 1315.2,816.1 1304.0,780.0 1292.8,740.7  Z" style="stroke-width: 2.0;  stroke: rgb(230,177,14); fill: rgb(242,205,0);" />
<path d="M 1312.010,735.731 A 787.050,787.050 0.00 0,1 1321.7,733.4 L 1321.7,733.4 1331.1,772.4 1340.6,808.4 1350.1,841.5 1359.7,871.9 1369.3,899.8 1378.9,925.2 1388.5,948.2 1398.2,969.1 1407.9,987.9 1417.6,1004.6 1427.3,1019.5 1437.1,1032.6 1446.9,1043.9 1456.7,1053.5 1466.6,1061.4 1476.5,1067.8 1486.4,1072.6 1496.4,1075.9 1506.4,1077.7 1516.4,1077.9 1526.5,1076.7 1536.6,1074.0 1546.8,1069.7 1557.0,1063.9 1567.3,1056.4 1577.6,1047.4 1588.0,1036.6 1598.4,1024.1 1609.0,1009.8 1619.6,993.6 1630.3,975.3 1641.1,955.0 1651.9,932.5 1662.9,907.7 1674.0,880.4 1685.1,850.6 1696.4,818.0 1707.9,782.6 1719.4,744.2  A 787.050,787.050 0.00 0,1 1738.4,749.9 L 1738.4,749.9 1725.8,788.3 1713.3,823.5 1701.1,856.0 1688.9,885.7 1676.9,912.8 1665.0,937.4 1653.3,959.8 1641.6,980.0 1630.1,998.0 1618.7,1014.1 1607.3,1028.3 1596.1,1040.7 1584.9,1051.3 1573.8,1060.2 1562.8,1067.5 1551.8,1073.2 1540.9,1077.4 1530.1,1080.0 1519.3,1081.2 1508.6,1080.8 1497.9,1079.0 1487.3,1075.6 1476.7,1070.7 1466.1,1064.3 1455.6,1056.3 1445.1,1046.6 1434.7,1035.3 1424.3,1022.2 1413.9,1007.3 1403.6,990.5 1393.3,971.7 1383.0,950.8 1372.7,927.7 1362.5,902.3 1352.3,874.5 1342.2,844.0 1332.1,810.9 1322.0,774.8 1312.0,735.7  Z" style="stroke-width: 2.0;  stroke: rgb(230,177,14); fill: rgb(242,205,0);" />
<path d="M 1331.329,731.236 A 787.050,787.050 0.00 0,1 1341.0,729.2 L 1341.0,729.2 1349.4,768.1 1357.7,804.0 1366.1,837.0 1374.5,867.3 1382.9,895.1 1391.3,920.4 1399.7,943.4 1408.1,964.3 1416.5,983.0 1425.0,999.7 1433.4,1014.6 1441.9,1027.5 1450.4,1038.8 1458.8,1048.3 1467.3,1056.2 1475.8,1062.4 1484.4,1067.2 1492.9,1070.3 1501.5,1071.9 1510.1,1072.1 1518.7,1070.7 1527.3,1067.7 1535.9,1063.3 1544.6,1057.2 1553.3,1049.6 1562.1,1040.3 1570.8,1029.3 1579.6,1016.5 1588.5,1001.9 1597.4,985.4 1606.3,966.9 1615.3,946.3 1624.3,923.6 1633.4,898.5 1642.5,870.9 1651.7,840.8 1661.0,808.0 1670.3,772.4 1679.7,733.7  A 787.050,787.050 0.00 0,1 1698.9,738.5 L 1698.9,738.5 1688.5,777.1 1678.2,812.6 1667.9,845.3 1657.8,875.3 1647.7,902.7 1637.7,927.7 1627.8,950.4 1617.9,970.8 1608.1,989.2 1598.4,1005.6 1588.8,1020.0 1579.1,1032.7 1569.6,1043.6 1560.1,1052.8 1550.6,1060.3 1541.1,1066.3 1531.7,1070.6 1522.4,1073.5 1513.1,1074.8 1503.8,1074.6 1494.5,1072.9 1485.3,1069.7 1476.0,1065.0 1466.9,1058.6 1457.7,1050.7 1448.5,1041.2 1439.4,1029.9 1430.3,1016.9 1421.2,1002.1 1412.1,985.3 1403.1,966.6 1394.1,945.7 1385.0,922.7 1376.0,897.3 1367.1,869.5 1358.1,839.2 1349.2,806.1 1340.2,770.2 1331.3,731.2  Z" style="stroke-width: 2.0;  stroke: rgb(230,177,14); fill: rgb(242,205,0);" />
<path d="M 1350.755,727.230 A 787.050,787.050 0.00 0,1 1468.9,713.6 L 1468.9,713.6 1470.5,752.4 1472.1,788.3 1473.7,821.4 1475.3,851.8 1476.9,879.6 1478.5,905.1 1480.0,928.3 1481.6,949.3 1483.2,968.1 1484.8,985.0 1486.4,1000.0 1488.0,1013.1 1489.6,1024.4 1491.2,1034.0 1492.8,1041.9 1494.4,1048.2 1496.0,1052.9 1497.6,1056.0 1499.2,1057.6 1500.8,1057.6 1502.4,1056.0 1504.0,1052.9 1505.6,1048.2 1507.2,1041.9 1508.8,1034.0 1510.4,1024.4 1512.0,1013.1 1513.6,1000.0 1515.2,985.0 1516.8,968.1 1518.4,949.3 1520.0,928.3 1521.5,905.1 1523.1,879.6 1524.7,851.8 1526.3,821.4 1527.9,788.3 1529.5,752.4 1531.1,713.6  A 787.050,787.050 0.00 0,1 1659.0,729.2 L 1659.0,729.2 1650.7,767.9 1642.4,803.7 1634.2,836.6 1626.1,866.8 1617.9,894.4 1609.8,919.6 1601.7,942.5 1593.7,963.2 1585.7,981.8 1577.7,998.4 1569.7,1013.1 1561.8,1026.0 1553.8,1037.1 1545.9,1046.5 1538.0,1054.3 1530.2,1060.4 1522.3,1065.0 1514.5,1068.0 1506.6,1069.4 1498.8,1069.4 1491.0,1067.8 1483.2,1064.7 1475.4,1060.0 1467.6,1053.8 1459.8,1046.0 1452.0,1036.5 1444.2,1025.3 1436.4,1012.3 1428.6,997.5 1420.9,980.8 1413.1,962.1 1405.3,941.3 1397.5,918.3 1389.7,893.0 1381.9,865.2 1374.1,834.9 1366.4,801.9 1358.6,766.1 1350.8,727.2  Z" style="stroke-width: 2.0;  stroke: rgb(230,177,14); fill: rgb(242,205,0);" />
<path d="M 1478.779,713.236 A 787.050,787.050 0.00 0,0 1478.8,713.2 L 1478.8,713.2 1479.8,752.1 1480.9,787.9 1481.9,821.0 1482.8,851.4 1483.7,879.3 1484.6,904.7 1485.5,927.9 1486.3,948.9 1487.1,967.8 1487.9,984.6 1488.6,999.6 1489.3,1012.7 1490.0,1024.0 1490.7,1033.6 1491.4,1041.6 1492.0,1047.9 1492.6,1052.5 1493.2,1055.6 1493.8,1057.2 1494.3,1057.2 1494.8,1055.6 1495.3,1052.5 1495.8,1047.8 1496.3,1041.5 1496.7,1033.6 1497.1,1023.9 1497.5,1012.6 1497.9,999.5 1498.2,984.5 1498.5,967.6 1498.8,948.7 1499.1,927.7 1499.3,904.5 1499.5,879.1 1499.7,851.2 1499.8,820.8 1499.9,787.7 1500.0,751.8 1500.0,713.0  A 787.050,787.050 0.00 0,1 1509.9,713.0 L 1509.9,713.0 1509.4,751.9 1508.9,787.7 1508.3,820.8 1507.7,851.2 1507.1,879.1 1506.5,904.6 1505.9,927.8 1505.2,948.8 1504.6,967.7 1503.9,984.6 1503.2,999.5 1502.5,1012.7 1501.8,1024.0 1501.0,1033.6 1500.3,1041.5 1499.5,1047.8 1498.8,1052.5 1498.0,1055.7 1497.2,1057.2 1496.4,1057.2 1495.6,1055.7 1494.8,1052.6 1494.0,1047.9 1493.1,1041.6 1492.3,1033.7 1491.4,1024.1 1490.5,1012.7 1489.6,999.6 1488.7,984.7 1487.8,967.8 1486.9,948.9 1485.9,927.9 1484.9,904.8 1484.0,879.3 1483.0,851.4 1481.9,821.0 1480.9,787.9 1479.9,752.1 1478.8,713.2  Z" style="stroke-width: 2.0;  stroke: rgb(230,177,14); fill: rgb(242,205,0);" />
<path d="M 1255.855,2248.225 A 787.050,787.050 0.00 0,1 1200.0,2227.6 L 1200.0,2227.6 1214.8,2191.7 1228.4,2158.5 1241.0,2127.9 1252.4,2099.7 1262.9,2073.9 1272.4,2050.2 1281.0,2028.7 1288.8,2009.2 1295.7,1991.6 1301.9,1975.9 1307.3,1961.9 1311.9,1949.7 1315.9,1939.0 1319.2,1930.0 1321.8,1922.5 1323.8,1916.5 1325.1,1911.9 1325.9,1908.9 1326.0,1907.2 1325.5,1907.0 1324.4,1908.2 1322.6,1910.9 1320.3,1915.0 1317.3,1920.5 1313.7,1927.6 1309.4,1936.2 1304.4,1946.5 1298.8,1958.3 1292.4,1971.8 1285.2,1987.2 1277.3,2004.3 1268.5,2023.4 1258.9,2044.5 1248.4,2067.7 1236.9,2093.1 1224.5,2120.8 1210.9,2151.0 1196.3,2183.8 1180.5,2219.3  A 787.050,787.050 0.00 0,1 1127.1,2193.1 L 1127.1,2193.1 1145.7,2158.8 1163.1,2127.3 1179.4,2098.3 1194.7,2071.8 1209.0,2047.6 1222.3,2025.6 1234.7,2005.8 1246.2,1988.0 1257.0,1972.0 1266.9,1958.0 1276.1,1945.7 1284.5,1935.1 1292.2,1926.1 1299.3,1918.7 1305.7,1912.8 1311.5,1908.5 1316.6,1905.6 1321.1,1904.1 1325.0,1904.1 1328.3,1905.5 1331.0,1908.4 1333.1,1912.6 1334.5,1918.4 1335.4,1925.5 1335.6,1934.2 1335.1,1944.4 1333.9,1956.2 1332.1,1969.7 1329.5,1984.8 1326.2,2001.7 1322.1,2020.4 1317.1,2041.1 1311.3,2063.8 1304.6,2088.6 1297.0,2115.6 1288.3,2144.9 1278.6,2176.7 1267.8,2211.1 1255.9,2248.2  Z" style="stroke-width: 2.0;  stroke: rgb(230,177,14); fill: rgb(242,205,0);" />
<path d="M 1314.418,2264.858 A 787.050,787.050 0.00 0,1 1276.1,2254.5 L 1276.1,2254.5 1287.1,2217.0 1296.9,2182.3 1305.6,2150.1 1313.3,2120.4 1320.0,2093.0 1325.8,2067.9 1330.7,2044.9 1334.7,2023.9 1338.0,2004.8 1340.5,1987.6 1342.2,1972.2 1343.2,1958.5 1343.5,1946.4 1343.2,1935.9 1342.2,1926.9 1340.6,1919.4 1338.4,1913.4 1335.5,1908.9 1332.1,1905.8 1328.1,1904.1 1323.4,1903.8 1318.2,1905.0 1312.4,1907.6 1305.9,1911.7 1298.8,1917.3 1291.1,1924.4 1282.7,1933.1 1273.6,1943.4 1263.8,1955.5 1253.2,1969.3 1241.9,1984.9 1229.8,2002.5 1216.8,2022.1 1202.9,2043.9 1188.1,2067.8 1172.3,2094.1 1155.4,2122.9 1137.5,2154.3 1118.4,2188.4  A 787.050,787.050 0.00 0,1 1092.7,2173.4 L 1092.7,2173.4 1113.2,2139.9 1132.6,2109.2 1150.9,2081.0 1168.2,2055.3 1184.5,2032.0 1199.8,2010.9 1214.3,1992.0 1228.0,1975.1 1240.8,1960.1 1252.8,1946.9 1264.2,1935.5 1274.8,1925.9 1284.7,1917.8 1294.0,1911.3 1302.7,1906.4 1310.7,1903.0 1318.1,1901.0 1325.0,1900.5 1331.2,1901.4 1336.9,1903.8 1341.9,1907.5 1346.4,1912.7 1350.3,1919.3 1353.6,1927.4 1356.2,1937.0 1358.3,1948.1 1359.7,1960.8 1360.4,1975.2 1360.4,1991.2 1359.7,2009.1 1358.2,2028.8 1356.0,2050.4 1352.9,2074.0 1348.9,2099.8 1344.1,2127.8 1338.2,2158.2 1331.4,2191.1 1323.5,2226.6 1314.4,2264.9  Z" style="stroke-width: 2.0;  stroke: rgb(230,177,14); fill: rgb(242,205,0);" />
<path d="M 1354.554,2273.494 A 787.050,787.050 0.00 0,1 1335.1,2269.6 L 1335.1,2269.6 1343.1,2231.0 1350.0,2195.1 1355.9,2161.9 1360.7,2131.2 1364.7,2102.9 1367.7,2076.8 1369.8,2052.9 1371.2,2031.0 1371.8,2011.0 1371.6,1992.9 1370.7,1976.6 1369.2,1962.0 1367.0,1949.0 1364.1,1937.7 1360.7,1927.8 1356.6,1919.5 1351.9,1912.6 1346.7,1907.2 1340.9,1903.2 1334.5,1900.6 1327.5,1899.4 1320.0,1899.7 1311.9,1901.4 1303.2,1904.6 1293.8,1909.3 1283.9,1915.5 1273.3,1923.3 1262.0,1932.7 1250.1,1943.8 1237.4,1956.7 1223.9,1971.5 1209.7,1988.2 1194.6,2006.9 1178.7,2027.8 1161.8,2050.9 1144.0,2076.4 1125.2,2104.3 1105.3,2134.9 1084.2,2168.3  A 787.050,787.050 0.00 0,1 1075.8,2163.0 L 1075.8,2163.0 1097.4,2129.8 1117.8,2099.4 1137.2,2071.6 1155.6,2046.3 1173.0,2023.4 1189.5,2002.8 1205.1,1984.3 1219.9,1967.8 1234.0,1953.3 1247.2,1940.6 1259.8,1929.7 1271.7,1920.5 1282.9,1913.0 1293.5,1907.0 1303.5,1902.6 1312.8,1899.6 1321.6,1898.1 1329.8,1898.1 1337.5,1899.5 1344.6,1902.3 1351.1,1906.5 1357.0,1912.2 1362.4,1919.3 1367.2,1927.8 1371.5,1937.9 1375.1,1949.5 1378.1,1962.7 1380.4,1977.5 1382.1,1994.1 1383.1,2012.4 1383.3,2032.6 1382.8,2054.8 1381.5,2079.0 1379.4,2105.3 1376.4,2133.9 1372.5,2164.9 1367.5,2198.4 1361.6,2234.5 1354.6,2273.5  Z" style="stroke-width: 2.0;  stroke: rgb(230,177,14); fill: rgb(242,205,0);" />
<path d="M 1434.520,2284.321 A 787.050,787.050 0.00 0,1 1375.5,2277.1 L 1375.5,2277.1 1381.4,2237.9 1386.4,2201.4 1390.3,2167.6 1393.2,2136.3 1395.3,2107.4 1396.5,2080.8 1396.8,2056.4 1396.4,2034.0 1395.3,2013.6 1393.4,1995.0 1390.9,1978.2 1387.7,1963.2 1383.9,1949.7 1379.4,1937.9 1374.4,1927.6 1368.8,1918.8 1362.7,1911.5 1356.0,1905.7 1348.7,1901.2 1340.9,1898.2 1332.6,1896.6 1323.6,1896.4 1314.2,1897.6 1304.1,1900.3 1293.5,1904.5 1282.2,1910.3 1270.4,1917.6 1257.8,1926.6 1244.6,1937.2 1230.7,1949.7 1216.1,1964.0 1200.7,1980.2 1184.5,1998.5 1167.4,2018.9 1149.4,2041.6 1130.5,2066.7 1110.6,2094.3 1089.6,2124.5 1067.5,2157.6  A 787.050,787.050 0.00 0,1 1027.0,2129.0 L 1027.0,2129.0 1051.6,2097.0 1075.0,2067.7 1097.4,2041.2 1118.8,2017.1 1139.2,1995.5 1158.7,1976.1 1177.3,1958.9 1195.1,1943.7 1212.1,1930.5 1228.3,1919.1 1243.9,1909.5 1258.7,1901.5 1273.0,1895.2 1286.6,1890.5 1299.6,1887.3 1312.0,1885.5 1323.9,1885.2 1335.2,1886.3 1346.0,1888.8 1356.2,1892.7 1365.9,1898.0 1375.1,1904.7 1383.8,1912.8 1391.9,1922.4 1399.5,1933.5 1406.5,1946.1 1412.9,1960.3 1418.7,1976.1 1423.9,1993.6 1428.5,2012.9 1432.3,2034.1 1435.5,2057.3 1438.0,2082.5 1439.6,2110.0 1440.4,2139.7 1440.4,2171.8 1439.4,2206.6 1437.5,2244.0 1434.5,2284.3  Z" style="stroke-width: 2.0;  stroke: rgb(230,177,14); fill: rgb(242,205,0);" />
<path d="M 1613.950,2278.757 A 787.050,787.050 0.00 0,1 1455.7,2285.8 L 1455.7,2285.8 1457.5,2245.2 1458.4,2207.5 1458.3,2172.5 1457.4,2140.1 1455.6,2110.2 1452.9,2082.6 1449.6,2057.1 1445.5,2033.8 1440.7,2012.4 1435.3,1992.9 1429.2,1975.2 1422.6,1959.3 1415.4,1944.9 1407.6,1932.2 1399.2,1920.9 1390.4,1911.2 1381.0,1902.9 1371.1,1896.0 1360.6,1890.6 1349.7,1886.5 1338.2,1883.8 1326.2,1882.5 1313.7,1882.6 1300.6,1884.2 1287.0,1887.2 1272.7,1891.7 1257.9,1897.8 1242.4,1905.6 1226.2,1915.0 1209.4,1926.2 1191.8,1939.2 1173.4,1954.2 1154.2,1971.2 1134.1,1990.3 1113.2,2011.8 1091.2,2035.6 1068.3,2062.0 1044.2,2091.1 1019.1,2123.0  A 787.050,787.050 0.00 0,1 910.6,2021.6 L 910.6,2021.6 943.7,1993.1 975.4,1967.5 1005.8,1944.6 1035.0,1924.3 1062.9,1906.3 1089.8,1890.6 1115.6,1877.0 1140.5,1865.4 1164.5,1855.6 1187.6,1847.6 1209.9,1841.3 1231.4,1836.6 1252.3,1833.4 1272.5,1831.7 1292.1,1831.3 1311.1,1832.3 1329.5,1834.6 1347.5,1838.3 1364.9,1843.2 1381.8,1849.4 1398.3,1856.9 1414.4,1865.7 1430.0,1875.8 1445.2,1887.3 1459.9,1900.2 1474.2,1914.5 1488.1,1930.4 1501.5,1948.0 1514.5,1967.2 1527.0,1988.2 1539.0,2011.1 1550.5,2036.0 1561.5,2063.1 1571.9,2092.4 1581.7,2124.2 1590.8,2158.5 1599.3,2195.6 1607.0,2235.6 1613.9,2278.8  Z" style="stroke-width: 2.0;  stroke: rgb(230,177,14); fill: rgb(242,205,0);" />
<path d="M 1644.666,2273.640 A 787.050,787.050 0.00 0,1 1634.9,2275.4 L 1634.9,2275.4 1626.7,2232.1 1617.8,2191.9 1608.2,2154.7 1598.0,2120.3 1587.2,2088.5 1575.8,2059.1 1563.9,2032.0 1551.5,2007.0 1538.6,1984.1 1525.3,1963.0 1511.5,1943.8 1497.3,1926.3 1482.7,1910.4 1467.7,1896.0 1452.3,1883.1 1436.5,1871.5 1420.3,1861.4 1403.6,1852.5 1386.5,1845.0 1369.0,1838.7 1351.0,1833.7 1332.5,1830.0 1313.6,1827.6 1294.0,1826.5 1273.9,1826.7 1253.2,1828.3 1231.8,1831.3 1209.7,1835.9 1186.9,1842.0 1163.2,1849.9 1138.7,1859.4 1113.3,1870.9 1086.9,1884.3 1059.5,1899.8 1030.9,1917.6 1001.2,1937.7 970.2,1960.4 937.8,1985.8 904.0,2014.1  A 787.050,787.050 0.00 0,0 904.0,2014.1 L 904.0,2014.1 937.9,1985.7 970.4,1960.2 1001.5,1937.5 1031.4,1917.3 1060.0,1899.5 1087.6,1883.9 1114.1,1870.4 1139.6,1859.0 1164.3,1849.4 1188.0,1841.5 1211.0,1835.3 1233.2,1830.7 1254.8,1827.6 1275.7,1826.0 1295.9,1825.7 1315.7,1826.8 1334.8,1829.2 1353.5,1832.8 1371.7,1837.8 1389.4,1844.0 1406.7,1851.5 1423.6,1860.3 1440.0,1870.4 1456.1,1881.8 1471.8,1894.7 1487.0,1909.0 1501.9,1924.9 1516.4,1942.4 1530.5,1961.5 1544.2,1982.5 1557.4,2005.4 1570.2,2030.3 1582.5,2057.4 1594.4,2086.7 1605.6,2118.5 1616.3,2153.0 1626.4,2190.2 1635.9,2230.3 1644.7,2273.6  Z" style="stroke-width: 2.0;  stroke: rgb(230,177,14); fill: rgb(242,205,0);" />
<path d="M 1704.031,2260.144 A 787.050,787.050 0.00 0,1 1665.5,2269.5 L 1665.5,2269.5 1655.4,2226.0 1644.8,2185.7 1633.5,2148.5 1621.7,2114.0 1609.4,2082.1 1596.6,2052.7 1583.4,2025.7 1569.7,2000.7 1555.6,1977.9 1541.1,1956.9 1526.2,1937.7 1511.0,1920.3 1495.4,1904.4 1479.4,1890.1 1463.1,1877.2 1446.4,1865.8 1429.3,1855.7 1411.9,1846.8 1394.0,1839.3 1375.7,1833.1 1357.0,1828.1 1337.8,1824.3 1318.1,1821.8 1297.9,1820.7 1277.1,1820.8 1255.7,1822.4 1233.7,1825.3 1210.9,1829.8 1187.5,1835.8 1163.2,1843.5 1138.0,1852.9 1111.9,1864.2 1084.9,1877.5 1056.7,1892.9 1027.5,1910.5 997.0,1930.5 965.3,1953.1 932.2,1978.4 897.6,2006.5  A 787.050,787.050 0.00 0,1 878.9,1983.4 L 878.9,1983.4 915.3,1956.0 950.1,1931.5 983.4,1909.7 1015.4,1890.4 1046.2,1873.5 1075.7,1858.8 1104.1,1846.2 1131.5,1835.6 1157.9,1826.8 1183.4,1819.7 1208.1,1814.2 1231.9,1810.3 1255.1,1807.8 1277.6,1806.8 1299.5,1807.0 1320.8,1808.6 1341.5,1811.4 1361.8,1815.4 1381.6,1820.7 1401.0,1827.2 1420.0,1835.0 1438.7,1844.0 1456.9,1854.2 1474.9,1865.8 1492.5,1878.8 1509.8,1893.2 1526.8,1909.2 1543.4,1926.7 1559.8,1945.9 1575.9,1967.0 1591.6,1989.9 1607.1,2014.9 1622.1,2042.1 1636.9,2071.6 1651.2,2103.6 1665.1,2138.3 1678.6,2175.8 1691.6,2216.4 1704.0,2260.1  Z" style="stroke-width: 2.0;  stroke: rgb(230,177,14); fill: rgb(242,205,0);" />
<path d="M 1752.803,2245.344 A 787.050,787.050 0.00 0,1 1724.5,2254.4 L 1724.5,2254.4 1710.7,2210.5 1696.4,2169.9 1681.8,2132.4 1666.8,2097.7 1651.4,2065.7 1635.7,2036.3 1619.7,2009.1 1603.4,1984.2 1586.8,1961.3 1569.9,1940.3 1552.8,1921.2 1535.4,1903.7 1517.8,1887.8 1499.8,1873.4 1481.6,1860.5 1463.1,1848.9 1444.3,1838.7 1425.1,1829.7 1405.6,1822.0 1385.7,1815.5 1365.4,1810.2 1344.6,1806.1 1323.4,1803.2 1301.6,1801.6 1279.3,1801.2 1256.3,1802.2 1232.7,1804.6 1208.3,1808.4 1183.2,1813.7 1157.2,1820.6 1130.3,1829.3 1102.4,1839.8 1073.4,1852.2 1043.3,1866.6 1012.0,1883.3 979.4,1902.4 945.4,1924.0 909.9,1948.3 872.9,1975.5  A 787.050,787.050 0.00 0,1 861.1,1959.6 L 861.1,1959.6 899.4,1932.9 936.1,1909.1 971.2,1888.0 1004.9,1869.4 1037.3,1853.2 1068.3,1839.2 1098.2,1827.2 1127.0,1817.2 1154.7,1808.9 1181.5,1802.3 1207.4,1797.4 1232.5,1793.9 1256.9,1791.8 1280.6,1791.1 1303.6,1791.7 1326.1,1793.5 1348.0,1796.5 1369.5,1800.8 1390.5,1806.2 1411.1,1812.8 1431.4,1820.6 1451.3,1829.6 1470.9,1839.9 1490.3,1851.5 1509.4,1864.4 1528.2,1878.7 1546.8,1894.6 1565.2,1912.0 1583.4,1931.1 1601.4,1952.1 1619.2,1974.9 1636.8,1999.8 1654.1,2026.9 1671.3,2056.4 1688.1,2088.4 1704.8,2123.1 1721.1,2160.7 1737.1,2201.4 1752.8,2245.3  Z" style="stroke-width: 2.0;  stroke: rgb(230,177,14); fill: rgb(242,205,0);" />
<path d="M 1836.783,2211.354 A 787.050,787.050 0.00 0,1 1772.8,2238.3 L 1772.8,2238.3 1755.8,2194.3 1738.5,2153.6 1720.9,2116.0 1703.2,2081.4 1685.3,2049.5 1667.2,2020.1 1648.9,1993.1 1630.4,1968.3 1611.8,1945.6 1593.1,1924.8 1574.2,1905.7 1555.1,1888.4 1535.8,1872.7 1516.4,1858.4 1496.7,1845.6 1476.9,1834.1 1456.7,1823.9 1436.3,1814.9 1415.6,1807.1 1394.5,1800.5 1373.0,1795.1 1351.1,1790.9 1328.8,1787.8 1305.9,1785.9 1282.4,1785.3 1258.3,1785.9 1233.5,1787.9 1208.0,1791.3 1181.6,1796.1 1154.3,1802.6 1126.1,1810.7 1096.8,1820.6 1066.4,1832.4 1034.8,1846.2 1001.9,1862.2 967.6,1880.6 931.8,1901.5 894.4,1925.0 855.3,1951.5  A 787.050,787.050 0.00 0,1 823.1,1901.5 L 823.1,1901.5 865.8,1877.0 906.6,1855.4 945.6,1836.3 982.9,1819.7 1018.6,1805.3 1052.8,1793.1 1085.6,1782.8 1117.1,1774.3 1147.4,1767.5 1176.7,1762.3 1204.9,1758.5 1232.2,1756.2 1258.7,1755.1 1284.4,1755.3 1309.4,1756.7 1333.8,1759.2 1357.7,1762.9 1381.1,1767.6 1404.1,1773.4 1426.7,1780.3 1449.0,1788.3 1471.0,1797.5 1492.8,1807.8 1514.5,1819.4 1536.0,1832.2 1557.4,1846.4 1578.8,1862.1 1600.1,1879.3 1621.4,1898.2 1642.8,1918.9 1664.1,1941.5 1685.5,1966.1 1706.9,1993.0 1728.4,2022.3 1750.0,2054.2 1771.6,2088.8 1793.3,2126.4 1815.0,2167.2 1836.8,2211.4  Z" style="stroke-width: 2.0;  stroke: rgb(230,177,14); fill: rgb(242,205,0);" />
<path d="M 1864.659,2197.475 A 787.050,787.050 0.00 0,1 1855.8,2202.0 L 1855.8,2202.0 1832.7,2157.9 1809.6,2117.3 1786.7,2079.9 1763.9,2045.4 1741.3,2013.7 1718.8,1984.7 1696.5,1958.0 1674.3,1933.5 1652.1,1911.1 1630.1,1890.6 1608.1,1871.9 1586.2,1854.9 1564.3,1839.4 1542.3,1825.3 1520.3,1812.6 1498.2,1801.2 1476.0,1791.0 1453.6,1781.9 1430.9,1774.0 1407.9,1767.1 1384.6,1761.4 1360.9,1756.7 1336.7,1753.1 1311.9,1750.5 1286.6,1749.1 1260.5,1748.9 1233.7,1749.9 1206.0,1752.2 1177.4,1755.8 1147.7,1760.9 1117.0,1767.5 1085.0,1775.8 1051.7,1786.0 1016.9,1798.0 980.7,1812.2 942.8,1828.5 903.1,1847.3 861.6,1868.7 818.1,1893.0  A 787.050,787.050 0.00 0,0 818.1,1893.0 L 818.1,1893.0 861.7,1868.7 903.4,1847.2 943.2,1828.3 981.2,1811.8 1017.6,1797.6 1052.5,1785.5 1085.9,1775.3 1118.0,1766.9 1148.9,1760.2 1178.7,1755.0 1207.4,1751.3 1235.2,1748.9 1262.1,1747.9 1288.3,1748.0 1313.7,1749.3 1338.6,1751.7 1362.9,1755.2 1386.8,1759.8 1410.2,1765.5 1433.3,1772.2 1456.1,1780.0 1478.7,1788.9 1501.1,1799.0 1523.4,1810.3 1545.6,1822.9 1567.8,1836.8 1589.9,1852.2 1612.1,1869.0 1634.4,1887.6 1656.7,1907.9 1679.2,1930.2 1701.8,1954.5 1724.5,1981.0 1747.4,2010.0 1770.5,2041.5 1793.7,2075.8 1817.2,2113.1 1840.8,2153.5 1864.7,2197.5  Z" style="stroke-width: 2.0;  stroke: rgb(230,177,14); fill: rgb(242,205,0);" />
<path d="M 1934.159,2156.471 A 787.050,787.050 0.00 0,1 1883.3,2187.4 L 1883.3,2187.4 1858.1,2143.6 1833.1,2103.3 1808.4,2066.3 1784.0,2032.2 1759.9,2000.9 1736.0,1972.2 1712.3,1945.9 1688.9,1921.8 1665.7,1899.7 1642.7,1879.6 1619.8,1861.3 1597.0,1844.6 1574.3,1829.4 1551.7,1815.7 1529.0,1803.3 1506.3,1792.2 1483.5,1782.2 1460.6,1773.4 1437.4,1765.7 1414.0,1759.1 1390.2,1753.5 1366.1,1748.9 1341.4,1745.5 1316.3,1743.0 1290.5,1741.7 1264.0,1741.5 1236.7,1742.5 1208.6,1744.8 1179.5,1748.4 1149.3,1753.5 1118.0,1760.1 1085.4,1768.3 1051.5,1778.3 1016.1,1790.3 979.1,1804.3 940.5,1820.5 900.0,1839.1 857.6,1860.3 813.2,1884.3  A 787.050,787.050 0.00 0,1 790.3,1840.3 L 790.3,1840.3 838.0,1818.3 883.3,1798.9 926.5,1782.1 967.6,1767.5 1006.9,1755.0 1044.3,1744.5 1080.1,1735.8 1114.3,1728.8 1147.2,1723.3 1178.7,1719.2 1209.1,1716.5 1238.4,1715.0 1266.8,1714.6 1294.2,1715.4 1321.0,1717.2 1347.0,1720.0 1372.5,1723.9 1397.5,1728.6 1422.1,1734.4 1446.4,1741.1 1470.5,1748.8 1494.4,1757.5 1518.3,1767.4 1542.1,1778.3 1565.9,1790.5 1589.9,1803.9 1614.1,1818.8 1638.4,1835.1 1663.1,1853.1 1688.1,1872.8 1713.4,1894.3 1739.2,1918.0 1765.5,1943.8 1792.2,1972.1 1819.4,2002.9 1847.2,2036.5 1875.6,2073.2 1904.6,2113.1 1934.2,2156.5  Z" style="stroke-width: 2.0;  stroke: rgb(230,177,14); fill: rgb(242,205,0);" />
<path d="M 2140.891,1956.845 A 787.050,787.050 0.00 0,1 1951.7,2144.5 L 1951.7,2144.5 1920.6,2101.5 1890.3,2061.9 1860.6,2025.6 1831.7,1992.3 1803.4,1961.8 1775.7,1933.8 1748.6,1908.3 1722.1,1885.0 1696.0,1863.7 1670.4,1844.3 1645.1,1826.6 1620.2,1810.5 1595.6,1795.9 1571.2,1782.7 1547.0,1770.8 1522.9,1760.0 1498.7,1750.4 1474.6,1741.8 1450.2,1734.2 1425.7,1727.6 1400.8,1722.0 1375.6,1717.3 1349.9,1713.5 1323.6,1710.7 1296.7,1708.9 1268.9,1708.1 1240.3,1708.4 1210.7,1709.9 1180.0,1712.5 1148.1,1716.5 1114.9,1721.8 1080.2,1728.7 1044.0,1737.2 1006.0,1747.5 966.3,1759.7 924.5,1774.1 880.7,1790.6 834.6,1809.7 786.1,1831.4  A 787.050,787.050 0.00 0,1 717.4,1584.0 L 717.4,1584.0 781.4,1577.6 841.3,1572.6 897.4,1568.8 949.9,1566.1 999.1,1564.4 1045.2,1563.6 1088.4,1563.6 1128.9,1564.3 1167.0,1565.6 1202.9,1567.5 1236.7,1569.9 1268.8,1572.8 1299.2,1576.2 1328.2,1580.0 1356.0,1584.2 1382.8,1588.8 1408.8,1593.9 1434.2,1599.4 1459.2,1605.3 1483.9,1611.8 1508.6,1618.9 1533.4,1626.5 1558.6,1634.9 1584.2,1644.0 1610.5,1653.9 1637.7,1664.9 1665.8,1676.8 1695.2,1690.0 1725.9,1704.5 1758.0,1720.4 1791.9,1737.9 1827.6,1757.2 1865.2,1778.4 1905.0,1801.7 1947.0,1827.3 1991.5,1855.4 2038.6,1886.2 2088.3,1920.0 2140.9,1956.8  Z" style="stroke-width: 2.0;  stroke: rgb(230,177,14); fill: rgb(242,205,0);" />
<path d="M 2256.986,1715.454 A 787.050,787.050 0.00 0,1 2153.0,1939.4 L 2153.0,1939.4 2098.8,1903.5 2047.7,1870.7 1999.4,1840.8 1953.9,1813.5 1910.9,1788.7 1870.3,1766.1 1832.0,1745.5 1795.7,1726.8 1761.4,1709.9 1728.9,1694.5 1697.9,1680.5 1668.3,1667.8 1640.0,1656.2 1612.8,1645.7 1586.5,1636.1 1560.8,1627.3 1535.7,1619.2 1511.0,1611.8 1486.4,1605.0 1461.8,1598.8 1436.9,1593.0 1411.7,1587.7 1385.8,1582.7 1359.1,1578.2 1331.3,1574.1 1302.4,1570.3 1272.0,1567.0 1239.9,1564.0 1206.0,1561.5 1170.1,1559.5 1131.8,1558.0 1091.1,1557.1 1047.6,1556.9 1001.1,1557.3 951.5,1558.6 898.4,1560.9 841.7,1564.1 781.1,1568.5 716.4,1574.1  A 787.050,787.050 0.00 0,1 729.9,1337.4 L 729.9,1337.4 804.7,1353.2 873.8,1368.0 937.6,1381.7 996.5,1394.4 1050.7,1406.2 1100.5,1417.1 1146.3,1427.2 1188.3,1436.5 1226.8,1445.1 1262.2,1453.1 1294.7,1460.5 1324.6,1467.3 1352.3,1473.7 1378.0,1479.7 1402.1,1485.3 1424.8,1490.7 1446.4,1495.9 1467.3,1501.0 1487.8,1506.0 1508.0,1511.0 1528.4,1516.1 1549.3,1521.4 1570.8,1526.9 1593.4,1532.7 1617.4,1539.0 1642.9,1545.7 1670.4,1552.9 1700.1,1560.8 1732.2,1569.5 1767.2,1578.9 1805.3,1589.3 1846.8,1600.6 1892.0,1613.1 1941.2,1626.6 1994.6,1641.5 2052.6,1657.7 2115.5,1675.4 2183.5,1694.6 2257.0,1715.5  Z" style="stroke-width: 2.0;  stroke: rgb(230,177,14); fill: rgb(242,205,0);" />
<path d="M 2276.730,1627.034 A 787.050,787.050 0.00 0,1 2262.5,1695.0 L 2262.5,1695.0 2187.8,1675.9 2118.7,1658.3 2054.9,1642.1 1996.1,1627.2 1942.0,1613.5 1892.4,1600.9 1846.8,1589.5 1805.0,1579.0 1766.7,1569.4 1731.6,1560.6 1699.4,1552.6 1669.8,1545.3 1642.4,1538.5 1617.0,1532.3 1593.3,1526.4 1571.0,1521.0 1549.7,1515.8 1529.2,1510.8 1509.1,1506.0 1489.2,1501.2 1469.1,1496.4 1448.5,1491.5 1427.2,1486.5 1404.8,1481.2 1381.1,1475.6 1355.6,1469.7 1328.2,1463.3 1298.4,1456.4 1266.1,1448.9 1230.8,1440.8 1192.4,1432.0 1150.4,1422.4 1104.6,1411.9 1054.6,1400.5 1000.2,1388.2 941.1,1374.8 876.9,1360.3 807.3,1344.6 732.0,1327.7  A 787.050,787.050 0.00 0,1 747.3,1270.2 L 747.3,1270.2 819.2,1292.0 885.9,1312.1 947.6,1330.5 1004.7,1347.4 1057.5,1362.8 1106.1,1376.8 1150.9,1389.6 1192.2,1401.3 1230.2,1412.0 1265.2,1421.6 1297.5,1430.5 1327.5,1438.5 1355.3,1445.9 1381.2,1452.7 1405.7,1459.0 1428.8,1464.9 1451.0,1470.4 1472.4,1475.6 1493.5,1480.6 1514.4,1485.5 1535.5,1490.3 1557.1,1495.1 1579.4,1500.0 1602.7,1505.0 1627.4,1510.2 1653.7,1515.6 1681.9,1521.2 1712.3,1527.3 1745.2,1533.6 1780.9,1540.5 1819.7,1547.7 1861.9,1555.5 1907.8,1563.9 1957.6,1572.8 2011.7,1582.3 2070.3,1592.5 2133.9,1603.3 2202.6,1614.8 2276.7,1627.0  Z" style="stroke-width: 2.0;  stroke: rgb(230,177,14); fill: rgb(242,205,0);" />
<path d="M 2281.148,1596.209 A 787.050,787.050 0.00 0,1 2279.9,1606.0 L 2279.9,1606.0 2206.1,1595.9 2137.8,1586.2 2074.5,1577.1 2016.1,1568.4 1962.1,1560.2 1912.3,1552.4 1866.5,1545.1 1824.2,1538.2 1785.3,1531.7 1749.5,1525.5 1716.3,1519.7 1685.7,1514.2 1657.2,1508.9 1630.6,1503.9 1605.5,1499.0 1581.8,1494.2 1559.1,1489.5 1537.2,1484.8 1515.7,1480.1 1494.4,1475.3 1472.9,1470.3 1451.1,1465.1 1428.6,1459.6 1405.1,1453.7 1380.4,1447.4 1354.2,1440.5 1326.2,1433.0 1296.2,1424.9 1263.8,1415.9 1228.7,1406.0 1190.8,1395.2 1149.7,1383.3 1105.1,1370.2 1056.9,1355.8 1004.6,1340.0 948.1,1322.8 887.0,1303.9 821.1,1283.2 750.2,1260.7  A 787.050,787.050 0.00 0,0 750.2,1260.7 L 750.2,1260.7 820.9,1283.1 886.6,1303.7 947.5,1322.5 1003.9,1339.7 1056.1,1355.4 1104.3,1369.7 1148.8,1382.7 1189.9,1394.5 1227.9,1405.2 1263.0,1415.0 1295.4,1423.9 1325.6,1432.0 1353.7,1439.4 1380.0,1446.2 1404.8,1452.4 1428.4,1458.2 1451.0,1463.6 1473.0,1468.7 1494.5,1473.6 1516.0,1478.3 1537.6,1482.9 1559.7,1487.4 1582.6,1492.0 1606.4,1496.6 1631.5,1501.3 1658.3,1506.1 1686.9,1511.1 1717.7,1516.4 1750.9,1521.9 1786.8,1527.7 1825.8,1533.8 1868.1,1540.3 1913.9,1547.1 1963.7,1554.3 2017.7,1561.8 2076.1,1569.8 2139.3,1578.2 2207.5,1587.0 2281.1,1596.2  Z" style="stroke-width: 2.0;  stroke: rgb(230,177,14); fill: rgb(242,205,0);" />
<path d="M 2286.247,1535.543 A 787.050,787.050 0.00 0,1 2283.5,1575.1 L 2283.5,1575.1 2210.4,1567.9 2142.5,1561.0 2079.7,1554.2 2021.5,1547.7 1967.7,1541.4 1918.1,1535.4 1872.2,1529.6 1829.9,1524.0 1790.9,1518.6 1754.8,1513.5 1721.4,1508.6 1690.4,1503.8 1661.5,1499.2 1634.5,1494.7 1609.0,1490.3 1584.9,1485.9 1561.7,1481.6 1539.2,1477.2 1517.2,1472.7 1495.3,1468.1 1473.4,1463.3 1451.1,1458.2 1428.1,1452.8 1404.2,1447.0 1379.2,1440.7 1352.6,1433.8 1324.4,1426.3 1294.1,1418.1 1261.6,1409.1 1226.5,1399.2 1188.6,1388.3 1147.7,1376.2 1103.4,1363.0 1055.6,1348.4 1003.9,1332.3 948.1,1314.7 887.9,1295.4 823.0,1274.3 753.3,1251.3  A 787.050,787.050 0.00 0,1 763.2,1223.2 L 763.2,1223.2 830.5,1248.3 893.2,1271.1 951.6,1292.0 1005.9,1311.0 1056.4,1328.3 1103.3,1344.0 1146.8,1358.2 1187.2,1371.1 1224.7,1382.8 1259.6,1393.4 1292.2,1403.0 1322.6,1411.7 1351.1,1419.6 1378.1,1426.8 1403.6,1433.4 1428.1,1439.5 1451.7,1445.1 1474.7,1450.3 1497.4,1455.2 1520.0,1459.9 1542.8,1464.3 1566.0,1468.6 1589.9,1472.7 1614.8,1476.7 1640.9,1480.7 1668.5,1484.7 1697.8,1488.7 1729.2,1492.6 1762.9,1496.6 1799.2,1500.6 1838.3,1504.6 1880.5,1508.7 1926.1,1512.7 1975.4,1516.7 2028.6,1520.7 2086.0,1524.6 2147.9,1528.4 2214.5,1532.1 2286.2,1535.5  Z" style="stroke-width: 2.0;  stroke: rgb(230,177,14); fill: rgb(242,205,0);" />
<path d="M 2287.031,1494.496 A 787.050,787.050 0.00 0,1 2286.9,1514.3 L 2286.9,1514.3 2215.9,1512.8 2149.8,1510.9 2088.3,1508.6 2031.3,1506.1 1978.4,1503.4 1929.4,1500.4 1883.9,1497.4 1841.7,1494.2 1802.6,1490.9 1766.3,1487.6 1732.5,1484.2 1700.9,1480.7 1671.3,1477.2 1643.5,1473.6 1617.1,1469.9 1591.9,1466.1 1567.7,1462.2 1544.1,1458.1 1521.0,1453.8 1498.1,1449.3 1475.1,1444.5 1451.8,1439.3 1427.9,1433.7 1403.1,1427.6 1377.3,1421.0 1350.2,1413.7 1321.5,1405.8 1291.0,1397.0 1258.4,1387.3 1223.6,1376.5 1186.1,1364.7 1146.0,1351.6 1102.7,1337.1 1056.3,1321.2 1006.3,1303.6 952.6,1284.2 894.9,1262.9 833.1,1239.6 766.8,1214.0  A 787.050,787.050 0.00 0,1 770.4,1204.8 L 770.4,1204.8 835.7,1230.9 896.8,1254.7 953.7,1276.4 1006.8,1296.2 1056.3,1314.1 1102.4,1330.3 1145.3,1345.0 1185.3,1358.3 1222.6,1370.3 1257.4,1381.2 1290.0,1391.0 1320.6,1399.9 1349.4,1407.9 1376.7,1415.2 1402.7,1421.9 1427.7,1428.0 1451.8,1433.5 1475.5,1438.7 1498.8,1443.4 1522.0,1447.9 1545.4,1452.0 1569.3,1456.0 1593.8,1459.7 1619.2,1463.3 1645.9,1466.7 1673.9,1469.9 1703.7,1473.1 1735.4,1476.1 1769.3,1479.0 1805.7,1481.7 1844.8,1484.3 1886.8,1486.7 1932.2,1488.8 1981.0,1490.7 2033.6,1492.3 2090.2,1493.5 2151.2,1494.4 2216.7,1494.7 2287.0,1494.5  Z" style="stroke-width: 2.0;  stroke: rgb(230,177,14); fill: rgb(242,205,0);" />
<path d="M 2271.707,1345.354 A 787.050,787.050 0.00 0,1 2286.6,1473.3 L 2286.6,1473.3 2217.0,1475.3 2152.1,1476.7 2091.7,1477.3 2035.6,1477.5 1983.3,1477.1 1934.8,1476.2 1889.6,1475.0 1847.7,1473.5 1808.6,1471.7 1772.2,1469.6 1738.3,1467.3 1706.4,1464.8 1676.5,1462.1 1648.2,1459.2 1621.3,1456.1 1595.6,1452.8 1570.8,1449.3 1546.6,1445.5 1522.9,1441.5 1499.4,1437.2 1475.8,1432.5 1451.8,1427.5 1427.4,1421.9 1402.2,1415.9 1376.0,1409.2 1348.5,1401.9 1319.5,1393.8 1288.9,1384.8 1256.3,1374.9 1221.6,1363.9 1184.4,1351.7 1144.6,1338.3 1102.0,1323.4 1056.3,1306.9 1007.4,1288.7 954.9,1268.6 898.7,1246.5 838.5,1222.2 774.2,1195.6  A 787.050,787.050 0.00 0,1 828.3,1089.7 L 828.3,1089.7 883.1,1122.6 934.9,1152.5 983.8,1179.7 1029.9,1204.4 1073.5,1226.8 1114.8,1247.0 1153.7,1265.3 1190.7,1281.8 1225.6,1296.7 1258.9,1310.2 1290.5,1322.2 1320.8,1333.1 1349.8,1342.9 1377.7,1351.7 1404.8,1359.6 1431.1,1366.6 1456.9,1373.0 1482.3,1378.6 1507.6,1383.7 1532.8,1388.2 1558.3,1392.1 1584.1,1395.5 1610.5,1398.4 1637.7,1400.8 1665.8,1402.7 1695.0,1404.0 1725.6,1404.8 1757.8,1405.0 1791.6,1404.5 1827.5,1403.3 1865.5,1401.3 1905.8,1398.5 1948.7,1394.7 1994.3,1389.8 2043.0,1383.8 2094.8,1376.5 2150.1,1367.7 2209.0,1357.4 2271.7,1345.4  Z" style="stroke-width: 2.0;  stroke: rgb(230,177,14); fill: rgb(242,205,0);" />
<path d="M 2257.446,1286.168 A 787.050,787.050 0.00 0,1 2267.3,1324.6 L 2267.3,1324.6 2205.6,1338.2 2147.6,1349.9 2093.1,1359.9 2041.9,1368.4 1993.9,1375.4 1948.7,1381.2 1906.2,1385.9 1866.1,1389.5 1828.4,1392.2 1792.7,1394.0 1758.9,1395.0 1726.8,1395.3 1696.2,1395.0 1666.9,1394.0 1638.7,1392.5 1611.4,1390.4 1584.9,1387.8 1558.9,1384.6 1533.3,1380.8 1507.9,1376.5 1482.5,1371.6 1456.9,1366.0 1431.0,1359.8 1404.5,1352.8 1377.4,1344.9 1349.4,1336.1 1320.4,1326.4 1290.2,1315.5 1258.6,1303.4 1225.6,1289.9 1190.8,1274.9 1154.2,1258.3 1115.6,1239.9 1074.9,1219.5 1031.8,1196.9 986.3,1172.1 938.2,1144.6 887.3,1114.5 833.6,1081.3  A 787.050,787.050 0.00 0,1 849.9,1056.4 L 849.9,1056.4 901.1,1090.7 949.7,1121.8 995.8,1150.2 1039.6,1175.9 1081.1,1199.2 1120.6,1220.2 1158.1,1239.3 1193.8,1256.4 1227.9,1271.9 1260.4,1285.8 1291.6,1298.3 1321.5,1309.5 1350.4,1319.5 1378.3,1328.5 1405.5,1336.5 1432.0,1343.6 1458.1,1349.9 1483.9,1355.5 1509.6,1360.3 1535.3,1364.5 1561.2,1368.1 1587.4,1371.0 1614.2,1373.3 1641.6,1375.0 1669.9,1376.1 1699.3,1376.4 1729.8,1376.1 1761.8,1375.0 1795.3,1373.1 1830.6,1370.2 1867.8,1366.4 1907.1,1361.5 1948.7,1355.4 1992.8,1348.0 2039.6,1339.1 2089.3,1328.7 2142.0,1316.5 2198.0,1302.4 2257.4,1286.2  Z" style="stroke-width: 2.0;  stroke: rgb(230,177,14); fill: rgb(242,205,0);" />
<path d="M 2245.265,1246.962 A 787.050,787.050 0.00 0,1 2251.4,1265.8 L 2251.4,1265.8 2193.1,1283.4 2138.1,1298.8 2086.2,1312.1 2037.3,1323.6 1991.1,1333.5 1947.6,1341.8 1906.4,1348.7 1867.5,1354.4 1830.6,1358.8 1795.5,1362.3 1762.2,1364.8 1730.3,1366.3 1699.8,1367.1 1670.5,1367.1 1642.1,1366.4 1614.6,1365.0 1587.8,1363.0 1561.5,1360.3 1535.5,1356.9 1509.7,1352.9 1483.9,1348.2 1458.0,1342.8 1431.9,1336.6 1405.2,1329.5 1378.0,1321.6 1350.1,1312.6 1321.3,1302.6 1291.4,1291.4 1260.4,1278.9 1228.1,1264.9 1194.3,1249.4 1158.9,1232.2 1121.8,1213.1 1082.8,1191.9 1041.9,1168.5 998.8,1142.6 953.5,1114.1 905.7,1082.7 855.5,1048.3  A 787.050,787.050 0.00 0,1 861.2,1040.2 L 861.2,1040.2 910.5,1074.9 957.4,1106.5 1002.0,1135.2 1044.4,1161.2 1084.8,1184.8 1123.3,1206.1 1160.0,1225.3 1195.0,1242.6 1228.5,1258.2 1260.6,1272.2 1291.5,1284.7 1321.2,1295.9 1350.0,1305.9 1377.9,1314.8 1405.1,1322.8 1431.8,1329.7 1458.0,1335.9 1484.0,1341.2 1509.8,1345.8 1535.7,1349.7 1561.7,1352.8 1588.1,1355.3 1615.0,1357.1 1642.5,1358.2 1670.9,1358.6 1700.2,1358.3 1730.6,1357.1 1762.3,1355.0 1795.5,1352.1 1830.3,1348.1 1866.9,1343.0 1905.5,1336.7 1946.2,1329.0 1989.2,1319.9 2034.7,1309.2 2082.9,1296.7 2133.9,1282.3 2188.0,1265.8 2245.3,1247.0  Z" style="stroke-width: 2.0;  stroke: rgb(230,177,14); fill: rgb(242,205,0);" />
<path d="M 2234.672,1217.680 A 787.050,787.050 0.00 0,1 2238.2,1227.0 L 2238.2,1227.0 2182.1,1247.0 2129.0,1264.7 2078.9,1280.3 2031.5,1293.7 1986.7,1305.4 1944.3,1315.4 1904.1,1323.8 1865.9,1330.8 1829.7,1336.6 1795.1,1341.2 1762.2,1344.7 1730.6,1347.2 1700.3,1348.8 1671.0,1349.5 1642.7,1349.5 1615.2,1348.7 1588.2,1347.2 1561.8,1344.9 1535.7,1342.0 1509.7,1338.3 1483.8,1333.8 1457.8,1328.6 1431.5,1322.6 1404.9,1315.7 1377.7,1307.9 1349.8,1299.0 1321.1,1289.0 1291.5,1277.8 1260.8,1265.2 1228.9,1251.2 1195.7,1235.6 1161.0,1218.2 1124.7,1198.9 1086.7,1177.5 1046.9,1153.9 1005.2,1127.7 961.4,1098.8 915.4,1067.1 867.1,1032.2  A 787.050,787.050 0.00 0,0 867.1,1032.2 L 867.1,1032.2 915.2,1066.9 961.1,1098.6 1004.8,1127.3 1046.4,1153.3 1086.1,1176.9 1124.0,1198.2 1160.2,1217.3 1194.8,1234.6 1228.0,1250.1 1259.9,1264.0 1290.6,1276.4 1320.2,1287.5 1348.9,1297.4 1376.8,1306.1 1404.0,1313.8 1430.7,1320.6 1457.0,1326.5 1483.1,1331.6 1509.0,1335.8 1535.0,1339.4 1561.2,1342.2 1587.6,1344.2 1614.5,1345.6 1642.1,1346.1 1670.4,1346.0 1699.6,1345.0 1729.9,1343.1 1761.4,1340.3 1794.3,1336.5 1828.7,1331.6 1864.8,1325.5 1902.8,1318.1 1942.8,1309.2 1985.0,1298.8 2029.6,1286.7 2076.6,1272.7 2126.4,1256.7 2179.0,1238.4 2234.7,1217.7  Z" style="stroke-width: 2.0;  stroke: rgb(230,177,14); fill: rgb(242,205,0);" />
<path d="M 2206.334,1152.811 A 787.050,787.050 0.00 0,1 2226.8,1198.0 L 2226.8,1198.0 2172.3,1219.9 2120.8,1239.3 2072.0,1256.4 2025.7,1271.4 1981.9,1284.4 1940.3,1295.6 1900.9,1305.2 1863.3,1313.3 1827.6,1320.0 1793.4,1325.5 1760.8,1329.9 1729.5,1333.1 1699.3,1335.4 1670.2,1336.8 1641.9,1337.3 1614.4,1337.1 1587.5,1336.0 1561.0,1334.2 1534.8,1331.6 1508.8,1328.3 1482.8,1324.2 1456.8,1319.2 1430.4,1313.5 1403.7,1306.8 1376.5,1299.1 1348.7,1290.4 1320.1,1280.6 1290.6,1269.5 1260.1,1257.1 1228.5,1243.2 1195.6,1227.6 1161.3,1210.3 1125.6,1191.1 1088.2,1169.7 1049.1,1146.0 1008.1,1119.9 965.2,1091.0 920.2,1059.2 873.0,1024.2  A 787.050,787.050 0.00 0,1 897.8,993.2 L 897.8,993.2 941.7,1029.3 983.8,1062.1 1024.1,1091.9 1062.7,1119.0 1099.8,1143.4 1135.4,1165.5 1169.6,1185.4 1202.5,1203.4 1234.2,1219.5 1264.9,1233.9 1294.6,1246.7 1323.5,1258.1 1351.5,1268.3 1379.0,1277.2 1405.9,1285.0 1432.4,1291.8 1458.5,1297.6 1484.5,1302.5 1510.4,1306.5 1536.4,1309.7 1562.5,1312.0 1588.9,1313.5 1615.7,1314.2 1643.0,1314.0 1671.0,1312.8 1699.8,1310.7 1729.5,1307.7 1760.2,1303.5 1792.2,1298.1 1825.4,1291.5 1860.1,1283.6 1896.3,1274.1 1934.3,1263.0 1974.2,1250.1 2016.0,1235.2 2060.0,1218.3 2106.3,1199.0 2155.0,1177.3 2206.3,1152.8  Z" style="stroke-width: 2.0;  stroke: rgb(230,177,14); fill: rgb(242,205,0);" />
<path d="M 2121.649,1017.299 A 787.050,787.050 0.00 0,1 2196.7,1133.9 L 2196.7,1133.9 2146.6,1159.4 2099.0,1182.2 2053.8,1202.3 2010.7,1220.2 1969.6,1235.8 1930.4,1249.5 1893.1,1261.3 1857.3,1271.4 1823.1,1280.0 1790.2,1287.1 1758.6,1293.0 1728.1,1297.6 1698.7,1301.1 1670.1,1303.6 1642.2,1305.0 1615.0,1305.6 1588.2,1305.2 1561.9,1304.0 1535.8,1301.9 1509.9,1298.9 1484.1,1295.0 1458.1,1290.3 1432.0,1284.6 1405.6,1277.9 1378.8,1270.2 1351.5,1261.3 1323.6,1251.2 1295.0,1239.8 1265.5,1227.0 1235.1,1212.5 1203.7,1196.4 1171.2,1178.5 1137.5,1158.5 1102.4,1136.4 1065.9,1111.8 1028.0,1084.7 988.5,1054.8 947.2,1021.9 904.2,985.7  A 787.050,787.050 0.00 0,1 996.1,895.4 L 996.1,895.4 1029.3,934.1 1061.6,969.5 1093.1,1001.7 1123.6,1031.0 1153.4,1057.7 1182.4,1081.8 1210.7,1103.6 1238.4,1123.3 1265.5,1141.0 1292.1,1156.8 1318.1,1170.9 1343.8,1183.5 1369.0,1194.5 1394.0,1204.2 1418.7,1212.6 1443.2,1219.7 1467.7,1225.7 1492.0,1230.5 1516.4,1234.2 1540.9,1236.9 1565.5,1238.5 1590.3,1239.0 1615.4,1238.4 1640.9,1236.6 1666.9,1233.8 1693.3,1229.7 1720.4,1224.3 1748.1,1217.5 1776.6,1209.3 1805.9,1199.5 1836.1,1188.0 1867.4,1174.7 1899.7,1159.5 1933.3,1142.1 1968.0,1122.5 2004.2,1100.4 2041.8,1075.6 2080.9,1048.0 2121.6,1017.3  Z" style="stroke-width: 2.0;  stroke: rgb(230,177,14); fill: rgb(242,205,0);" />
<path d="M 2102.068,993.086 A 787.050,787.050 0.00 0,1 2108.4,1000.7 L 2108.4,1000.7 2068.9,1032.1 2031.0,1060.5 1994.4,1085.9 1959.3,1108.6 1925.4,1128.9 1892.7,1146.8 1861.1,1162.7 1830.5,1176.5 1800.9,1188.4 1772.1,1198.7 1744.1,1207.4 1716.8,1214.5 1690.2,1220.3 1664.1,1224.8 1638.5,1228.0 1613.3,1230.0 1588.5,1230.9 1563.9,1230.6 1539.6,1229.3 1515.4,1226.8 1491.2,1223.3 1467.1,1218.6 1443.0,1212.8 1418.7,1205.8 1394.3,1197.5 1369.6,1187.9 1344.7,1176.9 1319.4,1164.4 1293.7,1150.4 1267.5,1134.6 1240.9,1116.9 1213.7,1097.2 1185.9,1075.4 1157.4,1051.3 1128.3,1024.7 1098.4,995.4 1067.7,963.1 1036.2,927.8 1003.7,889.1  A 787.050,787.050 0.00 0,0 1003.7,889.1 L 1003.7,889.1 1036.0,927.7 1067.5,962.9 1098.1,995.0 1127.9,1024.2 1156.9,1050.7 1185.3,1074.7 1213.0,1096.4 1240.1,1115.9 1266.7,1133.5 1292.8,1149.2 1318.4,1163.1 1343.6,1175.5 1368.5,1186.3 1393.1,1195.8 1417.5,1203.9 1441.7,1210.8 1465.8,1216.5 1489.9,1221.0 1513.9,1224.4 1538.0,1226.7 1562.3,1227.9 1586.8,1227.9 1611.5,1226.9 1636.6,1224.7 1662.0,1221.3 1688.0,1216.6 1714.5,1210.6 1741.6,1203.2 1769.4,1194.3 1797.9,1183.7 1827.3,1171.5 1857.6,1157.4 1888.9,1141.3 1921.3,1123.0 1954.8,1102.5 1989.6,1079.4 2025.6,1053.6 2063.1,1024.9 2102.1,993.1  Z" style="stroke-width: 2.0;  stroke: rgb(230,177,14); fill: rgb(242,205,0);" />
<path d="M 1979.444,875.835 A 787.050,787.050 0.00 0,1 2088.2,977.0 L 2088.2,977.0 2050.5,1009.5 2014.2,1038.9 1979.2,1065.3 1945.5,1089.0 1912.8,1110.1 1881.3,1129.0 1850.8,1145.6 1821.1,1160.2 1792.4,1172.9 1764.4,1183.9 1737.1,1193.2 1710.5,1201.0 1684.5,1207.4 1658.9,1212.4 1633.8,1216.1 1609.1,1218.6 1584.7,1220.0 1560.5,1220.1 1536.6,1219.2 1512.7,1217.1 1488.9,1213.9 1465.2,1209.5 1441.4,1204.0 1417.5,1197.2 1393.4,1189.2 1369.1,1179.8 1344.6,1169.0 1319.7,1156.7 1294.5,1142.8 1268.8,1127.1 1242.7,1109.6 1216.1,1090.1 1188.9,1068.4 1161.1,1044.4 1132.6,1017.9 1103.5,988.7 1073.6,956.6 1043.0,921.4 1011.5,882.9  A 787.050,787.050 0.00 0,1 1127.4,806.8 L 1127.4,806.8 1149.4,846.3 1171.2,882.6 1192.8,915.8 1214.1,946.2 1235.2,973.9 1256.1,999.0 1276.8,1021.9 1297.4,1042.5 1317.8,1061.0 1338.1,1077.6 1358.3,1092.4 1378.3,1105.5 1398.3,1116.9 1418.2,1126.8 1438.1,1135.2 1458.0,1142.1 1477.9,1147.7 1497.9,1152.0 1517.9,1154.9 1538.0,1156.5 1558.2,1156.9 1578.5,1155.9 1599.1,1153.6 1619.8,1149.9 1640.8,1144.8 1662.1,1138.3 1683.7,1130.2 1705.6,1120.6 1727.8,1109.2 1750.5,1096.1 1773.6,1081.1 1797.3,1064.1 1821.4,1044.9 1846.1,1023.4 1871.4,999.5 1897.3,972.9 1924.0,943.6 1951.3,911.3 1979.4,875.8  Z" style="stroke-width: 2.0;  stroke: rgb(230,177,14); fill: rgb(242,205,0);" />
<path d="M 1852.387,796.245 A 787.050,787.050 0.00 0,1 1962.4,863.1 L 1962.4,863.1 1935.5,899.0 1909.3,931.7 1883.8,961.5 1858.9,988.4 1834.5,1012.7 1810.7,1034.6 1787.5,1054.2 1764.7,1071.6 1742.3,1087.0 1720.3,1100.4 1698.7,1112.1 1677.5,1122.1 1656.5,1130.4 1635.9,1137.3 1615.5,1142.6 1595.3,1146.5 1575.3,1149.1 1555.4,1150.3 1535.7,1150.1 1516.1,1148.7 1496.6,1145.9 1477.1,1141.8 1457.7,1136.4 1438.3,1129.5 1418.9,1121.2 1399.4,1111.5 1380.0,1100.1 1360.4,1087.1 1340.8,1072.4 1321.0,1055.9 1301.1,1037.4 1281.1,1016.8 1261.0,994.0 1240.7,968.9 1220.2,941.3 1199.5,910.9 1178.6,877.8 1157.5,841.6 1136.1,802.1  A 787.050,787.050 0.00 0,1 1245.4,755.3 L 1245.4,755.3 1259.5,794.8 1273.6,831.2 1287.8,864.7 1302.0,895.3 1316.2,923.4 1330.4,949.0 1344.7,972.2 1359.0,993.3 1373.3,1012.2 1387.7,1029.2 1402.1,1044.3 1416.5,1057.6 1431.0,1069.2 1445.5,1079.1 1460.1,1087.5 1474.7,1094.3 1489.4,1099.7 1504.2,1103.6 1519.1,1106.0 1534.0,1107.0 1549.1,1106.6 1564.3,1104.7 1579.6,1101.4 1595.0,1096.6 1610.6,1090.3 1626.3,1082.4 1642.2,1072.8 1658.3,1061.6 1674.6,1048.6 1691.1,1033.7 1707.9,1016.8 1724.9,997.9 1742.1,976.8 1759.7,953.3 1777.5,927.5 1795.7,899.0 1814.2,867.7 1833.1,833.5 1852.4,796.2  Z" style="stroke-width: 2.0;  stroke: rgb(230,177,14); fill: rgb(242,205,0);" />
<path d="M 1796.937,771.113 A 787.050,787.050 0.00 0,1 1833.3,787.0 L 1833.3,787.0 1815.2,824.5 1797.4,859.0 1779.9,890.5 1762.8,919.2 1745.9,945.4 1729.3,969.1 1713.0,990.5 1696.8,1009.7 1680.9,1026.8 1665.3,1041.9 1649.8,1055.2 1634.4,1066.7 1619.3,1076.4 1604.3,1084.6 1589.4,1091.1 1574.7,1096.1 1560.1,1099.6 1545.6,1101.6 1531.2,1102.2 1516.9,1101.3 1502.6,1099.0 1488.5,1095.3 1474.4,1090.0 1460.4,1083.3 1446.4,1075.0 1432.5,1065.2 1418.6,1053.6 1404.8,1040.4 1391.0,1025.4 1377.2,1008.5 1363.5,989.6 1349.8,968.6 1336.2,945.4 1322.5,919.9 1308.9,891.9 1295.3,861.2 1281.8,827.9 1268.3,791.5 1254.8,752.1  A 787.050,787.050 0.00 0,1 1283.3,743.4 L 1283.3,743.4 1295.0,782.7 1306.8,819.0 1318.7,852.3 1330.6,882.9 1342.6,910.9 1354.6,936.4 1366.7,959.6 1378.8,980.6 1391.0,999.6 1403.2,1016.5 1415.5,1031.5 1427.8,1044.7 1440.2,1056.2 1452.6,1066.1 1465.1,1074.3 1477.6,1080.9 1490.2,1086.1 1502.9,1089.7 1515.6,1091.9 1528.4,1092.6 1541.3,1091.8 1554.3,1089.5 1567.4,1085.8 1580.5,1080.5 1593.8,1073.7 1607.2,1065.3 1620.8,1055.2 1634.4,1043.3 1648.3,1029.7 1662.2,1014.2 1676.4,996.7 1690.7,977.1 1705.2,955.4 1719.9,931.3 1734.8,904.7 1750.0,875.6 1765.4,843.7 1781.0,809.0 1796.9,771.1  Z" style="stroke-width: 2.0;  stroke: rgb(230,177,14); fill: rgb(242,205,0);" />
<path d="M 1758.525,756.621 A 787.050,787.050 0.00 0,1 1777.2,763.4 L 1777.2,763.4 1762.4,801.4 1747.8,836.4 1733.5,868.4 1719.4,897.8 1705.4,924.5 1691.7,948.8 1678.1,970.8 1664.7,990.6 1651.4,1008.3 1638.3,1024.1 1625.3,1037.9 1612.5,1049.9 1599.7,1060.2 1587.1,1068.8 1574.6,1075.8 1562.1,1081.3 1549.8,1085.2 1537.5,1087.6 1525.3,1088.5 1513.2,1087.9 1501.2,1085.9 1489.2,1082.3 1477.2,1077.3 1465.4,1070.7 1453.5,1062.6 1441.8,1052.8 1430.0,1041.4 1418.4,1028.2 1406.7,1013.2 1395.1,996.4 1383.6,977.5 1372.1,956.5 1360.6,933.4 1349.2,907.9 1337.8,879.9 1326.5,849.4 1315.2,816.1 1304.0,780.0 1292.8,740.7  A 787.050,787.050 0.00 0,1 1302.4,738.2 L 1302.4,738.2 1313.0,777.3 1323.6,813.4 1334.3,846.7 1345.1,877.1 1355.8,905.0 1366.7,930.5 1377.5,953.6 1388.4,974.5 1399.4,993.4 1410.4,1010.2 1421.4,1025.2 1432.4,1038.3 1443.5,1049.7 1454.7,1059.4 1465.9,1067.5 1477.1,1074.0 1488.4,1078.9 1499.7,1082.4 1511.1,1084.3 1522.5,1084.8 1534.0,1083.8 1545.6,1081.2 1557.3,1077.2 1569.0,1071.6 1580.8,1064.5 1592.7,1055.7 1604.7,1045.3 1616.7,1033.1 1628.9,1019.1 1641.2,1003.2 1653.7,985.3 1666.2,965.3 1678.9,943.1 1691.8,918.6 1704.8,891.7 1717.9,862.2 1731.3,829.9 1744.8,794.8 1758.5,756.6  Z" style="stroke-width: 2.0;  stroke: rgb(230,177,14); fill: rgb(242,205,0);" />
<path d="M 1719.409,744.151 A 787.050,787.050 0.00 0,1 1738.4,749.9 L 1738.4,749.9 1725.8,788.3 1713.3,823.5 1701.1,856.0 1688.9,885.7 1676.9,912.8 1665.0,937.4 1653.3,959.8 1641.6,980.0 1630.1,998.0 1618.7,1014.1 1607.3,1028.3 1596.1,1040.7 1584.9,1051.3 1573.8,1060.2 1562.8,1067.5 1551.8,1073.2 1540.9,1077.4 1530.1,1080.0 1519.3,1081.2 1508.6,1080.8 1497.9,1079.0 1487.3,1075.6 1476.7,1070.7 1466.1,1064.3 1455.6,1056.3 1445.1,1046.6 1434.7,1035.3 1424.3,1022.2 1413.9,1007.3 1403.6,990.5 1393.3,971.7 1383.0,950.8 1372.7,927.7 1362.5,902.3 1352.3,874.5 1342.2,844.0 1332.1,810.9 1322.0,774.8 1312.0,735.7  A 787.050,787.050 0.00 0,1 1321.7,733.4 L 1321.7,733.4 1331.1,772.4 1340.6,808.4 1350.1,841.5 1359.7,871.9 1369.3,899.8 1378.9,925.2 1388.5,948.2 1398.2,969.1 1407.9,987.9 1417.6,1004.6 1427.3,1019.5 1437.1,1032.6 1446.9,1043.9 1456.7,1053.5 1466.6,1061.4 1476.5,1067.8 1486.4,1072.6 1496.4,1075.9 1506.4,1077.7 1516.4,1077.9 1526.5,1076.7 1536.6,1074.0 1546.8,1069.7 1557.0,1063.9 1567.3,1056.4 1577.6,1047.4 1588.0,1036.6 1598.4,1024.1 1609.0,1009.8 1619.6,993.6 1630.3,975.3 1641.1,955.0 1651.9,932.5 1662.9,907.7 1674.0,880.4 1685.1,850.6 1696.4,818.0 1707.9,782.6 1719.4,744.2  Z" style="stroke-width: 2.0;  stroke: rgb(230,177,14); fill: rgb(242,205,0);" />
<path d="M 1679.697,733.739 A 787.050,787.050 0.00 0,1 1698.9,738.5 L 1698.9,738.5 1688.5,777.1 1678.2,812.6 1667.9,845.3 1657.8,875.3 1647.7,902.7 1637.7,927.7 1627.8,950.4 1617.9,970.8 1608.1,989.2 1598.4,1005.6 1588.8,1020.0 1579.1,1032.7 1569.6,1043.6 1560.1,1052.8 1550.6,1060.3 1541.1,1066.3 1531.7,1070.6 1522.4,1073.5 1513.1,1074.8 1503.8,1074.6 1494.5,1072.9 1485.3,1069.7 1476.0,1065.0 1466.9,1058.6 1457.7,1050.7 1448.5,1041.2 1439.4,1029.9 1430.3,1016.9 1421.2,1002.1 1412.1,985.3 1403.1,966.6 1394.1,945.7 1385.0,922.7 1376.0,897.3 1367.1,869.5 1358.1,839.2 1349.2,806.1 1340.2,770.2 1331.3,731.2  A 787.050,787.050 0.00 0,1 1341.0,729.2 L 1341.0,729.2 1349.4,768.1 1357.7,804.0 1366.1,837.0 1374.5,867.3 1382.9,895.1 1391.3,920.4 1399.7,943.4 1408.1,964.3 1416.5,983.0 1425.0,999.7 1433.4,1014.6 1441.9,1027.5 1450.4,1038.8 1458.8,1048.3 1467.3,1056.2 1475.8,1062.4 1484.4,1067.2 1492.9,1070.3 1501.5,1071.9 1510.1,1072.1 1518.7,1070.7 1527.3,1067.7 1535.9,1063.3 1544.6,1057.2 1553.3,1049.6 1562.1,1040.3 1570.8,1029.3 1579.6,1016.5 1588.5,1001.9 1597.4,985.4 1606.3,966.9 1615.3,946.3 1624.3,923.6 1633.4,898.5 1642.5,870.9 1651.7,840.8 1661.0,808.0 1670.3,772.4 1679.7,733.7  Z" style="stroke-width: 2.0;  stroke: rgb(230,177,14); fill: rgb(242,205,0);" />
<path d="M 1531.134,713.566 A 787.050,787.050 0.00 0,1 1659.0,729.2 L 1659.0,729.2 1650.7,767.9 1642.4,803.7 1634.2,836.6 1626.1,866.8 1617.9,894.4 1609.8,919.6 1601.7,942.5 1593.7,963.2 1585.7,981.8 1577.7,998.4 1569.7,1013.1 1561.8,1026.0 1553.8,1037.1 1545.9,1046.5 1538.0,1054.3 1530.2,1060.4 1522.3,1065.0 1514.5,1068.0 1506.6,1069.4 1498.8,1069.4 1491.0,1067.8 1483.2,1064.7 1475.4,1060.0 1467.6,1053.8 1459.8,1046.0 1452.0,1036.5 1444.2,1025.3 1436.4,1012.3 1428.6,997.5 1420.9,980.8 1413.1,962.1 1405.3,941.3 1397.5,918.3 1389.7,893.0 1381.9,865.2 1374.1,834.9 1366.4,801.9 1358.6,766.1 1350.8,727.2  A 787.050,787.050 0.00 0,1 1468.9,713.6 L 1468.9,713.6 1470.5,752.4 1472.1,788.3 1473.7,821.4 1475.3,851.8 1476.9,879.6 1478.5,905.1 1480.0,928.3 1481.6,949.3 1483.2,968.1 1484.8,985.0 1486.4,1000.0 1488.0,1013.1 1489.6,1024.4 1491.2,1034.0 1492.8,1041.9 1494.4,1048.2 1496.0,1052.9 1497.6,1056.0 1499.2,1057.6 1500.8,1057.6 1502.4,1056.0 1504.0,1052.9 1505.6,1048.2 1507.2,1041.9 1508.8,1034.0 1510.4,1024.4 1512.0,1013.1 1513.6,1000.0 1515.2,985.0 1516.8,968.1 1518.4,949.3 1520.0,928.3 1521.5,905.1 1523.1,879.6 1524.7,851.8 1526.3,821.4 1527.9,788.3 1529.5,752.4 1531.1,713.6  Z" style="stroke-width: 2.0;  stroke: rgb(230,177,14); fill: rgb(242,205,0);" />
<path d="M 1500.000,712.950 A 787.050,787.050 0.00 0,1 1509.9,713.0 L 1509.9,713.0 1509.4,751.9 1508.9,787.7 1508.3,820.8 1507.7,851.2 1507.1,879.1 1506.5,904.6 1505.9,927.8 1505.2,948.8 1504.6,967.7 1503.9,984.6 1503.2,999.5 1502.5,1012.7 1501.8,1024.0 1501.0,1033.6 1500.3,1041.5 1499.5,1047.8 1498.8,1052.5 1498.0,1055.7 1497.2,1057.2 1496.4,1057.2 1495.6,1055.7 1494.8,1052.6 1494.0,1047.9 1493.1,1041.6 1492.3,1033.7 1491.4,1024.1 1490.5,1012.7 1489.6,999.6 1488.7,984.7 1487.8,967.8 1486.9,948.9 1485.9,927.9 1484.9,904.8 1484.0,879.3 1483.0,851.4 1481.9,821.0 1480.9,787.9 1479.9,752.1 1478.8,713.2  A 787.050,787.050 0.00 0,0 1478.8,713.2 L 1478.8,713.2 1479.8,752.1 1480.9,787.9 1481.9,821.0 1482.8,851.4 1483.7,879.3 1484.6,904.7 1485.5,927.9 1486.3,948.9 1487.1,967.8 1487.9,984.6 1488.6,999.6 1489.3,1012.7 1490.0,1024.0 1490.7,1033.6 1491.4,1041.6 1492.0,1047.9 1492.6,1052.5 1493.2,1055.6 1493.8,1057.2 1494.3,1057.2 1494.8,1055.6 1495.3,1052.5 1495.8,1047.8 1496.3,1041.5 1496.7,1033.6 1497.1,1023.9 1497.5,1012.6 1497.9,999.5 1498.2,984.5 1498.5,967.6 1498.8,948.7 1499.1,927.7 1499.3,904.5 1499.5,879.1 1499.7,851.2 1499.8,820.8 1499.9,787.7 1500.0,751.8 1500.0,713.0  Z" style="stroke-width: 2.0;  stroke: rgb(230,177,14); fill: rgb(242,205,0);" />
</g>
<g id="plot0">
<g id="plot0-axis">
</g>
</g>
<defs>
<pattern id="vline" width="10" height="10" patternTransform="rotate(0 0 0)" patternUnits="userSpaceOnUse"><line x1="0" y1="0" x2="0" y2="10" style="stroke:black;stroke-width:5" /></pattern>
<pattern id="hline-sparse" width="10" height="10" patternTransform="rotate(0 0 0)" patternUnits="userSpaceOnUse"><line x1="0" y1="0" x2="10" y2="0" style="stroke:black;stroke-width:2" /></pattern>
<pattern id="checker" width="10" height="10" patternTransform="rotate(45 0 0)" patternUnits="userSpaceOnUse"><line x1="0" y1="0" x2="10" y2="0" style="stroke:black;stroke-width:2" /><line x1="0" y1="0" x2="0" y2="10" style="stroke:black;stroke-width:2" /></pattern>
<pattern id="vline-sparse" width="10" height="10" patternTransform="rotate(0 0 0)" patternUnits="userSpaceOnUse"><line x1="0" y1="0" x2="0" y2="10" style="stroke:black;stroke-width:2" /></pattern>
<pattern id="checker" width="10" height="10" patternTransform="rotate(45 0 0)" patternUnits="userSpaceOnUse"><line x1="0" y1="0" x2="10" y2="0" style="stroke:black;stroke-width:5" /><line x1="0" y1="0" x2="0" y2="10" style="stroke:black;stroke-width:4" /></pattern>
<pattern id="hline" width="10" height="10" patternTransform="rotate(0 0 0)" patternUnits="userSpaceOnUse"><line x1="0" y1="0" x2="10" y2="0" style="stroke:black;stroke-width:5" /></pattern>
</defs>
</svg>
