<?xml version="1.0" encoding="utf-8" standalone="no"?>
<!DOCTYPE svg PUBLIC "-//W3C//DTD SVG 1.1//EN" "http://www.w3.org/Graphics/SVG/1.1/DTD/svg11.dtd">
<svg width="3000px" height="3000px" version="1.1" xmlns="http://www.w3.org/2000/svg" xmlns:xlink="http://www.w3.org/1999/xlink">
<g id="ideograms">
<path d="M1500.000,705.000 A795.000,795.000 40.000 0,1 1639.276,717.295 L1665.554,569.615 A945.000,945.000 0.000 0,0 1500.000,555.000 Z" style="stroke-linecap:round;fill:rgb(0,0,0);" />
<text x="1604.5" y="520.6" font-size="39.0px" font-family="CMUBright-Roman" style="text-anchor:start;fill:rgb(0,0,0);" transform="rotate(275.0,1604.5,520.6)" >Spanish</text>
<path d="M1661.271,721.529 A795.000,795.000 40.000 0,1 1671.050,723.619 L1703.323,577.132 A945.000,945.000 0.000 0,0 1691.699,574.648 Z" style="stroke-linecap:round;fill:rgb(0,0,0);" />
<text x="1723.4" y="540.7" font-size="39.0px" font-family="CMUBright-Roman" style="text-anchor:start;fill:rgb(0,0,0);" transform="rotate(282.1,1723.4,540.7)" >Sociology</text>
<path d="M1692.854,728.746 A795.000,795.000 40.000 0,1 1702.540,731.233 L1740.755,586.183 A945.000,945.000 0.000 0,0 1729.242,583.227 Z" style="stroke-linecap:round;fill:rgb(0,0,0);" />
<text x="1762.3" y="550.6" font-size="39.0px" font-family="CMUBright-Roman" style="text-anchor:start;fill:rgb(0,0,0);" transform="rotate(284.4,1762.3,550.6)" >Religious-Studies</text>
<path d="M1724.117,737.244 A795.000,795.000 40.000 0,1 1733.693,740.123 L1777.786,596.750 A945.000,945.000 0.000 0,0 1766.403,593.328 Z" style="stroke-linecap:round;fill:rgb(0,0,0);" />
<text x="1800.8" y="562.1" font-size="39.0px" font-family="CMUBright-Roman" style="text-anchor:start;fill:rgb(0,0,0);" transform="rotate(286.7,1800.8,562.1)" >Psychology</text>
<path d="M1755.008,747.009 A795.000,795.000 40.000 0,1 1856.425,789.376 L1923.675,655.296 A945.000,945.000 0.000 0,0 1803.122,604.935 Z" style="stroke-linecap:round;fill:rgb(0,0,0);" />
<text x="1893.5" y="597.0" font-size="39.0px" font-family="CMUBright-Roman" style="text-anchor:start;fill:rgb(0,0,0);" transform="rotate(292.7,1893.5,597.0)" >Political-Science</text>
<path d="M1876.303,799.699 A795.000,795.000 40.000 0,1 1893.799,809.386 L1968.101,679.082 A945.000,945.000 0.000 0,0 1947.303,667.567 Z" style="stroke-linecap:round;fill:rgb(0,0,0);" />
<text x="1992.8" y="647.1" font-size="39.0px" font-family="CMUBright-Roman" style="text-anchor:start;fill:rgb(0,0,0);" transform="rotate(299.0,1992.8,647.1)" >Philosophy</text>
<path d="M1913.099,820.755 A795.000,795.000 40.000 0,1 1921.610,826.004 L2001.159,698.835 A945.000,945.000 0.000 0,0 1991.042,692.595 Z" style="stroke-linecap:round;fill:rgb(0,0,0);" />
<text x="2029.4" y="669.4" font-size="39.0px" font-family="CMUBright-Roman" style="text-anchor:start;fill:rgb(0,0,0);" transform="rotate(301.7,2029.4,669.4)" >Performance-Buisiness</text>
<path d="M1940.430,838.149 A795.000,795.000 40.000 0,1 1948.720,843.742 L2033.385,719.919 A945.000,945.000 0.000 0,0 2023.530,713.272 Z" style="stroke-linecap:round;fill:rgb(0,0,0);" />
<text x="2065.7" y="693.6" font-size="39.0px" font-family="CMUBright-Roman" style="text-anchor:start;fill:rgb(0,0,0);" transform="rotate(304.0,2065.7,693.6)" >Music.Double-Major</text>
<path d="M1967.030,856.643 A795.000,795.000 40.000 0,1 1975.086,862.569 L2064.724,742.299 A945.000,945.000 0.000 0,0 2055.149,735.255 Z" style="stroke-linecap:round;fill:rgb(0,0,0);" />
<text x="2095.3" y="715.2" font-size="39.0px" font-family="CMUBright-Roman" style="text-anchor:start;fill:rgb(0,0,0);" transform="rotate(306.3,2095.3,715.2)" >Music.BMA</text>
<path d="M1992.855,876.206 A795.000,795.000 40.000 0,1 2031.086,908.415 L2131.291,796.796 A945.000,945.000 0.000 0,0 2085.846,758.509 Z" style="stroke-linecap:round;fill:rgb(0,0,0);" />
<text x="2145.7" y="756.1" font-size="39.0px" font-family="CMUBright-Roman" style="text-anchor:start;fill:rgb(0,0,0);" transform="rotate(310.1,2145.7,756.1)" >Mathematics</text>
<path d="M2047.542,923.612 A795.000,795.000 40.000 0,1 2075.837,951.879 L2184.485,848.460 A945.000,945.000 0.000 0,0 2150.851,814.860 Z" style="stroke-linecap:round;fill:rgb(0,0,0);" />
<text x="2208.8" y="816.0" font-size="39.0px" font-family="CMUBright-Roman" style="text-anchor:start;fill:rgb(0,0,0);" transform="rotate(315.0,2208.8,816.0)" >History</text>
<path d="M2091.050,968.319 A795.000,795.000 40.000 0,1 2117.042,998.717 L2233.464,904.135 A945.000,945.000 0.000 0,0 2202.569,868.001 Z" style="stroke-linecap:round;fill:rgb(0,0,0);" />
<text x="2258.3" y="871.4" font-size="39.0px" font-family="CMUBright-Roman" style="text-anchor:start;fill:rgb(0,0,0);" transform="rotate(319.5,2258.3,871.4)" >German</text>
<path d="M2130.919,1016.299 A795.000,795.000 40.000 0,1 2148.718,1040.446 L2271.118,953.737 A945.000,945.000 0.000 0,0 2249.960,925.035 Z" style="stroke-linecap:round;fill:rgb(0,0,0);" />
<text x="2301.4" y="927.3" font-size="39.0px" font-family="CMUBright-Roman" style="text-anchor:start;fill:rgb(0,0,0);" transform="rotate(323.6,2301.4,927.3)" >French</text>
<path d="M2161.407,1058.904 A795.000,795.000 40.000 0,1 2187.823,1101.346 L2317.600,1026.128 A945.000,945.000 0.000 0,0 2286.201,975.678 Z" style="stroke-linecap:round;fill:rgb(0,0,0);" />
<text x="2345.6" y="994.9" font-size="39.0px" font-family="CMUBright-Roman" style="text-anchor:start;fill:rgb(0,0,0);" transform="rotate(328.1,2345.6,994.9)" >English-Writing</text>
<path d="M2198.780,1120.881 A795.000,795.000 40.000 0,1 2208.096,1138.579 L2341.699,1070.386 A945.000,945.000 0.000 0,0 2330.626,1049.350 Z" style="stroke-linecap:round;fill:rgb(0,0,0);" />
<text x="2379.9" y="1057.2" font-size="39.0px" font-family="CMUBright-Roman" style="text-anchor:start;fill:rgb(0,0,0);" transform="rotate(332.2,2379.9,1057.2)" >English-Literature</text>
<path d="M2217.997,1158.671 A795.000,795.000 40.000 0,1 1640.851,2282.423 L1667.426,2430.050 A945.000,945.000 0.000 0,0 2353.468,1094.269 Z" style="stroke-linecap:round;fill:rgb(0,0,0);" />
<text x="2369.5" y="1962.9" font-size="39.0px" font-family="CMUBright-Roman" style="text-anchor:start;fill:rgb(0,0,0);" transform="rotate(27.2,2369.5,1962.9)" >Economics</text>
<path d="M1618.752,2286.081 A795.000,795.000 40.000 0,1 1608.855,2287.512 L1629.394,2436.099 A945.000,945.000 0.000 0,0 1641.158,2434.398 Z" style="stroke-linecap:round;fill:rgb(0,0,0);" />
<text x="1626.1" y="2476.9" font-size="39.0px" font-family="CMUBright-Roman" style="text-anchor:start;fill:rgb(0,0,0);" transform="rotate(81.8,1626.1,2476.9)" >Conflict-Studies</text>
<path d="M1586.626,2290.266 A795.000,795.000 40.000 0,1 1516.799,2294.823 L1519.968,2444.789 A945.000,945.000 0.000 0,0 1602.971,2439.373 Z" style="stroke-linecap:round;fill:rgb(0,0,0);" />
<text x="1546.2" y="2483.9" font-size="39.0px" font-family="CMUBright-Roman" style="text-anchor:start;fill:rgb(0,0,0);" transform="rotate(86.3,1546.2,2483.9)" >Computer-Science</text>
<path d="M1494.400,2294.980 A795.000,795.000 40.000 0,1 1394.712,2287.997 L1374.846,2436.676 A945.000,945.000 0.000 0,0 1493.344,2444.977 Z" style="stroke-linecap:round;fill:rgb(0,0,0);" />
<text x="1446.1" y="2483.5" font-size="39.0px" font-family="CMUBright-Roman" style="text-anchor:end;fill:rgb(0,0,0);" transform="rotate(-86.0,1446.1,2483.5)" >Communication</text>
<path d="M1372.554,2284.718 A795.000,795.000 40.000 0,1 1362.694,2283.053 L1336.787,2430.799 A945.000,945.000 0.000 0,0 1348.508,2432.778 Z" style="stroke-linecap:round;fill:rgb(0,0,0);" />
<text x="1350.8" y="2473.6" font-size="39.0px" font-family="CMUBright-Roman" style="text-anchor:end;fill:rgb(0,0,0);" transform="rotate(-80.4,1350.8,2473.6)" >Black-Studies</text>
<path d="M1340.688,2278.874 A795.000,795.000 40.000 0,1 1321.147,2274.620 L1287.401,2420.775 A945.000,945.000 0.000 0,0 1310.629,2425.831 Z" style="stroke-linecap:round;fill:rgb(0,0,0);" />
<text x="1308.1" y="2466.1" font-size="39.0px" font-family="CMUBright-Roman" style="text-anchor:end;fill:rgb(0,0,0);" transform="rotate(-77.7,1308.1,2466.1)" >Biology</text>
<path d="M1299.395,2269.274 A795.000,795.000 40.000 0,1 1289.735,2266.690 L1250.062,2411.348 A945.000,945.000 0.000 0,0 1261.545,2414.420 Z" style="stroke-linecap:round;fill:rgb(0,0,0);" />
<text x="1262.9" y="2456.0" font-size="39.0px" font-family="CMUBright-Roman" style="text-anchor:end;fill:rgb(0,0,0);" transform="rotate(-75.0,1262.9,2456.0)" >Anthropology</text>
<path d="M1268.219,2260.462 A795.000,795.000 40.000 0,1 1477.603,705.316 L1473.377,555.375 A945.000,945.000 0.000 0,0 1224.487,2403.946 Z" style="stroke-linecap:round;fill:rgb(0,48,135);" />
<text x="521.6" y="1386.4" font-size="39.0px" font-family="CMUBright-Roman" style="text-anchor:end;fill:rgb(0,0,0);" transform="rotate(7.7,521.6,1386.4)" >Management-Fellows-Program</text>
</g>
<g id="track_0">
<path d="M 1270.537,2252.857 A 787.050,787.050 0.00 0,1 1261.1,2249.9 L 1261.1,2249.9 1272.9,2212.9 1283.9,2178.7 1294.2,2147.3 1303.7,2118.3 1312.4,2091.9 1320.6,2067.7 1328.0,2045.7 1334.9,2025.9 1341.2,2008.0 1346.9,1992.1 1352.1,1978.1 1356.8,1965.8 1361.0,1955.2 1364.7,1946.2 1367.9,1938.9 1370.7,1933.2 1373.0,1929.0 1374.9,1926.3 1376.4,1925.1 1377.4,1925.4 1378.0,1927.2 1378.2,1930.5 1377.9,1935.3 1377.2,1941.6 1376.0,1949.5 1374.4,1959.1 1372.3,1970.2 1369.7,1983.1 1366.5,1997.8 1362.9,2014.3 1358.7,2032.8 1353.9,2053.2 1348.5,2075.8 1342.4,2100.5 1335.7,2127.6 1328.3,2157.1 1320.1,2189.2 1311.2,2224.0 1301.4,2261.6  A 787.050,787.050 0.00 0,1 1291.8,2259.0 L 1291.8,2259.0 1302.1,2221.6 1311.5,2186.9 1320.2,2155.0 1328.1,2125.6 1335.3,2098.7 1341.8,2074.1 1347.7,2051.6 1353.0,2031.3 1357.7,2013.0 1361.9,1996.6 1365.5,1982.1 1368.6,1969.4 1371.2,1958.3 1373.3,1948.9 1375.0,1941.1 1376.2,1934.9 1376.9,1930.3 1377.3,1927.1 1377.1,1925.5 1376.6,1925.3 1375.6,1926.6 1374.2,1929.5 1372.4,1933.8 1370.1,1939.7 1367.3,1947.2 1364.1,1956.3 1360.4,1967.0 1356.2,1979.4 1351.5,1993.6 1346.2,2009.7 1340.4,2027.7 1334.1,2047.7 1327.1,2069.8 1319.5,2094.1 1311.2,2120.7 1302.1,2149.8 1292.4,2181.4 1281.9,2215.7 1270.5,2252.9  Z" style="stroke-width: 2.0;  stroke: rgb(230,177,14); fill: rgb(242,205,0);" />
<path d="M 1251.672,2246.847 A 787.050,787.050 0.00 0,1 1242.3,2243.7 L 1242.3,2243.7 1255.1,2206.9 1267.2,2173.0 1278.5,2141.8 1289.1,2113.2 1299.0,2087.1 1308.3,2063.2 1317.0,2041.6 1325.1,2022.1 1332.7,2004.6 1339.7,1989.0 1346.2,1975.3 1352.3,1963.4 1357.8,1953.2 1362.9,1944.6 1367.6,1937.7 1371.8,1932.4 1375.6,1928.5 1379.0,1926.2 1381.9,1925.4 1384.5,1926.2 1386.7,1928.3 1388.4,1932.0 1389.7,1937.3 1390.6,1944.0 1391.1,1952.4 1391.1,1962.3 1390.7,1973.9 1389.8,1987.3 1388.4,2002.4 1386.5,2019.4 1384.1,2038.2 1381.1,2059.2 1377.5,2082.2 1373.4,2107.4 1368.6,2135.0 1363.1,2165.0 1356.9,2197.6 1350.0,2232.9 1342.3,2271.1  A 787.050,787.050 0.00 0,1 1322.9,2266.9 L 1322.9,2266.9 1331.6,2229.0 1339.5,2193.9 1346.6,2161.6 1353.0,2131.8 1358.7,2104.4 1363.8,2079.4 1368.2,2056.6 1372.1,2035.9 1375.3,2017.2 1378.1,2000.4 1380.3,1985.5 1382.0,1972.4 1383.3,1961.0 1384.0,1951.2 1384.3,1943.1 1384.2,1936.5 1383.7,1931.5 1382.7,1928.0 1381.3,1926.0 1379.5,1925.5 1377.2,1926.4 1374.5,1928.9 1371.4,1932.9 1367.9,1938.5 1363.9,1945.6 1359.5,1954.3 1354.6,1964.7 1349.3,1976.8 1343.4,1990.7 1337.0,2006.4 1330.1,2024.1 1322.6,2043.8 1314.5,2065.5 1305.7,2089.5 1296.4,2115.9 1286.3,2144.6 1275.5,2175.9 1264.0,2210.0 1251.7,2246.8  Z" style="stroke-width: 2.0;  stroke: rgb(230,177,14); fill: rgb(242,205,0);" />
<path d="M 1232.964,2240.364 A 787.050,787.050 0.00 0,0 1233.0,2240.4 L 1233.0,2240.4 1246.3,2203.7 1259.0,2169.9 1270.9,2138.9 1282.1,2110.4 1292.7,2084.4 1302.7,2060.7 1312.1,2039.3 1321.0,2019.9 1329.3,2002.6 1337.2,1987.3 1344.5,1973.8 1351.4,1962.0 1357.8,1952.0 1363.9,1943.7 1369.4,1937.0 1374.6,1931.9 1379.4,1928.3 1383.8,1926.2 1387.8,1925.6 1391.4,1926.6 1394.6,1929.0 1397.4,1932.9 1399.8,1938.4 1401.9,1945.4 1403.5,1954.0 1404.7,1964.2 1405.5,1976.1 1405.8,1989.6 1405.7,2005.0 1405.1,2022.3 1403.9,2041.4 1402.3,2062.6 1400.1,2086.0 1397.4,2111.5 1394.0,2139.4 1390.0,2169.7 1385.3,2202.7 1379.9,2238.3 1373.8,2276.9  A 787.050,787.050 0.00 0,1 1364.1,2275.2 L 1364.1,2275.2 1370.7,2236.8 1376.5,2201.2 1381.6,2168.4 1386.1,2138.1 1389.9,2110.3 1393.0,2084.9 1395.6,2061.6 1397.6,2040.5 1399.1,2021.4 1400.1,2004.2 1400.6,1988.9 1400.6,1975.3 1400.1,1963.5 1399.2,1953.4 1397.9,1944.8 1396.1,1937.9 1394.0,1932.5 1391.4,1928.6 1388.5,1926.2 1385.1,1925.3 1381.4,1925.9 1377.2,1928.0 1372.7,1931.6 1367.7,1936.8 1362.3,1943.6 1356.5,1951.9 1350.2,1962.0 1343.5,1973.7 1336.3,1987.2 1328.6,2002.6 1320.4,2019.9 1311.7,2039.3 1302.4,2060.7 1292.5,2084.4 1281.9,2110.4 1270.8,2138.9 1258.9,2170.0 1246.3,2203.7 1233.0,2240.4  Z" style="stroke-width: 2.0;  stroke: rgb(230,177,14); fill: rgb(242,205,0);" />
<path d="M 1223.673,2236.947 A 787.050,787.050 0.00 0,1 1142.2,2201.0 L 1142.2,2201.0 1160.6,2165.6 1178.3,2133.1 1195.3,2103.4 1211.7,2076.3 1227.3,2051.7 1242.4,2029.5 1256.9,2009.5 1270.9,1991.6 1284.3,1975.8 1297.2,1961.9 1309.7,1949.8 1321.7,1939.6 1333.3,1931.0 1344.5,1924.1 1355.2,1918.7 1365.6,1914.9 1375.6,1912.7 1385.3,1911.9 1394.5,1912.6 1403.4,1914.8 1412.0,1918.4 1420.2,1923.6 1428.0,1930.2 1435.5,1938.3 1442.6,1948.0 1449.3,1959.3 1455.6,1972.3 1461.6,1986.9 1467.1,2003.4 1472.2,2021.7 1476.8,2041.9 1480.9,2064.2 1484.6,2088.6 1487.7,2115.3 1490.3,2144.4 1492.3,2175.9 1493.7,2210.1 1494.4,2247.1 1494.5,2287.0  A 787.050,787.050 0.00 0,1 1395.8,2280.1 L 1395.8,2280.1 1400.8,2241.3 1405.1,2205.5 1408.7,2172.3 1411.6,2141.7 1414.0,2113.6 1415.7,2087.9 1416.9,2064.4 1417.6,2043.0 1417.8,2023.6 1417.5,2006.2 1416.7,1990.7 1415.5,1976.9 1413.8,1964.8 1411.7,1954.5 1409.2,1945.7 1406.4,1938.5 1403.1,1932.9 1399.4,1928.8 1395.4,1926.2 1391.0,1925.1 1386.2,1925.5 1381.1,1927.4 1375.6,1930.8 1369.6,1935.8 1363.3,1942.3 1356.6,1950.5 1349.4,1960.3 1341.9,1971.9 1333.8,1985.2 1325.3,2000.4 1316.3,2017.6 1306.8,2036.7 1296.8,2058.0 1286.2,2081.6 1275.0,2107.5 1263.2,2135.8 1250.7,2166.7 1237.6,2200.4 1223.7,2236.9  Z" style="stroke-width: 2.0;  stroke: rgb(230,177,14); fill: rgb(242,205,0);" />
<path d="M 1133.404,2196.459 A 787.050,787.050 0.00 0,1 1081.9,2166.8 L 1081.9,2166.8 1104.2,2132.3 1125.6,2100.7 1146.2,2072.0 1166.2,2045.9 1185.5,2022.3 1204.2,2001.1 1222.3,1982.1 1239.8,1965.3 1256.7,1950.5 1273.2,1937.6 1289.2,1926.6 1304.7,1917.3 1319.9,1909.6 1334.6,1903.6 1348.9,1899.2 1362.8,1896.3 1376.4,1894.8 1389.6,1894.8 1402.5,1896.3 1415.1,1899.2 1427.3,1903.5 1439.2,1909.2 1450.8,1916.4 1462.1,1925.1 1473.0,1935.4 1483.7,1947.2 1493.9,1960.6 1503.9,1975.8 1513.5,1992.7 1522.7,2011.5 1531.5,2032.2 1539.9,2055.0 1547.9,2079.9 1555.5,2107.1 1562.6,2136.8 1569.2,2168.9 1575.3,2203.8 1580.8,2241.6 1585.8,2282.4  A 787.050,787.050 0.00 0,1 1516.6,2286.9 L 1516.6,2286.9 1515.4,2246.8 1513.5,2209.6 1511.1,2175.3 1508.0,2143.6 1504.4,2114.4 1500.2,2087.6 1495.6,2063.1 1490.5,2040.7 1484.9,2020.4 1478.9,2002.0 1472.5,1985.5 1465.7,1970.7 1458.5,1957.7 1450.9,1946.3 1443.0,1936.5 1434.7,1928.3 1426.1,1921.6 1417.1,1916.4 1407.8,1912.6 1398.1,1910.3 1388.1,1909.5 1377.7,1910.2 1367.0,1912.3 1355.9,1916.0 1344.4,1921.2 1332.6,1928.0 1320.3,1936.4 1307.6,1946.6 1294.5,1958.5 1280.9,1972.3 1266.8,1988.0 1252.2,2005.7 1237.1,2025.6 1221.4,2047.7 1205.2,2072.2 1188.3,2099.1 1170.7,2128.7 1152.4,2161.1 1133.4,2196.5  Z" style="stroke-width: 2.0;  stroke: rgb(230,177,14); fill: rgb(242,205,0);" />
<path d="M 1073.581,2161.524 A 787.050,787.050 0.00 0,0 1073.6,2161.5 L 1073.6,2161.5 1096.4,2127.0 1118.4,2095.5 1139.7,2066.9 1160.3,2040.9 1180.2,2017.4 1199.5,1996.3 1218.1,1977.5 1236.3,1960.8 1253.9,1946.1 1271.0,1933.3 1287.6,1922.4 1303.8,1913.2 1319.5,1905.7 1334.9,1899.8 1349.8,1895.4 1364.4,1892.6 1378.7,1891.2 1392.6,1891.3 1406.2,1892.8 1419.5,1895.7 1432.4,1900.1 1445.1,1905.9 1457.4,1913.1 1469.5,1921.9 1481.2,1932.1 1492.6,1944.0 1503.8,1957.4 1514.5,1972.6 1525.0,1989.5 1535.1,2008.3 1544.9,2029.0 1554.3,2051.8 1563.3,2076.8 1571.9,2104.0 1580.0,2133.7 1587.7,2165.9 1594.9,2200.9 1601.6,2238.7 1607.8,2279.6  A 787.050,787.050 0.00 0,0 1617.6,2278.2 L 1617.6,2278.2 1610.9,2237.3 1603.7,2199.5 1596.0,2164.5 1587.8,2132.3 1579.2,2102.6 1570.2,2075.4 1560.8,2050.5 1551.0,2027.7 1540.9,2007.0 1530.4,1988.3 1519.6,1971.4 1508.5,1956.3 1497.1,1942.9 1485.4,1931.1 1473.4,1920.9 1461.0,1912.2 1448.4,1905.0 1435.5,1899.3 1422.3,1894.9 1408.8,1892.0 1395.0,1890.6 1380.9,1890.5 1366.5,1891.9 1351.7,1894.8 1336.5,1899.2 1321.0,1905.1 1305.1,1912.7 1288.7,1921.9 1272.0,1932.8 1254.7,1945.6 1237.0,1960.4 1218.7,1977.1 1199.9,1996.0 1180.6,2017.1 1160.6,2040.6 1139.9,2066.7 1118.5,2095.4 1096.5,2127.0 1073.6,2161.5  Z" style="stroke-width: 2.0;  stroke: rgb(230,177,14); fill: rgb(242,205,0);" />
<path d="M 1065.294,2156.108 A 787.050,787.050 0.00 0,1 973.6,914.9 L 973.6,914.9 1010.8,955.1 1046.8,992.0 1081.5,1025.7 1115.1,1056.4 1147.7,1084.4 1179.2,1109.9 1209.8,1133.1 1239.5,1154.1 1268.4,1173.2 1296.5,1190.5 1324.0,1206.1 1350.9,1220.1 1377.3,1232.8 1403.3,1244.1 1428.9,1254.2 1454.3,1263.3 1479.6,1271.2 1504.7,1278.1 1530.0,1284.1 1555.3,1289.2 1580.9,1293.4 1606.8,1296.6 1633.2,1299.0 1660.1,1300.4 1687.6,1300.9 1716.0,1300.5 1745.2,1298.9 1775.5,1296.3 1806.8,1292.4 1839.4,1287.3 1873.4,1280.8 1908.9,1272.8 1946.1,1263.2 1985.0,1251.7 2025.8,1238.4 2068.6,1222.9 2113.6,1205.2 2161.0,1185.0 2210.8,1162.1  A 787.050,787.050 0.00 0,1 1639.4,2274.6 L 1639.4,2274.6 1631.5,2233.6 1623.1,2195.7 1614.3,2160.7 1605.1,2128.5 1595.4,2098.8 1585.4,2071.6 1575.0,2046.6 1564.2,2023.9 1553.2,2003.2 1541.8,1984.5 1530.2,1967.6 1518.2,1952.6 1505.9,1939.2 1493.4,1927.4 1480.6,1917.2 1467.5,1908.5 1454.2,1901.3 1440.6,1895.5 1426.7,1891.2 1412.5,1888.2 1398.0,1886.7 1383.2,1886.6 1368.1,1888.0 1352.6,1890.8 1336.8,1895.1 1320.7,1900.9 1304.1,1908.4 1287.2,1917.5 1269.8,1928.4 1251.9,1941.1 1233.6,1955.7 1214.7,1972.3 1195.3,1991.1 1175.3,2012.1 1154.7,2035.5 1133.5,2061.5 1111.5,2090.1 1088.8,2121.6 1065.3,2156.1  Z" style="stroke-width: 2.0;  stroke: rgb(230,177,14); fill: rgb(242,205,0);" />
<path d="M 981.037,908.286 A 787.050,787.050 0.00 0,1 988.5,901.8 L 988.5,901.8 1023.9,942.1 1058.2,978.9 1091.5,1012.6 1123.7,1043.3 1155.1,1071.3 1185.5,1096.8 1215.1,1120.0 1243.9,1141.0 1272.0,1160.0 1299.5,1177.2 1326.4,1192.7 1352.8,1206.6 1378.8,1219.1 1404.4,1230.3 1429.7,1240.2 1454.9,1249.0 1479.9,1256.6 1504.8,1263.3 1529.8,1268.9 1554.9,1273.6 1580.3,1277.3 1606.0,1280.0 1632.1,1281.8 1658.6,1282.6 1685.8,1282.4 1713.8,1281.2 1742.5,1278.8 1772.1,1275.2 1802.8,1270.4 1834.6,1264.2 1867.7,1256.5 1902.1,1247.2 1938.1,1236.2 1975.6,1223.3 2014.9,1208.4 2056.0,1191.2 2099.1,1171.7 2144.3,1149.6 2191.8,1124.7  A 787.050,787.050 0.00 0,1 2201.0,1142.2 L 2201.0,1142.2 2152.4,1166.2 2106.2,1187.4 2062.1,1206.1 2020.2,1222.5 1980.2,1236.7 1942.0,1248.9 1905.5,1259.3 1870.5,1268.0 1837.0,1275.1 1804.8,1280.8 1773.8,1285.2 1743.8,1288.3 1714.9,1290.3 1686.7,1291.2 1659.3,1291.1 1632.6,1290.0 1606.4,1287.9 1580.5,1285.0 1555.1,1281.0 1529.8,1276.2 1504.7,1270.4 1479.6,1263.6 1454.5,1255.9 1429.2,1247.0 1403.7,1237.0 1377.9,1225.7 1351.7,1213.2 1325.1,1199.2 1297.9,1183.6 1270.1,1166.4 1241.6,1147.4 1212.3,1126.4 1182.2,1103.2 1151.3,1077.8 1119.3,1049.8 1086.4,1019.0 1052.4,985.4 1017.3,948.5 981.0,908.3  Z" style="stroke-width: 2.0;  stroke: rgb(230,177,14); fill: rgb(242,205,0);" />
<path d="M 996.085,895.419 A 787.050,787.050 0.00 0,1 1027.1,870.8 L 1027.1,870.8 1058.6,911.4 1089.2,948.6 1119.2,982.6 1148.4,1013.6 1176.9,1042.0 1204.8,1067.7 1232.1,1091.2 1258.9,1112.4 1285.2,1131.6 1311.0,1149.0 1336.4,1164.6 1361.4,1178.7 1386.2,1191.2 1410.7,1202.3 1435.1,1212.2 1459.3,1220.8 1483.5,1228.2 1507.6,1234.5 1531.9,1239.7 1556.3,1243.9 1580.9,1247.0 1605.8,1249.1 1631.0,1250.1 1656.7,1250.0 1683.0,1248.8 1709.8,1246.4 1737.3,1242.8 1765.6,1237.9 1794.8,1231.6 1824.9,1223.8 1856.0,1214.3 1888.3,1203.2 1921.9,1190.1 1956.7,1175.1 1993.1,1157.8 2030.9,1138.2 2070.4,1116.1 2111.7,1091.2 2154.8,1063.3  A 787.050,787.050 0.00 0,1 2180.9,1105.3 L 2180.9,1105.3 2134.7,1131.3 2090.6,1154.3 2048.6,1174.8 2008.4,1192.8 1969.9,1208.5 1933.1,1222.1 1897.8,1233.8 1864.0,1243.8 1831.4,1252.0 1800.1,1258.8 1769.8,1264.2 1740.5,1268.2 1712.1,1271.1 1684.4,1272.7 1657.5,1273.3 1631.1,1272.8 1605.2,1271.3 1579.6,1268.9 1554.4,1265.4 1529.5,1261.0 1504.6,1255.6 1479.8,1249.1 1455.0,1241.6 1430.0,1233.0 1404.9,1223.2 1379.5,1212.1 1353.8,1199.7 1327.6,1185.8 1301.0,1170.4 1273.9,1153.3 1246.2,1134.3 1217.8,1113.3 1188.7,1090.2 1158.8,1064.8 1128.1,1036.8 1096.6,1006.1 1064.1,972.5 1030.6,935.6 996.1,895.4  Z" style="stroke-width: 2.0;  stroke: rgb(230,177,14); fill: rgb(242,205,0);" />
<path d="M 1035.080,864.943 A 787.050,787.050 0.00 0,1 1051.2,853.4 L 1051.2,853.4 1080.3,894.0 1108.7,931.2 1136.6,965.2 1163.9,996.2 1190.7,1024.5 1217.0,1050.3 1242.8,1073.8 1268.2,1095.0 1293.3,1114.2 1317.9,1131.6 1342.3,1147.1 1366.4,1161.1 1390.3,1173.5 1413.9,1184.5 1437.5,1194.1 1461.0,1202.4 1484.5,1209.6 1508.0,1215.5 1531.5,1220.4 1555.3,1224.1 1579.2,1226.7 1603.4,1228.2 1627.9,1228.5 1652.8,1227.7 1678.2,1225.7 1704.1,1222.5 1730.6,1218.0 1757.8,1212.0 1785.8,1204.6 1814.5,1195.7 1844.2,1185.0 1874.9,1172.5 1906.7,1158.1 1939.6,1141.5 1973.7,1122.7 2009.2,1101.5 2046.1,1077.6 2084.6,1050.9 2124.6,1021.1  A 787.050,787.050 0.00 0,1 2142.2,1045.0 L 2142.2,1045.0 2100.4,1073.8 2060.3,1099.5 2021.8,1122.4 1985.0,1142.8 1949.5,1160.7 1915.4,1176.5 1882.6,1190.1 1851.0,1201.9 1820.4,1211.9 1790.8,1220.3 1762.1,1227.1 1734.3,1232.5 1707.1,1236.5 1680.7,1239.3 1654.8,1240.8 1629.3,1241.3 1604.4,1240.6 1579.7,1238.8 1555.4,1235.9 1531.2,1232.0 1507.2,1227.0 1483.2,1220.9 1459.3,1213.6 1435.4,1205.2 1411.3,1195.5 1387.0,1184.4 1362.6,1172.0 1337.9,1158.1 1312.8,1142.5 1287.4,1125.2 1261.6,1106.0 1235.3,1084.8 1208.5,1061.5 1181.2,1035.8 1153.3,1007.5 1124.7,976.5 1095.5,942.6 1065.7,905.4 1035.1,864.9  Z" style="stroke-width: 2.0;  stroke: rgb(230,177,14); fill: rgb(242,205,0);" />
<path d="M 1059.369,847.856 A 787.050,787.050 0.00 0,1 1084.3,831.7 L 1084.3,831.7 1110.4,872.2 1136.0,909.4 1161.3,943.4 1186.2,974.5 1210.7,1002.9 1234.9,1028.8 1258.8,1052.3 1282.3,1073.6 1305.7,1092.8 1328.7,1110.1 1351.6,1125.7 1374.3,1139.6 1396.9,1151.9 1419.3,1162.7 1441.7,1172.2 1464.1,1180.3 1486.4,1187.1 1508.9,1192.7 1531.4,1197.1 1554.1,1200.3 1576.9,1202.4 1600.0,1203.2 1623.4,1202.9 1647.1,1201.3 1671.3,1198.5 1695.9,1194.3 1721.0,1188.7 1746.6,1181.7 1772.9,1173.1 1799.9,1162.9 1827.6,1150.9 1856.2,1137.0 1885.7,1121.1 1916.1,1103.0 1947.5,1082.5 1980.1,1059.5 2013.8,1033.9 2048.8,1005.3 2085.1,973.6  A 787.050,787.050 0.00 0,1 2110.9,1003.7 L 2110.9,1003.7 2072.1,1034.3 2034.9,1061.7 1999.0,1086.3 1964.5,1108.2 1931.3,1127.7 1899.2,1144.9 1868.2,1159.9 1838.2,1172.9 1809.2,1184.1 1781.0,1193.6 1753.6,1201.5 1726.9,1207.8 1700.8,1212.8 1675.3,1216.4 1650.3,1218.8 1625.7,1219.9 1601.5,1219.8 1577.7,1218.6 1554.0,1216.3 1530.6,1212.8 1507.3,1208.2 1484.1,1202.4 1461.0,1195.5 1437.8,1187.3 1414.5,1177.8 1391.2,1166.9 1367.7,1154.6 1343.9,1140.8 1320.0,1125.3 1295.7,1108.0 1271.2,1088.9 1246.3,1067.7 1221.0,1044.3 1195.3,1018.6 1169.1,990.3 1142.5,959.3 1115.3,925.4 1087.6,888.3 1059.4,847.9  Z" style="stroke-width: 2.0;  stroke: rgb(230,177,14); fill: rgb(242,205,0);" />
<path d="M 1092.725,826.520 A 787.050,787.050 0.00 0,1 1118.4,811.6 L 1118.4,811.6 1141.6,852.0 1164.6,889.1 1187.3,923.1 1209.8,954.2 1232.1,982.6 1254.1,1008.5 1276.0,1032.0 1297.6,1053.3 1319.2,1072.6 1340.5,1089.9 1361.8,1105.4 1382.9,1119.2 1404.0,1131.4 1425.1,1142.0 1446.1,1151.3 1467.1,1159.1 1488.2,1165.7 1509.3,1170.9 1530.6,1174.9 1552.0,1177.6 1573.5,1179.1 1595.3,1179.3 1617.4,1178.3 1639.7,1176.0 1662.3,1172.3 1685.4,1167.2 1708.9,1160.7 1732.8,1152.7 1757.3,1143.0 1782.3,1131.6 1807.9,1118.4 1834.3,1103.2 1861.3,1085.9 1889.1,1066.4 1917.8,1044.5 1947.4,1020.0 1977.9,992.8 2009.4,962.7 2042.1,929.4  A 787.050,787.050 0.00 0,1 2070.1,957.4 L 2070.1,957.4 2035.0,989.7 2001.2,1018.9 1968.6,1045.2 1937.1,1068.8 1906.6,1089.8 1877.0,1108.5 1848.4,1124.9 1820.5,1139.3 1793.5,1151.8 1767.1,1162.5 1741.4,1171.6 1716.3,1179.0 1691.7,1184.9 1667.6,1189.5 1644.0,1192.7 1620.6,1194.6 1597.7,1195.2 1575.0,1194.6 1552.5,1192.8 1530.2,1189.8 1508.0,1185.7 1485.9,1180.2 1463.9,1173.6 1442.0,1165.6 1419.9,1156.3 1397.9,1145.6 1375.7,1133.4 1353.5,1119.6 1331.0,1104.1 1308.4,1086.9 1285.6,1067.7 1262.6,1046.5 1239.2,1023.1 1215.6,997.3 1191.7,969.0 1167.5,937.9 1143.0,904.0 1118.0,866.9 1092.7,826.5  Z" style="stroke-width: 2.0;  stroke: rgb(230,177,14); fill: rgb(242,205,0);" />
<path d="M 1127.111,806.890 A 787.050,787.050 0.00 0,1 1162.4,789.0 L 1162.4,789.0 1182.3,829.3 1202.1,866.3 1221.7,900.2 1241.3,931.3 1260.8,959.7 1280.2,985.6 1299.5,1009.1 1318.7,1030.5 1337.9,1049.7 1357.0,1067.0 1376.1,1082.5 1395.2,1096.2 1414.3,1108.3 1433.4,1118.9 1452.5,1127.9 1471.7,1135.5 1490.9,1141.7 1510.3,1146.6 1529.7,1150.1 1549.3,1152.3 1569.0,1153.2 1588.9,1152.8 1609.1,1151.0 1629.4,1147.9 1650.1,1143.4 1671.1,1137.4 1692.4,1129.9 1714.0,1120.7 1736.1,1109.9 1758.6,1097.4 1781.6,1082.9 1805.2,1066.4 1829.2,1047.8 1853.9,1026.9 1879.3,1003.5 1905.3,977.6 1932.0,948.9 1959.6,917.2 1987.9,882.4  A 787.050,787.050 0.00 0,1 2025.8,914.3 L 2025.8,914.3 1994.4,948.2 1964.1,978.9 1934.7,1006.6 1906.1,1031.6 1878.4,1054.1 1851.5,1074.1 1825.3,1091.8 1799.8,1107.5 1774.9,1121.1 1750.5,1133.0 1726.7,1143.1 1703.4,1151.5 1680.5,1158.4 1658.0,1163.8 1635.8,1167.8 1614.0,1170.4 1592.5,1171.7 1571.1,1171.7 1550.0,1170.5 1529.1,1168.0 1508.3,1164.2 1487.5,1159.2 1466.9,1152.8 1446.3,1145.1 1425.7,1136.0 1405.1,1125.5 1384.5,1113.4 1363.8,1099.7 1343.1,1084.3 1322.2,1067.0 1301.2,1047.9 1280.1,1026.6 1258.8,1003.2 1237.4,977.4 1215.7,949.1 1193.9,918.1 1171.9,884.2 1149.6,847.2 1127.1,806.9  Z" style="stroke-width: 2.0;  stroke: rgb(230,177,14); fill: rgb(242,205,0);" />
<path d="M 1171.411,784.824 A 787.050,787.050 0.00 0,0 1171.4,784.8 L 1171.4,784.8 1190.5,824.8 1209.5,861.6 1228.5,895.4 1247.3,926.3 1266.1,954.5 1284.8,980.2 1303.4,1003.6 1322.0,1024.7 1340.5,1043.8 1359.0,1060.9 1377.5,1076.2 1395.9,1089.7 1414.4,1101.6 1432.9,1111.9 1451.3,1120.7 1469.9,1128.1 1488.5,1134.0 1507.1,1138.5 1525.9,1141.7 1544.8,1143.6 1563.8,1144.2 1583.0,1143.3 1602.4,1141.2 1622.0,1137.6 1641.9,1132.6 1662.0,1126.1 1682.4,1118.1 1703.2,1108.4 1724.3,1097.1 1745.8,1083.9 1767.7,1068.8 1790.0,1051.7 1812.9,1032.4 1836.3,1010.9 1860.2,986.9 1884.7,960.3 1909.9,930.9 1935.8,898.6 1962.4,863.1  A 787.050,787.050 0.00 0,1 1970.3,868.9 L 1970.3,868.9 1943.2,904.2 1916.9,936.3 1891.2,965.4 1866.3,991.8 1841.9,1015.6 1818.2,1036.9 1795.0,1056.0 1772.3,1072.9 1750.1,1087.8 1728.3,1100.7 1706.9,1111.9 1685.9,1121.4 1665.3,1129.2 1645.0,1135.5 1624.9,1140.4 1605.1,1143.8 1585.5,1145.8 1566.1,1146.5 1546.9,1145.8 1527.9,1143.8 1509.0,1140.4 1490.1,1135.7 1471.4,1129.7 1452.7,1122.2 1434.1,1113.3 1415.6,1102.9 1397.0,1090.9 1378.4,1077.3 1359.9,1061.9 1341.3,1044.7 1322.6,1025.5 1304.0,1004.3 1285.2,980.8 1266.5,955.0 1247.6,926.7 1228.7,895.7 1209.7,861.8 1190.6,824.9 1171.4,784.8  Z" style="stroke-width: 2.0;  stroke: rgb(230,177,14); fill: rgb(242,205,0);" />
<path d="M 1180.433,780.747 A 787.050,787.050 0.00 0,0 1180.4,780.7 L 1180.4,780.7 1198.8,820.5 1217.1,857.1 1235.3,890.6 1253.5,921.4 1271.5,949.4 1289.5,975.0 1307.5,998.2 1325.4,1019.2 1343.2,1038.1 1361.1,1055.0 1378.9,1070.1 1396.7,1083.5 1414.4,1095.2 1432.2,1105.3 1450.1,1113.8 1467.9,1120.9 1485.8,1126.6 1503.8,1130.8 1521.9,1133.7 1540.1,1135.3 1558.4,1135.5 1576.8,1134.3 1595.4,1131.7 1614.2,1127.7 1633.2,1122.3 1652.5,1115.3 1672.0,1106.8 1691.7,1096.6 1711.8,1084.8 1732.2,1071.0 1753.0,1055.4 1774.2,1037.7 1795.8,1017.9 1817.8,995.7 1840.4,971.1 1863.4,943.9 1887.0,913.9 1911.2,880.9 1936.0,844.8  A 787.050,787.050 0.00 0,1 1944.2,850.3 L 1944.2,850.3 1918.9,886.2 1894.2,919.0 1870.2,948.7 1846.7,975.8 1823.7,1000.2 1801.3,1022.1 1779.4,1041.8 1757.8,1059.3 1736.7,1074.7 1716.0,1088.2 1695.7,1100.0 1675.6,1109.9 1655.9,1118.3 1636.4,1125.1 1617.2,1130.4 1598.2,1134.2 1579.4,1136.6 1560.8,1137.7 1542.3,1137.3 1523.9,1135.7 1505.7,1132.6 1487.6,1128.3 1469.5,1122.5 1451.5,1115.3 1433.6,1106.6 1415.6,1096.4 1397.7,1084.6 1379.8,1071.2 1361.9,1056.0 1344.0,1038.9 1326.0,1019.9 1308.0,998.8 1290.0,975.6 1271.9,949.9 1253.7,921.8 1235.5,890.9 1217.2,857.3 1198.9,820.6 1180.4,780.7  Z" style="stroke-width: 2.0;  stroke: rgb(230,177,14); fill: rgb(242,205,0);" />
<path d="M 1189.505,776.785 A 787.050,787.050 0.00 0,0 1189.5,776.8 L 1189.5,776.8 1207.2,816.4 1224.8,852.9 1242.4,886.4 1259.9,917.0 1277.4,945.0 1294.8,970.5 1312.1,993.6 1329.4,1014.5 1346.7,1033.4 1364.0,1050.3 1381.2,1065.3 1398.4,1078.6 1415.7,1090.1 1432.9,1100.1 1450.2,1108.6 1467.5,1115.5 1484.8,1121.1 1502.3,1125.2 1519.8,1127.9 1537.4,1129.3 1555.1,1129.2 1572.9,1127.8 1590.9,1125.0 1609.1,1120.8 1627.4,1115.1 1646.0,1107.9 1664.8,1099.0 1683.8,1088.6 1703.2,1076.3 1722.8,1062.3 1742.8,1046.3 1763.1,1028.3 1783.7,1008.1 1804.8,985.5 1826.4,960.5 1848.4,932.9 1870.8,902.6 1893.8,869.2 1917.4,832.7  A 787.050,787.050 0.00 0,0 1909.0,827.5 L 1909.0,827.5 1885.9,864.2 1863.4,897.8 1841.4,928.3 1819.9,956.1 1798.7,981.3 1778.0,1004.0 1757.7,1024.4 1737.7,1042.6 1718.1,1058.8 1698.8,1073.0 1679.7,1085.4 1661.0,1096.1 1642.4,1105.0 1624.1,1112.4 1606.0,1118.3 1588.0,1122.7 1570.2,1125.6 1552.6,1127.2 1535.1,1127.3 1517.6,1126.1 1500.3,1123.5 1483.0,1119.5 1465.8,1114.1 1448.7,1107.2 1431.6,1098.9 1414.4,1089.0 1397.3,1077.5 1380.2,1064.3 1363.1,1049.4 1346.0,1032.6 1328.8,1013.8 1311.6,993.0 1294.4,969.9 1277.0,944.5 1259.7,916.6 1242.2,886.1 1224.7,852.7 1207.2,816.3 1189.5,776.8  Z" style="stroke-width: 2.0;  stroke: rgb(230,177,14); fill: rgb(242,205,0);" />
<path d="M 1198.626,772.936 A 787.050,787.050 0.00 0,1 1207.8,769.2 L 1207.8,769.2 1224.2,808.6 1240.5,844.7 1256.7,878.0 1272.9,908.4 1289.1,936.2 1305.2,961.5 1321.3,984.4 1337.3,1005.2 1353.3,1023.9 1369.3,1040.6 1385.3,1055.4 1401.2,1068.4 1417.2,1079.8 1433.2,1089.5 1449.2,1097.7 1465.2,1104.3 1481.3,1109.5 1497.4,1113.2 1513.5,1115.5 1529.8,1116.5 1546.1,1116.0 1562.5,1114.1 1579.1,1110.7 1595.8,1105.9 1612.6,1099.6 1629.5,1091.7 1646.7,1082.3 1664.0,1071.1 1681.6,1058.2 1699.3,1043.4 1717.3,1026.6 1735.6,1007.8 1754.1,986.8 1773.0,963.5 1792.2,937.7 1811.7,909.3 1831.6,878.1 1851.9,844.0 1872.5,806.7  A 787.050,787.050 0.00 0,1 1889.9,816.3 L 1889.9,816.3 1868.1,853.3 1846.7,887.2 1825.8,918.1 1805.4,946.2 1785.3,971.7 1765.5,994.8 1746.1,1015.5 1727.0,1034.1 1708.3,1050.5 1689.7,1065.1 1671.5,1077.8 1653.5,1088.7 1635.6,1097.9 1618.0,1105.6 1600.6,1111.7 1583.3,1116.3 1566.1,1119.5 1549.1,1121.2 1532.2,1121.6 1515.4,1120.5 1498.6,1118.1 1481.9,1114.2 1465.3,1108.9 1448.7,1102.2 1432.2,1093.9 1415.7,1084.2 1399.1,1072.7 1382.6,1059.6 1366.1,1044.8 1349.5,1028.0 1333.0,1009.3 1316.3,988.6 1299.7,965.6 1283.0,940.2 1266.2,912.4 1249.4,881.9 1232.6,848.6 1215.6,812.4 1198.6,772.9  Z" style="stroke-width: 2.0;  stroke: rgb(230,177,14); fill: rgb(242,205,0);" />
<path d="M 1217.010,765.586 A 787.050,787.050 0.00 0,1 1311.4,735.9 L 1311.4,735.9 1321.5,775.1 1331.6,811.2 1341.8,844.4 1352.1,875.0 1362.4,902.9 1372.8,928.4 1383.2,951.5 1393.7,972.5 1404.2,991.4 1414.8,1008.3 1425.4,1023.2 1436.1,1036.4 1446.8,1047.8 1457.5,1057.6 1468.4,1065.7 1479.2,1072.2 1490.1,1077.2 1501.1,1080.6 1512.1,1082.6 1523.2,1083.1 1534.3,1082.0 1545.5,1079.5 1556.8,1075.5 1568.2,1069.9 1579.7,1062.7 1591.2,1053.9 1602.8,1043.5 1614.6,1031.2 1626.4,1017.2 1638.4,1001.3 1650.4,983.4 1662.6,963.4 1675.0,941.2 1687.5,916.6 1700.1,889.7 1712.9,860.1 1725.9,827.9 1739.1,792.7 1752.5,754.5  A 787.050,787.050 0.00 0,1 1852.9,796.5 L 1852.9,796.5 1833.4,834.0 1814.3,868.4 1795.5,899.9 1777.1,928.6 1758.9,954.7 1741.1,978.3 1723.5,999.6 1706.1,1018.7 1688.9,1035.8 1672.0,1050.8 1655.3,1064.0 1638.7,1075.5 1622.3,1085.2 1606.1,1093.3 1590.0,1099.8 1574.0,1104.8 1558.2,1108.4 1542.4,1110.5 1526.7,1111.1 1511.1,1110.4 1495.6,1108.2 1480.1,1104.6 1464.6,1099.5 1449.2,1093.0 1433.8,1084.9 1418.4,1075.3 1403.1,1064.0 1387.7,1051.0 1372.3,1036.3 1357.0,1019.6 1341.5,1001.0 1326.1,980.3 1310.7,957.4 1295.2,932.2 1279.6,904.4 1264.0,874.1 1248.4,840.9 1232.7,804.8 1217.0,765.6  Z" style="stroke-width: 2.0;  stroke: rgb(230,177,14); fill: rgb(242,205,0);" />
<path d="M 1321.006,733.574 A 787.050,787.050 0.00 0,0 1321.0,733.6 L 1321.0,733.6 1330.5,772.7 1340.1,808.7 1349.7,841.9 1359.4,872.4 1369.1,900.2 1378.9,925.7 1388.7,948.8 1398.5,969.7 1408.4,988.6 1418.3,1005.4 1428.3,1020.3 1438.2,1033.4 1448.3,1044.8 1458.3,1054.5 1468.5,1062.5 1478.6,1069.0 1488.8,1073.8 1499.0,1077.2 1509.3,1079.1 1519.7,1079.4 1530.1,1078.3 1540.5,1075.6 1551.0,1071.5 1561.6,1065.7 1572.2,1058.4 1583.0,1049.5 1593.7,1038.8 1604.6,1026.4 1615.6,1012.2 1626.6,996.1 1637.8,978.0 1649.0,957.8 1660.4,935.4 1671.9,910.7 1683.5,883.5 1695.2,853.8 1707.1,821.4 1719.2,786.1 1731.4,747.7  A 787.050,787.050 0.00 0,0 1721.9,744.9 L 1721.9,744.9 1710.2,783.3 1698.6,818.7 1687.2,851.2 1675.9,881.1 1664.7,908.3 1653.7,933.1 1642.7,955.6 1631.8,975.9 1621.0,994.1 1610.3,1010.3 1599.7,1024.6 1589.1,1037.1 1578.6,1047.8 1568.2,1056.9 1557.8,1064.3 1547.5,1070.1 1537.3,1074.3 1527.1,1077.1 1516.9,1078.3 1506.8,1078.0 1496.8,1076.2 1486.7,1072.9 1476.7,1068.1 1466.8,1061.7 1456.9,1053.7 1447.0,1044.1 1437.1,1032.8 1427.3,1019.8 1417.5,1004.9 1407.7,988.1 1397.9,969.3 1388.2,948.4 1378.5,925.4 1368.9,900.0 1359.2,872.1 1349.6,841.7 1340.0,808.6 1330.5,772.6 1321.0,733.6  Z" style="stroke-width: 2.0;  stroke: rgb(230,177,14); fill: rgb(242,205,0);" />
<path d="M 1330.661,731.383 A 787.050,787.050 0.00 0,0 1330.7,731.4 L 1330.7,731.4 1339.6,770.3 1348.5,806.2 1357.4,839.2 1366.4,869.5 1375.3,897.3 1384.3,922.6 1393.2,945.6 1402.2,966.4 1411.2,985.1 1420.1,1001.8 1429.1,1016.6 1438.1,1029.5 1447.1,1040.8 1456.1,1050.3 1465.2,1058.1 1474.2,1064.4 1483.3,1069.1 1492.3,1072.3 1501.4,1073.9 1510.6,1074.0 1519.7,1072.7 1528.9,1069.7 1538.0,1065.3 1547.3,1059.3 1556.5,1051.7 1565.8,1042.4 1575.1,1031.5 1584.5,1018.8 1593.9,1004.2 1603.3,987.8 1612.8,969.3 1622.4,948.8 1632.0,926.1 1641.6,901.0 1651.3,873.5 1661.1,843.5 1671.0,810.7 1680.9,775.1 1690.9,736.5  A 787.050,787.050 0.00 0,1 1700.5,738.9 L 1700.5,738.9 1690.0,777.5 1679.6,813.0 1669.3,845.7 1659.0,875.7 1648.9,903.1 1638.8,928.0 1628.8,950.7 1618.9,971.1 1609.0,989.5 1599.2,1005.9 1589.5,1020.3 1579.8,1033.0 1570.2,1043.8 1560.6,1053.0 1551.1,1060.6 1541.6,1066.5 1532.1,1070.9 1522.7,1073.7 1513.3,1075.0 1504.0,1074.8 1494.7,1073.1 1485.4,1069.9 1476.1,1065.2 1466.9,1058.8 1457.6,1050.9 1448.4,1041.4 1439.3,1030.1 1430.1,1017.1 1421.0,1002.2 1411.9,985.5 1402.8,966.7 1393.7,945.9 1384.6,922.9 1375.6,897.5 1366.5,869.7 1357.5,839.3 1348.6,806.3 1339.6,770.3 1330.7,731.4  Z" style="stroke-width: 2.0;  stroke: rgb(230,177,14); fill: rgb(242,205,0);" />
<path d="M 1340.342,729.314 A 787.050,787.050 0.00 0,0 1340.3,729.3 L 1340.3,729.3 1348.7,768.2 1357.1,804.0 1365.4,837.0 1373.8,867.2 1382.1,895.0 1390.4,920.2 1398.7,943.2 1407.1,964.0 1415.4,982.7 1423.7,999.4 1432.0,1014.1 1440.3,1027.1 1448.6,1038.3 1456.9,1047.7 1465.2,1055.6 1473.5,1061.8 1481.9,1066.4 1490.2,1069.5 1498.5,1071.1 1506.9,1071.2 1515.2,1069.7 1523.6,1066.7 1532.0,1062.2 1540.4,1056.0 1548.8,1048.3 1557.2,1038.9 1565.6,1027.9 1574.1,1015.0 1582.6,1000.4 1591.1,983.8 1599.7,965.2 1608.3,944.5 1616.9,921.7 1625.5,896.5 1634.2,868.9 1642.9,838.7 1651.7,805.8 1660.5,770.1 1669.3,731.4  A 787.050,787.050 0.00 0,0 1659.7,729.3 L 1659.7,729.3 1651.3,768.1 1643.0,803.9 1634.7,836.8 1626.4,867.1 1618.2,894.7 1609.9,920.0 1601.7,942.9 1593.5,963.7 1585.3,982.3 1577.2,999.0 1569.0,1013.7 1560.9,1026.6 1552.7,1037.7 1544.6,1047.2 1536.5,1055.0 1528.4,1061.1 1520.3,1065.7 1512.2,1068.8 1504.1,1070.3 1495.9,1070.3 1487.8,1068.8 1479.7,1065.7 1471.6,1061.1 1463.5,1055.0 1455.4,1047.2 1447.3,1037.7 1439.1,1026.6 1431.0,1013.7 1422.8,999.0 1414.7,982.3 1406.5,963.7 1398.3,942.9 1390.1,920.0 1381.8,894.7 1373.6,867.1 1365.3,836.8 1357.0,803.9 1348.7,768.1 1340.3,729.3  Z" style="stroke-width: 2.0;  stroke: rgb(230,177,14); fill: rgb(242,205,0);" />
<path d="M 1350.048,727.367 A 787.050,787.050 0.00 0,1 1477.8,713.3 L 1477.8,713.3 1478.9,752.1 1480.0,788.0 1481.1,821.0 1482.0,851.4 1483.0,879.3 1483.9,904.8 1484.8,927.9 1485.7,948.9 1486.5,967.8 1487.3,984.7 1488.1,999.6 1488.9,1012.7 1489.6,1024.0 1490.3,1033.6 1491.0,1041.6 1491.6,1047.9 1492.3,1052.5 1492.9,1055.7 1493.5,1057.2 1494.0,1057.2 1494.6,1055.6 1495.1,1052.5 1495.6,1047.8 1496.1,1041.5 1496.6,1033.6 1497.0,1023.9 1497.4,1012.6 1497.8,999.5 1498.1,984.5 1498.5,967.6 1498.8,948.7 1499.0,927.7 1499.3,904.6 1499.5,879.1 1499.7,851.2 1499.8,820.8 1499.9,787.7 1500.0,751.8 1500.0,713.0  A 787.050,787.050 0.00 0,1 1637.9,725.1 L 1637.9,725.1 1630.7,764.0 1623.5,799.8 1616.3,832.9 1609.1,863.2 1601.9,891.0 1594.7,916.3 1587.4,939.4 1580.2,960.2 1573.0,979.0 1565.7,995.7 1558.5,1010.5 1551.2,1023.5 1544.0,1034.8 1536.7,1044.3 1529.5,1052.2 1522.2,1058.4 1514.9,1063.1 1507.6,1066.2 1500.3,1067.8 1493.0,1067.9 1485.6,1066.4 1478.3,1063.4 1470.9,1058.8 1463.6,1052.7 1456.2,1044.9 1448.8,1035.5 1441.3,1024.4 1433.9,1011.5 1426.4,996.8 1418.9,980.2 1411.4,961.5 1403.8,940.8 1396.3,917.9 1388.6,892.6 1381.0,865.0 1373.3,834.8 1365.6,801.9 1357.8,766.1 1350.0,727.4  Z" style="stroke-width: 2.0;  stroke: rgb(230,177,14); fill: rgb(242,205,0);" />
<path d="M 1301.401,2261.581 A 787.050,787.050 0.00 0,1 1291.8,2259.0 L 1291.8,2259.0 1302.1,2221.6 1311.5,2186.9 1320.2,2155.0 1328.1,2125.6 1335.3,2098.7 1341.8,2074.1 1347.7,2051.6 1353.0,2031.3 1357.7,2013.0 1361.9,1996.6 1365.5,1982.1 1368.6,1969.4 1371.2,1958.3 1373.3,1948.9 1375.0,1941.1 1376.2,1934.9 1376.9,1930.3 1377.3,1927.1 1377.1,1925.5 1376.6,1925.3 1375.6,1926.6 1374.2,1929.5 1372.4,1933.8 1370.1,1939.7 1367.3,1947.2 1364.1,1956.3 1360.4,1967.0 1356.2,1979.4 1351.5,1993.6 1346.2,2009.7 1340.4,2027.7 1334.1,2047.7 1327.1,2069.8 1319.5,2094.1 1311.2,2120.7 1302.1,2149.8 1292.4,2181.4 1281.9,2215.7 1270.5,2252.9  A 787.050,787.050 0.00 0,1 1261.1,2249.9 L 1261.1,2249.9 1272.9,2212.9 1283.9,2178.7 1294.2,2147.3 1303.7,2118.3 1312.4,2091.9 1320.6,2067.7 1328.0,2045.7 1334.9,2025.9 1341.2,2008.0 1346.9,1992.1 1352.1,1978.1 1356.8,1965.8 1361.0,1955.2 1364.7,1946.2 1367.9,1938.9 1370.7,1933.2 1373.0,1929.0 1374.9,1926.3 1376.4,1925.1 1377.4,1925.4 1378.0,1927.2 1378.2,1930.5 1377.9,1935.3 1377.2,1941.6 1376.0,1949.5 1374.4,1959.1 1372.3,1970.2 1369.7,1983.1 1366.5,1997.8 1362.9,2014.3 1358.7,2032.8 1353.9,2053.2 1348.5,2075.8 1342.4,2100.5 1335.7,2127.6 1328.3,2157.1 1320.1,2189.2 1311.2,2224.0 1301.4,2261.6  Z" style="stroke-width: 2.0;  stroke: rgb(230,177,14); fill: rgb(242,205,0);" />
<path d="M 1342.281,2271.085 A 787.050,787.050 0.00 0,1 1322.9,2266.9 L 1322.9,2266.9 1331.6,2229.0 1339.5,2193.9 1346.6,2161.6 1353.0,2131.8 1358.7,2104.4 1363.8,2079.4 1368.2,2056.6 1372.1,2035.9 1375.3,2017.2 1378.1,2000.4 1380.3,1985.5 1382.0,1972.4 1383.3,1961.0 1384.0,1951.2 1384.3,1943.1 1384.2,1936.5 1383.7,1931.5 1382.7,1928.0 1381.3,1926.0 1379.5,1925.5 1377.2,1926.4 1374.5,1928.9 1371.4,1932.9 1367.9,1938.5 1363.9,1945.6 1359.5,1954.3 1354.6,1964.7 1349.3,1976.8 1343.4,1990.7 1337.0,2006.4 1330.1,2024.1 1322.6,2043.8 1314.5,2065.5 1305.7,2089.5 1296.4,2115.9 1286.3,2144.6 1275.5,2175.9 1264.0,2210.0 1251.7,2246.8  A 787.050,787.050 0.00 0,1 1242.3,2243.7 L 1242.3,2243.7 1255.1,2206.9 1267.2,2173.0 1278.5,2141.8 1289.1,2113.2 1299.0,2087.1 1308.3,2063.2 1317.0,2041.6 1325.1,2022.1 1332.7,2004.6 1339.7,1989.0 1346.2,1975.3 1352.3,1963.4 1357.8,1953.2 1362.9,1944.6 1367.6,1937.7 1371.8,1932.4 1375.6,1928.5 1379.0,1926.2 1381.9,1925.4 1384.5,1926.2 1386.7,1928.3 1388.4,1932.0 1389.7,1937.3 1390.6,1944.0 1391.1,1952.4 1391.1,1962.3 1390.7,1973.9 1389.8,1987.3 1388.4,2002.4 1386.5,2019.4 1384.1,2038.2 1381.1,2059.2 1377.5,2082.2 1373.4,2107.4 1368.6,2135.0 1363.1,2165.0 1356.9,2197.6 1350.0,2232.9 1342.3,2271.1  Z" style="stroke-width: 2.0;  stroke: rgb(230,177,14); fill: rgb(242,205,0);" />
<path d="M 1373.828,2276.871 A 787.050,787.050 0.00 0,1 1364.1,2275.2 L 1364.1,2275.2 1370.7,2236.8 1376.5,2201.2 1381.6,2168.4 1386.1,2138.1 1389.9,2110.3 1393.0,2084.9 1395.6,2061.6 1397.6,2040.5 1399.1,2021.4 1400.1,2004.2 1400.6,1988.9 1400.6,1975.3 1400.1,1963.5 1399.2,1953.4 1397.9,1944.8 1396.1,1937.9 1394.0,1932.5 1391.4,1928.6 1388.5,1926.2 1385.1,1925.3 1381.4,1925.9 1377.2,1928.0 1372.7,1931.6 1367.7,1936.8 1362.3,1943.6 1356.5,1951.9 1350.2,1962.0 1343.5,1973.7 1336.3,1987.2 1328.6,2002.6 1320.4,2019.9 1311.7,2039.3 1302.4,2060.7 1292.5,2084.4 1281.9,2110.4 1270.8,2138.9 1258.9,2170.0 1246.3,2203.7 1233.0,2240.4  A 787.050,787.050 0.00 0,0 1233.0,2240.4 L 1233.0,2240.4 1246.3,2203.7 1259.0,2169.9 1270.9,2138.9 1282.1,2110.4 1292.7,2084.4 1302.7,2060.7 1312.1,2039.3 1321.0,2019.9 1329.3,2002.6 1337.2,1987.3 1344.5,1973.8 1351.4,1962.0 1357.8,1952.0 1363.9,1943.7 1369.4,1937.0 1374.6,1931.9 1379.4,1928.3 1383.8,1926.2 1387.8,1925.6 1391.4,1926.6 1394.6,1929.0 1397.4,1932.9 1399.8,1938.4 1401.9,1945.4 1403.5,1954.0 1404.7,1964.2 1405.5,1976.1 1405.8,1989.6 1405.7,2005.0 1405.1,2022.3 1403.9,2041.4 1402.3,2062.6 1400.1,2086.0 1397.4,2111.5 1394.0,2139.4 1390.0,2169.7 1385.3,2202.7 1379.9,2238.3 1373.8,2276.9  Z" style="stroke-width: 2.0;  stroke: rgb(230,177,14); fill: rgb(242,205,0);" />
<path d="M 1494.456,2287.030 A 787.050,787.050 0.00 0,1 1395.8,2280.1 L 1395.8,2280.1 1400.8,2241.3 1405.1,2205.5 1408.7,2172.3 1411.6,2141.7 1414.0,2113.6 1415.7,2087.9 1416.9,2064.4 1417.6,2043.0 1417.8,2023.6 1417.5,2006.2 1416.7,1990.7 1415.5,1976.9 1413.8,1964.8 1411.7,1954.5 1409.2,1945.7 1406.4,1938.5 1403.1,1932.9 1399.4,1928.8 1395.4,1926.2 1391.0,1925.1 1386.2,1925.5 1381.1,1927.4 1375.6,1930.8 1369.6,1935.8 1363.3,1942.3 1356.6,1950.5 1349.4,1960.3 1341.9,1971.9 1333.8,1985.2 1325.3,2000.4 1316.3,2017.6 1306.8,2036.7 1296.8,2058.0 1286.2,2081.6 1275.0,2107.5 1263.2,2135.8 1250.7,2166.7 1237.6,2200.4 1223.7,2236.9  A 787.050,787.050 0.00 0,1 1142.2,2201.0 L 1142.2,2201.0 1160.6,2165.6 1178.3,2133.1 1195.3,2103.4 1211.7,2076.3 1227.3,2051.7 1242.4,2029.5 1256.9,2009.5 1270.9,1991.6 1284.3,1975.8 1297.2,1961.9 1309.7,1949.8 1321.7,1939.6 1333.3,1931.0 1344.5,1924.1 1355.2,1918.7 1365.6,1914.9 1375.6,1912.7 1385.3,1911.9 1394.5,1912.6 1403.4,1914.8 1412.0,1918.4 1420.2,1923.6 1428.0,1930.2 1435.5,1938.3 1442.6,1948.0 1449.3,1959.3 1455.6,1972.3 1461.6,1986.9 1467.1,2003.4 1472.2,2021.7 1476.8,2041.9 1480.9,2064.2 1484.6,2088.6 1487.7,2115.3 1490.3,2144.4 1492.3,2175.9 1493.7,2210.1 1494.4,2247.1 1494.5,2287.0  Z" style="stroke-width: 2.0;  stroke: rgb(230,177,14); fill: rgb(242,205,0);" />
<path d="M 1585.760,2282.364 A 787.050,787.050 0.00 0,1 1516.6,2286.9 L 1516.6,2286.9 1515.4,2246.8 1513.5,2209.6 1511.1,2175.3 1508.0,2143.6 1504.4,2114.4 1500.2,2087.6 1495.6,2063.1 1490.5,2040.7 1484.9,2020.4 1478.9,2002.0 1472.5,1985.5 1465.7,1970.7 1458.5,1957.7 1450.9,1946.3 1443.0,1936.5 1434.7,1928.3 1426.1,1921.6 1417.1,1916.4 1407.8,1912.6 1398.1,1910.3 1388.1,1909.5 1377.7,1910.2 1367.0,1912.3 1355.9,1916.0 1344.4,1921.2 1332.6,1928.0 1320.3,1936.4 1307.6,1946.6 1294.5,1958.5 1280.9,1972.3 1266.8,1988.0 1252.2,2005.7 1237.1,2025.6 1221.4,2047.7 1205.2,2072.2 1188.3,2099.1 1170.7,2128.7 1152.4,2161.1 1133.4,2196.5  A 787.050,787.050 0.00 0,1 1081.9,2166.8 L 1081.9,2166.8 1104.2,2132.3 1125.6,2100.7 1146.2,2072.0 1166.2,2045.9 1185.5,2022.3 1204.2,2001.1 1222.3,1982.1 1239.8,1965.3 1256.7,1950.5 1273.2,1937.6 1289.2,1926.6 1304.7,1917.3 1319.9,1909.6 1334.6,1903.6 1348.9,1899.2 1362.8,1896.3 1376.4,1894.8 1389.6,1894.8 1402.5,1896.3 1415.1,1899.2 1427.3,1903.5 1439.2,1909.2 1450.8,1916.4 1462.1,1925.1 1473.0,1935.4 1483.7,1947.2 1493.9,1960.6 1503.9,1975.8 1513.5,1992.7 1522.7,2011.5 1531.5,2032.2 1539.9,2055.0 1547.9,2079.9 1555.5,2107.1 1562.6,2136.8 1569.2,2168.9 1575.3,2203.8 1580.8,2241.6 1585.8,2282.4  Z" style="stroke-width: 2.0;  stroke: rgb(230,177,14); fill: rgb(242,205,0);" />
<path d="M 1617.565,2278.220 A 787.050,787.050 0.00 0,1 1607.8,2279.6 L 1607.8,2279.6 1601.6,2238.7 1594.9,2200.9 1587.7,2165.9 1580.0,2133.7 1571.9,2104.0 1563.3,2076.8 1554.3,2051.8 1544.9,2029.0 1535.1,2008.3 1525.0,1989.5 1514.5,1972.6 1503.8,1957.4 1492.6,1944.0 1481.2,1932.1 1469.5,1921.9 1457.4,1913.1 1445.1,1905.9 1432.4,1900.1 1419.5,1895.7 1406.2,1892.8 1392.6,1891.3 1378.7,1891.2 1364.4,1892.6 1349.8,1895.4 1334.9,1899.8 1319.5,1905.7 1303.8,1913.2 1287.6,1922.4 1271.0,1933.3 1253.9,1946.1 1236.3,1960.8 1218.1,1977.5 1199.5,1996.3 1180.2,2017.4 1160.3,2040.9 1139.7,2066.9 1118.4,2095.5 1096.4,2127.0 1073.6,2161.5  A 787.050,787.050 0.00 0,0 1073.6,2161.5 L 1073.6,2161.5 1096.5,2127.0 1118.5,2095.4 1139.9,2066.7 1160.6,2040.6 1180.6,2017.1 1199.9,1996.0 1218.7,1977.1 1237.0,1960.4 1254.7,1945.6 1272.0,1932.8 1288.7,1921.9 1305.1,1912.7 1321.0,1905.1 1336.5,1899.2 1351.7,1894.8 1366.5,1891.9 1380.9,1890.5 1395.0,1890.6 1408.8,1892.0 1422.3,1894.9 1435.5,1899.3 1448.4,1905.0 1461.0,1912.2 1473.4,1920.9 1485.4,1931.1 1497.1,1942.9 1508.5,1956.3 1519.6,1971.4 1530.4,1988.3 1540.9,2007.0 1551.0,2027.7 1560.8,2050.5 1570.2,2075.4 1579.2,2102.6 1587.8,2132.3 1596.0,2164.5 1603.7,2199.5 1610.9,2237.3 1617.6,2278.2  Z" style="stroke-width: 2.0;  stroke: rgb(230,177,14); fill: rgb(242,205,0);" />
<path d="M 2210.817,1162.084 A 787.050,787.050 0.00 0,1 1639.4,2274.6 L 1639.4,2274.6 1631.5,2233.6 1623.1,2195.7 1614.3,2160.7 1605.1,2128.5 1595.4,2098.8 1585.4,2071.6 1575.0,2046.6 1564.2,2023.9 1553.2,2003.2 1541.8,1984.5 1530.2,1967.6 1518.2,1952.6 1505.9,1939.2 1493.4,1927.4 1480.6,1917.2 1467.5,1908.5 1454.2,1901.3 1440.6,1895.5 1426.7,1891.2 1412.5,1888.2 1398.0,1886.7 1383.2,1886.6 1368.1,1888.0 1352.6,1890.8 1336.8,1895.1 1320.7,1900.9 1304.1,1908.4 1287.2,1917.5 1269.8,1928.4 1251.9,1941.1 1233.6,1955.7 1214.7,1972.3 1195.3,1991.1 1175.3,2012.1 1154.7,2035.5 1133.5,2061.5 1111.5,2090.1 1088.8,2121.6 1065.3,2156.1  A 787.050,787.050 0.00 0,1 973.6,914.9 L 973.6,914.9 1010.8,955.1 1046.8,992.0 1081.5,1025.7 1115.1,1056.4 1147.7,1084.4 1179.2,1109.9 1209.8,1133.1 1239.5,1154.1 1268.4,1173.2 1296.5,1190.5 1324.0,1206.1 1350.9,1220.1 1377.3,1232.8 1403.3,1244.1 1428.9,1254.2 1454.3,1263.3 1479.6,1271.2 1504.7,1278.1 1530.0,1284.1 1555.3,1289.2 1580.9,1293.4 1606.8,1296.6 1633.2,1299.0 1660.1,1300.4 1687.6,1300.9 1716.0,1300.5 1745.2,1298.9 1775.5,1296.3 1806.8,1292.4 1839.4,1287.3 1873.4,1280.8 1908.9,1272.8 1946.1,1263.2 1985.0,1251.7 2025.8,1238.4 2068.6,1222.9 2113.6,1205.2 2161.0,1185.0 2210.8,1162.1  Z" style="stroke-width: 2.0;  stroke: rgb(230,177,14); fill: rgb(242,205,0);" />
<path d="M 2191.793,1124.673 A 787.050,787.050 0.00 0,1 2201.0,1142.2 L 2201.0,1142.2 2152.4,1166.2 2106.2,1187.4 2062.1,1206.1 2020.2,1222.5 1980.2,1236.7 1942.0,1248.9 1905.5,1259.3 1870.5,1268.0 1837.0,1275.1 1804.8,1280.8 1773.8,1285.2 1743.8,1288.3 1714.9,1290.3 1686.7,1291.2 1659.3,1291.1 1632.6,1290.0 1606.4,1287.9 1580.5,1285.0 1555.1,1281.0 1529.8,1276.2 1504.7,1270.4 1479.6,1263.6 1454.5,1255.9 1429.2,1247.0 1403.7,1237.0 1377.9,1225.7 1351.7,1213.2 1325.1,1199.2 1297.9,1183.6 1270.1,1166.4 1241.6,1147.4 1212.3,1126.4 1182.2,1103.2 1151.3,1077.8 1119.3,1049.8 1086.4,1019.0 1052.4,985.4 1017.3,948.5 981.0,908.3  A 787.050,787.050 0.00 0,1 988.5,901.8 L 988.5,901.8 1023.9,942.1 1058.2,978.9 1091.5,1012.6 1123.7,1043.3 1155.1,1071.3 1185.5,1096.8 1215.1,1120.0 1243.9,1141.0 1272.0,1160.0 1299.5,1177.2 1326.4,1192.7 1352.8,1206.6 1378.8,1219.1 1404.4,1230.3 1429.7,1240.2 1454.9,1249.0 1479.9,1256.6 1504.8,1263.3 1529.8,1268.9 1554.9,1273.6 1580.3,1277.3 1606.0,1280.0 1632.1,1281.8 1658.6,1282.6 1685.8,1282.4 1713.8,1281.2 1742.5,1278.8 1772.1,1275.2 1802.8,1270.4 1834.6,1264.2 1867.7,1256.5 1902.1,1247.2 1938.1,1236.2 1975.6,1223.3 2014.9,1208.4 2056.0,1191.2 2099.1,1171.7 2144.3,1149.6 2191.8,1124.7  Z" style="stroke-width: 2.0;  stroke: rgb(230,177,14); fill: rgb(242,205,0);" />
<path d="M 2154.793,1063.315 A 787.050,787.050 0.00 0,1 2180.9,1105.3 L 2180.9,1105.3 2134.7,1131.3 2090.6,1154.3 2048.6,1174.8 2008.4,1192.8 1969.9,1208.5 1933.1,1222.1 1897.8,1233.8 1864.0,1243.8 1831.4,1252.0 1800.1,1258.8 1769.8,1264.2 1740.5,1268.2 1712.1,1271.1 1684.4,1272.7 1657.5,1273.3 1631.1,1272.8 1605.2,1271.3 1579.6,1268.9 1554.4,1265.4 1529.5,1261.0 1504.6,1255.6 1479.8,1249.1 1455.0,1241.6 1430.0,1233.0 1404.9,1223.2 1379.5,1212.1 1353.8,1199.7 1327.6,1185.8 1301.0,1170.4 1273.9,1153.3 1246.2,1134.3 1217.8,1113.3 1188.7,1090.2 1158.8,1064.8 1128.1,1036.8 1096.6,1006.1 1064.1,972.5 1030.6,935.6 996.1,895.4  A 787.050,787.050 0.00 0,1 1027.1,870.8 L 1027.1,870.8 1058.6,911.4 1089.2,948.6 1119.2,982.6 1148.4,1013.6 1176.9,1042.0 1204.8,1067.7 1232.1,1091.2 1258.9,1112.4 1285.2,1131.6 1311.0,1149.0 1336.4,1164.6 1361.4,1178.7 1386.2,1191.2 1410.7,1202.3 1435.1,1212.2 1459.3,1220.8 1483.5,1228.2 1507.6,1234.5 1531.9,1239.7 1556.3,1243.9 1580.9,1247.0 1605.8,1249.1 1631.0,1250.1 1656.7,1250.0 1683.0,1248.8 1709.8,1246.4 1737.3,1242.8 1765.6,1237.9 1794.8,1231.6 1824.9,1223.8 1856.0,1214.3 1888.3,1203.2 1921.9,1190.1 1956.7,1175.1 1993.1,1157.8 2030.9,1138.2 2070.4,1116.1 2111.7,1091.2 2154.8,1063.3  Z" style="stroke-width: 2.0;  stroke: rgb(230,177,14); fill: rgb(242,205,0);" />
<path d="M 2124.610,1021.136 A 787.050,787.050 0.00 0,1 2142.2,1045.0 L 2142.2,1045.0 2100.4,1073.8 2060.3,1099.5 2021.8,1122.4 1985.0,1142.8 1949.5,1160.7 1915.4,1176.5 1882.6,1190.1 1851.0,1201.9 1820.4,1211.9 1790.8,1220.3 1762.1,1227.1 1734.3,1232.5 1707.1,1236.5 1680.7,1239.3 1654.8,1240.8 1629.3,1241.3 1604.4,1240.6 1579.7,1238.8 1555.4,1235.9 1531.2,1232.0 1507.2,1227.0 1483.2,1220.9 1459.3,1213.6 1435.4,1205.2 1411.3,1195.5 1387.0,1184.4 1362.6,1172.0 1337.9,1158.1 1312.8,1142.5 1287.4,1125.2 1261.6,1106.0 1235.3,1084.8 1208.5,1061.5 1181.2,1035.8 1153.3,1007.5 1124.7,976.5 1095.5,942.6 1065.7,905.4 1035.1,864.9  A 787.050,787.050 0.00 0,1 1051.2,853.4 L 1051.2,853.4 1080.3,894.0 1108.7,931.2 1136.6,965.2 1163.9,996.2 1190.7,1024.5 1217.0,1050.3 1242.8,1073.8 1268.2,1095.0 1293.3,1114.2 1317.9,1131.6 1342.3,1147.1 1366.4,1161.1 1390.3,1173.5 1413.9,1184.5 1437.5,1194.1 1461.0,1202.4 1484.5,1209.6 1508.0,1215.5 1531.5,1220.4 1555.3,1224.1 1579.2,1226.7 1603.4,1228.2 1627.9,1228.5 1652.8,1227.7 1678.2,1225.7 1704.1,1222.5 1730.6,1218.0 1757.8,1212.0 1785.8,1204.6 1814.5,1195.7 1844.2,1185.0 1874.9,1172.5 1906.7,1158.1 1939.6,1141.5 1973.7,1122.7 2009.2,1101.5 2046.1,1077.6 2084.6,1050.9 2124.6,1021.1  Z" style="stroke-width: 2.0;  stroke: rgb(230,177,14); fill: rgb(242,205,0);" />
<path d="M 2085.139,973.635 A 787.050,787.050 0.00 0,1 2110.9,1003.7 L 2110.9,1003.7 2072.1,1034.3 2034.9,1061.7 1999.0,1086.3 1964.5,1108.2 1931.3,1127.7 1899.2,1144.9 1868.2,1159.9 1838.2,1172.9 1809.2,1184.1 1781.0,1193.6 1753.6,1201.5 1726.9,1207.8 1700.8,1212.8 1675.3,1216.4 1650.3,1218.8 1625.7,1219.9 1601.5,1219.8 1577.7,1218.6 1554.0,1216.3 1530.6,1212.8 1507.3,1208.2 1484.1,1202.4 1461.0,1195.5 1437.8,1187.3 1414.5,1177.8 1391.2,1166.9 1367.7,1154.6 1343.9,1140.8 1320.0,1125.3 1295.7,1108.0 1271.2,1088.9 1246.3,1067.7 1221.0,1044.3 1195.3,1018.6 1169.1,990.3 1142.5,959.3 1115.3,925.4 1087.6,888.3 1059.4,847.9  A 787.050,787.050 0.00 0,1 1084.3,831.7 L 1084.3,831.7 1110.4,872.2 1136.0,909.4 1161.3,943.4 1186.2,974.5 1210.7,1002.9 1234.9,1028.8 1258.8,1052.3 1282.3,1073.6 1305.7,1092.8 1328.7,1110.1 1351.6,1125.7 1374.3,1139.6 1396.9,1151.9 1419.3,1162.7 1441.7,1172.2 1464.1,1180.3 1486.4,1187.1 1508.9,1192.7 1531.4,1197.1 1554.1,1200.3 1576.9,1202.4 1600.0,1203.2 1623.4,1202.9 1647.1,1201.3 1671.3,1198.5 1695.9,1194.3 1721.0,1188.7 1746.6,1181.7 1772.9,1173.1 1799.9,1162.9 1827.6,1150.9 1856.2,1137.0 1885.7,1121.1 1916.1,1103.0 1947.5,1082.5 1980.1,1059.5 2013.8,1033.9 2048.8,1005.3 2085.1,973.6  Z" style="stroke-width: 2.0;  stroke: rgb(230,177,14); fill: rgb(242,205,0);" />
<path d="M 2042.066,929.376 A 787.050,787.050 0.00 0,1 2070.1,957.4 L 2070.1,957.4 2035.0,989.7 2001.2,1018.9 1968.6,1045.2 1937.1,1068.8 1906.6,1089.8 1877.0,1108.5 1848.4,1124.9 1820.5,1139.3 1793.5,1151.8 1767.1,1162.5 1741.4,1171.6 1716.3,1179.0 1691.7,1184.9 1667.6,1189.5 1644.0,1192.7 1620.6,1194.6 1597.7,1195.2 1575.0,1194.6 1552.5,1192.8 1530.2,1189.8 1508.0,1185.7 1485.9,1180.2 1463.9,1173.6 1442.0,1165.6 1419.9,1156.3 1397.9,1145.6 1375.7,1133.4 1353.5,1119.6 1331.0,1104.1 1308.4,1086.9 1285.6,1067.7 1262.6,1046.5 1239.2,1023.1 1215.6,997.3 1191.7,969.0 1167.5,937.9 1143.0,904.0 1118.0,866.9 1092.7,826.5  A 787.050,787.050 0.00 0,1 1118.4,811.6 L 1118.4,811.6 1141.6,852.0 1164.6,889.1 1187.3,923.1 1209.8,954.2 1232.1,982.6 1254.1,1008.5 1276.0,1032.0 1297.6,1053.3 1319.2,1072.6 1340.5,1089.9 1361.8,1105.4 1382.9,1119.2 1404.0,1131.4 1425.1,1142.0 1446.1,1151.3 1467.1,1159.1 1488.2,1165.7 1509.3,1170.9 1530.6,1174.9 1552.0,1177.6 1573.5,1179.1 1595.3,1179.3 1617.4,1178.3 1639.7,1176.0 1662.3,1172.3 1685.4,1167.2 1708.9,1160.7 1732.8,1152.7 1757.3,1143.0 1782.3,1131.6 1807.9,1118.4 1834.3,1103.2 1861.3,1085.9 1889.1,1066.4 1917.8,1044.5 1947.4,1020.0 1977.9,992.8 2009.4,962.7 2042.1,929.4  Z" style="stroke-width: 2.0;  stroke: rgb(230,177,14); fill: rgb(242,205,0);" />
<path d="M 1987.926,882.444 A 787.050,787.050 0.00 0,1 2025.8,914.3 L 2025.8,914.3 1994.4,948.2 1964.1,978.9 1934.7,1006.6 1906.1,1031.6 1878.4,1054.1 1851.5,1074.1 1825.3,1091.8 1799.8,1107.5 1774.9,1121.1 1750.5,1133.0 1726.7,1143.1 1703.4,1151.5 1680.5,1158.4 1658.0,1163.8 1635.8,1167.8 1614.0,1170.4 1592.5,1171.7 1571.1,1171.7 1550.0,1170.5 1529.1,1168.0 1508.3,1164.2 1487.5,1159.2 1466.9,1152.8 1446.3,1145.1 1425.7,1136.0 1405.1,1125.5 1384.5,1113.4 1363.8,1099.7 1343.1,1084.3 1322.2,1067.0 1301.2,1047.9 1280.1,1026.6 1258.8,1003.2 1237.4,977.4 1215.7,949.1 1193.9,918.1 1171.9,884.2 1149.6,847.2 1127.1,806.9  A 787.050,787.050 0.00 0,1 1162.4,789.0 L 1162.4,789.0 1182.3,829.3 1202.1,866.3 1221.7,900.2 1241.3,931.3 1260.8,959.7 1280.2,985.6 1299.5,1009.1 1318.7,1030.5 1337.9,1049.7 1357.0,1067.0 1376.1,1082.5 1395.2,1096.2 1414.3,1108.3 1433.4,1118.9 1452.5,1127.9 1471.7,1135.5 1490.9,1141.7 1510.3,1146.6 1529.7,1150.1 1549.3,1152.3 1569.0,1153.2 1588.9,1152.8 1609.1,1151.0 1629.4,1147.9 1650.1,1143.4 1671.1,1137.4 1692.4,1129.9 1714.0,1120.7 1736.1,1109.9 1758.6,1097.4 1781.6,1082.9 1805.2,1066.4 1829.2,1047.8 1853.9,1026.9 1879.3,1003.5 1905.3,977.6 1932.0,948.9 1959.6,917.2 1987.9,882.4  Z" style="stroke-width: 2.0;  stroke: rgb(230,177,14); fill: rgb(242,205,0);" />
<path d="M 1962.360,863.077 A 787.050,787.050 0.00 0,1 1970.3,868.9 L 1970.3,868.9 1943.2,904.2 1916.9,936.3 1891.2,965.4 1866.3,991.8 1841.9,1015.6 1818.2,1036.9 1795.0,1056.0 1772.3,1072.9 1750.1,1087.8 1728.3,1100.7 1706.9,1111.9 1685.9,1121.4 1665.3,1129.2 1645.0,1135.5 1624.9,1140.4 1605.1,1143.8 1585.5,1145.8 1566.1,1146.5 1546.9,1145.8 1527.9,1143.8 1509.0,1140.4 1490.1,1135.7 1471.4,1129.7 1452.7,1122.2 1434.1,1113.3 1415.6,1102.9 1397.0,1090.9 1378.4,1077.3 1359.9,1061.9 1341.3,1044.7 1322.6,1025.5 1304.0,1004.3 1285.2,980.8 1266.5,955.0 1247.6,926.7 1228.7,895.7 1209.7,861.8 1190.6,824.9 1171.4,784.8  A 787.050,787.050 0.00 0,0 1171.4,784.8 L 1171.4,784.8 1190.5,824.8 1209.5,861.6 1228.5,895.4 1247.3,926.3 1266.1,954.5 1284.8,980.2 1303.4,1003.6 1322.0,1024.7 1340.5,1043.8 1359.0,1060.9 1377.5,1076.2 1395.9,1089.7 1414.4,1101.6 1432.9,1111.9 1451.3,1120.7 1469.9,1128.1 1488.5,1134.0 1507.1,1138.5 1525.9,1141.7 1544.8,1143.6 1563.8,1144.2 1583.0,1143.3 1602.4,1141.2 1622.0,1137.6 1641.9,1132.6 1662.0,1126.1 1682.4,1118.1 1703.2,1108.4 1724.3,1097.1 1745.8,1083.9 1767.7,1068.8 1790.0,1051.7 1812.9,1032.4 1836.3,1010.9 1860.2,986.9 1884.7,960.3 1909.9,930.9 1935.8,898.6 1962.4,863.1  Z" style="stroke-width: 2.0;  stroke: rgb(230,177,14); fill: rgb(242,205,0);" />
<path d="M 1936.026,844.768 A 787.050,787.050 0.00 0,1 1944.2,850.3 L 1944.2,850.3 1918.9,886.2 1894.2,919.0 1870.2,948.7 1846.7,975.8 1823.7,1000.2 1801.3,1022.1 1779.4,1041.8 1757.8,1059.3 1736.7,1074.7 1716.0,1088.2 1695.7,1100.0 1675.6,1109.9 1655.9,1118.3 1636.4,1125.1 1617.2,1130.4 1598.2,1134.2 1579.4,1136.6 1560.8,1137.7 1542.3,1137.3 1523.9,1135.7 1505.7,1132.6 1487.6,1128.3 1469.5,1122.5 1451.5,1115.3 1433.6,1106.6 1415.6,1096.4 1397.7,1084.6 1379.8,1071.2 1361.9,1056.0 1344.0,1038.9 1326.0,1019.9 1308.0,998.8 1290.0,975.6 1271.9,949.9 1253.7,921.8 1235.5,890.9 1217.2,857.3 1198.9,820.6 1180.4,780.7  A 787.050,787.050 0.00 0,0 1180.4,780.7 L 1180.4,780.7 1198.8,820.5 1217.1,857.1 1235.3,890.6 1253.5,921.4 1271.5,949.4 1289.5,975.0 1307.5,998.2 1325.4,1019.2 1343.2,1038.1 1361.1,1055.0 1378.9,1070.1 1396.7,1083.5 1414.4,1095.2 1432.2,1105.3 1450.1,1113.8 1467.9,1120.9 1485.8,1126.6 1503.8,1130.8 1521.9,1133.7 1540.1,1135.3 1558.4,1135.5 1576.8,1134.3 1595.4,1131.7 1614.2,1127.7 1633.2,1122.3 1652.5,1115.3 1672.0,1106.8 1691.7,1096.6 1711.8,1084.8 1732.2,1071.0 1753.0,1055.4 1774.2,1037.7 1795.8,1017.9 1817.8,995.7 1840.4,971.1 1863.4,943.9 1887.0,913.9 1911.2,880.9 1936.0,844.8  Z" style="stroke-width: 2.0;  stroke: rgb(230,177,14); fill: rgb(242,205,0);" />
<path d="M 1908.968,827.547 A 787.050,787.050 0.00 0,1 1917.4,832.7 L 1917.4,832.7 1893.8,869.2 1870.8,902.6 1848.4,932.9 1826.4,960.5 1804.8,985.5 1783.7,1008.1 1763.1,1028.3 1742.8,1046.3 1722.8,1062.3 1703.2,1076.3 1683.8,1088.6 1664.8,1099.0 1646.0,1107.9 1627.4,1115.1 1609.1,1120.8 1590.9,1125.0 1572.9,1127.8 1555.1,1129.2 1537.4,1129.3 1519.8,1127.9 1502.3,1125.2 1484.8,1121.1 1467.5,1115.5 1450.2,1108.6 1432.9,1100.1 1415.7,1090.1 1398.4,1078.6 1381.2,1065.3 1364.0,1050.3 1346.7,1033.4 1329.4,1014.5 1312.1,993.6 1294.8,970.5 1277.4,945.0 1259.9,917.0 1242.4,886.4 1224.8,852.9 1207.2,816.4 1189.5,776.8  A 787.050,787.050 0.00 0,0 1189.5,776.8 L 1189.5,776.8 1207.2,816.3 1224.7,852.7 1242.2,886.1 1259.7,916.6 1277.0,944.5 1294.4,969.9 1311.6,993.0 1328.8,1013.8 1346.0,1032.6 1363.1,1049.4 1380.2,1064.3 1397.3,1077.5 1414.4,1089.0 1431.6,1098.9 1448.7,1107.2 1465.8,1114.1 1483.0,1119.5 1500.3,1123.5 1517.6,1126.1 1535.1,1127.3 1552.6,1127.2 1570.2,1125.6 1588.0,1122.7 1606.0,1118.3 1624.1,1112.4 1642.4,1105.0 1661.0,1096.1 1679.7,1085.4 1698.8,1073.0 1718.1,1058.8 1737.7,1042.6 1757.7,1024.4 1778.0,1004.0 1798.7,981.3 1819.9,956.1 1841.4,928.3 1863.4,897.8 1885.9,864.2 1909.0,827.5  Z" style="stroke-width: 2.0;  stroke: rgb(230,177,14); fill: rgb(242,205,0);" />
<path d="M 1872.540,806.702 A 787.050,787.050 0.00 0,1 1889.9,816.3 L 1889.9,816.3 1868.1,853.3 1846.7,887.2 1825.8,918.1 1805.4,946.2 1785.3,971.7 1765.5,994.8 1746.1,1015.5 1727.0,1034.1 1708.3,1050.5 1689.7,1065.1 1671.5,1077.8 1653.5,1088.7 1635.6,1097.9 1618.0,1105.6 1600.6,1111.7 1583.3,1116.3 1566.1,1119.5 1549.1,1121.2 1532.2,1121.6 1515.4,1120.5 1498.6,1118.1 1481.9,1114.2 1465.3,1108.9 1448.7,1102.2 1432.2,1093.9 1415.7,1084.2 1399.1,1072.7 1382.6,1059.6 1366.1,1044.8 1349.5,1028.0 1333.0,1009.3 1316.3,988.6 1299.7,965.6 1283.0,940.2 1266.2,912.4 1249.4,881.9 1232.6,848.6 1215.6,812.4 1198.6,772.9  A 787.050,787.050 0.00 0,1 1207.8,769.2 L 1207.8,769.2 1224.2,808.6 1240.5,844.7 1256.7,878.0 1272.9,908.4 1289.1,936.2 1305.2,961.5 1321.3,984.4 1337.3,1005.2 1353.3,1023.9 1369.3,1040.6 1385.3,1055.4 1401.2,1068.4 1417.2,1079.8 1433.2,1089.5 1449.2,1097.7 1465.2,1104.3 1481.3,1109.5 1497.4,1113.2 1513.5,1115.5 1529.8,1116.5 1546.1,1116.0 1562.5,1114.1 1579.1,1110.7 1595.8,1105.9 1612.6,1099.6 1629.5,1091.7 1646.7,1082.3 1664.0,1071.1 1681.6,1058.2 1699.3,1043.4 1717.3,1026.6 1735.6,1007.8 1754.1,986.8 1773.0,963.5 1792.2,937.7 1811.7,909.3 1831.6,878.1 1851.9,844.0 1872.5,806.7  Z" style="stroke-width: 2.0;  stroke: rgb(230,177,14); fill: rgb(242,205,0);" />
<path d="M 1752.458,754.539 A 787.050,787.050 0.00 0,1 1852.9,796.5 L 1852.9,796.5 1833.4,834.0 1814.3,868.4 1795.5,899.9 1777.1,928.6 1758.9,954.7 1741.1,978.3 1723.5,999.6 1706.1,1018.7 1688.9,1035.8 1672.0,1050.8 1655.3,1064.0 1638.7,1075.5 1622.3,1085.2 1606.1,1093.3 1590.0,1099.8 1574.0,1104.8 1558.2,1108.4 1542.4,1110.5 1526.7,1111.1 1511.1,1110.4 1495.6,1108.2 1480.1,1104.6 1464.6,1099.5 1449.2,1093.0 1433.8,1084.9 1418.4,1075.3 1403.1,1064.0 1387.7,1051.0 1372.3,1036.3 1357.0,1019.6 1341.5,1001.0 1326.1,980.3 1310.7,957.4 1295.2,932.2 1279.6,904.4 1264.0,874.1 1248.4,840.9 1232.7,804.8 1217.0,765.6  A 787.050,787.050 0.00 0,1 1311.4,735.9 L 1311.4,735.9 1321.5,775.1 1331.6,811.2 1341.8,844.4 1352.1,875.0 1362.4,902.9 1372.8,928.4 1383.2,951.5 1393.7,972.5 1404.2,991.4 1414.8,1008.3 1425.4,1023.2 1436.1,1036.4 1446.8,1047.8 1457.5,1057.6 1468.4,1065.7 1479.2,1072.2 1490.1,1077.2 1501.1,1080.6 1512.1,1082.6 1523.2,1083.1 1534.3,1082.0 1545.5,1079.5 1556.8,1075.5 1568.2,1069.9 1579.7,1062.7 1591.2,1053.9 1602.8,1043.5 1614.6,1031.2 1626.4,1017.2 1638.4,1001.3 1650.4,983.4 1662.6,963.4 1675.0,941.2 1687.5,916.6 1700.1,889.7 1712.9,860.1 1725.9,827.9 1739.1,792.7 1752.5,754.5  Z" style="stroke-width: 2.0;  stroke: rgb(230,177,14); fill: rgb(242,205,0);" />
<path d="M 1721.876,744.872 A 787.050,787.050 0.00 0,1 1731.4,747.7 L 1731.4,747.7 1719.2,786.1 1707.1,821.4 1695.2,853.8 1683.5,883.5 1671.9,910.7 1660.4,935.4 1649.0,957.8 1637.8,978.0 1626.6,996.1 1615.6,1012.2 1604.6,1026.4 1593.7,1038.8 1583.0,1049.5 1572.2,1058.4 1561.6,1065.7 1551.0,1071.5 1540.5,1075.6 1530.1,1078.3 1519.7,1079.4 1509.3,1079.1 1499.0,1077.2 1488.8,1073.8 1478.6,1069.0 1468.5,1062.5 1458.3,1054.5 1448.3,1044.8 1438.2,1033.4 1428.3,1020.3 1418.3,1005.4 1408.4,988.6 1398.5,969.7 1388.7,948.8 1378.9,925.7 1369.1,900.2 1359.4,872.4 1349.7,841.9 1340.1,808.7 1330.5,772.7 1321.0,733.6  A 787.050,787.050 0.00 0,0 1321.0,733.6 L 1321.0,733.6 1330.5,772.6 1340.0,808.6 1349.6,841.7 1359.2,872.1 1368.9,900.0 1378.5,925.4 1388.2,948.4 1397.9,969.3 1407.7,988.1 1417.5,1004.9 1427.3,1019.8 1437.1,1032.8 1447.0,1044.1 1456.9,1053.7 1466.8,1061.7 1476.7,1068.1 1486.7,1072.9 1496.8,1076.2 1506.8,1078.0 1516.9,1078.3 1527.1,1077.1 1537.3,1074.3 1547.5,1070.1 1557.8,1064.3 1568.2,1056.9 1578.6,1047.8 1589.1,1037.1 1599.7,1024.6 1610.3,1010.3 1621.0,994.1 1631.8,975.9 1642.7,955.6 1653.7,933.1 1664.7,908.3 1675.9,881.1 1687.2,851.2 1698.6,818.7 1710.2,783.3 1721.9,744.9  Z" style="stroke-width: 2.0;  stroke: rgb(230,177,14); fill: rgb(242,205,0);" />
<path d="M 1690.925,736.459 A 787.050,787.050 0.00 0,1 1700.5,738.9 L 1700.5,738.9 1690.0,777.5 1679.6,813.0 1669.3,845.7 1659.0,875.7 1648.9,903.1 1638.8,928.0 1628.8,950.7 1618.9,971.1 1609.0,989.5 1599.2,1005.9 1589.5,1020.3 1579.8,1033.0 1570.2,1043.8 1560.6,1053.0 1551.1,1060.6 1541.6,1066.5 1532.1,1070.9 1522.7,1073.7 1513.3,1075.0 1504.0,1074.8 1494.7,1073.1 1485.4,1069.9 1476.1,1065.2 1466.9,1058.8 1457.6,1050.9 1448.4,1041.4 1439.3,1030.1 1430.1,1017.1 1421.0,1002.2 1411.9,985.5 1402.8,966.7 1393.7,945.9 1384.6,922.9 1375.6,897.5 1366.5,869.7 1357.5,839.3 1348.6,806.3 1339.6,770.3 1330.7,731.4  A 787.050,787.050 0.00 0,0 1330.7,731.4 L 1330.7,731.4 1339.6,770.3 1348.5,806.2 1357.4,839.2 1366.4,869.5 1375.3,897.3 1384.3,922.6 1393.2,945.6 1402.2,966.4 1411.2,985.1 1420.1,1001.8 1429.1,1016.6 1438.1,1029.5 1447.1,1040.8 1456.1,1050.3 1465.2,1058.1 1474.2,1064.4 1483.3,1069.1 1492.3,1072.3 1501.4,1073.9 1510.6,1074.0 1519.7,1072.7 1528.9,1069.7 1538.0,1065.3 1547.3,1059.3 1556.5,1051.7 1565.8,1042.4 1575.1,1031.5 1584.5,1018.8 1593.9,1004.2 1603.3,987.8 1612.8,969.3 1622.4,948.8 1632.0,926.1 1641.6,901.0 1651.3,873.5 1661.1,843.5 1671.0,810.7 1680.9,775.1 1690.9,736.5  Z" style="stroke-width: 2.0;  stroke: rgb(230,177,14); fill: rgb(242,205,0);" />
<path d="M 1659.658,729.314 A 787.050,787.050 0.00 0,1 1669.3,731.4 L 1669.3,731.4 1660.5,770.1 1651.7,805.8 1642.9,838.7 1634.2,868.9 1625.5,896.5 1616.9,921.7 1608.3,944.5 1599.7,965.2 1591.1,983.8 1582.6,1000.4 1574.1,1015.0 1565.6,1027.9 1557.2,1038.9 1548.8,1048.3 1540.4,1056.0 1532.0,1062.2 1523.6,1066.7 1515.2,1069.7 1506.9,1071.2 1498.5,1071.1 1490.2,1069.5 1481.9,1066.4 1473.5,1061.8 1465.2,1055.6 1456.9,1047.7 1448.6,1038.3 1440.3,1027.1 1432.0,1014.1 1423.7,999.4 1415.4,982.7 1407.1,964.0 1398.7,943.2 1390.4,920.2 1382.1,895.0 1373.8,867.2 1365.4,837.0 1357.1,804.0 1348.7,768.2 1340.3,729.3  A 787.050,787.050 0.00 0,0 1340.3,729.3 L 1340.3,729.3 1348.7,768.1 1357.0,803.9 1365.3,836.8 1373.6,867.1 1381.8,894.7 1390.1,920.0 1398.3,942.9 1406.5,963.7 1414.7,982.3 1422.8,999.0 1431.0,1013.7 1439.1,1026.6 1447.3,1037.7 1455.4,1047.2 1463.5,1055.0 1471.6,1061.1 1479.7,1065.7 1487.8,1068.8 1495.9,1070.3 1504.1,1070.3 1512.2,1068.8 1520.3,1065.7 1528.4,1061.1 1536.5,1055.0 1544.6,1047.2 1552.7,1037.7 1560.9,1026.6 1569.0,1013.7 1577.2,999.0 1585.3,982.3 1593.5,963.7 1601.7,942.9 1609.9,920.0 1618.2,894.7 1626.4,867.1 1634.7,836.8 1643.0,803.9 1651.3,768.1 1659.7,729.3  Z" style="stroke-width: 2.0;  stroke: rgb(230,177,14); fill: rgb(242,205,0);" />
<path d="M 1500.000,712.950 A 787.050,787.050 0.00 0,1 1637.9,725.1 L 1637.9,725.1 1630.7,764.0 1623.5,799.8 1616.3,832.9 1609.1,863.2 1601.9,891.0 1594.7,916.3 1587.4,939.4 1580.2,960.2 1573.0,979.0 1565.7,995.7 1558.5,1010.5 1551.2,1023.5 1544.0,1034.8 1536.7,1044.3 1529.5,1052.2 1522.2,1058.4 1514.9,1063.1 1507.6,1066.2 1500.3,1067.8 1493.0,1067.9 1485.6,1066.4 1478.3,1063.4 1470.9,1058.8 1463.6,1052.7 1456.2,1044.9 1448.8,1035.5 1441.3,1024.4 1433.9,1011.5 1426.4,996.8 1418.9,980.2 1411.4,961.5 1403.8,940.8 1396.3,917.9 1388.6,892.6 1381.0,865.0 1373.3,834.8 1365.6,801.9 1357.8,766.1 1350.0,727.4  A 787.050,787.050 0.00 0,1 1477.8,713.3 L 1477.8,713.3 1478.9,752.1 1480.0,788.0 1481.1,821.0 1482.0,851.4 1483.0,879.3 1483.9,904.8 1484.8,927.9 1485.7,948.9 1486.5,967.8 1487.3,984.7 1488.1,999.6 1488.9,1012.7 1489.6,1024.0 1490.3,1033.6 1491.0,1041.6 1491.6,1047.9 1492.3,1052.5 1492.9,1055.7 1493.5,1057.2 1494.0,1057.2 1494.6,1055.6 1495.1,1052.5 1495.6,1047.8 1496.1,1041.5 1496.6,1033.6 1497.0,1023.9 1497.4,1012.6 1497.8,999.5 1498.1,984.5 1498.5,967.6 1498.8,948.7 1499.0,927.7 1499.3,904.6 1499.5,879.1 1499.7,851.2 1499.8,820.8 1499.9,787.7 1500.0,751.8 1500.0,713.0  Z" style="stroke-width: 2.0;  stroke: rgb(230,177,14); fill: rgb(242,205,0);" />
</g>
<g id="plot0">
<g id="plot0-axis">
</g>
</g>
<defs>
<pattern id="vline-sparse" width="10" height="10" patternTransform="rotate(0 0 0)" patternUnits="userSpaceOnUse"><line x1="0" y1="0" x2="0" y2="10" style="stroke:black;stroke-width:2" /></pattern>
<pattern id="hline-sparse" width="10" height="10" patternTransform="rotate(0 0 0)" patternUnits="userSpaceOnUse"><line x1="0" y1="0" x2="10" y2="0" style="stroke:black;stroke-width:2" /></pattern>
<pattern id="checker" width="10" height="10" patternTransform="rotate(45 0 0)" patternUnits="userSpaceOnUse"><line x1="0" y1="0" x2="10" y2="0" style="stroke:black;stroke-width:5" /><line x1="0" y1="0" x2="0" y2="10" style="stroke:black;stroke-width:4" /></pattern>
<pattern id="checker" width="10" height="10" patternTransform="rotate(45 0 0)" patternUnits="userSpaceOnUse"><line x1="0" y1="0" x2="10" y2="0" style="stroke:black;stroke-width:2" /><line x1="0" y1="0" x2="0" y2="10" style="stroke:black;stroke-width:2" /></pattern>
<pattern id="hline" width="10" height="10" patternTransform="rotate(0 0 0)" patternUnits="userSpaceOnUse"><line x1="0" y1="0" x2="10" y2="0" style="stroke:black;stroke-width:5" /></pattern>
<pattern id="vline" width="10" height="10" patternTransform="rotate(0 0 0)" patternUnits="userSpaceOnUse"><line x1="0" y1="0" x2="0" y2="10" style="stroke:black;stroke-width:5" /></pattern>
</defs>
</svg>
