<?xml version="1.0" encoding="utf-8" standalone="no"?>
<!DOCTYPE svg PUBLIC "-//W3C//DTD SVG 1.1//EN" "http://www.w3.org/Graphics/SVG/1.1/DTD/svg11.dtd">
<svg width="3000px" height="3000px" version="1.1" xmlns="http://www.w3.org/2000/svg" xmlns:xlink="http://www.w3.org/1999/xlink">
<g id="ideograms">
<path d="M1500.000,705.000 A795.000,795.000 40.000 0,1 1623.731,714.688 L1647.077,566.515 A945.000,945.000 0.000 0,0 1500.000,555.000 Z" style="stroke-linecap:round;fill:rgb(0,0,0);" />
<text x="1595.6" y="509.6" font-size="39.0px" font-family="CMUBright-Roman" style="text-anchor:start;fill:rgb(0,0,0);" transform="rotate(274.5,1595.6,509.6)" >Spanish</text>
<path d="M1645.905,718.504 A795.000,795.000 40.000 0,1 1713.118,734.098 L1753.329,589.588 A945.000,945.000 0.000 0,0 1673.435,571.051 Z" style="stroke-linecap:round;fill:rgb(0,0,0);" />
<text x="1742.4" y="535.0" font-size="39.0px" font-family="CMUBright-Roman" style="text-anchor:start;fill:rgb(0,0,0);" transform="rotate(283.1,1742.4,535.0)" >Psychology</text>
<path d="M1734.707,740.436 A795.000,795.000 40.000 0,1 1760.938,749.043 L1810.171,607.353 A945.000,945.000 0.000 0,0 1778.992,597.122 Z" style="stroke-linecap:round;fill:rgb(0,0,0);" />
<text x="1824.4" y="559.4" font-size="39.0px" font-family="CMUBright-Roman" style="text-anchor:start;fill:rgb(0,0,0);" transform="rotate(288.2,1824.4,559.4)" >Political-Science</text>
<path d="M1782.085,756.728 A795.000,795.000 40.000 0,1 1882.283,802.946 L1954.412,671.426 A945.000,945.000 0.000 0,0 1835.308,616.488 Z" style="stroke-linecap:round;fill:rgb(0,0,0);" />
<text x="1933.0" y="604.2" font-size="39.0px" font-family="CMUBright-Roman" style="text-anchor:start;fill:rgb(0,0,0);" transform="rotate(294.8,1933.0,604.2)" >Physics</text>
<path d="M1901.855,814.043 A795.000,795.000 40.000 0,1 1959.821,851.471 L2046.579,729.107 A945.000,945.000 0.000 0,0 1977.677,684.617 Z" style="stroke-linecap:round;fill:rgb(0,0,0);" />
<text x="2054.8" y="674.0" font-size="39.0px" font-family="CMUBright-Roman" style="text-anchor:start;fill:rgb(0,0,0);" transform="rotate(302.9,2054.8,674.0)" >Philosophy</text>
<path d="M1977.989,864.743 A795.000,795.000 40.000 0,1 1988.947,873.138 L2081.201,754.862 A945.000,945.000 0.000 0,0 2068.176,744.883 Z" style="stroke-linecap:round;fill:rgb(0,0,0);" />
<text x="2116.6" y="719.1" font-size="39.0px" font-family="CMUBright-Roman" style="text-anchor:start;fill:rgb(0,0,0);" transform="rotate(307.5,2116.6,719.1)" >Performance.Music</text>
<path d="M2006.490,887.226 A795.000,795.000 40.000 0,1 2047.795,923.853 L2151.152,815.146 A945.000,945.000 0.000 0,0 2102.055,771.608 Z" style="stroke-linecap:round;fill:rgb(0,0,0);" />
<text x="2170.9" y="765.2" font-size="39.0px" font-family="CMUBright-Roman" style="text-anchor:start;fill:rgb(0,0,0);" transform="rotate(311.6,2170.9,765.2)" >Mathematics</text>
<path d="M2063.880,939.585 A795.000,795.000 40.000 0,1 2073.525,949.460 L2181.737,845.585 A945.000,945.000 0.000 0,0 2170.272,833.847 Z" style="stroke-linecap:round;fill:rgb(0,0,0);" />
<text x="2225.6" y="819.2" font-size="39.0px" font-family="CMUBright-Roman" style="text-anchor:start;fill:rgb(0,0,0);" transform="rotate(315.7,2225.6,819.2)" >Kinesiology.Sports/Exercises</text>
<path d="M2088.875,965.911 A795.000,795.000 40.000 0,1 2098.060,976.216 L2210.901,877.389 A945.000,945.000 0.000 0,0 2199.984,865.139 Z" style="stroke-linecap:round;fill:rgb(0,0,0);" />
<text x="2254.6" y="851.5" font-size="39.0px" font-family="CMUBright-Roman" style="text-anchor:start;fill:rgb(0,0,0);" transform="rotate(318.3,2254.6,851.5)" >Kinesiology.Sports-Medicine</text>
<path d="M2112.642,993.350 A795.000,795.000 40.000 0,1 2121.347,1004.064 L2238.582,910.491 A945.000,945.000 0.000 0,0 2228.235,897.756 Z" style="stroke-linecap:round;fill:rgb(0,0,0);" />
<text x="2283.5" y="886.6" font-size="39.0px" font-family="CMUBright-Roman" style="text-anchor:start;fill:rgb(0,0,0);" transform="rotate(320.9,2283.5,886.6)" >History</text>
<path d="M2135.133,1021.846 A795.000,795.000 40.000 0,1 2174.201,1078.718 L2301.408,999.231 A945.000,945.000 0.000 0,0 2254.969,931.628 Z" style="stroke-linecap:round;fill:rgb(0,0,0);" />
<text x="2330.2" y="951.5" font-size="39.0px" font-family="CMUBright-Roman" style="text-anchor:start;fill:rgb(0,0,0);" transform="rotate(325.5,2330.2,951.5)" >Geology</text>
<path d="M2185.852,1097.966 A795.000,795.000 40.000 0,1 2205.855,1134.222 L2339.035,1065.207 A945.000,945.000 0.000 0,0 2315.259,1022.110 Z" style="stroke-linecap:round;fill:rgb(0,0,0);" />
<text x="2378.1" y="1032.1" font-size="39.0px" font-family="CMUBright-Roman" style="text-anchor:start;fill:rgb(0,0,0);" transform="rotate(331.1,2378.1,1032.1)" >French</text>
<path d="M2215.923,1154.343 A795.000,795.000 40.000 0,1 2221.817,1166.826 L2358.009,1103.962 A945.000,945.000 0.000 0,0 2351.003,1089.125 Z" style="stroke-linecap:round;fill:rgb(0,0,0);" />
<text x="2406.1" y="1088.8" font-size="39.0px" font-family="CMUBright-Roman" style="text-anchor:start;fill:rgb(0,0,0);" transform="rotate(334.7,2406.1,1088.8)" >Environmental-Geoscience</text>
<path d="M2230.956,1187.386 A795.000,795.000 40.000 0,1 2241.370,1212.953 L2381.251,1158.793 A945.000,945.000 0.000 0,0 2368.873,1128.402 Z" style="stroke-linecap:round;fill:rgb(0,0,0);" />
<text x="2428.1" y="1141.4" font-size="39.0px" font-family="CMUBright-Roman" style="text-anchor:start;fill:rgb(0,0,0);" transform="rotate(337.8,2428.1,1141.4)" >English-Writing</text>
<path d="M2249.196,1234.048 A795.000,795.000 40.000 0,1 2253.701,1247.096 L2395.908,1199.378 A945.000,945.000 0.000 0,0 2390.554,1183.868 Z" style="stroke-linecap:round;fill:rgb(0,0,0);" />
<text x="2446.2" y="1192.4" font-size="39.0px" font-family="CMUBright-Roman" style="text-anchor:start;fill:rgb(0,0,0);" transform="rotate(341.0,2446.2,1192.4)" >English-Literature</text>
<path d="M2260.556,1268.526 A795.000,795.000 40.000 0,1 2293.069,1444.622 L2442.705,1434.173 A945.000,945.000 0.000 0,0 2404.057,1224.852 Z" style="stroke-linecap:round;fill:rgb(0,0,0);" />
<text x="2481.6" y="1337.1" font-size="39.0px" font-family="CMUBright-Roman" style="text-anchor:start;fill:rgb(0,0,0);" transform="rotate(349.5,2481.6,1337.1)" >Computer-Science</text>
<path d="M2294.318,1467.087 A795.000,795.000 40.000 0,1 2294.770,1480.883 L2444.727,1477.276 A945.000,945.000 0.000 0,0 2444.190,1460.877 Z" style="stroke-linecap:round;fill:rgb(0,0,0);" />
<text x="2494.8" y="1482.4" font-size="39.0px" font-family="CMUBright-Roman" style="text-anchor:start;fill:rgb(0,0,0);" transform="rotate(358.1,2494.8,1482.4)" >Classical-Civilization</text>
<path d="M2294.993,1503.382 A795.000,795.000 40.000 0,1 2279.894,1654.242 L2427.044,1683.344 A945.000,945.000 0.000 0,0 2444.991,1504.020 Z" style="stroke-linecap:round;fill:rgb(0,0,0);" />
<text x="2488.1" y="1617.0" font-size="39.0px" font-family="CMUBright-Roman" style="text-anchor:start;fill:rgb(0,0,0);" transform="rotate(5.7,2488.1,1617.0)" >Chemistry</text>
<path d="M2275.217,1676.250 A795.000,795.000 40.000 0,1 2004.466,2114.442 L2099.648,2230.375 A945.000,945.000 0.000 0,0 2421.484,1709.505 Z" style="stroke-linecap:round;fill:rgb(0,0,0);" />
<text x="2336.9" y="2038.2" font-size="39.0px" font-family="CMUBright-Roman" style="text-anchor:start;fill:rgb(0,0,0);" transform="rotate(31.7,2336.9,2038.2)" >Biology</text>
<path d="M1986.876,2128.472 A795.000,795.000 40.000 0,1 1335.007,2277.690 L1303.877,2424.424 A945.000,945.000 0.000 0,0 2078.739,2247.051 Z" style="stroke-linecap:round;fill:rgb(0,0,0);" />
<text x="1704.4" y="2473.8" font-size="39.0px" font-family="CMUBright-Roman" style="text-anchor:start;fill:rgb(0,0,0);" transform="rotate(77.1,1704.4,2473.8)" >Biochemistry</text>
<path d="M1313.066,2272.710 A795.000,795.000 40.000 0,1 1299.677,2269.348 L1261.881,2414.508 A945.000,945.000 0.000 0,0 1277.795,2418.504 Z" style="stroke-linecap:round;fill:rgb(0,0,0);" />
<text x="1272.2" y="2468.6" font-size="39.0px" font-family="CMUBright-Roman" style="text-anchor:end;fill:rgb(0,0,0);" transform="rotate(-75.9,1272.2,2468.6)" >Art-Studio</text>
<path d="M1277.986,2263.371 A795.000,795.000 40.000 0,1 1477.502,705.318 L1473.258,555.378 A945.000,945.000 0.000 0,0 1236.097,2407.403 Z" style="stroke-linecap:round;fill:rgb(0,48,135);" />
<text x="511.3" y="1388.5" font-size="39.0px" font-family="CMUBright-Roman" style="text-anchor:end;fill:rgb(0,0,0);" transform="rotate(7.3,511.3,1388.5)" >Science-Research-Fellows</text>
</g>
<g id="track_0">
<path d="M 1280.206,2255.737 A 787.050,787.050 0.00 0,1 1267.1,2251.8 L 1267.1,2251.8 1278.7,2214.7 1289.4,2180.4 1299.4,2148.9 1308.7,2119.9 1317.4,2093.4 1325.4,2069.2 1332.7,2047.2 1339.5,2027.3 1345.8,2009.4 1351.5,1993.5 1356.7,1979.4 1361.4,1967.1 1365.6,1956.5 1369.4,1947.6 1372.8,1940.3 1375.6,1934.5 1378.1,1930.3 1380.2,1927.7 1381.8,1926.5 1383.0,1926.9 1383.9,1928.7 1384.3,1932.0 1384.2,1936.9 1383.8,1943.3 1382.9,1951.3 1381.6,1960.9 1379.8,1972.1 1377.5,1985.1 1374.8,1999.9 1371.5,2016.5 1367.7,2035.0 1363.4,2055.6 1358.5,2078.3 1352.9,2103.2 1346.7,2130.4 1339.9,2160.0 1332.3,2192.3 1324.0,2227.2 1314.9,2265.0  A 787.050,787.050 0.00 0,1 1301.7,2261.7 L 1301.7,2261.7 1311.4,2224.1 1320.4,2189.3 1328.7,2157.3 1336.2,2127.8 1343.1,2100.8 1349.3,2076.1 1354.9,2053.6 1359.9,2033.2 1364.4,2014.8 1368.3,1998.4 1371.7,1983.8 1374.7,1971.0 1377.1,1959.9 1379.1,1950.5 1380.7,1942.7 1381.8,1936.5 1382.5,1931.8 1382.8,1928.7 1382.6,1927.0 1382.1,1926.9 1381.1,1928.2 1379.7,1931.1 1377.9,1935.4 1375.7,1941.4 1373.1,1948.8 1370.0,1958.0 1366.4,1968.7 1362.4,1981.2 1357.8,1995.5 1352.8,2011.6 1347.2,2029.7 1341.1,2049.8 1334.4,2072.0 1327.1,2096.4 1319.1,2123.1 1310.5,2152.3 1301.2,2184.0 1291.1,2218.4 1280.2,2255.7  Z" style="stroke-width: 2.0;  stroke: rgb(230,177,14); fill: rgb(242,205,0);" />
<path d="M 1254.099,2247.650 A 787.050,787.050 0.00 0,1 775.8,1808.1 L 775.8,1808.1 826.0,1787.5 873.8,1769.5 919.1,1753.8 962.2,1740.4 1003.2,1728.9 1042.2,1719.4 1079.4,1711.5 1115.0,1705.2 1149.0,1700.3 1181.6,1696.8 1212.9,1694.5 1243.0,1693.4 1272.1,1693.4 1300.3,1694.4 1327.7,1696.3 1354.3,1699.2 1380.4,1703.0 1406.0,1707.7 1431.2,1713.2 1456.1,1719.7 1480.8,1727.2 1505.4,1735.5 1530.0,1744.9 1554.7,1755.4 1579.6,1767.1 1604.6,1780.0 1630.0,1794.2 1655.8,1809.9 1682.0,1827.1 1708.7,1846.1 1736.1,1866.9 1764.0,1889.7 1792.7,1914.8 1822.1,1942.2 1852.3,1972.1 1883.3,2004.9 1915.3,2040.7 1948.2,2079.7 1982.0,2122.2  A 787.050,787.050 0.00 0,1 1336.7,2269.9 L 1336.7,2269.9 1344.6,2231.8 1351.9,2196.6 1358.4,2164.1 1364.2,2134.2 1369.3,2106.7 1373.8,2081.6 1377.7,2058.6 1381.1,2037.8 1383.9,2019.0 1386.1,2002.2 1387.9,1987.2 1389.2,1973.9 1390.0,1962.4 1390.4,1952.6 1390.4,1944.4 1389.9,1937.7 1389.0,1932.7 1387.7,1929.1 1386.0,1927.0 1383.9,1926.4 1381.3,1927.4 1378.4,1929.8 1375.1,1933.8 1371.3,1939.3 1367.2,1946.3 1362.5,1955.0 1357.5,1965.4 1351.9,1977.5 1345.9,1991.3 1339.4,2007.1 1332.4,2024.7 1324.8,2044.4 1316.7,2066.2 1307.9,2090.2 1298.6,2116.5 1288.5,2145.3 1277.8,2176.7 1266.3,2210.7 1254.1,2247.7  Z" style="stroke-width: 2.0;  stroke: rgb(230,177,14); fill: rgb(242,205,0);" />
<path d="M 770.523,1795.484 A 787.050,787.050 0.00 0,1 738.9,1299.5 L 738.9,1299.5 813.4,1319.1 882.3,1337.2 946.0,1353.8 1004.6,1369.1 1058.5,1383.2 1108.1,1396.0 1153.6,1407.8 1195.3,1418.6 1233.5,1428.4 1268.6,1437.4 1300.8,1445.6 1330.4,1453.2 1357.7,1460.1 1383.1,1466.5 1406.8,1472.5 1429.1,1478.1 1450.4,1483.4 1471.0,1488.5 1491.0,1493.4 1511.0,1498.3 1531.1,1503.2 1551.6,1508.2 1573.0,1513.4 1595.4,1518.7 1619.2,1524.4 1644.6,1530.5 1672.1,1537.0 1701.8,1544.0 1734.1,1551.6 1769.4,1559.9 1807.8,1568.8 1849.7,1578.6 1895.5,1589.2 1945.4,1600.7 1999.7,1613.3 2058.8,1626.8 2122.9,1641.5 2192.4,1657.4 2267.5,1674.5  A 787.050,787.050 0.00 0,1 1999.4,2108.3 L 1999.4,2108.3 1963.9,2066.2 1929.6,2027.6 1896.3,1992.2 1864.0,1959.9 1832.7,1930.3 1802.3,1903.2 1772.7,1878.6 1743.9,1856.1 1715.9,1835.6 1688.5,1816.9 1661.8,1800.0 1635.5,1784.6 1609.7,1770.6 1584.3,1757.9 1559.1,1746.5 1534.1,1736.2 1509.3,1727.0 1484.5,1718.7 1459.5,1711.5 1434.4,1705.1 1409.1,1699.6 1383.3,1694.9 1357.1,1691.1 1330.2,1688.3 1302.7,1686.3 1274.3,1685.2 1244.9,1685.1 1214.5,1686.1 1182.9,1688.2 1149.9,1691.5 1115.5,1696.1 1079.5,1702.1 1041.7,1709.6 1002.1,1718.8 960.4,1729.9 916.6,1742.9 870.4,1758.0 821.8,1775.5 770.5,1795.5  Z" style="stroke-width: 2.0;  stroke: rgb(230,177,14); fill: rgb(242,205,0);" />
<path d="M 742.513,1286.315 A 787.050,787.050 0.00 0,1 790.8,1158.7 L 790.8,1158.7 853.5,1188.5 912.1,1215.7 967.0,1240.5 1018.2,1263.1 1066.1,1283.7 1110.8,1302.4 1152.6,1319.4 1191.6,1334.8 1228.1,1348.7 1262.2,1361.4 1294.3,1372.9 1324.5,1383.3 1353.1,1392.8 1380.2,1401.4 1406.2,1409.3 1431.2,1416.5 1455.4,1423.2 1479.2,1429.4 1502.6,1435.1 1526.0,1440.5 1549.6,1445.6 1573.7,1450.4 1598.4,1455.1 1624.0,1459.5 1650.8,1463.7 1679.0,1467.8 1708.9,1471.8 1740.6,1475.7 1774.4,1479.4 1810.7,1483.0 1849.6,1486.4 1891.4,1489.6 1936.4,1492.6 1984.8,1495.4 2036.8,1497.8 2092.8,1499.9 2153.0,1501.6 2217.7,1502.7 2287.0,1503.3  A 787.050,787.050 0.00 0,1 2272.1,1652.7 L 2272.1,1652.7 2197.4,1637.9 2128.2,1624.0 2064.3,1611.1 2005.4,1599.1 1951.2,1588.0 1901.3,1577.7 1855.5,1568.1 1813.4,1559.3 1774.8,1551.1 1739.3,1543.5 1706.7,1536.5 1676.6,1529.9 1648.8,1523.8 1623.0,1518.0 1598.8,1512.6 1575.9,1507.4 1554.2,1502.4 1533.1,1497.5 1512.6,1492.6 1492.2,1487.7 1471.6,1482.7 1450.6,1477.6 1429.0,1472.2 1406.2,1466.5 1382.2,1460.4 1356.5,1453.8 1329.0,1446.6 1299.2,1438.9 1267.0,1430.4 1231.9,1421.1 1193.8,1410.9 1152.3,1399.7 1107.1,1387.4 1057.9,1374.0 1004.5,1359.4 946.6,1343.4 883.8,1325.9 815.9,1306.9 742.5,1286.3  Z" style="stroke-width: 2.0;  stroke: rgb(230,177,14); fill: rgb(242,205,0);" />
<path d="M 796.854,1146.400 A 787.050,787.050 0.00 0,0 796.9,1146.4 L 796.9,1146.4 858.0,1176.7 915.3,1204.4 969.0,1229.6 1019.3,1252.6 1066.4,1273.4 1110.4,1292.3 1151.7,1309.5 1190.4,1325.0 1226.6,1339.1 1260.7,1351.8 1292.8,1363.3 1323.1,1373.7 1351.9,1383.2 1379.3,1391.8 1405.5,1399.6 1430.9,1406.8 1455.6,1413.3 1479.7,1419.4 1503.7,1424.9 1527.6,1430.1 1551.7,1434.9 1576.2,1439.3 1601.4,1443.5 1627.4,1447.5 1654.6,1451.1 1683.1,1454.6 1713.2,1457.8 1745.1,1460.8 1779.1,1463.5 1815.4,1465.9 1854.2,1468.1 1895.9,1469.8 1940.5,1471.2 1988.5,1472.1 2040.0,1472.5 2095.3,1472.3 2154.6,1471.5 2218.2,1469.9 2286.4,1467.4  A 787.050,787.050 0.00 0,1 2286.8,1481.1 L 2286.8,1481.1 2218.3,1482.4 2154.4,1482.9 2094.8,1482.8 2039.3,1482.1 1987.7,1480.9 1939.6,1479.2 1894.8,1477.2 1853.2,1474.8 1814.3,1472.2 1778.0,1469.3 1744.1,1466.1 1712.2,1462.7 1682.2,1459.2 1653.8,1455.4 1626.8,1451.4 1600.8,1447.2 1575.8,1442.8 1551.4,1438.1 1527.5,1433.1 1503.7,1427.8 1480.0,1422.1 1455.9,1415.9 1431.4,1409.2 1406.2,1401.9 1380.1,1393.9 1352.8,1385.2 1324.1,1375.5 1293.9,1365.0 1261.8,1353.3 1227.8,1340.4 1191.5,1326.2 1152.8,1310.5 1111.5,1293.2 1067.3,1274.2 1020.1,1253.2 969.7,1230.1 915.8,1204.7 858.2,1176.9 796.9,1146.4  Z" style="stroke-width: 2.0;  stroke: rgb(230,177,14); fill: rgb(242,205,0);" />
<path d="M 803.099,1134.244 A 787.050,787.050 0.00 0,1 893.8,998.0 L 893.8,998.0 940.2,1035.6 984.4,1069.9 1026.6,1101.1 1066.9,1129.6 1105.3,1155.5 1142.1,1178.9 1177.2,1200.2 1210.9,1219.5 1243.3,1237.0 1274.3,1252.8 1304.3,1267.1 1333.2,1279.9 1361.3,1291.5 1388.7,1301.9 1415.4,1311.3 1441.6,1319.7 1467.5,1327.2 1493.2,1333.9 1518.8,1339.8 1544.5,1344.9 1570.4,1349.4 1596.7,1353.1 1623.4,1356.2 1650.9,1358.6 1679.2,1360.3 1708.4,1361.2 1738.8,1361.3 1770.5,1360.6 1803.6,1359.0 1838.4,1356.5 1874.9,1352.8 1913.4,1348.0 1954.1,1342.0 1997.1,1334.5 2042.5,1325.5 2090.7,1314.7 2141.7,1302.2 2195.7,1287.6 2253.0,1270.8  A 787.050,787.050 0.00 0,1 2285.1,1445.2 L 2285.1,1445.2 2217.9,1449.5 2155.1,1452.8 2096.4,1455.1 2041.7,1456.6 1990.7,1457.4 1943.1,1457.6 1898.7,1457.2 1857.3,1456.2 1818.5,1454.9 1782.3,1453.1 1748.2,1450.9 1716.2,1448.4 1686.0,1445.6 1657.3,1442.5 1629.9,1439.1 1603.6,1435.4 1578.1,1431.4 1553.3,1427.1 1528.9,1422.4 1504.7,1417.3 1480.5,1411.8 1456.0,1405.8 1431.1,1399.3 1405.6,1392.1 1379.1,1384.2 1351.6,1375.5 1322.7,1365.9 1292.4,1355.3 1260.4,1343.6 1226.5,1330.6 1190.4,1316.3 1152.1,1300.5 1111.3,1283.1 1067.8,1263.8 1021.4,1242.6 971.9,1219.2 919.1,1193.5 862.9,1165.2 803.1,1134.2  Z" style="stroke-width: 2.0;  stroke: rgb(230,177,14); fill: rgb(242,205,0);" />
<path d="M 902.640,987.546 A 787.050,787.050 0.00 0,0 902.6,987.5 L 902.6,987.5 947.5,1025.2 990.5,1059.6 1031.5,1090.9 1070.8,1119.4 1108.3,1145.3 1144.3,1168.7 1178.9,1190.0 1212.0,1209.3 1243.9,1226.7 1274.6,1242.4 1304.3,1256.6 1333.1,1269.3 1361.1,1280.8 1388.3,1291.1 1415.0,1300.3 1441.3,1308.5 1467.3,1315.7 1493.0,1322.1 1518.7,1327.7 1544.5,1332.5 1570.5,1336.5 1596.8,1339.8 1623.7,1342.4 1651.1,1344.2 1679.3,1345.2 1708.5,1345.4 1738.7,1344.8 1770.1,1343.3 1802.9,1340.7 1837.3,1337.1 1873.3,1332.3 1911.1,1326.3 1951.0,1318.8 1993.0,1309.9 2037.4,1299.2 2084.3,1286.8 2133.9,1272.3 2186.3,1255.7 2241.7,1236.7  A 787.050,787.050 0.00 0,1 2246.2,1249.6 L 2246.2,1249.6 2190.1,1267.7 2137.2,1283.6 2087.2,1297.3 2039.9,1309.0 1995.1,1319.0 1952.8,1327.4 1912.7,1334.3 1874.6,1339.8 1838.4,1344.1 1803.9,1347.2 1771.0,1349.4 1739.5,1350.5 1709.2,1350.8 1680.1,1350.2 1651.8,1348.9 1624.4,1346.8 1597.6,1344.0 1571.3,1340.4 1545.3,1336.1 1519.6,1331.1 1493.9,1325.3 1468.2,1318.7 1442.3,1311.3 1416.1,1302.9 1389.4,1293.5 1362.2,1283.1 1334.2,1271.5 1305.5,1258.5 1275.8,1244.2 1245.0,1228.3 1213.1,1210.7 1179.9,1191.3 1145.3,1169.8 1109.2,1146.2 1071.5,1120.1 1032.1,1091.4 990.9,1060.0 947.8,1025.4 902.6,987.5  Z" style="stroke-width: 2.0;  stroke: rgb(230,177,14); fill: rgb(242,205,0);" />
<path d="M 911.628,977.252 A 787.050,787.050 0.00 0,1 920.8,967.1 L 920.8,967.1 963.2,1005.2 1003.8,1039.9 1042.9,1071.6 1080.3,1100.4 1116.3,1126.5 1151.0,1150.3 1184.3,1171.8 1216.4,1191.2 1247.4,1208.8 1277.5,1224.6 1306.6,1238.8 1334.9,1251.6 1362.5,1263.1 1389.5,1273.3 1416.0,1282.4 1442.2,1290.4 1468.1,1297.5 1493.8,1303.6 1519.5,1308.9 1545.3,1313.3 1571.3,1316.9 1597.6,1319.7 1624.3,1321.7 1651.7,1322.8 1679.7,1323.0 1708.6,1322.4 1738.4,1320.8 1769.4,1318.2 1801.6,1314.5 1835.1,1309.5 1870.3,1303.3 1907.0,1295.7 1945.6,1286.5 1986.2,1275.7 2028.8,1263.0 2073.7,1248.3 2121.1,1231.5 2171.0,1212.3 2223.6,1190.5  A 787.050,787.050 0.00 0,1 2234.0,1215.8 L 2234.0,1215.8 2179.8,1236.1 2128.5,1253.9 2080.0,1269.4 2034.0,1282.9 1990.4,1294.4 1949.0,1304.2 1909.7,1312.5 1872.3,1319.2 1836.7,1324.6 1802.7,1328.8 1770.2,1331.9 1738.9,1333.9 1708.9,1335.0 1679.8,1335.1 1651.7,1334.4 1624.3,1332.9 1597.5,1330.6 1571.1,1327.5 1545.1,1323.6 1519.4,1319.0 1493.6,1313.5 1467.9,1307.2 1442.0,1300.0 1415.7,1291.8 1389.1,1282.6 1362.0,1272.4 1334.2,1260.9 1305.6,1248.1 1276.2,1233.8 1245.8,1218.0 1214.3,1200.5 1181.7,1181.1 1147.7,1159.7 1112.4,1136.0 1075.6,1110.0 1037.2,1081.3 997.1,1049.8 955.3,1015.2 911.6,977.3  Z" style="stroke-width: 2.0;  stroke: rgb(230,177,14); fill: rgb(242,205,0);" />
<path d="M 930.132,957.139 A 787.050,787.050 0.00 0,0 930.1,957.1 L 930.1,957.1 971.3,995.4 1010.9,1030.4 1049.0,1062.2 1085.6,1091.2 1120.8,1117.5 1154.7,1141.3 1187.5,1163.0 1219.1,1182.5 1249.7,1200.1 1279.3,1216.0 1308.1,1230.3 1336.2,1243.2 1363.5,1254.6 1390.4,1264.9 1416.8,1273.9 1442.8,1281.9 1468.6,1288.9 1494.3,1295.0 1519.9,1300.1 1545.7,1304.4 1571.6,1307.8 1597.8,1310.3 1624.5,1312.0 1651.7,1312.9 1679.6,1312.8 1708.4,1311.8 1738.0,1309.8 1768.7,1306.7 1800.5,1302.5 1833.7,1297.0 1868.4,1290.2 1904.6,1281.9 1942.6,1272.0 1982.4,1260.4 2024.2,1246.8 2068.2,1231.2 2114.5,1213.4 2163.3,1193.1 2214.6,1170.2  A 787.050,787.050 0.00 0,0 2208.8,1157.8 L 2208.8,1157.8 2158.1,1181.5 2109.9,1202.5 2064.2,1221.0 2020.6,1237.2 1979.2,1251.4 1939.7,1263.6 1902.1,1274.0 1866.1,1282.8 1831.7,1290.1 1798.7,1296.0 1767.0,1300.6 1736.5,1304.1 1706.9,1306.4 1678.3,1307.8 1650.4,1308.1 1623.3,1307.6 1596.6,1306.1 1570.4,1303.8 1544.5,1300.7 1518.7,1296.6 1493.1,1291.7 1467.4,1285.9 1441.6,1279.1 1415.6,1271.3 1389.2,1262.4 1362.3,1252.3 1334.9,1241.0 1306.9,1228.4 1278.1,1214.3 1248.5,1198.5 1218.0,1181.1 1186.5,1161.7 1153.8,1140.2 1120.0,1116.5 1084.9,1090.4 1048.4,1061.6 1010.5,1030.0 971.1,995.2 930.1,957.1  Z" style="stroke-width: 2.0;  stroke: rgb(230,177,14); fill: rgb(242,205,0);" />
<path d="M 939.644,947.326 A 787.050,787.050 0.00 0,1 959.2,928.2 L 959.2,928.2 996.7,966.8 1033.0,1002.1 1068.0,1034.2 1101.9,1063.5 1134.7,1090.1 1166.5,1114.2 1197.3,1136.0 1227.3,1155.6 1256.4,1173.4 1284.8,1189.3 1312.5,1203.6 1339.6,1216.4 1366.2,1227.8 1392.3,1237.8 1418.2,1246.7 1443.7,1254.3 1469.1,1260.9 1494.4,1266.5 1519.7,1271.1 1545.0,1274.7 1570.6,1277.4 1596.4,1279.1 1622.6,1279.8 1649.3,1279.6 1676.6,1278.3 1704.5,1276.0 1733.2,1272.5 1762.8,1267.8 1793.4,1261.8 1825.1,1254.4 1858.0,1245.5 1892.3,1235.0 1928.0,1222.6 1965.2,1208.4 2004.1,1192.0 2044.8,1173.4 2087.5,1152.3 2132.1,1128.6 2179.0,1102.0  A 787.050,787.050 0.00 0,1 2198.8,1137.9 L 2198.8,1137.9 2149.4,1162.7 2102.5,1184.7 2057.8,1204.1 2015.2,1221.2 1974.7,1236.2 1936.0,1249.1 1899.0,1260.2 1863.6,1269.7 1829.7,1277.5 1797.1,1284.0 1765.8,1289.1 1735.5,1293.0 1706.2,1295.8 1677.8,1297.5 1650.2,1298.2 1623.1,1297.9 1596.6,1296.8 1570.5,1294.7 1544.6,1291.7 1519.0,1287.8 1493.5,1283.0 1467.9,1277.3 1442.2,1270.6 1416.3,1262.8 1390.1,1254.0 1363.4,1243.9 1336.3,1232.6 1308.5,1219.9 1280.1,1205.8 1250.9,1190.0 1220.8,1172.4 1189.8,1152.9 1157.8,1131.4 1124.7,1107.5 1090.3,1081.3 1054.7,1052.3 1017.8,1020.5 979.5,985.6 939.6,947.3  Z" style="stroke-width: 2.0;  stroke: rgb(230,177,14); fill: rgb(242,205,0);" />
<path d="M 969.180,918.899 A 787.050,787.050 0.00 0,1 1010.8,883.5 L 1010.8,883.5 1043.0,922.9 1074.4,958.9 1104.9,991.8 1134.7,1021.7 1163.8,1049.0 1192.2,1073.7 1219.9,1096.1 1247.0,1116.4 1273.7,1134.6 1299.8,1151.0 1325.4,1165.7 1350.7,1178.7 1375.7,1190.3 1400.4,1200.5 1424.8,1209.3 1449.2,1217.0 1473.4,1223.4 1497.6,1228.7 1521.8,1232.9 1546.2,1236.0 1570.7,1238.1 1595.4,1239.0 1620.5,1238.9 1646.0,1237.7 1671.9,1235.3 1698.3,1231.6 1725.4,1226.7 1753.2,1220.4 1781.7,1212.7 1811.1,1203.4 1841.5,1192.5 1872.8,1179.7 1905.3,1165.0 1939.0,1148.2 1974.0,1129.2 2010.4,1107.7 2048.2,1083.6 2087.7,1056.6 2128.8,1026.6  A 787.050,787.050 0.00 0,1 2167.5,1082.9 L 2167.5,1082.9 2122.0,1110.5 2078.5,1135.1 2037.0,1157.0 1997.3,1176.4 1959.3,1193.5 1922.9,1208.5 1887.9,1221.4 1854.3,1232.6 1822.0,1242.0 1790.8,1249.9 1760.6,1256.4 1731.4,1261.5 1703.0,1265.4 1675.4,1268.1 1648.4,1269.7 1621.9,1270.2 1595.9,1269.7 1570.3,1268.2 1544.9,1265.8 1519.7,1262.3 1494.6,1257.9 1469.5,1252.4 1444.3,1245.9 1419.0,1238.3 1393.4,1229.5 1367.5,1219.5 1341.2,1208.1 1314.4,1195.3 1287.1,1181.0 1259.2,1165.0 1230.6,1147.2 1201.2,1127.4 1171.0,1105.5 1140.0,1081.3 1107.9,1054.7 1074.9,1025.3 1040.8,993.1 1005.6,957.7 969.2,918.9  Z" style="stroke-width: 2.0;  stroke: rgb(230,177,14); fill: rgb(242,205,0);" />
<path d="M 1021.566,875.061 A 787.050,787.050 0.00 0,0 1021.6,875.1 L 1021.6,875.1 1052.7,914.5 1083.1,950.6 1112.7,983.5 1141.7,1013.5 1169.9,1040.8 1197.6,1065.6 1224.6,1088.1 1251.2,1108.4 1277.2,1126.7 1302.8,1143.1 1328.0,1157.7 1352.9,1170.8 1377.4,1182.3 1401.7,1192.5 1425.8,1201.3 1449.8,1208.8 1473.7,1215.2 1497.6,1220.4 1521.6,1224.4 1545.6,1227.3 1569.8,1229.2 1594.2,1229.9 1619.0,1229.6 1644.1,1228.0 1669.6,1225.3 1695.6,1221.3 1722.3,1216.0 1749.5,1209.4 1777.5,1201.2 1806.3,1191.5 1836.0,1180.0 1866.6,1166.7 1898.3,1151.5 1931.1,1134.1 1965.2,1114.4 2000.5,1092.3 2037.2,1067.5 2075.4,1039.8 2115.1,1009.0  A 787.050,787.050 0.00 0,0 2106.5,998.4 L 2106.5,998.4 2067.5,1029.7 2030.0,1057.9 1993.9,1083.2 1959.1,1105.8 1925.6,1126.0 1893.2,1143.8 1861.9,1159.4 1831.7,1173.1 1802.3,1185.0 1773.8,1195.1 1746.1,1203.6 1719.1,1210.6 1692.7,1216.2 1666.8,1220.4 1641.5,1223.4 1616.5,1225.2 1591.9,1225.9 1567.6,1225.4 1543.5,1223.8 1519.6,1221.1 1495.8,1217.2 1472.0,1212.2 1448.1,1206.1 1424.2,1198.7 1400.2,1190.1 1376.0,1180.2 1351.5,1168.8 1326.7,1155.9 1301.6,1141.4 1276.1,1125.1 1250.2,1107.0 1223.8,1086.9 1196.8,1064.6 1169.3,1040.0 1141.1,1012.8 1112.3,983.0 1082.8,950.2 1052.6,914.3 1021.6,875.1  Z" style="stroke-width: 2.0;  stroke: rgb(230,177,14); fill: rgb(242,205,0);" />
<path d="M 1032.489,866.849 A 787.050,787.050 0.00 0,0 1032.5,866.8 L 1032.5,866.8 1062.3,906.0 1091.4,941.7 1119.9,974.4 1147.7,1004.1 1174.9,1031.1 1201.6,1055.6 1227.8,1077.8 1253.5,1097.8 1278.7,1115.8 1303.6,1131.9 1328.1,1146.3 1352.3,1159.0 1376.3,1170.2 1400.0,1179.9 1423.5,1188.3 1447.0,1195.4 1470.3,1201.3 1493.7,1205.9 1517.0,1209.4 1540.5,1211.7 1564.1,1212.9 1587.9,1213.0 1612.0,1211.8 1636.3,1209.5 1661.1,1205.9 1686.2,1201.0 1711.9,1194.7 1738.1,1187.0 1765.0,1177.8 1792.5,1166.9 1820.8,1154.2 1850.0,1139.7 1880.0,1123.1 1911.0,1104.3 1943.0,1083.1 1976.2,1059.5 2010.5,1033.1 2046.1,1003.7 2083.0,971.3  A 787.050,787.050 0.00 0,1 2092.1,981.5 L 2092.1,981.5 2054.4,1013.4 2018.2,1042.3 1983.2,1068.2 1949.5,1091.5 1917.0,1112.2 1885.5,1130.5 1855.1,1146.7 1825.6,1160.9 1796.9,1173.2 1769.0,1183.8 1741.9,1192.7 1715.4,1200.1 1689.5,1206.1 1664.1,1210.7 1639.2,1214.0 1614.6,1216.0 1590.4,1216.9 1566.5,1216.7 1542.7,1215.2 1519.1,1212.7 1495.7,1209.0 1472.2,1204.1 1448.7,1198.1 1425.2,1190.8 1401.6,1182.3 1377.7,1172.3 1353.7,1161.0 1329.4,1148.1 1304.8,1133.6 1279.8,1117.3 1254.5,1099.2 1228.7,1079.0 1202.4,1056.7 1175.6,1032.0 1148.2,1004.8 1120.3,974.9 1091.7,942.1 1062.4,906.1 1032.5,866.8  Z" style="stroke-width: 2.0;  stroke: rgb(230,177,14); fill: rgb(242,205,0);" />
<path d="M 1043.552,858.827 A 787.050,787.050 0.00 0,0 1043.6,858.8 L 1043.6,858.8 1072.3,898.0 1100.5,933.8 1128.0,966.4 1155.0,996.2 1181.5,1023.3 1207.4,1047.9 1232.9,1070.1 1257.9,1090.1 1282.6,1108.1 1306.9,1124.3 1330.9,1138.6 1354.6,1151.4 1378.1,1162.5 1401.4,1172.2 1424.5,1180.6 1447.5,1187.6 1470.5,1193.3 1493.4,1197.9 1516.4,1201.2 1539.5,1203.4 1562.7,1204.4 1586.1,1204.2 1609.7,1202.8 1633.6,1200.2 1657.9,1196.3 1682.6,1191.1 1707.7,1184.5 1733.4,1176.4 1759.6,1166.8 1786.5,1155.4 1814.1,1142.3 1842.4,1127.3 1871.6,1110.2 1901.7,1090.9 1932.7,1069.2 1964.8,1045.0 1997.9,1018.0 2032.2,988.1 2067.8,955.0  A 787.050,787.050 0.00 0,0 2058.2,945.2 L 2058.2,945.2 2023.4,978.7 1989.8,1009.1 1957.3,1036.5 1925.8,1061.2 1895.3,1083.3 1865.7,1103.0 1837.0,1120.4 1809.0,1135.8 1781.8,1149.3 1755.3,1160.9 1729.3,1170.9 1704.0,1179.3 1679.1,1186.2 1654.6,1191.7 1630.6,1195.8 1606.8,1198.7 1583.4,1200.3 1560.1,1200.7 1537.1,1200.0 1514.2,1198.0 1491.3,1194.9 1468.5,1190.5 1445.6,1185.0 1422.7,1178.1 1399.7,1170.0 1376.5,1160.4 1353.2,1149.4 1329.6,1136.9 1305.7,1122.7 1281.5,1106.7 1257.0,1088.8 1232.0,1068.9 1206.7,1046.9 1180.8,1022.5 1154.5,995.5 1127.6,965.9 1100.2,933.4 1072.2,897.8 1043.6,858.8  Z" style="stroke-width: 2.0;  stroke: rgb(230,177,14); fill: rgb(242,205,0);" />
<path d="M 1054.754,850.998 A 787.050,787.050 0.00 0,1 1089.1,828.7 L 1089.1,828.7 1113.9,867.8 1138.3,903.6 1162.3,936.4 1185.9,966.3 1209.2,993.5 1232.2,1018.2 1254.8,1040.5 1277.2,1060.6 1299.3,1078.7 1321.2,1094.9 1342.9,1109.2 1364.5,1121.9 1385.8,1132.9 1407.1,1142.5 1428.3,1150.5 1449.4,1157.2 1470.5,1162.6 1491.6,1166.6 1512.8,1169.4 1534.0,1170.9 1555.3,1171.1 1576.8,1170.1 1598.4,1167.8 1620.3,1164.2 1642.4,1159.1 1664.8,1152.7 1687.5,1144.8 1710.6,1135.3 1734.1,1124.1 1758.1,1111.2 1782.6,1096.4 1807.5,1079.7 1833.1,1060.8 1859.3,1039.6 1886.2,1015.9 1913.8,989.7 1942.2,960.6 1971.4,928.6 2001.4,893.4  A 787.050,787.050 0.00 0,1 2042.3,929.6 L 2042.3,929.6 2008.9,963.7 1976.5,994.6 1945.2,1022.6 1914.8,1047.8 1885.3,1070.3 1856.6,1090.5 1828.8,1108.4 1801.7,1124.3 1775.2,1138.2 1749.4,1150.2 1724.1,1160.6 1699.3,1169.3 1675.0,1176.5 1651.1,1182.3 1627.5,1186.8 1604.3,1189.9 1581.3,1191.7 1558.5,1192.4 1535.9,1191.8 1513.4,1190.0 1490.9,1187.0 1468.5,1182.8 1446.1,1177.3 1423.7,1170.5 1401.1,1162.4 1378.4,1152.9 1355.5,1141.9 1332.5,1129.4 1309.1,1115.2 1285.5,1099.2 1261.6,1081.3 1237.3,1061.4 1212.6,1039.2 1187.5,1014.8 1162.0,987.8 1136.0,958.2 1109.5,925.6 1082.4,890.0 1054.8,851.0  Z" style="stroke-width: 2.0;  stroke: rgb(230,177,14); fill: rgb(242,205,0);" />
<path d="M 1100.867,821.664 A 787.050,787.050 0.00 0,0 1100.9,821.7 L 1100.9,821.7 1124.6,860.6 1147.9,896.3 1171.0,928.9 1193.6,958.6 1216.0,985.7 1238.1,1010.3 1259.9,1032.5 1281.5,1052.5 1302.8,1070.5 1323.9,1086.5 1344.9,1100.7 1365.7,1113.2 1386.3,1124.1 1406.9,1133.5 1427.4,1141.3 1447.8,1147.8 1468.2,1152.9 1488.6,1156.6 1509.0,1159.1 1529.5,1160.2 1550.1,1160.1 1570.8,1158.7 1591.6,1155.9 1612.7,1151.8 1633.9,1146.3 1655.4,1139.4 1677.2,1130.9 1699.2,1120.8 1721.7,1109.1 1744.5,1095.5 1767.7,1080.1 1791.4,1062.6 1815.6,1043.0 1840.3,1021.1 1865.6,996.7 1891.5,969.7 1918.0,939.9 1945.2,907.1 1973.2,871.1  A 787.050,787.050 0.00 0,1 1984.1,879.4 L 1984.1,879.4 1955.3,915.1 1927.4,947.5 1900.2,977.0 1873.7,1003.7 1847.9,1027.7 1822.7,1049.4 1798.0,1068.7 1773.9,1085.8 1750.2,1101.0 1727.0,1114.2 1704.2,1125.7 1681.8,1135.5 1659.7,1143.7 1638.0,1150.5 1616.5,1155.7 1595.2,1159.6 1574.1,1162.1 1553.2,1163.4 1532.4,1163.3 1511.7,1161.9 1491.1,1159.3 1470.5,1155.4 1449.9,1150.1 1429.3,1143.5 1408.7,1135.5 1388.0,1126.0 1367.2,1115.0 1346.2,1102.3 1325.1,1088.0 1303.9,1071.8 1282.4,1053.7 1260.7,1033.5 1238.8,1011.2 1216.6,986.5 1194.1,959.3 1171.3,929.4 1148.2,896.6 1124.7,860.8 1100.9,821.7  Z" style="stroke-width: 2.0;  stroke: rgb(230,177,14); fill: rgb(242,205,0);" />
<path d="M 1112.705,814.836 A 787.050,787.050 0.00 0,1 1161.2,789.6 L 1161.2,789.6 1180.5,828.6 1199.6,864.4 1218.5,897.3 1237.3,927.3 1255.9,954.6 1274.4,979.4 1292.7,1002.0 1311.0,1022.3 1329.1,1040.5 1347.1,1056.7 1365.0,1071.1 1382.8,1083.8 1400.6,1094.8 1418.3,1104.1 1436.0,1112.0 1453.7,1118.3 1471.4,1123.2 1489.1,1126.8 1506.9,1128.9 1524.6,1129.6 1542.5,1129.0 1560.4,1127.0 1578.5,1123.6 1596.6,1118.8 1615.0,1112.5 1633.4,1104.7 1652.1,1095.2 1670.9,1084.1 1690.0,1071.3 1709.3,1056.6 1728.9,1040.0 1748.8,1021.3 1768.9,1000.5 1789.4,977.3 1810.3,951.6 1831.6,923.3 1853.2,892.2 1875.3,858.1 1897.8,820.9  A 787.050,787.050 0.00 0,1 1955.2,858.0 L 1955.2,858.0 1928.6,894.3 1902.6,927.5 1877.2,957.7 1852.5,985.1 1828.2,1009.9 1804.5,1032.1 1781.2,1052.1 1758.4,1069.9 1736.1,1085.7 1714.0,1099.6 1692.4,1111.7 1671.0,1122.0 1649.9,1130.8 1629.1,1138.0 1608.5,1143.7 1588.1,1148.1 1567.9,1151.0 1547.8,1152.6 1527.8,1152.9 1507.8,1151.9 1488.0,1149.6 1468.1,1145.9 1448.3,1140.9 1428.4,1134.5 1408.5,1126.7 1388.5,1117.4 1368.5,1106.5 1348.3,1094.0 1328.0,1079.8 1307.5,1063.8 1286.8,1045.8 1265.9,1025.8 1244.9,1003.5 1223.5,978.9 1202.0,951.8 1180.1,922.0 1158.0,889.4 1135.5,853.8 1112.7,814.8  Z" style="stroke-width: 2.0;  stroke: rgb(230,177,14); fill: rgb(242,205,0);" />
<path d="M 1173.573,783.834 A 787.050,787.050 0.00 0,1 1262.8,749.5 L 1262.8,749.5 1275.6,788.6 1288.4,824.5 1301.2,857.5 1314.0,887.8 1326.8,915.5 1339.5,940.7 1352.2,963.6 1364.9,984.2 1377.7,1002.8 1390.4,1019.4 1403.1,1034.2 1415.8,1047.1 1428.5,1058.2 1441.2,1067.7 1453.9,1075.6 1466.7,1082.0 1479.5,1086.8 1492.3,1090.1 1505.1,1091.9 1518.0,1092.3 1530.9,1091.2 1543.9,1088.6 1556.9,1084.5 1570.0,1078.9 1583.2,1071.8 1596.4,1063.0 1609.7,1052.5 1623.1,1040.4 1636.7,1026.4 1650.3,1010.6 1664.0,992.7 1677.9,972.8 1691.9,950.7 1706.0,926.2 1720.3,899.3 1734.8,869.8 1749.4,837.5 1764.2,802.4 1779.3,764.2  A 787.050,787.050 0.00 0,1 1878.5,809.9 L 1878.5,809.9 1857.2,847.4 1836.3,881.8 1815.8,913.1 1795.7,941.7 1775.9,967.7 1756.4,991.2 1737.2,1012.3 1718.3,1031.3 1699.6,1048.2 1681.2,1063.1 1662.9,1076.2 1644.9,1087.5 1627.0,1097.2 1609.3,1105.3 1591.7,1111.8 1574.3,1116.8 1556.9,1120.4 1539.7,1122.5 1522.5,1123.3 1505.4,1122.6 1488.3,1120.6 1471.3,1117.2 1454.2,1112.3 1437.2,1106.1 1420.2,1098.3 1403.1,1088.9 1386.0,1078.0 1368.8,1065.3 1351.6,1050.9 1334.3,1034.7 1317.0,1016.4 1299.5,996.1 1281.9,973.6 1264.2,948.7 1246.4,921.4 1228.4,891.4 1210.3,858.6 1192.0,822.8 1173.6,783.8  Z" style="stroke-width: 2.0;  stroke: rgb(230,177,14); fill: rgb(242,205,0);" />
<path d="M 1275.879,745.535 A 787.050,787.050 0.00 0,1 1289.0,741.8 L 1289.0,741.8 1300.3,780.6 1311.5,816.5 1322.7,849.4 1333.9,879.6 1345.0,907.3 1356.2,932.4 1367.3,955.3 1378.4,976.0 1389.5,994.5 1400.6,1011.1 1411.6,1025.8 1422.7,1038.6 1433.8,1049.7 1444.9,1059.2 1455.9,1067.0 1467.0,1073.2 1478.1,1077.8 1489.2,1081.0 1500.3,1082.6 1511.5,1082.8 1522.6,1081.5 1533.8,1078.6 1545.0,1074.3 1556.3,1068.4 1567.6,1060.9 1578.9,1051.8 1590.3,1041.0 1601.7,1028.5 1613.2,1014.1 1624.8,997.9 1636.4,979.6 1648.1,959.3 1659.9,936.7 1671.7,911.9 1683.6,884.6 1695.7,854.7 1707.8,822.1 1720.0,786.6 1732.4,748.0  A 787.050,787.050 0.00 0,1 1758.3,756.6 L 1758.3,756.6 1744.5,794.9 1730.9,830.2 1717.4,862.7 1704.0,892.3 1690.8,919.4 1677.7,944.1 1664.7,966.4 1651.8,986.5 1639.1,1004.5 1626.4,1020.6 1613.8,1034.7 1601.3,1047.0 1588.8,1057.6 1576.5,1066.6 1564.2,1073.9 1551.9,1079.6 1539.7,1083.8 1527.6,1086.5 1515.5,1087.7 1503.4,1087.4 1491.3,1085.7 1479.3,1082.4 1467.3,1077.7 1455.4,1071.4 1443.4,1063.5 1431.5,1054.0 1419.5,1042.9 1407.6,1030.0 1395.6,1015.3 1383.7,998.7 1371.8,980.1 1359.8,959.4 1347.9,936.5 1335.9,911.3 1323.9,883.7 1311.9,853.4 1299.9,820.4 1287.9,784.5 1275.9,745.5  Z" style="stroke-width: 2.0;  stroke: rgb(230,177,14); fill: rgb(242,205,0);" />
<path d="M 1302.210,738.208 A 787.050,787.050 0.00 0,1 1355.6,726.3 L 1355.6,726.3 1363.1,765.1 1370.6,800.9 1378.1,833.9 1385.5,864.2 1393.0,891.9 1400.4,917.2 1407.9,940.2 1415.3,960.9 1422.7,979.6 1430.1,996.3 1437.5,1011.1 1444.8,1024.0 1452.2,1035.2 1459.6,1044.7 1466.9,1052.5 1474.3,1058.7 1481.6,1063.3 1489.0,1066.4 1496.3,1067.9 1503.7,1067.9 1511.0,1066.4 1518.4,1063.3 1525.7,1058.7 1533.1,1052.5 1540.4,1044.7 1547.8,1035.2 1555.2,1024.0 1562.5,1011.1 1569.9,996.3 1577.3,979.6 1584.7,960.9 1592.1,940.2 1599.6,917.2 1607.0,891.9 1614.5,864.2 1621.9,833.9 1629.4,800.9 1636.9,765.1 1644.4,726.3  A 787.050,787.050 0.00 0,1 1711.0,741.8 L 1711.0,741.8 1699.8,780.4 1688.8,816.0 1677.8,848.8 1666.8,878.8 1656.0,906.2 1645.2,931.2 1634.4,953.9 1623.8,974.4 1613.1,992.8 1602.5,1009.2 1592.0,1023.7 1581.5,1036.3 1571.0,1047.3 1560.6,1056.5 1550.2,1064.1 1539.8,1070.1 1529.5,1074.5 1519.1,1077.5 1508.8,1078.9 1498.5,1078.8 1488.2,1077.2 1477.9,1074.1 1467.7,1069.5 1457.4,1063.3 1447.1,1055.5 1436.8,1046.1 1426.6,1035.0 1416.3,1022.1 1406.0,1007.5 1395.7,990.9 1385.4,972.3 1375.1,951.6 1364.7,928.8 1354.4,903.6 1344.0,876.0 1333.6,845.8 1323.1,812.8 1312.7,777.0 1302.2,738.2  Z" style="stroke-width: 2.0;  stroke: rgb(230,177,14); fill: rgb(242,205,0);" />
<path d="M 1369.009,723.927 A 787.050,787.050 0.00 0,1 1477.7,713.3 L 1477.7,713.3 1478.8,752.1 1479.9,788.0 1481.0,821.0 1482.0,851.4 1482.9,879.3 1483.9,904.8 1484.8,927.9 1485.6,948.9 1486.5,967.8 1487.3,984.7 1488.1,999.6 1488.8,1012.7 1489.6,1024.1 1490.3,1033.7 1490.9,1041.6 1491.6,1047.9 1492.2,1052.5 1492.9,1055.7 1493.4,1057.2 1494.0,1057.2 1494.6,1055.6 1495.1,1052.5 1495.6,1047.8 1496.1,1041.5 1496.5,1033.6 1497.0,1023.9 1497.4,1012.6 1497.8,999.5 1498.1,984.5 1498.5,967.6 1498.8,948.7 1499.0,927.7 1499.3,904.6 1499.5,879.1 1499.7,851.2 1499.8,820.8 1499.9,787.7 1500.0,751.8 1500.0,713.0  A 787.050,787.050 0.00 0,1 1622.5,722.5 L 1622.5,722.5 1616.1,761.4 1609.8,797.2 1603.4,830.3 1597.0,860.6 1590.6,888.4 1584.2,913.8 1577.9,936.8 1571.5,957.7 1565.1,976.5 1558.7,993.3 1552.3,1008.1 1545.9,1021.1 1539.4,1032.4 1533.0,1041.9 1526.6,1049.8 1520.2,1056.0 1513.7,1060.7 1507.3,1063.8 1500.9,1065.4 1494.4,1065.4 1487.9,1063.9 1481.5,1060.9 1475.0,1056.3 1468.5,1050.1 1462.0,1042.3 1455.4,1032.8 1448.9,1021.7 1442.4,1008.7 1435.8,993.9 1429.2,977.2 1422.6,958.5 1416.0,937.7 1409.3,914.7 1402.7,889.4 1396.0,861.7 1389.3,831.4 1382.6,798.5 1375.8,762.7 1369.0,723.9  Z" style="stroke-width: 2.0;  stroke: rgb(230,177,14); fill: rgb(242,205,0);" />
<path d="M 1314.935,2264.983 A 787.050,787.050 0.00 0,1 1301.7,2261.7 L 1301.7,2261.7 1311.4,2224.1 1320.4,2189.3 1328.7,2157.3 1336.2,2127.8 1343.1,2100.8 1349.3,2076.1 1354.9,2053.6 1359.9,2033.2 1364.4,2014.8 1368.3,1998.4 1371.7,1983.8 1374.7,1971.0 1377.1,1959.9 1379.1,1950.5 1380.7,1942.7 1381.8,1936.5 1382.5,1931.8 1382.8,1928.7 1382.6,1927.0 1382.1,1926.9 1381.1,1928.2 1379.7,1931.1 1377.9,1935.4 1375.7,1941.4 1373.1,1948.8 1370.0,1958.0 1366.4,1968.7 1362.4,1981.2 1357.8,1995.5 1352.8,2011.6 1347.2,2029.7 1341.1,2049.8 1334.4,2072.0 1327.1,2096.4 1319.1,2123.1 1310.5,2152.3 1301.2,2184.0 1291.1,2218.4 1280.2,2255.7  A 787.050,787.050 0.00 0,1 1267.1,2251.8 L 1267.1,2251.8 1278.7,2214.7 1289.4,2180.4 1299.4,2148.9 1308.7,2119.9 1317.4,2093.4 1325.4,2069.2 1332.7,2047.2 1339.5,2027.3 1345.8,2009.4 1351.5,1993.5 1356.7,1979.4 1361.4,1967.1 1365.6,1956.5 1369.4,1947.6 1372.8,1940.3 1375.6,1934.5 1378.1,1930.3 1380.2,1927.7 1381.8,1926.5 1383.0,1926.9 1383.9,1928.7 1384.3,1932.0 1384.2,1936.9 1383.8,1943.3 1382.9,1951.3 1381.6,1960.9 1379.8,1972.1 1377.5,1985.1 1374.8,1999.9 1371.5,2016.5 1367.7,2035.0 1363.4,2055.6 1358.5,2078.3 1352.9,2103.2 1346.7,2130.4 1339.9,2160.0 1332.3,2192.3 1324.0,2227.2 1314.9,2265.0  Z" style="stroke-width: 2.0;  stroke: rgb(230,177,14); fill: rgb(242,205,0);" />
<path d="M 1982.007,2122.187 A 787.050,787.050 0.00 0,1 1336.7,2269.9 L 1336.7,2269.9 1344.6,2231.8 1351.9,2196.6 1358.4,2164.1 1364.2,2134.2 1369.3,2106.7 1373.8,2081.6 1377.7,2058.6 1381.1,2037.8 1383.9,2019.0 1386.1,2002.2 1387.9,1987.2 1389.2,1973.9 1390.0,1962.4 1390.4,1952.6 1390.4,1944.4 1389.9,1937.7 1389.0,1932.7 1387.7,1929.1 1386.0,1927.0 1383.9,1926.4 1381.3,1927.4 1378.4,1929.8 1375.1,1933.8 1371.3,1939.3 1367.2,1946.3 1362.5,1955.0 1357.5,1965.4 1351.9,1977.5 1345.9,1991.3 1339.4,2007.1 1332.4,2024.7 1324.8,2044.4 1316.7,2066.2 1307.9,2090.2 1298.6,2116.5 1288.5,2145.3 1277.8,2176.7 1266.3,2210.7 1254.1,2247.7  A 787.050,787.050 0.00 0,1 775.8,1808.1 L 775.8,1808.1 826.0,1787.5 873.8,1769.5 919.1,1753.8 962.2,1740.4 1003.2,1728.9 1042.2,1719.4 1079.4,1711.5 1115.0,1705.2 1149.0,1700.3 1181.6,1696.8 1212.9,1694.5 1243.0,1693.4 1272.1,1693.4 1300.3,1694.4 1327.7,1696.3 1354.3,1699.2 1380.4,1703.0 1406.0,1707.7 1431.2,1713.2 1456.1,1719.7 1480.8,1727.2 1505.4,1735.5 1530.0,1744.9 1554.7,1755.4 1579.6,1767.1 1604.6,1780.0 1630.0,1794.2 1655.8,1809.9 1682.0,1827.1 1708.7,1846.1 1736.1,1866.9 1764.0,1889.7 1792.7,1914.8 1822.1,1942.2 1852.3,1972.1 1883.3,2004.9 1915.3,2040.7 1948.2,2079.7 1982.0,2122.2  Z" style="stroke-width: 2.0;  stroke: rgb(230,177,14); fill: rgb(242,205,0);" />
<path d="M 2267.464,1674.488 A 787.050,787.050 0.00 0,1 1999.4,2108.3 L 1999.4,2108.3 1963.9,2066.2 1929.6,2027.6 1896.3,1992.2 1864.0,1959.9 1832.7,1930.3 1802.3,1903.2 1772.7,1878.6 1743.9,1856.1 1715.9,1835.6 1688.5,1816.9 1661.8,1800.0 1635.5,1784.6 1609.7,1770.6 1584.3,1757.9 1559.1,1746.5 1534.1,1736.2 1509.3,1727.0 1484.5,1718.7 1459.5,1711.5 1434.4,1705.1 1409.1,1699.6 1383.3,1694.9 1357.1,1691.1 1330.2,1688.3 1302.7,1686.3 1274.3,1685.2 1244.9,1685.1 1214.5,1686.1 1182.9,1688.2 1149.9,1691.5 1115.5,1696.1 1079.5,1702.1 1041.7,1709.6 1002.1,1718.8 960.4,1729.9 916.6,1742.9 870.4,1758.0 821.8,1775.5 770.5,1795.5  A 787.050,787.050 0.00 0,1 738.9,1299.5 L 738.9,1299.5 813.4,1319.1 882.3,1337.2 946.0,1353.8 1004.6,1369.1 1058.5,1383.2 1108.1,1396.0 1153.6,1407.8 1195.3,1418.6 1233.5,1428.4 1268.6,1437.4 1300.8,1445.6 1330.4,1453.2 1357.7,1460.1 1383.1,1466.5 1406.8,1472.5 1429.1,1478.1 1450.4,1483.4 1471.0,1488.5 1491.0,1493.4 1511.0,1498.3 1531.1,1503.2 1551.6,1508.2 1573.0,1513.4 1595.4,1518.7 1619.2,1524.4 1644.6,1530.5 1672.1,1537.0 1701.8,1544.0 1734.1,1551.6 1769.4,1559.9 1807.8,1568.8 1849.7,1578.6 1895.5,1589.2 1945.4,1600.7 1999.7,1613.3 2058.8,1626.8 2122.9,1641.5 2192.4,1657.4 2267.5,1674.5  Z" style="stroke-width: 2.0;  stroke: rgb(230,177,14); fill: rgb(242,205,0);" />
<path d="M 2287.043,1503.348 A 787.050,787.050 0.00 0,1 2272.1,1652.7 L 2272.1,1652.7 2197.4,1637.9 2128.2,1624.0 2064.3,1611.1 2005.4,1599.1 1951.2,1588.0 1901.3,1577.7 1855.5,1568.1 1813.4,1559.3 1774.8,1551.1 1739.3,1543.5 1706.7,1536.5 1676.6,1529.9 1648.8,1523.8 1623.0,1518.0 1598.8,1512.6 1575.9,1507.4 1554.2,1502.4 1533.1,1497.5 1512.6,1492.6 1492.2,1487.7 1471.6,1482.7 1450.6,1477.6 1429.0,1472.2 1406.2,1466.5 1382.2,1460.4 1356.5,1453.8 1329.0,1446.6 1299.2,1438.9 1267.0,1430.4 1231.9,1421.1 1193.8,1410.9 1152.3,1399.7 1107.1,1387.4 1057.9,1374.0 1004.5,1359.4 946.6,1343.4 883.8,1325.9 815.9,1306.9 742.5,1286.3  A 787.050,787.050 0.00 0,1 790.8,1158.7 L 790.8,1158.7 853.5,1188.5 912.1,1215.7 967.0,1240.5 1018.2,1263.1 1066.1,1283.7 1110.8,1302.4 1152.6,1319.4 1191.6,1334.8 1228.1,1348.7 1262.2,1361.4 1294.3,1372.9 1324.5,1383.3 1353.1,1392.8 1380.2,1401.4 1406.2,1409.3 1431.2,1416.5 1455.4,1423.2 1479.2,1429.4 1502.6,1435.1 1526.0,1440.5 1549.6,1445.6 1573.7,1450.4 1598.4,1455.1 1624.0,1459.5 1650.8,1463.7 1679.0,1467.8 1708.9,1471.8 1740.6,1475.7 1774.4,1479.4 1810.7,1483.0 1849.6,1486.4 1891.4,1489.6 1936.4,1492.6 1984.8,1495.4 2036.8,1497.8 2092.8,1499.9 2153.0,1501.6 2217.7,1502.7 2287.0,1503.3  Z" style="stroke-width: 2.0;  stroke: rgb(230,177,14); fill: rgb(242,205,0);" />
<path d="M 2286.375,1467.416 A 787.050,787.050 0.00 0,1 2286.8,1481.1 L 2286.8,1481.1 2218.3,1482.4 2154.4,1482.9 2094.8,1482.8 2039.3,1482.1 1987.7,1480.9 1939.6,1479.2 1894.8,1477.2 1853.2,1474.8 1814.3,1472.2 1778.0,1469.3 1744.1,1466.1 1712.2,1462.7 1682.2,1459.2 1653.8,1455.4 1626.8,1451.4 1600.8,1447.2 1575.8,1442.8 1551.4,1438.1 1527.5,1433.1 1503.7,1427.8 1480.0,1422.1 1455.9,1415.9 1431.4,1409.2 1406.2,1401.9 1380.1,1393.9 1352.8,1385.2 1324.1,1375.5 1293.9,1365.0 1261.8,1353.3 1227.8,1340.4 1191.5,1326.2 1152.8,1310.5 1111.5,1293.2 1067.3,1274.2 1020.1,1253.2 969.7,1230.1 915.8,1204.7 858.2,1176.9 796.9,1146.4  A 787.050,787.050 0.00 0,0 796.9,1146.4 L 796.9,1146.4 858.0,1176.7 915.3,1204.4 969.0,1229.6 1019.3,1252.6 1066.4,1273.4 1110.4,1292.3 1151.7,1309.5 1190.4,1325.0 1226.6,1339.1 1260.7,1351.8 1292.8,1363.3 1323.1,1373.7 1351.9,1383.2 1379.3,1391.8 1405.5,1399.6 1430.9,1406.8 1455.6,1413.3 1479.7,1419.4 1503.7,1424.9 1527.6,1430.1 1551.7,1434.9 1576.2,1439.3 1601.4,1443.5 1627.4,1447.5 1654.6,1451.1 1683.1,1454.6 1713.2,1457.8 1745.1,1460.8 1779.1,1463.5 1815.4,1465.9 1854.2,1468.1 1895.9,1469.8 1940.5,1471.2 1988.5,1472.1 2040.0,1472.5 2095.3,1472.3 2154.6,1471.5 2218.2,1469.9 2286.4,1467.4  Z" style="stroke-width: 2.0;  stroke: rgb(230,177,14); fill: rgb(242,205,0);" />
<path d="M 2252.950,1270.841 A 787.050,787.050 0.00 0,1 2285.1,1445.2 L 2285.1,1445.2 2217.9,1449.5 2155.1,1452.8 2096.4,1455.1 2041.7,1456.6 1990.7,1457.4 1943.1,1457.6 1898.7,1457.2 1857.3,1456.2 1818.5,1454.9 1782.3,1453.1 1748.2,1450.9 1716.2,1448.4 1686.0,1445.6 1657.3,1442.5 1629.9,1439.1 1603.6,1435.4 1578.1,1431.4 1553.3,1427.1 1528.9,1422.4 1504.7,1417.3 1480.5,1411.8 1456.0,1405.8 1431.1,1399.3 1405.6,1392.1 1379.1,1384.2 1351.6,1375.5 1322.7,1365.9 1292.4,1355.3 1260.4,1343.6 1226.5,1330.6 1190.4,1316.3 1152.1,1300.5 1111.3,1283.1 1067.8,1263.8 1021.4,1242.6 971.9,1219.2 919.1,1193.5 862.9,1165.2 803.1,1134.2  A 787.050,787.050 0.00 0,1 893.8,998.0 L 893.8,998.0 940.2,1035.6 984.4,1069.9 1026.6,1101.1 1066.9,1129.6 1105.3,1155.5 1142.1,1178.9 1177.2,1200.2 1210.9,1219.5 1243.3,1237.0 1274.3,1252.8 1304.3,1267.1 1333.2,1279.9 1361.3,1291.5 1388.7,1301.9 1415.4,1311.3 1441.6,1319.7 1467.5,1327.2 1493.2,1333.9 1518.8,1339.8 1544.5,1344.9 1570.4,1349.4 1596.7,1353.1 1623.4,1356.2 1650.9,1358.6 1679.2,1360.3 1708.4,1361.2 1738.8,1361.3 1770.5,1360.6 1803.6,1359.0 1838.4,1356.5 1874.9,1352.8 1913.4,1348.0 1954.1,1342.0 1997.1,1334.5 2042.5,1325.5 2090.7,1314.7 2141.7,1302.2 2195.7,1287.6 2253.0,1270.8  Z" style="stroke-width: 2.0;  stroke: rgb(230,177,14); fill: rgb(242,205,0);" />
<path d="M 2241.704,1236.707 A 787.050,787.050 0.00 0,1 2246.2,1249.6 L 2246.2,1249.6 2190.1,1267.7 2137.2,1283.6 2087.2,1297.3 2039.9,1309.0 1995.1,1319.0 1952.8,1327.4 1912.7,1334.3 1874.6,1339.8 1838.4,1344.1 1803.9,1347.2 1771.0,1349.4 1739.5,1350.5 1709.2,1350.8 1680.1,1350.2 1651.8,1348.9 1624.4,1346.8 1597.6,1344.0 1571.3,1340.4 1545.3,1336.1 1519.6,1331.1 1493.9,1325.3 1468.2,1318.7 1442.3,1311.3 1416.1,1302.9 1389.4,1293.5 1362.2,1283.1 1334.2,1271.5 1305.5,1258.5 1275.8,1244.2 1245.0,1228.3 1213.1,1210.7 1179.9,1191.3 1145.3,1169.8 1109.2,1146.2 1071.5,1120.1 1032.1,1091.4 990.9,1060.0 947.8,1025.4 902.6,987.5  A 787.050,787.050 0.00 0,0 902.6,987.5 L 902.6,987.5 947.5,1025.2 990.5,1059.6 1031.5,1090.9 1070.8,1119.4 1108.3,1145.3 1144.3,1168.7 1178.9,1190.0 1212.0,1209.3 1243.9,1226.7 1274.6,1242.4 1304.3,1256.6 1333.1,1269.3 1361.1,1280.8 1388.3,1291.1 1415.0,1300.3 1441.3,1308.5 1467.3,1315.7 1493.0,1322.1 1518.7,1327.7 1544.5,1332.5 1570.5,1336.5 1596.8,1339.8 1623.7,1342.4 1651.1,1344.2 1679.3,1345.2 1708.5,1345.4 1738.7,1344.8 1770.1,1343.3 1802.9,1340.7 1837.3,1337.1 1873.3,1332.3 1911.1,1326.3 1951.0,1318.8 1993.0,1309.9 2037.4,1299.2 2084.3,1286.8 2133.9,1272.3 2186.3,1255.7 2241.7,1236.7  Z" style="stroke-width: 2.0;  stroke: rgb(230,177,14); fill: rgb(242,205,0);" />
<path d="M 2223.647,1190.512 A 787.050,787.050 0.00 0,1 2234.0,1215.8 L 2234.0,1215.8 2179.8,1236.1 2128.5,1253.9 2080.0,1269.4 2034.0,1282.9 1990.4,1294.4 1949.0,1304.2 1909.7,1312.5 1872.3,1319.2 1836.7,1324.6 1802.7,1328.8 1770.2,1331.9 1738.9,1333.9 1708.9,1335.0 1679.8,1335.1 1651.7,1334.4 1624.3,1332.9 1597.5,1330.6 1571.1,1327.5 1545.1,1323.6 1519.4,1319.0 1493.6,1313.5 1467.9,1307.2 1442.0,1300.0 1415.7,1291.8 1389.1,1282.6 1362.0,1272.4 1334.2,1260.9 1305.6,1248.1 1276.2,1233.8 1245.8,1218.0 1214.3,1200.5 1181.7,1181.1 1147.7,1159.7 1112.4,1136.0 1075.6,1110.0 1037.2,1081.3 997.1,1049.8 955.3,1015.2 911.6,977.3  A 787.050,787.050 0.00 0,1 920.8,967.1 L 920.8,967.1 963.2,1005.2 1003.8,1039.9 1042.9,1071.6 1080.3,1100.4 1116.3,1126.5 1151.0,1150.3 1184.3,1171.8 1216.4,1191.2 1247.4,1208.8 1277.5,1224.6 1306.6,1238.8 1334.9,1251.6 1362.5,1263.1 1389.5,1273.3 1416.0,1282.4 1442.2,1290.4 1468.1,1297.5 1493.8,1303.6 1519.5,1308.9 1545.3,1313.3 1571.3,1316.9 1597.6,1319.7 1624.3,1321.7 1651.7,1322.8 1679.7,1323.0 1708.6,1322.4 1738.4,1320.8 1769.4,1318.2 1801.6,1314.5 1835.1,1309.5 1870.3,1303.3 1907.0,1295.7 1945.6,1286.5 1986.2,1275.7 2028.8,1263.0 2073.7,1248.3 2121.1,1231.5 2171.0,1212.3 2223.6,1190.5  Z" style="stroke-width: 2.0;  stroke: rgb(230,177,14); fill: rgb(242,205,0);" />
<path d="M 2208.764,1157.800 A 787.050,787.050 0.00 0,1 2214.6,1170.2 L 2214.6,1170.2 2163.3,1193.1 2114.5,1213.4 2068.2,1231.2 2024.2,1246.8 1982.4,1260.4 1942.6,1272.0 1904.6,1281.9 1868.4,1290.2 1833.7,1297.0 1800.5,1302.5 1768.7,1306.7 1738.0,1309.8 1708.4,1311.8 1679.6,1312.8 1651.7,1312.9 1624.5,1312.0 1597.8,1310.3 1571.6,1307.8 1545.7,1304.4 1519.9,1300.1 1494.3,1295.0 1468.6,1288.9 1442.8,1281.9 1416.8,1273.9 1390.4,1264.9 1363.5,1254.6 1336.2,1243.2 1308.1,1230.3 1279.3,1216.0 1249.7,1200.1 1219.1,1182.5 1187.5,1163.0 1154.7,1141.3 1120.8,1117.5 1085.6,1091.2 1049.0,1062.2 1010.9,1030.4 971.3,995.4 930.1,957.1  A 787.050,787.050 0.00 0,0 930.1,957.1 L 930.1,957.1 971.1,995.2 1010.5,1030.0 1048.4,1061.6 1084.9,1090.4 1120.0,1116.5 1153.8,1140.2 1186.5,1161.7 1218.0,1181.1 1248.5,1198.5 1278.1,1214.3 1306.9,1228.4 1334.9,1241.0 1362.3,1252.3 1389.2,1262.4 1415.6,1271.3 1441.6,1279.1 1467.4,1285.9 1493.1,1291.7 1518.7,1296.6 1544.5,1300.7 1570.4,1303.8 1596.6,1306.1 1623.3,1307.6 1650.4,1308.1 1678.3,1307.8 1706.9,1306.4 1736.5,1304.1 1767.0,1300.6 1798.7,1296.0 1831.7,1290.1 1866.1,1282.8 1902.1,1274.0 1939.7,1263.6 1979.2,1251.4 2020.6,1237.2 2064.2,1221.0 2109.9,1202.5 2158.1,1181.5 2208.8,1157.8  Z" style="stroke-width: 2.0;  stroke: rgb(230,177,14); fill: rgb(242,205,0);" />
<path d="M 2178.994,1101.986 A 787.050,787.050 0.00 0,1 2198.8,1137.9 L 2198.8,1137.9 2149.4,1162.7 2102.5,1184.7 2057.8,1204.1 2015.2,1221.2 1974.7,1236.2 1936.0,1249.1 1899.0,1260.2 1863.6,1269.7 1829.7,1277.5 1797.1,1284.0 1765.8,1289.1 1735.5,1293.0 1706.2,1295.8 1677.8,1297.5 1650.2,1298.2 1623.1,1297.9 1596.6,1296.8 1570.5,1294.7 1544.6,1291.7 1519.0,1287.8 1493.5,1283.0 1467.9,1277.3 1442.2,1270.6 1416.3,1262.8 1390.1,1254.0 1363.4,1243.9 1336.3,1232.6 1308.5,1219.9 1280.1,1205.8 1250.9,1190.0 1220.8,1172.4 1189.8,1152.9 1157.8,1131.4 1124.7,1107.5 1090.3,1081.3 1054.7,1052.3 1017.8,1020.5 979.5,985.6 939.6,947.3  A 787.050,787.050 0.00 0,1 959.2,928.2 L 959.2,928.2 996.7,966.8 1033.0,1002.1 1068.0,1034.2 1101.9,1063.5 1134.7,1090.1 1166.5,1114.2 1197.3,1136.0 1227.3,1155.6 1256.4,1173.4 1284.8,1189.3 1312.5,1203.6 1339.6,1216.4 1366.2,1227.8 1392.3,1237.8 1418.2,1246.7 1443.7,1254.3 1469.1,1260.9 1494.4,1266.5 1519.7,1271.1 1545.0,1274.7 1570.6,1277.4 1596.4,1279.1 1622.6,1279.8 1649.3,1279.6 1676.6,1278.3 1704.5,1276.0 1733.2,1272.5 1762.8,1267.8 1793.4,1261.8 1825.1,1254.4 1858.0,1245.5 1892.3,1235.0 1928.0,1222.6 1965.2,1208.4 2004.1,1192.0 2044.8,1173.4 2087.5,1152.3 2132.1,1128.6 2179.0,1102.0  Z" style="stroke-width: 2.0;  stroke: rgb(230,177,14); fill: rgb(242,205,0);" />
<path d="M 2128.781,1026.627 A 787.050,787.050 0.00 0,1 2167.5,1082.9 L 2167.5,1082.9 2122.0,1110.5 2078.5,1135.1 2037.0,1157.0 1997.3,1176.4 1959.3,1193.5 1922.9,1208.5 1887.9,1221.4 1854.3,1232.6 1822.0,1242.0 1790.8,1249.9 1760.6,1256.4 1731.4,1261.5 1703.0,1265.4 1675.4,1268.1 1648.4,1269.7 1621.9,1270.2 1595.9,1269.7 1570.3,1268.2 1544.9,1265.8 1519.7,1262.3 1494.6,1257.9 1469.5,1252.4 1444.3,1245.9 1419.0,1238.3 1393.4,1229.5 1367.5,1219.5 1341.2,1208.1 1314.4,1195.3 1287.1,1181.0 1259.2,1165.0 1230.6,1147.2 1201.2,1127.4 1171.0,1105.5 1140.0,1081.3 1107.9,1054.7 1074.9,1025.3 1040.8,993.1 1005.6,957.7 969.2,918.9  A 787.050,787.050 0.00 0,1 1010.8,883.5 L 1010.8,883.5 1043.0,922.9 1074.4,958.9 1104.9,991.8 1134.7,1021.7 1163.8,1049.0 1192.2,1073.7 1219.9,1096.1 1247.0,1116.4 1273.7,1134.6 1299.8,1151.0 1325.4,1165.7 1350.7,1178.7 1375.7,1190.3 1400.4,1200.5 1424.8,1209.3 1449.2,1217.0 1473.4,1223.4 1497.6,1228.7 1521.8,1232.9 1546.2,1236.0 1570.7,1238.1 1595.4,1239.0 1620.5,1238.9 1646.0,1237.7 1671.9,1235.3 1698.3,1231.6 1725.4,1226.7 1753.2,1220.4 1781.7,1212.7 1811.1,1203.4 1841.5,1192.5 1872.8,1179.7 1905.3,1165.0 1939.0,1148.2 1974.0,1129.2 2010.4,1107.7 2048.2,1083.6 2087.7,1056.6 2128.8,1026.6  Z" style="stroke-width: 2.0;  stroke: rgb(230,177,14); fill: rgb(242,205,0);" />
<path d="M 2106.516,998.417 A 787.050,787.050 0.00 0,1 2115.1,1009.0 L 2115.1,1009.0 2075.4,1039.8 2037.2,1067.5 2000.5,1092.3 1965.2,1114.4 1931.1,1134.1 1898.3,1151.5 1866.6,1166.7 1836.0,1180.0 1806.3,1191.5 1777.5,1201.2 1749.5,1209.4 1722.3,1216.0 1695.6,1221.3 1669.6,1225.3 1644.1,1228.0 1619.0,1229.6 1594.2,1229.9 1569.8,1229.2 1545.6,1227.3 1521.6,1224.4 1497.6,1220.4 1473.7,1215.2 1449.8,1208.8 1425.8,1201.3 1401.7,1192.5 1377.4,1182.3 1352.9,1170.8 1328.0,1157.7 1302.8,1143.1 1277.2,1126.7 1251.2,1108.4 1224.6,1088.1 1197.6,1065.6 1169.9,1040.8 1141.7,1013.5 1112.7,983.5 1083.1,950.6 1052.7,914.5 1021.6,875.1  A 787.050,787.050 0.00 0,0 1021.6,875.1 L 1021.6,875.1 1052.6,914.3 1082.8,950.2 1112.3,983.0 1141.1,1012.8 1169.3,1040.0 1196.8,1064.6 1223.8,1086.9 1250.2,1107.0 1276.1,1125.1 1301.6,1141.4 1326.7,1155.9 1351.5,1168.8 1376.0,1180.2 1400.2,1190.1 1424.2,1198.7 1448.1,1206.1 1472.0,1212.2 1495.8,1217.2 1519.6,1221.1 1543.5,1223.8 1567.6,1225.4 1591.9,1225.9 1616.5,1225.2 1641.5,1223.4 1666.8,1220.4 1692.7,1216.2 1719.1,1210.6 1746.1,1203.6 1773.8,1195.1 1802.3,1185.0 1831.7,1173.1 1861.9,1159.4 1893.2,1143.8 1925.6,1126.0 1959.1,1105.8 1993.9,1083.2 2030.0,1057.9 2067.5,1029.7 2106.5,998.4  Z" style="stroke-width: 2.0;  stroke: rgb(230,177,14); fill: rgb(242,205,0);" />
<path d="M 2082.986,971.252 A 787.050,787.050 0.00 0,1 2092.1,981.5 L 2092.1,981.5 2054.4,1013.4 2018.2,1042.3 1983.2,1068.2 1949.5,1091.5 1917.0,1112.2 1885.5,1130.5 1855.1,1146.7 1825.6,1160.9 1796.9,1173.2 1769.0,1183.8 1741.9,1192.7 1715.4,1200.1 1689.5,1206.1 1664.1,1210.7 1639.2,1214.0 1614.6,1216.0 1590.4,1216.9 1566.5,1216.7 1542.7,1215.2 1519.1,1212.7 1495.7,1209.0 1472.2,1204.1 1448.7,1198.1 1425.2,1190.8 1401.6,1182.3 1377.7,1172.3 1353.7,1161.0 1329.4,1148.1 1304.8,1133.6 1279.8,1117.3 1254.5,1099.2 1228.7,1079.0 1202.4,1056.7 1175.6,1032.0 1148.2,1004.8 1120.3,974.9 1091.7,942.1 1062.4,906.1 1032.5,866.8  A 787.050,787.050 0.00 0,0 1032.5,866.8 L 1032.5,866.8 1062.3,906.0 1091.4,941.7 1119.9,974.4 1147.7,1004.1 1174.9,1031.1 1201.6,1055.6 1227.8,1077.8 1253.5,1097.8 1278.7,1115.8 1303.6,1131.9 1328.1,1146.3 1352.3,1159.0 1376.3,1170.2 1400.0,1179.9 1423.5,1188.3 1447.0,1195.4 1470.3,1201.3 1493.7,1205.9 1517.0,1209.4 1540.5,1211.7 1564.1,1212.9 1587.9,1213.0 1612.0,1211.8 1636.3,1209.5 1661.1,1205.9 1686.2,1201.0 1711.9,1194.7 1738.1,1187.0 1765.0,1177.8 1792.5,1166.9 1820.8,1154.2 1850.0,1139.7 1880.0,1123.1 1911.0,1104.3 1943.0,1083.1 1976.2,1059.5 2010.5,1033.1 2046.1,1003.7 2083.0,971.3  Z" style="stroke-width: 2.0;  stroke: rgb(230,177,14); fill: rgb(242,205,0);" />
<path d="M 2058.241,945.189 A 787.050,787.050 0.00 0,1 2067.8,955.0 L 2067.8,955.0 2032.2,988.1 1997.9,1018.0 1964.8,1045.0 1932.7,1069.2 1901.7,1090.9 1871.6,1110.2 1842.4,1127.3 1814.1,1142.3 1786.5,1155.4 1759.6,1166.8 1733.4,1176.4 1707.7,1184.5 1682.6,1191.1 1657.9,1196.3 1633.6,1200.2 1609.7,1202.8 1586.1,1204.2 1562.7,1204.4 1539.5,1203.4 1516.4,1201.2 1493.4,1197.9 1470.5,1193.3 1447.5,1187.6 1424.5,1180.6 1401.4,1172.2 1378.1,1162.5 1354.6,1151.4 1330.9,1138.6 1306.9,1124.3 1282.6,1108.1 1257.9,1090.1 1232.9,1070.1 1207.4,1047.9 1181.5,1023.3 1155.0,996.2 1128.0,966.4 1100.5,933.8 1072.3,898.0 1043.6,858.8  A 787.050,787.050 0.00 0,0 1043.6,858.8 L 1043.6,858.8 1072.2,897.8 1100.2,933.4 1127.6,965.9 1154.5,995.5 1180.8,1022.5 1206.7,1046.9 1232.0,1068.9 1257.0,1088.8 1281.5,1106.7 1305.7,1122.7 1329.6,1136.9 1353.2,1149.4 1376.5,1160.4 1399.7,1170.0 1422.7,1178.1 1445.6,1185.0 1468.5,1190.5 1491.3,1194.9 1514.2,1198.0 1537.1,1200.0 1560.1,1200.7 1583.4,1200.3 1606.8,1198.7 1630.6,1195.8 1654.6,1191.7 1679.1,1186.2 1704.0,1179.3 1729.3,1170.9 1755.3,1160.9 1781.8,1149.3 1809.0,1135.8 1837.0,1120.4 1865.7,1103.0 1895.3,1083.3 1925.8,1061.2 1957.3,1036.5 1989.8,1009.1 2023.4,978.7 2058.2,945.2  Z" style="stroke-width: 2.0;  stroke: rgb(230,177,14); fill: rgb(242,205,0);" />
<path d="M 2001.425,893.353 A 787.050,787.050 0.00 0,1 2042.3,929.6 L 2042.3,929.6 2008.9,963.7 1976.5,994.6 1945.2,1022.6 1914.8,1047.8 1885.3,1070.3 1856.6,1090.5 1828.8,1108.4 1801.7,1124.3 1775.2,1138.2 1749.4,1150.2 1724.1,1160.6 1699.3,1169.3 1675.0,1176.5 1651.1,1182.3 1627.5,1186.8 1604.3,1189.9 1581.3,1191.7 1558.5,1192.4 1535.9,1191.8 1513.4,1190.0 1490.9,1187.0 1468.5,1182.8 1446.1,1177.3 1423.7,1170.5 1401.1,1162.4 1378.4,1152.9 1355.5,1141.9 1332.5,1129.4 1309.1,1115.2 1285.5,1099.2 1261.6,1081.3 1237.3,1061.4 1212.6,1039.2 1187.5,1014.8 1162.0,987.8 1136.0,958.2 1109.5,925.6 1082.4,890.0 1054.8,851.0  A 787.050,787.050 0.00 0,1 1089.1,828.7 L 1089.1,828.7 1113.9,867.8 1138.3,903.6 1162.3,936.4 1185.9,966.3 1209.2,993.5 1232.2,1018.2 1254.8,1040.5 1277.2,1060.6 1299.3,1078.7 1321.2,1094.9 1342.9,1109.2 1364.5,1121.9 1385.8,1132.9 1407.1,1142.5 1428.3,1150.5 1449.4,1157.2 1470.5,1162.6 1491.6,1166.6 1512.8,1169.4 1534.0,1170.9 1555.3,1171.1 1576.8,1170.1 1598.4,1167.8 1620.3,1164.2 1642.4,1159.1 1664.8,1152.7 1687.5,1144.8 1710.6,1135.3 1734.1,1124.1 1758.1,1111.2 1782.6,1096.4 1807.5,1079.7 1833.1,1060.8 1859.3,1039.6 1886.2,1015.9 1913.8,989.7 1942.2,960.6 1971.4,928.6 2001.4,893.4  Z" style="stroke-width: 2.0;  stroke: rgb(230,177,14); fill: rgb(242,205,0);" />
<path d="M 1973.209,871.096 A 787.050,787.050 0.00 0,1 1984.1,879.4 L 1984.1,879.4 1955.3,915.1 1927.4,947.5 1900.2,977.0 1873.7,1003.7 1847.9,1027.7 1822.7,1049.4 1798.0,1068.7 1773.9,1085.8 1750.2,1101.0 1727.0,1114.2 1704.2,1125.7 1681.8,1135.5 1659.7,1143.7 1638.0,1150.5 1616.5,1155.7 1595.2,1159.6 1574.1,1162.1 1553.2,1163.4 1532.4,1163.3 1511.7,1161.9 1491.1,1159.3 1470.5,1155.4 1449.9,1150.1 1429.3,1143.5 1408.7,1135.5 1388.0,1126.0 1367.2,1115.0 1346.2,1102.3 1325.1,1088.0 1303.9,1071.8 1282.4,1053.7 1260.7,1033.5 1238.8,1011.2 1216.6,986.5 1194.1,959.3 1171.3,929.4 1148.2,896.6 1124.7,860.8 1100.9,821.7  A 787.050,787.050 0.00 0,0 1100.9,821.7 L 1100.9,821.7 1124.6,860.6 1147.9,896.3 1171.0,928.9 1193.6,958.6 1216.0,985.7 1238.1,1010.3 1259.9,1032.5 1281.5,1052.5 1302.8,1070.5 1323.9,1086.5 1344.9,1100.7 1365.7,1113.2 1386.3,1124.1 1406.9,1133.5 1427.4,1141.3 1447.8,1147.8 1468.2,1152.9 1488.6,1156.6 1509.0,1159.1 1529.5,1160.2 1550.1,1160.1 1570.8,1158.7 1591.6,1155.9 1612.7,1151.8 1633.9,1146.3 1655.4,1139.4 1677.2,1130.9 1699.2,1120.8 1721.7,1109.1 1744.5,1095.5 1767.7,1080.1 1791.4,1062.6 1815.6,1043.0 1840.3,1021.1 1865.6,996.7 1891.5,969.7 1918.0,939.9 1945.2,907.1 1973.2,871.1  Z" style="stroke-width: 2.0;  stroke: rgb(230,177,14); fill: rgb(242,205,0);" />
<path d="M 1897.837,820.902 A 787.050,787.050 0.00 0,1 1955.2,858.0 L 1955.2,858.0 1928.6,894.3 1902.6,927.5 1877.2,957.7 1852.5,985.1 1828.2,1009.9 1804.5,1032.1 1781.2,1052.1 1758.4,1069.9 1736.1,1085.7 1714.0,1099.6 1692.4,1111.7 1671.0,1122.0 1649.9,1130.8 1629.1,1138.0 1608.5,1143.7 1588.1,1148.1 1567.9,1151.0 1547.8,1152.6 1527.8,1152.9 1507.8,1151.9 1488.0,1149.6 1468.1,1145.9 1448.3,1140.9 1428.4,1134.5 1408.5,1126.7 1388.5,1117.4 1368.5,1106.5 1348.3,1094.0 1328.0,1079.8 1307.5,1063.8 1286.8,1045.8 1265.9,1025.8 1244.9,1003.5 1223.5,978.9 1202.0,951.8 1180.1,922.0 1158.0,889.4 1135.5,853.8 1112.7,814.8  A 787.050,787.050 0.00 0,1 1161.2,789.6 L 1161.2,789.6 1180.5,828.6 1199.6,864.4 1218.5,897.3 1237.3,927.3 1255.9,954.6 1274.4,979.4 1292.7,1002.0 1311.0,1022.3 1329.1,1040.5 1347.1,1056.7 1365.0,1071.1 1382.8,1083.8 1400.6,1094.8 1418.3,1104.1 1436.0,1112.0 1453.7,1118.3 1471.4,1123.2 1489.1,1126.8 1506.9,1128.9 1524.6,1129.6 1542.5,1129.0 1560.4,1127.0 1578.5,1123.6 1596.6,1118.8 1615.0,1112.5 1633.4,1104.7 1652.1,1095.2 1670.9,1084.1 1690.0,1071.3 1709.3,1056.6 1728.9,1040.0 1748.8,1021.3 1768.9,1000.5 1789.4,977.3 1810.3,951.6 1831.6,923.3 1853.2,892.2 1875.3,858.1 1897.8,820.9  Z" style="stroke-width: 2.0;  stroke: rgb(230,177,14); fill: rgb(242,205,0);" />
<path d="M 1779.264,764.161 A 787.050,787.050 0.00 0,1 1878.5,809.9 L 1878.5,809.9 1857.2,847.4 1836.3,881.8 1815.8,913.1 1795.7,941.7 1775.9,967.7 1756.4,991.2 1737.2,1012.3 1718.3,1031.3 1699.6,1048.2 1681.2,1063.1 1662.9,1076.2 1644.9,1087.5 1627.0,1097.2 1609.3,1105.3 1591.7,1111.8 1574.3,1116.8 1556.9,1120.4 1539.7,1122.5 1522.5,1123.3 1505.4,1122.6 1488.3,1120.6 1471.3,1117.2 1454.2,1112.3 1437.2,1106.1 1420.2,1098.3 1403.1,1088.9 1386.0,1078.0 1368.8,1065.3 1351.6,1050.9 1334.3,1034.7 1317.0,1016.4 1299.5,996.1 1281.9,973.6 1264.2,948.7 1246.4,921.4 1228.4,891.4 1210.3,858.6 1192.0,822.8 1173.6,783.8  A 787.050,787.050 0.00 0,1 1262.8,749.5 L 1262.8,749.5 1275.6,788.6 1288.4,824.5 1301.2,857.5 1314.0,887.8 1326.8,915.5 1339.5,940.7 1352.2,963.6 1364.9,984.2 1377.7,1002.8 1390.4,1019.4 1403.1,1034.2 1415.8,1047.1 1428.5,1058.2 1441.2,1067.7 1453.9,1075.6 1466.7,1082.0 1479.5,1086.8 1492.3,1090.1 1505.1,1091.9 1518.0,1092.3 1530.9,1091.2 1543.9,1088.6 1556.9,1084.5 1570.0,1078.9 1583.2,1071.8 1596.4,1063.0 1609.7,1052.5 1623.1,1040.4 1636.7,1026.4 1650.3,1010.6 1664.0,992.7 1677.9,972.8 1691.9,950.7 1706.0,926.2 1720.3,899.3 1734.8,869.8 1749.4,837.5 1764.2,802.4 1779.3,764.2  Z" style="stroke-width: 2.0;  stroke: rgb(230,177,14); fill: rgb(242,205,0);" />
<path d="M 1732.360,748.032 A 787.050,787.050 0.00 0,1 1758.3,756.6 L 1758.3,756.6 1744.5,794.9 1730.9,830.2 1717.4,862.7 1704.0,892.3 1690.8,919.4 1677.7,944.1 1664.7,966.4 1651.8,986.5 1639.1,1004.5 1626.4,1020.6 1613.8,1034.7 1601.3,1047.0 1588.8,1057.6 1576.5,1066.6 1564.2,1073.9 1551.9,1079.6 1539.7,1083.8 1527.6,1086.5 1515.5,1087.7 1503.4,1087.4 1491.3,1085.7 1479.3,1082.4 1467.3,1077.7 1455.4,1071.4 1443.4,1063.5 1431.5,1054.0 1419.5,1042.9 1407.6,1030.0 1395.6,1015.3 1383.7,998.7 1371.8,980.1 1359.8,959.4 1347.9,936.5 1335.9,911.3 1323.9,883.7 1311.9,853.4 1299.9,820.4 1287.9,784.5 1275.9,745.5  A 787.050,787.050 0.00 0,1 1289.0,741.8 L 1289.0,741.8 1300.3,780.6 1311.5,816.5 1322.7,849.4 1333.9,879.6 1345.0,907.3 1356.2,932.4 1367.3,955.3 1378.4,976.0 1389.5,994.5 1400.6,1011.1 1411.6,1025.8 1422.7,1038.6 1433.8,1049.7 1444.9,1059.2 1455.9,1067.0 1467.0,1073.2 1478.1,1077.8 1489.2,1081.0 1500.3,1082.6 1511.5,1082.8 1522.6,1081.5 1533.8,1078.6 1545.0,1074.3 1556.3,1068.4 1567.6,1060.9 1578.9,1051.8 1590.3,1041.0 1601.7,1028.5 1613.2,1014.1 1624.8,997.9 1636.4,979.6 1648.1,959.3 1659.9,936.7 1671.7,911.9 1683.6,884.6 1695.7,854.7 1707.8,822.1 1720.0,786.6 1732.4,748.0  Z" style="stroke-width: 2.0;  stroke: rgb(230,177,14); fill: rgb(242,205,0);" />
<path d="M 1644.446,726.319 A 787.050,787.050 0.00 0,1 1711.0,741.8 L 1711.0,741.8 1699.8,780.4 1688.8,816.0 1677.8,848.8 1666.8,878.8 1656.0,906.2 1645.2,931.2 1634.4,953.9 1623.8,974.4 1613.1,992.8 1602.5,1009.2 1592.0,1023.7 1581.5,1036.3 1571.0,1047.3 1560.6,1056.5 1550.2,1064.1 1539.8,1070.1 1529.5,1074.5 1519.1,1077.5 1508.8,1078.9 1498.5,1078.8 1488.2,1077.2 1477.9,1074.1 1467.7,1069.5 1457.4,1063.3 1447.1,1055.5 1436.8,1046.1 1426.6,1035.0 1416.3,1022.1 1406.0,1007.5 1395.7,990.9 1385.4,972.3 1375.1,951.6 1364.7,928.8 1354.4,903.6 1344.0,876.0 1333.6,845.8 1323.1,812.8 1312.7,777.0 1302.2,738.2  A 787.050,787.050 0.00 0,1 1355.6,726.3 L 1355.6,726.3 1363.1,765.1 1370.6,800.9 1378.1,833.9 1385.5,864.2 1393.0,891.9 1400.4,917.2 1407.9,940.2 1415.3,960.9 1422.7,979.6 1430.1,996.3 1437.5,1011.1 1444.8,1024.0 1452.2,1035.2 1459.6,1044.7 1466.9,1052.5 1474.3,1058.7 1481.6,1063.3 1489.0,1066.4 1496.3,1067.9 1503.7,1067.9 1511.0,1066.4 1518.4,1063.3 1525.7,1058.7 1533.1,1052.5 1540.4,1044.7 1547.8,1035.2 1555.2,1024.0 1562.5,1011.1 1569.9,996.3 1577.3,979.6 1584.7,960.9 1592.1,940.2 1599.6,917.2 1607.0,891.9 1614.5,864.2 1621.9,833.9 1629.4,800.9 1636.9,765.1 1644.4,726.3  Z" style="stroke-width: 2.0;  stroke: rgb(230,177,14); fill: rgb(242,205,0);" />
<path d="M 1500.000,712.950 A 787.050,787.050 0.00 0,1 1622.5,722.5 L 1622.5,722.5 1616.1,761.4 1609.8,797.2 1603.4,830.3 1597.0,860.6 1590.6,888.4 1584.2,913.8 1577.9,936.8 1571.5,957.7 1565.1,976.5 1558.7,993.3 1552.3,1008.1 1545.9,1021.1 1539.4,1032.4 1533.0,1041.9 1526.6,1049.8 1520.2,1056.0 1513.7,1060.7 1507.3,1063.8 1500.9,1065.4 1494.4,1065.4 1487.9,1063.9 1481.5,1060.9 1475.0,1056.3 1468.5,1050.1 1462.0,1042.3 1455.4,1032.8 1448.9,1021.7 1442.4,1008.7 1435.8,993.9 1429.2,977.2 1422.6,958.5 1416.0,937.7 1409.3,914.7 1402.7,889.4 1396.0,861.7 1389.3,831.4 1382.6,798.5 1375.8,762.7 1369.0,723.9  A 787.050,787.050 0.00 0,1 1477.7,713.3 L 1477.7,713.3 1478.8,752.1 1479.9,788.0 1481.0,821.0 1482.0,851.4 1482.9,879.3 1483.9,904.8 1484.8,927.9 1485.6,948.9 1486.5,967.8 1487.3,984.7 1488.1,999.6 1488.8,1012.7 1489.6,1024.1 1490.3,1033.7 1490.9,1041.6 1491.6,1047.9 1492.2,1052.5 1492.9,1055.7 1493.4,1057.2 1494.0,1057.2 1494.6,1055.6 1495.1,1052.5 1495.6,1047.8 1496.1,1041.5 1496.5,1033.6 1497.0,1023.9 1497.4,1012.6 1497.8,999.5 1498.1,984.5 1498.5,967.6 1498.8,948.7 1499.0,927.7 1499.3,904.6 1499.5,879.1 1499.7,851.2 1499.8,820.8 1499.9,787.7 1500.0,751.8 1500.0,713.0  Z" style="stroke-width: 2.0;  stroke: rgb(230,177,14); fill: rgb(242,205,0);" />
</g>
<g id="plot0">
<g id="plot0-axis">
</g>
</g>
<defs>
<pattern id="vline" width="10" height="10" patternTransform="rotate(0 0 0)" patternUnits="userSpaceOnUse"><line x1="0" y1="0" x2="0" y2="10" style="stroke:black;stroke-width:5" /></pattern>
<pattern id="hline" width="10" height="10" patternTransform="rotate(0 0 0)" patternUnits="userSpaceOnUse"><line x1="0" y1="0" x2="10" y2="0" style="stroke:black;stroke-width:5" /></pattern>
<pattern id="checker" width="10" height="10" patternTransform="rotate(45 0 0)" patternUnits="userSpaceOnUse"><line x1="0" y1="0" x2="10" y2="0" style="stroke:black;stroke-width:2" /><line x1="0" y1="0" x2="0" y2="10" style="stroke:black;stroke-width:2" /></pattern>
<pattern id="vline-sparse" width="10" height="10" patternTransform="rotate(0 0 0)" patternUnits="userSpaceOnUse"><line x1="0" y1="0" x2="0" y2="10" style="stroke:black;stroke-width:2" /></pattern>
<pattern id="hline-sparse" width="10" height="10" patternTransform="rotate(0 0 0)" patternUnits="userSpaceOnUse"><line x1="0" y1="0" x2="10" y2="0" style="stroke:black;stroke-width:2" /></pattern>
<pattern id="checker" width="10" height="10" patternTransform="rotate(45 0 0)" patternUnits="userSpaceOnUse"><line x1="0" y1="0" x2="10" y2="0" style="stroke:black;stroke-width:5" /><line x1="0" y1="0" x2="0" y2="10" style="stroke:black;stroke-width:4" /></pattern>
</defs>
</svg>
